<?xml version="1.0" encoding="us-ascii" standalone="no"?><svg xmlns="http://www.w3.org/2000/svg" xmlns:xlink="http://www.w3.org/1999/xlink" contentStyleType="text/css" height="1764.9px" preserveAspectRatio="none" style="width:2926px;height:1764px;background:#FFFFFF;" version="1.1" viewBox="0 0 2926 1764" width="2926.8px" zoomAndPan="magnify"><defs/><g><!--cluster View--><g id="cluster_View"><path d="M2502.45,636.7623 L2533.05,636.7623 A3.375,3.375 0 0 1 2535.3,639.0123 L2541.6,658.9213 L2648.25,658.9213 A2.25,2.25 0 0 1 2650.5,661.1713 L2650.5,756.9123 A2.25,2.25 0 0 1 2648.25,759.1623 L2502.45,759.1623 A2.25,2.25 0 0 1 2500.2,756.9123 L2500.2,639.0123 A2.25,2.25 0 0 1 2502.45,636.7623 " fill="none" style="stroke:#000000;stroke-width:1.35;"/><line style="stroke:#000000;stroke-width:1.35;" x1="2500.2" x2="2541.6" y1="658.9213" y2="658.9213"/><text fill="#000000" font-family="sans-serif" font-size="12.6" font-weight="bold" lengthAdjust="spacing" textLength="29.7" x="2503.8" y="652.159">View</text></g><!--cluster Controller--><g id="cluster_Controller"><path d="M2497.05,271.8123 L2561.85,271.8123 A3.375,3.375 0 0 1 2564.1,274.0623 L2570.4,293.9713 L2918.25,293.9713 A2.25,2.25 0 0 1 2920.5,296.2213 L2920.5,458.5623 A2.25,2.25 0 0 1 2918.25,460.8123 L2497.05,460.8123 A2.25,2.25 0 0 1 2494.8,458.5623 L2494.8,274.0623 A2.25,2.25 0 0 1 2497.05,271.8123 " fill="none" style="stroke:#000000;stroke-width:1.35;"/><line style="stroke:#000000;stroke-width:1.35;" x1="2494.8" x2="2570.4" y1="293.9713" y2="293.9713"/><text fill="#000000" font-family="sans-serif" font-size="12.6" font-weight="bold" lengthAdjust="spacing" textLength="63.9" x="2498.4" y="287.209">Controller</text></g><!--cluster Model--><g id="cluster_Model"><path d="M7.65,5.4123 L48.15,5.4123 A3.375,3.375 0 0 1 50.4,7.6623 L56.7,27.5713 L2452.05,27.5713 A2.25,2.25 0 0 1 2454.3,29.8213 L2454.3,1756.3623 A2.25,2.25 0 0 1 2452.05,1758.6123 L7.65,1758.6123 A2.25,2.25 0 0 1 5.4,1756.3623 L5.4,7.6623 A2.25,2.25 0 0 1 7.65,5.4123 " fill="none" style="stroke:#000000;stroke-width:1.35;"/><line style="stroke:#000000;stroke-width:1.35;" x1="5.4" x2="56.7" y1="27.5713" y2="27.5713"/><text fill="#000000" font-family="sans-serif" font-size="12.6" font-weight="bold" lengthAdjust="spacing" textLength="39.6" x="9" y="20.809">Model</text></g><!--cluster Lists--><g id="cluster_Lists"><path d="M1113.75,271.8123 L1144.35,271.8123 A3.375,3.375 0 0 1 1146.6,274.0623 L1152.9,293.9713 L2143.35,293.9713 A2.25,2.25 0 0 1 2145.6,296.2213 L2145.6,458.5623 A2.25,2.25 0 0 1 2143.35,460.8123 L1113.75,460.8123 A2.25,2.25 0 0 1 1111.5,458.5623 L1111.5,274.0623 A2.25,2.25 0 0 1 1113.75,271.8123 " fill="none" style="stroke:#000000;stroke-width:1.35;"/><line style="stroke:#000000;stroke-width:1.35;" x1="1111.5" x2="1152.9" y1="293.9713" y2="293.9713"/><text fill="#000000" font-family="sans-serif" font-size="12.6" font-weight="bold" lengthAdjust="spacing" textLength="29.7" x="1115.1" y="287.209">Lists</text></g><!--class MainView--><g id="elem_MainView"><rect codeLine="4" fill="#F1F1F1" height="59.959" id="MainView" rx="2.25" ry="2.25" style="stroke:#181818;stroke-width:0.45;" width="90" x="2538.9" y="677.2623"/><ellipse cx="2556.045" cy="691.6623" fill="#ADD1B2" rx="9.9" ry="9.9" style="stroke:#181818;stroke-width:0.9;"/><path d="M2558.5341,687.9498 Q2558.6747,687.7529 2558.8434,687.6545 Q2559.0122,687.5561 2559.2091,687.5561 Q2559.5466,687.5561 2559.7575,687.7951 Q2559.9684,688.0201 2559.9684,688.5686 L2559.9684,689.8764 Q2559.9684,690.4248 2559.7575,690.6639 Q2559.5466,690.9029 2559.2091,690.9029 Q2558.8997,690.9029 2558.7169,690.7201 Q2558.5341,690.5514 2558.4356,690.0873 Q2558.3934,689.7639 2558.2247,689.5951 Q2557.9294,689.2576 2557.3809,689.0607 Q2556.8325,688.8639 2556.27,688.8639 Q2555.5809,688.8639 2555.0044,689.1592 Q2554.4419,689.4545 2553.9919,690.1295 Q2553.5559,690.8045 2553.5559,691.7326 L2553.5559,692.717 Q2553.5559,693.8279 2554.3575,694.5732 Q2555.1591,695.3045 2556.5934,695.3045 Q2557.4372,695.3045 2558.0278,695.0795 Q2558.3794,694.9389 2558.7591,694.5451 Q2558.9981,694.3061 2559.1247,694.2357 Q2559.2653,694.1654 2559.4481,694.1654 Q2559.7434,694.1654 2559.9684,694.4045 Q2560.2075,694.6295 2560.2075,694.9389 Q2560.2075,695.2482 2559.8981,695.6139 Q2559.4481,696.1342 2558.7309,696.4295 Q2557.7606,696.8373 2556.5934,696.8373 Q2555.2294,696.8373 2554.1466,696.2748 Q2553.2606,695.8248 2552.6419,694.8686 Q2552.0231,693.8982 2552.0231,692.7451 L2552.0231,691.7045 Q2552.0231,690.5092 2552.5716,689.4826 Q2553.1341,688.442 2554.1184,687.8936 Q2555.1028,687.3311 2556.2138,687.3311 Q2556.8747,687.3311 2557.4513,687.4857 Q2558.0419,687.6264 2558.5341,687.9498 Z " fill="#000000"/><text fill="#000000" font-family="sans-serif" font-size="12.6" lengthAdjust="spacing" textLength="53.1" x="2569.455" y="696.8795">MainView</text><line style="stroke:#181818;stroke-width:0.45;" x1="2539.8" x2="2628" y1="706.0623" y2="706.0623"/><line style="stroke:#181818;stroke-width:0.45;" x1="2539.8" x2="2628" y1="713.2623" y2="713.2623"/><ellipse cx="2548.8" cy="726.5918" fill="#84BE84" rx="2.7" ry="2.7" style="stroke:#038048;stroke-width:0.9;"/><text fill="#000000" font-family="sans-serif" font-size="12.6" lengthAdjust="spacing" textLength="66.6" x="2556.9" y="730.459">main(): void</text></g><!--class OnlineStore--><g id="elem_OnlineStore"><rect codeLine="10" fill="#F1F1F1" height="59.959" id="OnlineStore" rx="2.25" ry="2.25" style="stroke:#181818;stroke-width:0.45;" width="162.9" x="2735.55" y="345.6123"/><ellipse cx="2779.425" cy="360.0123" fill="#ADD1B2" rx="9.9" ry="9.9" style="stroke:#181818;stroke-width:0.9;"/><path d="M2781.9141,356.2998 Q2782.0547,356.1029 2782.2234,356.0045 Q2782.3922,355.9061 2782.5891,355.9061 Q2782.9266,355.9061 2783.1375,356.1451 Q2783.3484,356.3701 2783.3484,356.9186 L2783.3484,358.2264 Q2783.3484,358.7748 2783.1375,359.0139 Q2782.9266,359.2529 2782.5891,359.2529 Q2782.2797,359.2529 2782.0969,359.0701 Q2781.9141,358.9014 2781.8156,358.4373 Q2781.7734,358.1139 2781.6047,357.9451 Q2781.3094,357.6076 2780.7609,357.4107 Q2780.2125,357.2139 2779.65,357.2139 Q2778.9609,357.2139 2778.3844,357.5092 Q2777.8219,357.8045 2777.3719,358.4795 Q2776.9359,359.1545 2776.9359,360.0826 L2776.9359,361.067 Q2776.9359,362.1779 2777.7375,362.9232 Q2778.5391,363.6545 2779.9734,363.6545 Q2780.8172,363.6545 2781.4078,363.4295 Q2781.7594,363.2889 2782.1391,362.8951 Q2782.3781,362.6561 2782.5047,362.5857 Q2782.6453,362.5154 2782.8281,362.5154 Q2783.1234,362.5154 2783.3484,362.7545 Q2783.5875,362.9795 2783.5875,363.2889 Q2783.5875,363.5982 2783.2781,363.9639 Q2782.8281,364.4842 2782.1109,364.7795 Q2781.1406,365.1873 2779.9734,365.1873 Q2778.6094,365.1873 2777.5266,364.6248 Q2776.6406,364.1748 2776.0219,363.2186 Q2775.4031,362.2482 2775.4031,361.0951 L2775.4031,360.0545 Q2775.4031,358.8592 2775.9516,357.8326 Q2776.5141,356.792 2777.4984,356.2436 Q2778.4828,355.6811 2779.5938,355.6811 Q2780.2547,355.6811 2780.8313,355.8357 Q2781.4219,355.9764 2781.9141,356.2998 Z " fill="#000000"/><text fill="#000000" font-family="sans-serif" font-size="12.6" lengthAdjust="spacing" textLength="67.5" x="2797.875" y="365.2295">OnlineStore</text><line style="stroke:#181818;stroke-width:0.45;" x1="2736.45" x2="2897.55" y1="374.4123" y2="374.4123"/><line style="stroke:#181818;stroke-width:0.45;" x1="2736.45" x2="2897.55" y1="381.6123" y2="381.6123"/><ellipse cx="2745.45" cy="394.9418" fill="#84BE84" rx="2.7" ry="2.7" style="stroke:#038048;stroke-width:0.9;"/><text fill="#000000" font-family="sans-serif" font-size="12.6" lengthAdjust="spacing" textLength="139.5" x="2753.55" y="398.809">main(args: String[]): void</text></g><!--class Controller--><g id="elem_Controller"><rect codeLine="14" fill="#F1F1F1" height="126.9949" id="Controller" rx="2.25" ry="2.25" style="stroke:#181818;stroke-width:0.45;" width="170.1" x="2533.95" y="312.3123"/><ellipse cx="2587.275" cy="326.7123" fill="#ADD1B2" rx="9.9" ry="9.9" style="stroke:#181818;stroke-width:0.9;"/><path d="M2589.7641,322.9998 Q2589.9047,322.8029 2590.0734,322.7045 Q2590.2422,322.6061 2590.4391,322.6061 Q2590.7766,322.6061 2590.9875,322.8451 Q2591.1984,323.0701 2591.1984,323.6186 L2591.1984,324.9264 Q2591.1984,325.4748 2590.9875,325.7139 Q2590.7766,325.9529 2590.4391,325.9529 Q2590.1297,325.9529 2589.9469,325.7701 Q2589.7641,325.6014 2589.6656,325.1373 Q2589.6234,324.8139 2589.4547,324.6451 Q2589.1594,324.3076 2588.6109,324.1107 Q2588.0625,323.9139 2587.5,323.9139 Q2586.8109,323.9139 2586.2344,324.2092 Q2585.6719,324.5045 2585.2219,325.1795 Q2584.7859,325.8545 2584.7859,326.7826 L2584.7859,327.767 Q2584.7859,328.8779 2585.5875,329.6232 Q2586.3891,330.3545 2587.8234,330.3545 Q2588.6672,330.3545 2589.2578,330.1295 Q2589.6094,329.9889 2589.9891,329.5951 Q2590.2281,329.3561 2590.3547,329.2857 Q2590.4953,329.2154 2590.6781,329.2154 Q2590.9734,329.2154 2591.1984,329.4545 Q2591.4375,329.6795 2591.4375,329.9889 Q2591.4375,330.2982 2591.1281,330.6639 Q2590.6781,331.1842 2589.9609,331.4795 Q2588.9906,331.8873 2587.8234,331.8873 Q2586.4594,331.8873 2585.3766,331.3248 Q2584.4906,330.8748 2583.8719,329.9186 Q2583.2531,328.9482 2583.2531,327.7951 L2583.2531,326.7545 Q2583.2531,325.5592 2583.8016,324.5326 Q2584.3641,323.492 2585.3484,322.9436 Q2586.3328,322.3811 2587.4438,322.3811 Q2588.1047,322.3811 2588.6813,322.5357 Q2589.2719,322.6764 2589.7641,322.9998 Z " fill="#000000"/><text fill="#000000" font-family="sans-serif" font-size="12.6" lengthAdjust="spacing" textLength="55.8" x="2605.725" y="331.9295">Controller</text><line style="stroke:#181818;stroke-width:0.45;" x1="2534.85" x2="2703.15" y1="341.1123" y2="341.1123"/><rect fill="none" height="5.4" style="stroke:#C82930;stroke-width:0.9;" width="5.4" x="2541.15" y="351.7418"/><text fill="#000000" font-family="sans-serif" font-size="12.6" lengthAdjust="spacing" textLength="59.4" x="2551.95" y="358.309">data: Data</text><line style="stroke:#181818;stroke-width:0.45;" x1="2534.85" x2="2703.15" y1="365.0713" y2="365.0713"/><ellipse cx="2543.85" cy="378.4008" fill="#84BE84" rx="2.7" ry="2.7" style="stroke:#038048;stroke-width:0.9;"/><text fill="#000000" font-family="sans-serif" font-size="12.6" lengthAdjust="spacing" textLength="124.2" x="2551.95" y="382.268">Controller(data: Data)</text><ellipse cx="2543.85" cy="395.1598" fill="#84BE84" rx="2.7" ry="2.7" style="stroke:#038048;stroke-width:0.9;"/><text fill="#000000" font-family="sans-serif" font-size="12.6" lengthAdjust="spacing" textLength="146.7" x="2551.95" y="399.027">manageCustomers(): void</text><ellipse cx="2543.85" cy="411.9188" fill="#84BE84" rx="2.7" ry="2.7" style="stroke:#038048;stroke-width:0.9;"/><text fill="#000000" font-family="sans-serif" font-size="12.6" lengthAdjust="spacing" textLength="115.2" x="2551.95" y="415.7859">manageItems(): void</text><ellipse cx="2543.85" cy="428.6777" fill="#84BE84" rx="2.7" ry="2.7" style="stroke:#038048;stroke-width:0.9;"/><text fill="#000000" font-family="sans-serif" font-size="12.6" lengthAdjust="spacing" textLength="125.1" x="2551.95" y="432.5449">manageOrders(): void</text></g><!--class Data--><g id="elem_Data"><rect codeLine="24" fill="#F1F1F1" height="160.5129" id="Data" rx="2.25" ry="2.25" style="stroke:#181818;stroke-width:0.45;" width="193.5" x="1021.95" y="45.9123"/><ellipse cx="1101.375" cy="60.3123" fill="#ADD1B2" rx="9.9" ry="9.9" style="stroke:#181818;stroke-width:0.9;"/><path d="M1103.8641,56.5998 Q1104.0047,56.4029 1104.1734,56.3045 Q1104.3422,56.2061 1104.5391,56.2061 Q1104.8766,56.2061 1105.0875,56.4451 Q1105.2984,56.6701 1105.2984,57.2186 L1105.2984,58.5264 Q1105.2984,59.0748 1105.0875,59.3139 Q1104.8766,59.5529 1104.5391,59.5529 Q1104.2297,59.5529 1104.0469,59.3701 Q1103.8641,59.2014 1103.7656,58.7373 Q1103.7234,58.4139 1103.5547,58.2451 Q1103.2594,57.9076 1102.7109,57.7107 Q1102.1625,57.5139 1101.6,57.5139 Q1100.9109,57.5139 1100.3344,57.8092 Q1099.7719,58.1045 1099.3219,58.7795 Q1098.8859,59.4545 1098.8859,60.3826 L1098.8859,61.367 Q1098.8859,62.4779 1099.6875,63.2232 Q1100.4891,63.9545 1101.9234,63.9545 Q1102.7672,63.9545 1103.3578,63.7295 Q1103.7094,63.5889 1104.0891,63.1951 Q1104.3281,62.9561 1104.4547,62.8857 Q1104.5953,62.8154 1104.7781,62.8154 Q1105.0734,62.8154 1105.2984,63.0545 Q1105.5375,63.2795 1105.5375,63.5889 Q1105.5375,63.8982 1105.2281,64.2639 Q1104.7781,64.7842 1104.0609,65.0795 Q1103.0906,65.4873 1101.9234,65.4873 Q1100.5594,65.4873 1099.4766,64.9248 Q1098.5906,64.4748 1097.9719,63.5186 Q1097.3531,62.5482 1097.3531,61.3951 L1097.3531,60.3545 Q1097.3531,59.1592 1097.9016,58.1326 Q1098.4641,57.092 1099.4484,56.5436 Q1100.4328,55.9811 1101.5438,55.9811 Q1102.2047,55.9811 1102.7813,56.1357 Q1103.3719,56.2764 1103.8641,56.5998 Z " fill="#000000"/><text fill="#000000" font-family="sans-serif" font-size="12.6" lengthAdjust="spacing" textLength="27" x="1119.825" y="65.5295">Data</text><line style="stroke:#181818;stroke-width:0.45;" x1="1022.85" x2="1214.55" y1="74.7123" y2="74.7123"/><rect fill="none" height="5.4" style="stroke:#C82930;stroke-width:0.9;" width="5.4" x="1029.15" y="85.3418"/><text fill="#000000" font-family="sans-serif" font-size="12.6" lengthAdjust="spacing" textLength="140.4" x="1039.95" y="91.909">customers: CustomerList</text><rect fill="none" height="5.4" style="stroke:#C82930;stroke-width:0.9;" width="5.4" x="1029.15" y="102.1008"/><text fill="#000000" font-family="sans-serif" font-size="12.6" lengthAdjust="spacing" textLength="97.2" x="1039.95" y="108.668">orders: OrderList</text><rect fill="none" height="5.4" style="stroke:#C82930;stroke-width:0.9;" width="5.4" x="1029.15" y="118.8598"/><text fill="#000000" font-family="sans-serif" font-size="12.6" lengthAdjust="spacing" textLength="80.1" x="1039.95" y="125.427">items: ItemList</text><line style="stroke:#181818;stroke-width:0.45;" x1="1022.85" x2="1214.55" y1="132.1893" y2="132.1893"/><ellipse cx="1031.85" cy="145.5188" fill="#84BE84" rx="2.7" ry="2.7" style="stroke:#038048;stroke-width:0.9;"/><text fill="#000000" font-family="sans-serif" font-size="12.6" lengthAdjust="spacing" textLength="36" x="1039.95" y="149.3859">Data()</text><ellipse cx="1031.85" cy="162.2777" fill="#84BE84" rx="2.7" ry="2.7" style="stroke:#038048;stroke-width:0.9;"/><text fill="#000000" font-family="sans-serif" font-size="12.6" lengthAdjust="spacing" textLength="170.1" x="1039.95" y="166.1449">getCustomers(): CustomerList</text><ellipse cx="1031.85" cy="179.0367" fill="#84BE84" rx="2.7" ry="2.7" style="stroke:#038048;stroke-width:0.9;"/><text fill="#000000" font-family="sans-serif" font-size="12.6" lengthAdjust="spacing" textLength="126.9" x="1039.95" y="182.9039">getOrders(): OrderList</text><ellipse cx="1031.85" cy="195.7957" fill="#84BE84" rx="2.7" ry="2.7" style="stroke:#038048;stroke-width:0.9;"/><text fill="#000000" font-family="sans-serif" font-size="12.6" lengthAdjust="spacing" textLength="107.1" x="1039.95" y="199.6629">getItems(): ItemList</text></g><!--class Customer--><g id="elem_Customer"><rect codeLine="59" fill="#F1F1F1" height="361.6207" id="Customer" rx="2.25" ry="2.25" style="stroke:#181818;stroke-width:0.45;" width="711.9" x="700.65" y="526.5123"/><ellipse cx="1025.325" cy="540.9123" fill="#A9DCDF" rx="9.9" ry="9.9" style="stroke:#181818;stroke-width:0.9;"/><path d="M1027.2938,542.5014 L1023.5672,542.5014 L1023.1875,543.4295 L1023.5672,543.4295 Q1024.1156,543.4295 1024.3547,543.6404 Q1024.5938,543.8514 1024.5938,544.2029 Q1024.5938,544.5404 1024.3547,544.7514 Q1024.1156,544.9623 1023.5672,544.9623 L1021.5,544.9623 Q1020.9516,544.9623 1020.7266,544.7514 Q1020.4875,544.5404 1020.4875,544.1889 Q1020.4875,543.8514 1020.7406,543.6404 Q1020.9797,543.4154 1021.5422,543.4295 L1023.9469,537.4389 L1022.9484,537.4389 Q1022.4,537.4389 1022.1609,537.2279 Q1021.9219,537.017 1021.9219,536.6654 Q1021.9219,536.3279 1022.1609,536.117 Q1022.4,535.9061 1022.9484,535.9061 L1026.2531,535.9061 L1029.3047,543.4295 Q1029.8391,543.4295 1030.0078,543.5561 Q1030.3594,543.7951 1030.3594,544.2029 Q1030.3594,544.5404 1030.1203,544.7514 Q1029.8953,544.9623 1029.3469,544.9623 L1027.2797,544.9623 Q1026.7313,544.9623 1026.4922,544.7514 Q1026.2531,544.5404 1026.2531,544.1889 Q1026.2531,543.8514 1026.4922,543.6404 Q1026.7313,543.4295 1027.2797,543.4295 L1027.6594,543.4295 L1027.2938,542.5014 Z M1026.6469,540.9686 L1025.4234,537.9311 L1024.1859,540.9686 L1026.6469,540.9686 Z " fill="#000000"/><text fill="#000000" font-family="sans-serif" font-size="12.6" font-style="italic" lengthAdjust="spacing" textLength="54.9" x="1043.775" y="546.1295">Customer</text><line style="stroke:#181818;stroke-width:0.45;" x1="701.55" x2="1411.65" y1="555.3123" y2="555.3123"/><rect fill="none" height="5.4" style="stroke:#C82930;stroke-width:0.9;" width="5.4" x="707.85" y="565.9418"/><text fill="#000000" font-family="sans-serif" font-size="12.6" lengthAdjust="spacing" textLength="72" x="718.65" y="572.509">name: String</text><rect fill="none" height="5.4" style="stroke:#C82930;stroke-width:0.9;" width="5.4" x="707.85" y="582.7008"/><text fill="#000000" font-family="sans-serif" font-size="12.6" lengthAdjust="spacing" textLength="86.4" x="718.65" y="589.268">address: String</text><rect fill="none" height="5.4" style="stroke:#C82930;stroke-width:0.9;" width="5.4" x="707.85" y="599.4598"/><text fill="#000000" font-family="sans-serif" font-size="12.6" lengthAdjust="spacing" textLength="50.4" x="718.65" y="606.027">id: String</text><rect fill="none" height="5.4" style="stroke:#C82930;stroke-width:0.9;" width="5.4" x="707.85" y="616.2188"/><text fill="#000000" font-family="sans-serif" font-size="12.6" lengthAdjust="spacing" textLength="70.2" x="718.65" y="622.7859">email: String</text><rect fill="none" height="5.4" style="stroke:#C82930;stroke-width:0.9;" width="5.4" x="707.85" y="632.9777"/><text fill="#000000" font-family="sans-serif" font-size="12.6" lengthAdjust="spacing" textLength="137.7" x="718.65" y="639.5449">membershipFee: double</text><rect fill="none" height="5.4" style="stroke:#C82930;stroke-width:0.9;" width="5.4" x="707.85" y="649.7367"/><text fill="#000000" font-family="sans-serif" font-size="12.6" lengthAdjust="spacing" textLength="171.9" x="718.65" y="656.3039">customerType: CustomerType</text><line style="stroke:#181818;stroke-width:0.45;" x1="701.55" x2="1411.65" y1="663.0662" y2="663.0662"/><ellipse cx="710.55" cy="676.3957" fill="#84BE84" rx="2.7" ry="2.7" style="stroke:#038048;stroke-width:0.9;"/><text fill="#000000" font-family="sans-serif" font-size="12.6" lengthAdjust="spacing" textLength="688.5" x="718.65" y="680.2629">Customer(name: String, address: String, id: String, email: String, membershipFee: double, customerType: CustomerType)</text><ellipse cx="710.55" cy="693.1547" fill="#84BE84" rx="2.7" ry="2.7" style="stroke:#038048;stroke-width:0.9;"/><text fill="#000000" font-family="sans-serif" font-size="12.6" lengthAdjust="spacing" textLength="99.9" x="718.65" y="697.0219">getName(): String</text><ellipse cx="710.55" cy="709.9137" fill="#84BE84" rx="2.7" ry="2.7" style="stroke:#038048;stroke-width:0.9;"/><text fill="#000000" font-family="sans-serif" font-size="12.6" lengthAdjust="spacing" textLength="161.1" x="718.65" y="713.7809">setName(name: String): void</text><ellipse cx="710.55" cy="726.6727" fill="#84BE84" rx="2.7" ry="2.7" style="stroke:#038048;stroke-width:0.9;"/><text fill="#000000" font-family="sans-serif" font-size="12.6" lengthAdjust="spacing" textLength="114.3" x="718.65" y="730.5398">getAddress(): String</text><ellipse cx="710.55" cy="743.4316" fill="#84BE84" rx="2.7" ry="2.7" style="stroke:#038048;stroke-width:0.9;"/><text fill="#000000" font-family="sans-serif" font-size="12.6" lengthAdjust="spacing" textLength="189.9" x="718.65" y="747.2988">setAddress(address: String): void</text><ellipse cx="710.55" cy="760.1906" fill="#84BE84" rx="2.7" ry="2.7" style="stroke:#038048;stroke-width:0.9;"/><text fill="#000000" font-family="sans-serif" font-size="12.6" lengthAdjust="spacing" textLength="77.4" x="718.65" y="764.0578">getId(): String</text><ellipse cx="710.55" cy="776.9496" fill="#84BE84" rx="2.7" ry="2.7" style="stroke:#038048;stroke-width:0.9;"/><text fill="#000000" font-family="sans-serif" font-size="12.6" lengthAdjust="spacing" textLength="117" x="718.65" y="780.8168">setId(id: String): void</text><ellipse cx="710.55" cy="793.7086" fill="#84BE84" rx="2.7" ry="2.7" style="stroke:#038048;stroke-width:0.9;"/><text fill="#000000" font-family="sans-serif" font-size="12.6" lengthAdjust="spacing" textLength="98.1" x="718.65" y="797.5758">getEmail(): String</text><ellipse cx="710.55" cy="810.4676" fill="#84BE84" rx="2.7" ry="2.7" style="stroke:#038048;stroke-width:0.9;"/><text fill="#000000" font-family="sans-serif" font-size="12.6" lengthAdjust="spacing" textLength="157.5" x="718.65" y="814.3348">setEmail(email: String): void</text><ellipse cx="710.55" cy="827.2266" fill="#84BE84" rx="2.7" ry="2.7" style="stroke:#038048;stroke-width:0.9;"/><text fill="#000000" font-family="sans-serif" font-size="12.6" lengthAdjust="spacing" textLength="164.7" x="718.65" y="831.0938">getMembershipFee(): double</text><ellipse cx="710.55" cy="843.9855" fill="#84BE84" rx="2.7" ry="2.7" style="stroke:#038048;stroke-width:0.9;"/><text fill="#000000" font-family="sans-serif" font-size="12.6" lengthAdjust="spacing" textLength="286.2" x="718.65" y="847.8527">setMembershipFee(membershipFee: double): void</text><ellipse cx="710.55" cy="860.7445" fill="#84BE84" rx="2.7" ry="2.7" style="stroke:#038048;stroke-width:0.9;"/><text fill="#000000" font-family="sans-serif" font-size="12.6" lengthAdjust="spacing" textLength="201.6" x="718.65" y="864.6117">getCustomerType(): CustomerType</text><ellipse cx="710.55" cy="877.5035" fill="#84BE84" rx="2.7" ry="2.7" style="stroke:#038048;stroke-width:0.9;"/><text fill="#000000" font-family="sans-serif" font-size="12.6" lengthAdjust="spacing" textLength="312.3" x="718.65" y="881.3707">setCustomerType(customerType: CustomerType): void</text></g><!--class StandardCustomer--><g id="elem_StandardCustomer"><rect codeLine="81" fill="#F1F1F1" height="59.959" id="StandardCustomer" rx="2.25" ry="2.25" style="stroke:#181818;stroke-width:0.45;" width="440.1" x="646.65" y="345.6123"/><ellipse cx="809.325" cy="360.0123" fill="#ADD1B2" rx="9.9" ry="9.9" style="stroke:#181818;stroke-width:0.9;"/><path d="M811.8141,356.2998 Q811.9547,356.1029 812.1234,356.0045 Q812.2922,355.9061 812.4891,355.9061 Q812.8266,355.9061 813.0375,356.1451 Q813.2484,356.3701 813.2484,356.9186 L813.2484,358.2264 Q813.2484,358.7748 813.0375,359.0139 Q812.8266,359.2529 812.4891,359.2529 Q812.1797,359.2529 811.9969,359.0701 Q811.8141,358.9014 811.7156,358.4373 Q811.6734,358.1139 811.5047,357.9451 Q811.2094,357.6076 810.6609,357.4107 Q810.1125,357.2139 809.55,357.2139 Q808.8609,357.2139 808.2844,357.5092 Q807.7219,357.8045 807.2719,358.4795 Q806.8359,359.1545 806.8359,360.0826 L806.8359,361.067 Q806.8359,362.1779 807.6375,362.9232 Q808.4391,363.6545 809.8734,363.6545 Q810.7172,363.6545 811.3078,363.4295 Q811.6594,363.2889 812.0391,362.8951 Q812.2781,362.6561 812.4047,362.5857 Q812.5453,362.5154 812.7281,362.5154 Q813.0234,362.5154 813.2484,362.7545 Q813.4875,362.9795 813.4875,363.2889 Q813.4875,363.5982 813.1781,363.9639 Q812.7281,364.4842 812.0109,364.7795 Q811.0406,365.1873 809.8734,365.1873 Q808.5094,365.1873 807.4266,364.6248 Q806.5406,364.1748 805.9219,363.2186 Q805.3031,362.2482 805.3031,361.0951 L805.3031,360.0545 Q805.3031,358.8592 805.8516,357.8326 Q806.4141,356.792 807.3984,356.2436 Q808.3828,355.6811 809.4938,355.6811 Q810.1547,355.6811 810.7313,355.8357 Q811.3219,355.9764 811.8141,356.2998 Z " fill="#000000"/><text fill="#000000" font-family="sans-serif" font-size="12.6" lengthAdjust="spacing" textLength="107.1" x="827.775" y="365.2295">StandardCustomer</text><line style="stroke:#181818;stroke-width:0.45;" x1="647.55" x2="1085.85" y1="374.4123" y2="374.4123"/><line style="stroke:#181818;stroke-width:0.45;" x1="647.55" x2="1085.85" y1="381.6123" y2="381.6123"/><ellipse cx="656.55" cy="394.9418" fill="#84BE84" rx="2.7" ry="2.7" style="stroke:#038048;stroke-width:0.9;"/><text fill="#000000" font-family="sans-serif" font-size="12.6" lengthAdjust="spacing" textLength="416.7" x="664.65" y="398.809">StandardCustomer(name: String, address: String, id: String, email: String)</text></g><!--class PremiumCustomer--><g id="elem_PremiumCustomer"><rect codeLine="85" fill="#F1F1F1" height="110.2359" id="PremiumCustomer" rx="2.25" ry="2.25" style="stroke:#181818;stroke-width:0.45;" width="587.7" x="27.45" y="320.8623"/><ellipse cx="265.275" cy="335.2623" fill="#ADD1B2" rx="9.9" ry="9.9" style="stroke:#181818;stroke-width:0.9;"/><path d="M267.7641,331.5498 Q267.9047,331.3529 268.0734,331.2545 Q268.2422,331.1561 268.4391,331.1561 Q268.7766,331.1561 268.9875,331.3951 Q269.1984,331.6201 269.1984,332.1686 L269.1984,333.4764 Q269.1984,334.0248 268.9875,334.2639 Q268.7766,334.5029 268.4391,334.5029 Q268.1297,334.5029 267.9469,334.3201 Q267.7641,334.1514 267.6656,333.6873 Q267.6234,333.3639 267.4547,333.1951 Q267.1594,332.8576 266.6109,332.6607 Q266.0625,332.4639 265.5,332.4639 Q264.8109,332.4639 264.2344,332.7592 Q263.6719,333.0545 263.2219,333.7295 Q262.7859,334.4045 262.7859,335.3326 L262.7859,336.317 Q262.7859,337.4279 263.5875,338.1732 Q264.3891,338.9045 265.8234,338.9045 Q266.6672,338.9045 267.2578,338.6795 Q267.6094,338.5389 267.9891,338.1451 Q268.2281,337.9061 268.3547,337.8357 Q268.4953,337.7654 268.6781,337.7654 Q268.9734,337.7654 269.1984,338.0045 Q269.4375,338.2295 269.4375,338.5389 Q269.4375,338.8482 269.1281,339.2139 Q268.6781,339.7342 267.9609,340.0295 Q266.9906,340.4373 265.8234,340.4373 Q264.4594,340.4373 263.3766,339.8748 Q262.4906,339.4248 261.8719,338.4686 Q261.2531,337.4982 261.2531,336.3451 L261.2531,335.3045 Q261.2531,334.1092 261.8016,333.0826 Q262.3641,332.042 263.3484,331.4936 Q264.3328,330.9311 265.4438,330.9311 Q266.1047,330.9311 266.6813,331.0857 Q267.2719,331.2264 267.7641,331.5498 Z " fill="#000000"/><text fill="#000000" font-family="sans-serif" font-size="12.6" lengthAdjust="spacing" textLength="104.4" x="283.725" y="340.4795">PremiumCustomer</text><line style="stroke:#181818;stroke-width:0.45;" x1="28.35" x2="614.25" y1="349.6623" y2="349.6623"/><rect fill="none" height="5.4" style="stroke:#C82930;stroke-width:0.9;" width="5.4" x="34.65" y="360.2918"/><text fill="#000000" font-family="sans-serif" font-size="12.6" lengthAdjust="spacing" textLength="143.1" x="45.45" y="366.859">shippingDiscount: double</text><line style="stroke:#181818;stroke-width:0.45;" x1="28.35" x2="614.25" y1="373.6213" y2="373.6213"/><ellipse cx="37.35" cy="386.9508" fill="#84BE84" rx="2.7" ry="2.7" style="stroke:#038048;stroke-width:0.9;"/><text fill="#000000" font-family="sans-serif" font-size="12.6" lengthAdjust="spacing" textLength="564.3" x="45.45" y="390.818">PremiumCustomer(name: String, address: String, id: String, email: String, shippingDiscount: double)</text><ellipse cx="37.35" cy="403.7098" fill="#84BE84" rx="2.7" ry="2.7" style="stroke:#038048;stroke-width:0.9;"/><text fill="#000000" font-family="sans-serif" font-size="12.6" lengthAdjust="spacing" textLength="171.9" x="45.45" y="407.577">getShippingDiscount(): double</text><ellipse cx="37.35" cy="420.4688" fill="#84BE84" rx="2.7" ry="2.7" style="stroke:#038048;stroke-width:0.9;"/><text fill="#000000" font-family="sans-serif" font-size="12.6" lengthAdjust="spacing" textLength="298.8" x="45.45" y="424.3359">setShippingDiscount(shippingDiscount: double): void</text></g><!--class Item--><g id="elem_Item"><rect codeLine="92" fill="#F1F1F1" height="311.3438" id="Item" rx="2.25" ry="2.25" style="stroke:#181818;stroke-width:0.45;" width="644.4" x="1503" y="1425.6123"/><ellipse cx="1809.225" cy="1440.0123" fill="#A9DCDF" rx="9.9" ry="9.9" style="stroke:#181818;stroke-width:0.9;"/><path d="M1811.1938,1441.6014 L1807.4672,1441.6014 L1807.0875,1442.5295 L1807.4672,1442.5295 Q1808.0156,1442.5295 1808.2547,1442.7404 Q1808.4938,1442.9514 1808.4938,1443.3029 Q1808.4938,1443.6404 1808.2547,1443.8514 Q1808.0156,1444.0623 1807.4672,1444.0623 L1805.4,1444.0623 Q1804.8516,1444.0623 1804.6266,1443.8514 Q1804.3875,1443.6404 1804.3875,1443.2889 Q1804.3875,1442.9514 1804.6406,1442.7404 Q1804.8797,1442.5154 1805.4422,1442.5295 L1807.8469,1436.5389 L1806.8484,1436.5389 Q1806.3,1436.5389 1806.0609,1436.3279 Q1805.8219,1436.117 1805.8219,1435.7654 Q1805.8219,1435.4279 1806.0609,1435.217 Q1806.3,1435.0061 1806.8484,1435.0061 L1810.1531,1435.0061 L1813.2047,1442.5295 Q1813.7391,1442.5295 1813.9078,1442.6561 Q1814.2594,1442.8951 1814.2594,1443.3029 Q1814.2594,1443.6404 1814.0203,1443.8514 Q1813.7953,1444.0623 1813.2469,1444.0623 L1811.1797,1444.0623 Q1810.6313,1444.0623 1810.3922,1443.8514 Q1810.1531,1443.6404 1810.1531,1443.2889 Q1810.1531,1442.9514 1810.3922,1442.7404 Q1810.6313,1442.5295 1811.1797,1442.5295 L1811.5594,1442.5295 L1811.1938,1441.6014 Z M1810.5469,1440.0686 L1809.3234,1437.0311 L1808.0859,1440.0686 L1810.5469,1440.0686 Z " fill="#000000"/><text fill="#000000" font-family="sans-serif" font-size="12.6" font-style="italic" lengthAdjust="spacing" textLength="24.3" x="1827.675" y="1445.2295">Item</text><line style="stroke:#181818;stroke-width:0.45;" x1="1503.9" x2="2146.5" y1="1454.4123" y2="1454.4123"/><rect fill="none" height="5.4" style="stroke:#C82930;stroke-width:0.9;" width="5.4" x="1510.2" y="1465.0418"/><text fill="#000000" font-family="sans-serif" font-size="12.6" lengthAdjust="spacing" textLength="68.4" x="1521" y="1471.609">code: String</text><rect fill="none" height="5.4" style="stroke:#C82930;stroke-width:0.9;" width="5.4" x="1510.2" y="1481.8008"/><text fill="#000000" font-family="sans-serif" font-size="12.6" lengthAdjust="spacing" textLength="102.6" x="1521" y="1488.368">description: String</text><rect fill="none" height="5.4" style="stroke:#C82930;stroke-width:0.9;" width="5.4" x="1510.2" y="1498.5598"/><text fill="#000000" font-family="sans-serif" font-size="12.6" lengthAdjust="spacing" textLength="110.7" x="1521" y="1505.127">sellingPrice: double</text><rect fill="none" height="5.4" style="stroke:#C82930;stroke-width:0.9;" width="5.4" x="1510.2" y="1515.3188"/><text fill="#000000" font-family="sans-serif" font-size="12.6" lengthAdjust="spacing" textLength="119.7" x="1521" y="1521.8859">shippingCost: double</text><rect fill="none" height="5.4" style="stroke:#C82930;stroke-width:0.9;" width="5.4" x="1510.2" y="1532.0777"/><text fill="#000000" font-family="sans-serif" font-size="12.6" lengthAdjust="spacing" textLength="158.4" x="1521" y="1538.6449">preparationTimeMinutes: int</text><line style="stroke:#181818;stroke-width:0.45;" x1="1503.9" x2="2146.5" y1="1545.4072" y2="1545.4072"/><ellipse cx="1512.9" cy="1558.7367" fill="#84BE84" rx="2.7" ry="2.7" style="stroke:#038048;stroke-width:0.9;"/><text fill="#000000" font-family="sans-serif" font-size="12.6" lengthAdjust="spacing" textLength="621" x="1521" y="1562.6039">Item(code: String, description: String, sellingPrice: double, shippingCost: double, preparationTimeMinutes: int)</text><ellipse cx="1512.9" cy="1575.4957" fill="#84BE84" rx="2.7" ry="2.7" style="stroke:#038048;stroke-width:0.9;"/><text fill="#000000" font-family="sans-serif" font-size="12.6" lengthAdjust="spacing" textLength="98.1" x="1521" y="1579.3629">getCode(): String</text><ellipse cx="1512.9" cy="1592.2547" fill="#84BE84" rx="2.7" ry="2.7" style="stroke:#038048;stroke-width:0.9;"/><text fill="#000000" font-family="sans-serif" font-size="12.6" lengthAdjust="spacing" textLength="155.7" x="1521" y="1596.1219">setCode(code: String): void</text><ellipse cx="1512.9" cy="1609.0137" fill="#84BE84" rx="2.7" ry="2.7" style="stroke:#038048;stroke-width:0.9;"/><text fill="#000000" font-family="sans-serif" font-size="12.6" lengthAdjust="spacing" textLength="131.4" x="1521" y="1612.8809">getDescription(): String</text><ellipse cx="1512.9" cy="1625.7727" fill="#84BE84" rx="2.7" ry="2.7" style="stroke:#038048;stroke-width:0.9;"/><text fill="#000000" font-family="sans-serif" font-size="12.6" lengthAdjust="spacing" textLength="223.2" x="1521" y="1629.6398">setDescription(description: String): void</text><ellipse cx="1512.9" cy="1642.5316" fill="#84BE84" rx="2.7" ry="2.7" style="stroke:#038048;stroke-width:0.9;"/><text fill="#000000" font-family="sans-serif" font-size="12.6" lengthAdjust="spacing" textLength="139.5" x="1521" y="1646.3988">getSellingPrice(): double</text><ellipse cx="1512.9" cy="1659.2906" fill="#84BE84" rx="2.7" ry="2.7" style="stroke:#038048;stroke-width:0.9;"/><text fill="#000000" font-family="sans-serif" font-size="12.6" lengthAdjust="spacing" textLength="234" x="1521" y="1663.1578">setSellingPrice(sellingPrice: double): void</text><ellipse cx="1512.9" cy="1676.0496" fill="#84BE84" rx="2.7" ry="2.7" style="stroke:#038048;stroke-width:0.9;"/><text fill="#000000" font-family="sans-serif" font-size="12.6" lengthAdjust="spacing" textLength="148.5" x="1521" y="1679.9168">getShippingCost(): double</text><ellipse cx="1512.9" cy="1692.8086" fill="#84BE84" rx="2.7" ry="2.7" style="stroke:#038048;stroke-width:0.9;"/><text fill="#000000" font-family="sans-serif" font-size="12.6" lengthAdjust="spacing" textLength="252" x="1521" y="1696.6758">setShippingCost(shippingCost: double): void</text><ellipse cx="1512.9" cy="1709.5676" fill="#84BE84" rx="2.7" ry="2.7" style="stroke:#038048;stroke-width:0.9;"/><text fill="#000000" font-family="sans-serif" font-size="12.6" lengthAdjust="spacing" textLength="186.3" x="1521" y="1713.4348">getPreparationTimeMinutes(): int</text><ellipse cx="1512.9" cy="1726.3266" fill="#84BE84" rx="2.7" ry="2.7" style="stroke:#038048;stroke-width:0.9;"/><text fill="#000000" font-family="sans-serif" font-size="12.6" lengthAdjust="spacing" textLength="353.7" x="1521" y="1730.1938">setPreparationTimeMinutes(preparationTimeMinutes: int): void</text></g><!--class Order--><g id="elem_Order"><rect codeLine="111" fill="#F1F1F1" height="395.1387" id="Order" rx="2.25" ry="2.25" style="stroke:#181818;stroke-width:0.45;" width="765" x="1234.8" y="959.4123"/><ellipse cx="1596.825" cy="973.8123" fill="#A9DCDF" rx="9.9" ry="9.9" style="stroke:#181818;stroke-width:0.9;"/><path d="M1598.7938,975.4014 L1595.0672,975.4014 L1594.6875,976.3295 L1595.0672,976.3295 Q1595.6156,976.3295 1595.8547,976.5404 Q1596.0938,976.7514 1596.0938,977.1029 Q1596.0938,977.4404 1595.8547,977.6514 Q1595.6156,977.8623 1595.0672,977.8623 L1593,977.8623 Q1592.4516,977.8623 1592.2266,977.6514 Q1591.9875,977.4404 1591.9875,977.0889 Q1591.9875,976.7514 1592.2406,976.5404 Q1592.4797,976.3154 1593.0422,976.3295 L1595.4469,970.3389 L1594.4484,970.3389 Q1593.9,970.3389 1593.6609,970.1279 Q1593.4219,969.917 1593.4219,969.5654 Q1593.4219,969.2279 1593.6609,969.017 Q1593.9,968.8061 1594.4484,968.8061 L1597.7531,968.8061 L1600.8047,976.3295 Q1601.3391,976.3295 1601.5078,976.4561 Q1601.8594,976.6951 1601.8594,977.1029 Q1601.8594,977.4404 1601.6203,977.6514 Q1601.3953,977.8623 1600.8469,977.8623 L1598.7797,977.8623 Q1598.2313,977.8623 1597.9922,977.6514 Q1597.7531,977.4404 1597.7531,977.0889 Q1597.7531,976.7514 1597.9922,976.5404 Q1598.2313,976.3295 1598.7797,976.3295 L1599.1594,976.3295 L1598.7938,975.4014 Z M1598.1469,973.8686 L1596.9234,970.8311 L1595.6859,973.8686 L1598.1469,973.8686 Z " fill="#000000"/><text fill="#000000" font-family="sans-serif" font-size="12.6" font-style="italic" lengthAdjust="spacing" textLength="33.3" x="1615.275" y="979.0295">Order</text><line style="stroke:#181818;stroke-width:0.45;" x1="1235.7" x2="1998.9" y1="988.2123" y2="988.2123"/><rect fill="none" height="5.4" style="stroke:#C82930;stroke-width:0.9;" width="5.4" x="1242" y="998.8418"/><text fill="#000000" font-family="sans-serif" font-size="12.6" lengthAdjust="spacing" textLength="95.4" x="1252.8" y="1005.409">orderNumber: int</text><rect fill="none" height="5.4" style="stroke:#C82930;stroke-width:0.9;" width="5.4" x="1242" y="1015.6008"/><text fill="#000000" font-family="sans-serif" font-size="12.6" lengthAdjust="spacing" textLength="114.3" x="1252.8" y="1022.168">customer: Customer</text><rect fill="none" height="5.4" style="stroke:#C82930;stroke-width:0.9;" width="5.4" x="1242" y="1032.3598"/><text fill="#000000" font-family="sans-serif" font-size="12.6" lengthAdjust="spacing" textLength="54" x="1252.8" y="1038.927">item: Item</text><rect fill="none" height="5.4" style="stroke:#C82930;stroke-width:0.9;" width="5.4" x="1242" y="1049.1188"/><text fill="#000000" font-family="sans-serif" font-size="12.6" lengthAdjust="spacing" textLength="93.6" x="1252.8" y="1055.6859">quantityUnits: int</text><rect fill="none" height="5.4" style="stroke:#C82930;stroke-width:0.9;" width="5.4" x="1242" y="1065.8777"/><text fill="#000000" font-family="sans-serif" font-size="12.6" lengthAdjust="spacing" textLength="147.6" x="1252.8" y="1072.4449">orderDateTime: DateTime</text><rect fill="none" height="5.4" style="stroke:#C82930;stroke-width:0.9;" width="5.4" x="1242" y="1082.6367"/><text fill="#000000" font-family="sans-serif" font-size="12.6" lengthAdjust="spacing" textLength="158.4" x="1252.8" y="1089.2039">preparationTimeMinutes: int</text><line style="stroke:#181818;stroke-width:0.45;" x1="1235.7" x2="1998.9" y1="1095.9662" y2="1095.9662"/><ellipse cx="1244.7" cy="1109.2957" fill="#84BE84" rx="2.7" ry="2.7" style="stroke:#038048;stroke-width:0.9;"/><text fill="#000000" font-family="sans-serif" font-size="12.6" lengthAdjust="spacing" textLength="741.6" x="1252.8" y="1113.1629">Order(orderNumber: int, customer: Customer, item: Item, quantityUnits: int, orderDateTime: DateTime, preparationTimeMinutes: int)</text><ellipse cx="1244.7" cy="1126.0547" fill="#84BE84" rx="2.7" ry="2.7" style="stroke:#038048;stroke-width:0.9;"/><text fill="#000000" font-family="sans-serif" font-size="12.6" lengthAdjust="spacing" textLength="125.1" x="1252.8" y="1129.9219">getOrderNumber(): int</text><ellipse cx="1244.7" cy="1142.8137" fill="#84BE84" rx="2.7" ry="2.7" style="stroke:#038048;stroke-width:0.9;"/><text fill="#000000" font-family="sans-serif" font-size="12.6" lengthAdjust="spacing" textLength="229.5" x="1252.8" y="1146.6809">setOrderNumber(orderNumber: int): void</text><ellipse cx="1244.7" cy="1159.5727" fill="#84BE84" rx="2.7" ry="2.7" style="stroke:#038048;stroke-width:0.9;"/><text fill="#000000" font-family="sans-serif" font-size="12.6" lengthAdjust="spacing" textLength="144" x="1252.8" y="1163.4398">getCustomer(): Customer</text><ellipse cx="1244.7" cy="1176.3316" fill="#84BE84" rx="2.7" ry="2.7" style="stroke:#038048;stroke-width:0.9;"/><text fill="#000000" font-family="sans-serif" font-size="12.6" lengthAdjust="spacing" textLength="225.9" x="1252.8" y="1180.1988">setCustomer(customer: Customer): void</text><ellipse cx="1244.7" cy="1193.0906" fill="#84BE84" rx="2.7" ry="2.7" style="stroke:#038048;stroke-width:0.9;"/><text fill="#000000" font-family="sans-serif" font-size="12.6" lengthAdjust="spacing" textLength="81" x="1252.8" y="1196.9578">getItem(): Item</text><ellipse cx="1244.7" cy="1209.8496" fill="#84BE84" rx="2.7" ry="2.7" style="stroke:#038048;stroke-width:0.9;"/><text fill="#000000" font-family="sans-serif" font-size="12.6" lengthAdjust="spacing" textLength="134.1" x="1252.8" y="1213.7168">setItem(item: Item): void</text><ellipse cx="1244.7" cy="1226.6086" fill="#84BE84" rx="2.7" ry="2.7" style="stroke:#038048;stroke-width:0.9;"/><text fill="#000000" font-family="sans-serif" font-size="12.6" lengthAdjust="spacing" textLength="123.3" x="1252.8" y="1230.4758">getQuantityUnits(): int</text><ellipse cx="1244.7" cy="1243.3676" fill="#84BE84" rx="2.7" ry="2.7" style="stroke:#038048;stroke-width:0.9;"/><text fill="#000000" font-family="sans-serif" font-size="12.6" lengthAdjust="spacing" textLength="225.9" x="1252.8" y="1247.2348">setQuantityUnits(quantityUnits: int): void</text><ellipse cx="1244.7" cy="1260.1266" fill="#84BE84" rx="2.7" ry="2.7" style="stroke:#038048;stroke-width:0.9;"/><text fill="#000000" font-family="sans-serif" font-size="12.6" lengthAdjust="spacing" textLength="177.3" x="1252.8" y="1263.9938">getOrderDateTime(): DateTime</text><ellipse cx="1244.7" cy="1276.8855" fill="#84BE84" rx="2.7" ry="2.7" style="stroke:#038048;stroke-width:0.9;"/><text fill="#000000" font-family="sans-serif" font-size="12.6" lengthAdjust="spacing" textLength="292.5" x="1252.8" y="1280.7527">setOrderDateTime(orderDateTime: DateTime): void</text><ellipse cx="1244.7" cy="1293.6445" fill="#84BE84" rx="2.7" ry="2.7" style="stroke:#038048;stroke-width:0.9;"/><text fill="#000000" font-family="sans-serif" font-size="12.6" lengthAdjust="spacing" textLength="186.3" x="1252.8" y="1297.5117">getPreparationTimeMinutes(): int</text><ellipse cx="1244.7" cy="1310.4035" fill="#84BE84" rx="2.7" ry="2.7" style="stroke:#038048;stroke-width:0.9;"/><text fill="#000000" font-family="sans-serif" font-size="12.6" lengthAdjust="spacing" textLength="353.7" x="1252.8" y="1314.2707">setPreparationTimeMinutes(preparationTimeMinutes: int): void</text><ellipse cx="1244.7" cy="1327.1625" fill="#84BE84" rx="2.7" ry="2.7" style="stroke:#038048;stroke-width:0.9;"/><text fill="#000000" font-family="sans-serif" font-size="12.6" lengthAdjust="spacing" textLength="167.4" x="1252.8" y="1331.0297">calculateOrderPrice(): double</text><ellipse cx="1244.7" cy="1343.9215" fill="#84BE84" rx="2.7" ry="2.7" style="stroke:#038048;stroke-width:0.9;"/><text fill="#000000" font-family="sans-serif" font-size="12.6" lengthAdjust="spacing" textLength="135" x="1252.8" y="1347.7887">isCancelable(): boolean</text></g><!--class CustomerType--><g id="elem_CustomerType"><rect codeLine="135" fill="#F1F1F1" height="76.718" id="CustomerType" rx="2.25" ry="2.25" style="stroke:#181818;stroke-width:0.45;" width="112.5" x="692.55" y="87.7623"/><ellipse cx="706.05" cy="102.1623" fill="#EB937F" rx="9.9" ry="9.9" style="stroke:#181818;stroke-width:0.9;"/><path d="M705.0234,102.8795 L705.0234,105.1295 L708.9188,105.1295 L708.9188,104.2998 Q708.9188,103.7514 709.1297,103.5123 Q709.3547,103.2732 709.6922,103.2732 Q710.0297,103.2732 710.2406,103.5123 Q710.4516,103.7514 710.4516,104.2998 L710.4516,106.6623 L703.2516,106.6623 Q702.6891,106.6623 702.45,106.4514 Q702.225,106.2404 702.225,105.8889 Q702.225,105.5514 702.4641,105.3404 Q702.7031,105.1295 703.2516,105.1295 L703.4906,105.1295 L703.4906,99.1389 L703.2516,99.1389 Q702.6891,99.1389 702.45,98.9279 Q702.225,98.717 702.225,98.3654 Q702.225,98.0279 702.45,97.817 Q702.6891,97.6061 703.2516,97.6061 L710.1141,97.6061 L710.1141,99.9404 Q710.1141,100.4889 709.9031,100.7279 Q709.7063,100.9529 709.3547,100.9529 Q709.0172,100.9529 708.8063,100.7279 Q708.5953,100.4889 708.5953,99.9404 L708.5953,99.1389 L705.0234,99.1389 L705.0234,101.3467 L706.3594,101.3467 Q706.3594,100.7561 706.4719,100.5873 Q706.7109,100.2217 707.1328,100.2217 Q707.4703,100.2217 707.6813,100.4607 Q707.8922,100.6857 707.8922,101.2342 L707.8922,103.0061 Q707.8922,103.4982 707.7797,103.667 Q707.5406,104.0186 707.1328,104.0186 Q706.7109,104.0186 706.4719,103.6529 Q706.3594,103.4842 706.3594,102.8795 L705.0234,102.8795 Z " fill="#000000"/><text fill="#000000" font-family="sans-serif" font-size="12.6" lengthAdjust="spacing" textLength="83.7" x="718.65" y="107.3795">CustomerType</text><line style="stroke:#181818;stroke-width:0.45;" x1="693.45" x2="804.15" y1="116.5623" y2="116.5623"/><text fill="#000000" font-family="sans-serif" font-size="12.6" lengthAdjust="spacing" textLength="67.5" x="697.95" y="133.759">STANDARD</text><text fill="#000000" font-family="sans-serif" font-size="12.6" lengthAdjust="spacing" textLength="55.8" x="697.95" y="150.518">PREMIUM</text><line style="stroke:#181818;stroke-width:0.45;" x1="693.45" x2="804.15" y1="157.2803" y2="157.2803"/></g><!--class TimeUnit--><g id="elem_TimeUnit"><rect codeLine="140" fill="#F1F1F1" height="110.2359" id="TimeUnit" rx="2.25" ry="2.25" style="stroke:#181818;stroke-width:0.45;" width="78.3" x="212.85" y="71.1123"/><ellipse cx="226.35" cy="85.5123" fill="#EB937F" rx="9.9" ry="9.9" style="stroke:#181818;stroke-width:0.9;"/><path d="M225.3234,86.2295 L225.3234,88.4795 L229.2188,88.4795 L229.2188,87.6498 Q229.2188,87.1014 229.4297,86.8623 Q229.6547,86.6232 229.9922,86.6232 Q230.3297,86.6232 230.5406,86.8623 Q230.7516,87.1014 230.7516,87.6498 L230.7516,90.0123 L223.5516,90.0123 Q222.9891,90.0123 222.75,89.8014 Q222.525,89.5904 222.525,89.2389 Q222.525,88.9014 222.7641,88.6904 Q223.0031,88.4795 223.5516,88.4795 L223.7906,88.4795 L223.7906,82.4889 L223.5516,82.4889 Q222.9891,82.4889 222.75,82.2779 Q222.525,82.067 222.525,81.7154 Q222.525,81.3779 222.75,81.167 Q222.9891,80.9561 223.5516,80.9561 L230.4141,80.9561 L230.4141,83.2904 Q230.4141,83.8389 230.2031,84.0779 Q230.0063,84.3029 229.6547,84.3029 Q229.3172,84.3029 229.1063,84.0779 Q228.8953,83.8389 228.8953,83.2904 L228.8953,82.4889 L225.3234,82.4889 L225.3234,84.6967 L226.6594,84.6967 Q226.6594,84.1061 226.7719,83.9373 Q227.0109,83.5717 227.4328,83.5717 Q227.7703,83.5717 227.9813,83.8107 Q228.1922,84.0357 228.1922,84.5842 L228.1922,86.3561 Q228.1922,86.8482 228.0797,87.017 Q227.8406,87.3686 227.4328,87.3686 Q227.0109,87.3686 226.7719,87.0029 Q226.6594,86.8342 226.6594,86.2295 L225.3234,86.2295 Z " fill="#000000"/><text fill="#000000" font-family="sans-serif" font-size="12.6" lengthAdjust="spacing" textLength="49.5" x="238.95" y="90.7295">TimeUnit</text><line style="stroke:#181818;stroke-width:0.45;" x1="213.75" x2="290.25" y1="99.9123" y2="99.9123"/><text fill="#000000" font-family="sans-serif" font-size="12.6" lengthAdjust="spacing" textLength="33.3" x="218.25" y="117.109">DAYS</text><text fill="#000000" font-family="sans-serif" font-size="12.6" lengthAdjust="spacing" textLength="43.2" x="218.25" y="133.868">HOURS</text><text fill="#000000" font-family="sans-serif" font-size="12.6" lengthAdjust="spacing" textLength="53.1" x="218.25" y="150.627">MINUTES</text><text fill="#000000" font-family="sans-serif" font-size="12.6" lengthAdjust="spacing" textLength="60.3" x="218.25" y="167.3859">SECONDS</text><line style="stroke:#181818;stroke-width:0.45;" x1="213.75" x2="290.25" y1="174.1482" y2="174.1482"/></g><!--class List--><g id="elem_List"><rect codeLine="147" fill="#F1F1F1" height="43.2" id="List" rx="2.25" ry="2.25" style="stroke:#181818;stroke-width:0.45;" width="48.6" x="2347.2" y="104.4123"/><ellipse cx="2360.7" cy="118.8123" fill="#B4A7E5" rx="9.9" ry="9.9" style="stroke:#181818;stroke-width:0.9;"/><path d="M2361.5578,115.7889 L2361.5578,121.7795 L2363.1047,121.7795 Q2363.6531,121.7795 2363.8922,121.9904 Q2364.1313,122.2014 2364.1313,122.5529 Q2364.1313,122.8904 2363.8922,123.1014 Q2363.6531,123.3123 2363.1047,123.3123 L2358.4781,123.3123 Q2357.9297,123.3123 2357.6906,123.1014 Q2357.4516,122.8904 2357.4516,122.5389 Q2357.4516,122.2014 2357.6906,121.9904 Q2357.9297,121.7795 2358.4781,121.7795 L2360.025,121.7795 L2360.025,115.7889 L2358.4781,115.7889 Q2357.9297,115.7889 2357.6906,115.5779 Q2357.4516,115.367 2357.4516,115.0154 Q2357.4516,114.6779 2357.6906,114.467 Q2357.9297,114.2561 2358.4781,114.2561 L2363.1047,114.2561 Q2363.6531,114.2561 2363.8922,114.467 Q2364.1313,114.6779 2364.1313,115.0154 Q2364.1313,115.367 2363.8922,115.5779 Q2363.6531,115.7889 2363.1047,115.7889 L2361.5578,115.7889 Z " fill="#000000"/><text fill="#000000" font-family="sans-serif" font-size="12.6" font-style="italic" lengthAdjust="spacing" textLength="19.8" x="2373.3" y="124.0295">List</text><line style="stroke:#181818;stroke-width:0.45;" x1="2348.1" x2="2394.9" y1="133.2123" y2="133.2123"/><line style="stroke:#181818;stroke-width:0.45;" x1="2348.1" x2="2394.9" y1="140.4123" y2="140.4123"/></g><!--class Collection--><g id="elem_Collection"><rect codeLine="148" fill="#F1F1F1" height="43.2" id="Collection" rx="2.25" ry="2.25" style="stroke:#181818;stroke-width:0.45;" width="84.6" x="2207.7" y="104.4123"/><ellipse cx="2221.2" cy="118.8123" fill="#B4A7E5" rx="9.9" ry="9.9" style="stroke:#181818;stroke-width:0.9;"/><path d="M2222.0578,115.7889 L2222.0578,121.7795 L2223.6047,121.7795 Q2224.1531,121.7795 2224.3922,121.9904 Q2224.6313,122.2014 2224.6313,122.5529 Q2224.6313,122.8904 2224.3922,123.1014 Q2224.1531,123.3123 2223.6047,123.3123 L2218.9781,123.3123 Q2218.4297,123.3123 2218.1906,123.1014 Q2217.9516,122.8904 2217.9516,122.5389 Q2217.9516,122.2014 2218.1906,121.9904 Q2218.4297,121.7795 2218.9781,121.7795 L2220.525,121.7795 L2220.525,115.7889 L2218.9781,115.7889 Q2218.4297,115.7889 2218.1906,115.5779 Q2217.9516,115.367 2217.9516,115.0154 Q2217.9516,114.6779 2218.1906,114.467 Q2218.4297,114.2561 2218.9781,114.2561 L2223.6047,114.2561 Q2224.1531,114.2561 2224.3922,114.467 Q2224.6313,114.6779 2224.6313,115.0154 Q2224.6313,115.367 2224.3922,115.5779 Q2224.1531,115.7889 2223.6047,115.7889 L2222.0578,115.7889 Z " fill="#000000"/><text fill="#000000" font-family="sans-serif" font-size="12.6" font-style="italic" lengthAdjust="spacing" textLength="55.8" x="2233.8" y="124.0295">Collection</text><line style="stroke:#181818;stroke-width:0.45;" x1="2208.6" x2="2291.4" y1="133.2123" y2="133.2123"/><line style="stroke:#181818;stroke-width:0.45;" x1="2208.6" x2="2291.4" y1="140.4123" y2="140.4123"/></g><!--class AbstractList--><g id="elem_AbstractList"><rect fill="#F1F1F1" height="43.2" id="AbstractList" rx="2.25" ry="2.25" style="stroke:#181818;stroke-width:0.45;" width="95.4" x="2330.1" y="354.1623"/><ellipse cx="2343.6" cy="368.5623" fill="#ADD1B2" rx="9.9" ry="9.9" style="stroke:#181818;stroke-width:0.9;"/><path d="M2346.0891,364.8498 Q2346.2297,364.6529 2346.3984,364.5545 Q2346.5672,364.4561 2346.7641,364.4561 Q2347.1016,364.4561 2347.3125,364.6951 Q2347.5234,364.9201 2347.5234,365.4686 L2347.5234,366.7764 Q2347.5234,367.3248 2347.3125,367.5639 Q2347.1016,367.8029 2346.7641,367.8029 Q2346.4547,367.8029 2346.2719,367.6201 Q2346.0891,367.4514 2345.9906,366.9873 Q2345.9484,366.6639 2345.7797,366.4951 Q2345.4844,366.1576 2344.9359,365.9607 Q2344.3875,365.7639 2343.825,365.7639 Q2343.1359,365.7639 2342.5594,366.0592 Q2341.9969,366.3545 2341.5469,367.0295 Q2341.1109,367.7045 2341.1109,368.6326 L2341.1109,369.617 Q2341.1109,370.7279 2341.9125,371.4732 Q2342.7141,372.2045 2344.1484,372.2045 Q2344.9922,372.2045 2345.5828,371.9795 Q2345.9344,371.8389 2346.3141,371.4451 Q2346.5531,371.2061 2346.6797,371.1357 Q2346.8203,371.0654 2347.0031,371.0654 Q2347.2984,371.0654 2347.5234,371.3045 Q2347.7625,371.5295 2347.7625,371.8389 Q2347.7625,372.1482 2347.4531,372.5139 Q2347.0031,373.0342 2346.2859,373.3295 Q2345.3156,373.7373 2344.1484,373.7373 Q2342.7844,373.7373 2341.7016,373.1748 Q2340.8156,372.7248 2340.1969,371.7686 Q2339.5781,370.7982 2339.5781,369.6451 L2339.5781,368.6045 Q2339.5781,367.4092 2340.1266,366.3826 Q2340.6891,365.342 2341.6734,364.7936 Q2342.6578,364.2311 2343.7688,364.2311 Q2344.4297,364.2311 2345.0063,364.3857 Q2345.5969,364.5264 2346.0891,364.8498 Z " fill="#000000"/><text fill="#000000" font-family="sans-serif" font-size="12.6" lengthAdjust="spacing" textLength="66.6" x="2356.2" y="373.7795">AbstractList</text><line style="stroke:#181818;stroke-width:0.45;" x1="2331" x2="2424.6" y1="382.9623" y2="382.9623"/><line style="stroke:#181818;stroke-width:0.45;" x1="2331" x2="2424.6" y1="390.1623" y2="390.1623"/></g><!--class AbstractCollection--><g id="elem_AbstractCollection"><rect fill="#F1F1F1" height="43.2" id="AbstractCollection" rx="2.25" ry="2.25" style="stroke:#181818;stroke-width:0.45;" width="131.4" x="2167.2" y="354.1623"/><ellipse cx="2180.7" cy="368.5623" fill="#ADD1B2" rx="9.9" ry="9.9" style="stroke:#181818;stroke-width:0.9;"/><path d="M2183.1891,364.8498 Q2183.3297,364.6529 2183.4984,364.5545 Q2183.6672,364.4561 2183.8641,364.4561 Q2184.2016,364.4561 2184.4125,364.6951 Q2184.6234,364.9201 2184.6234,365.4686 L2184.6234,366.7764 Q2184.6234,367.3248 2184.4125,367.5639 Q2184.2016,367.8029 2183.8641,367.8029 Q2183.5547,367.8029 2183.3719,367.6201 Q2183.1891,367.4514 2183.0906,366.9873 Q2183.0484,366.6639 2182.8797,366.4951 Q2182.5844,366.1576 2182.0359,365.9607 Q2181.4875,365.7639 2180.925,365.7639 Q2180.2359,365.7639 2179.6594,366.0592 Q2179.0969,366.3545 2178.6469,367.0295 Q2178.2109,367.7045 2178.2109,368.6326 L2178.2109,369.617 Q2178.2109,370.7279 2179.0125,371.4732 Q2179.8141,372.2045 2181.2484,372.2045 Q2182.0922,372.2045 2182.6828,371.9795 Q2183.0344,371.8389 2183.4141,371.4451 Q2183.6531,371.2061 2183.7797,371.1357 Q2183.9203,371.0654 2184.1031,371.0654 Q2184.3984,371.0654 2184.6234,371.3045 Q2184.8625,371.5295 2184.8625,371.8389 Q2184.8625,372.1482 2184.5531,372.5139 Q2184.1031,373.0342 2183.3859,373.3295 Q2182.4156,373.7373 2181.2484,373.7373 Q2179.8844,373.7373 2178.8016,373.1748 Q2177.9156,372.7248 2177.2969,371.7686 Q2176.6781,370.7982 2176.6781,369.6451 L2176.6781,368.6045 Q2176.6781,367.4092 2177.2266,366.3826 Q2177.7891,365.342 2178.7734,364.7936 Q2179.7578,364.2311 2180.8688,364.2311 Q2181.5297,364.2311 2182.1063,364.3857 Q2182.6969,364.5264 2183.1891,364.8498 Z " fill="#000000"/><text fill="#000000" font-family="sans-serif" font-size="12.6" lengthAdjust="spacing" textLength="102.6" x="2193.3" y="373.7795">AbstractCollection</text><line style="stroke:#181818;stroke-width:0.45;" x1="2168.1" x2="2297.7" y1="382.9623" y2="382.9623"/><line style="stroke:#181818;stroke-width:0.45;" x1="2168.1" x2="2297.7" y1="390.1623" y2="390.1623"/></g><!--class ArrayList--><g id="elem_ArrayList"><rect codeLine="157" fill="#F1F1F1" height="76.718" id="ArrayList" rx="2.25" ry="2.25" style="stroke:#181818;stroke-width:0.45;" width="146.7" x="2278.35" y="669.1623"/><ellipse cx="2322.675" cy="683.5623" fill="#ADD1B2" rx="9.9" ry="9.9" style="stroke:#181818;stroke-width:0.9;"/><path d="M2325.1641,679.8498 Q2325.3047,679.6529 2325.4734,679.5545 Q2325.6422,679.4561 2325.8391,679.4561 Q2326.1766,679.4561 2326.3875,679.6951 Q2326.5984,679.9201 2326.5984,680.4686 L2326.5984,681.7764 Q2326.5984,682.3248 2326.3875,682.5639 Q2326.1766,682.8029 2325.8391,682.8029 Q2325.5297,682.8029 2325.3469,682.6201 Q2325.1641,682.4514 2325.0656,681.9873 Q2325.0234,681.6639 2324.8547,681.4951 Q2324.5594,681.1576 2324.0109,680.9607 Q2323.4625,680.7639 2322.9,680.7639 Q2322.2109,680.7639 2321.6344,681.0592 Q2321.0719,681.3545 2320.6219,682.0295 Q2320.1859,682.7045 2320.1859,683.6326 L2320.1859,684.617 Q2320.1859,685.7279 2320.9875,686.4732 Q2321.7891,687.2045 2323.2234,687.2045 Q2324.0672,687.2045 2324.6578,686.9795 Q2325.0094,686.8389 2325.3891,686.4451 Q2325.6281,686.2061 2325.7547,686.1357 Q2325.8953,686.0654 2326.0781,686.0654 Q2326.3734,686.0654 2326.5984,686.3045 Q2326.8375,686.5295 2326.8375,686.8389 Q2326.8375,687.1482 2326.5281,687.5139 Q2326.0781,688.0342 2325.3609,688.3295 Q2324.3906,688.7373 2323.2234,688.7373 Q2321.8594,688.7373 2320.7766,688.1748 Q2319.8906,687.7248 2319.2719,686.7686 Q2318.6531,685.7982 2318.6531,684.6451 L2318.6531,683.6045 Q2318.6531,682.4092 2319.2016,681.3826 Q2319.7641,680.342 2320.7484,679.7936 Q2321.7328,679.2311 2322.8438,679.2311 Q2323.5047,679.2311 2324.0813,679.3857 Q2324.6719,679.5264 2325.1641,679.8498 Z " fill="#000000"/><text fill="#000000" font-family="sans-serif" font-size="12.6" lengthAdjust="spacing" textLength="50.4" x="2341.125" y="688.7795">ArrayList</text><line style="stroke:#181818;stroke-width:0.45;" x1="2279.25" x2="2424.15" y1="697.9623" y2="697.9623"/><rect fill="none" height="5.4" style="stroke:#C82930;stroke-width:0.9;" width="5.4" x="2285.55" y="708.5918"/><text fill="#000000" font-family="sans-serif" font-size="12.6" lengthAdjust="spacing" textLength="123.3" x="2296.35" y="715.159">elementData: Object[]</text><line style="stroke:#181818;stroke-width:0.45;" x1="2279.25" x2="2424.15" y1="721.9213" y2="721.9213"/><ellipse cx="2288.25" cy="735.2508" fill="#84BE84" rx="2.7" ry="2.7" style="stroke:#038048;stroke-width:0.9;"/><text fill="#000000" font-family="sans-serif" font-size="12.6" lengthAdjust="spacing" textLength="51.3" x="2296.35" y="739.118">size(): int</text></g><!--class CustomerList--><g id="elem_CustomerList"><rect codeLine="35" fill="#F1F1F1" height="126.9949" id="CustomerList" rx="2.25" ry="2.25" style="stroke:#181818;stroke-width:0.45;" width="372.6" x="1150.2" y="312.3123"/><ellipse cx="1295.325" cy="326.7123" fill="#ADD1B2" rx="9.9" ry="9.9" style="stroke:#181818;stroke-width:0.9;"/><path d="M1297.8141,322.9998 Q1297.9547,322.8029 1298.1234,322.7045 Q1298.2922,322.6061 1298.4891,322.6061 Q1298.8266,322.6061 1299.0375,322.8451 Q1299.2484,323.0701 1299.2484,323.6186 L1299.2484,324.9264 Q1299.2484,325.4748 1299.0375,325.7139 Q1298.8266,325.9529 1298.4891,325.9529 Q1298.1797,325.9529 1297.9969,325.7701 Q1297.8141,325.6014 1297.7156,325.1373 Q1297.6734,324.8139 1297.5047,324.6451 Q1297.2094,324.3076 1296.6609,324.1107 Q1296.1125,323.9139 1295.55,323.9139 Q1294.8609,323.9139 1294.2844,324.2092 Q1293.7219,324.5045 1293.2719,325.1795 Q1292.8359,325.8545 1292.8359,326.7826 L1292.8359,327.767 Q1292.8359,328.8779 1293.6375,329.6232 Q1294.4391,330.3545 1295.8734,330.3545 Q1296.7172,330.3545 1297.3078,330.1295 Q1297.6594,329.9889 1298.0391,329.5951 Q1298.2781,329.3561 1298.4047,329.2857 Q1298.5453,329.2154 1298.7281,329.2154 Q1299.0234,329.2154 1299.2484,329.4545 Q1299.4875,329.6795 1299.4875,329.9889 Q1299.4875,330.2982 1299.1781,330.6639 Q1298.7281,331.1842 1298.0109,331.4795 Q1297.0406,331.8873 1295.8734,331.8873 Q1294.5094,331.8873 1293.4266,331.3248 Q1292.5406,330.8748 1291.9219,329.9186 Q1291.3031,328.9482 1291.3031,327.7951 L1291.3031,326.7545 Q1291.3031,325.5592 1291.8516,324.5326 Q1292.4141,323.492 1293.3984,322.9436 Q1294.3828,322.3811 1295.4938,322.3811 Q1296.1547,322.3811 1296.7313,322.5357 Q1297.3219,322.6764 1297.8141,322.9998 Z " fill="#000000"/><text fill="#000000" font-family="sans-serif" font-size="12.6" lengthAdjust="spacing" textLength="74.7" x="1313.775" y="331.9295">CustomerList</text><line style="stroke:#181818;stroke-width:0.45;" x1="1151.1" x2="1521.9" y1="341.1123" y2="341.1123"/><rect fill="none" height="5.4" style="stroke:#C82930;stroke-width:0.9;" width="5.4" x="1157.4" y="351.7418"/><text fill="#000000" font-family="sans-serif" font-size="12.6" lengthAdjust="spacing" textLength="154.8" x="1168.2" y="358.309">customers: List&lt;Customer&gt;</text><line style="stroke:#181818;stroke-width:0.45;" x1="1151.1" x2="1521.9" y1="365.0713" y2="365.0713"/><ellipse cx="1160.1" cy="378.4008" fill="#84BE84" rx="2.7" ry="2.7" style="stroke:#038048;stroke-width:0.9;"/><text fill="#000000" font-family="sans-serif" font-size="12.6" lengthAdjust="spacing" textLength="230.4" x="1168.2" y="382.268">addCustomer(customer: Customer): void</text><ellipse cx="1160.1" cy="395.1598" fill="#84BE84" rx="2.7" ry="2.7" style="stroke:#038048;stroke-width:0.9;"/><text fill="#000000" font-family="sans-serif" font-size="12.6" lengthAdjust="spacing" textLength="251.1" x="1168.2" y="399.027">removeCustomer(customer: Customer): void</text><ellipse cx="1160.1" cy="411.9188" fill="#84BE84" rx="2.7" ry="2.7" style="stroke:#038048;stroke-width:0.9;"/><text fill="#000000" font-family="sans-serif" font-size="12.6" lengthAdjust="spacing" textLength="184.5" x="1168.2" y="415.7859">getCustomers(): List&lt;Customer&gt;</text><ellipse cx="1160.1" cy="428.6777" fill="#84BE84" rx="2.7" ry="2.7" style="stroke:#038048;stroke-width:0.9;"/><text fill="#000000" font-family="sans-serif" font-size="12.6" lengthAdjust="spacing" textLength="349.2" x="1168.2" y="432.5449">filterCustomersByType(type: CustomerType): List&lt;Customer&gt;</text></g><!--class OrderList--><g id="elem_OrderList"><rect codeLine="43" fill="#F1F1F1" height="126.9949" id="OrderList" rx="2.25" ry="2.25" style="stroke:#181818;stroke-width:0.45;" width="354.6" x="1554.3" y="312.3123"/><ellipse cx="1701.225" cy="326.7123" fill="#ADD1B2" rx="9.9" ry="9.9" style="stroke:#181818;stroke-width:0.9;"/><path d="M1703.7141,322.9998 Q1703.8547,322.8029 1704.0234,322.7045 Q1704.1922,322.6061 1704.3891,322.6061 Q1704.7266,322.6061 1704.9375,322.8451 Q1705.1484,323.0701 1705.1484,323.6186 L1705.1484,324.9264 Q1705.1484,325.4748 1704.9375,325.7139 Q1704.7266,325.9529 1704.3891,325.9529 Q1704.0797,325.9529 1703.8969,325.7701 Q1703.7141,325.6014 1703.6156,325.1373 Q1703.5734,324.8139 1703.4047,324.6451 Q1703.1094,324.3076 1702.5609,324.1107 Q1702.0125,323.9139 1701.45,323.9139 Q1700.7609,323.9139 1700.1844,324.2092 Q1699.6219,324.5045 1699.1719,325.1795 Q1698.7359,325.8545 1698.7359,326.7826 L1698.7359,327.767 Q1698.7359,328.8779 1699.5375,329.6232 Q1700.3391,330.3545 1701.7734,330.3545 Q1702.6172,330.3545 1703.2078,330.1295 Q1703.5594,329.9889 1703.9391,329.5951 Q1704.1781,329.3561 1704.3047,329.2857 Q1704.4453,329.2154 1704.6281,329.2154 Q1704.9234,329.2154 1705.1484,329.4545 Q1705.3875,329.6795 1705.3875,329.9889 Q1705.3875,330.2982 1705.0781,330.6639 Q1704.6281,331.1842 1703.9109,331.4795 Q1702.9406,331.8873 1701.7734,331.8873 Q1700.4094,331.8873 1699.3266,331.3248 Q1698.4406,330.8748 1697.8219,329.9186 Q1697.2031,328.9482 1697.2031,327.7951 L1697.2031,326.7545 Q1697.2031,325.5592 1697.7516,324.5326 Q1698.3141,323.492 1699.2984,322.9436 Q1700.2828,322.3811 1701.3938,322.3811 Q1702.0547,322.3811 1702.6313,322.5357 Q1703.2219,322.6764 1703.7141,322.9998 Z " fill="#000000"/><text fill="#000000" font-family="sans-serif" font-size="12.6" lengthAdjust="spacing" textLength="53.1" x="1719.675" y="331.9295">OrderList</text><line style="stroke:#181818;stroke-width:0.45;" x1="1555.2" x2="1908" y1="341.1123" y2="341.1123"/><rect fill="none" height="5.4" style="stroke:#C82930;stroke-width:0.9;" width="5.4" x="1561.5" y="351.7418"/><text fill="#000000" font-family="sans-serif" font-size="12.6" lengthAdjust="spacing" textLength="111.6" x="1572.3" y="358.309">orders: List&lt;Order&gt;</text><line style="stroke:#181818;stroke-width:0.45;" x1="1555.2" x2="1908" y1="365.0713" y2="365.0713"/><ellipse cx="1564.2" cy="378.4008" fill="#84BE84" rx="2.7" ry="2.7" style="stroke:#038048;stroke-width:0.9;"/><text fill="#000000" font-family="sans-serif" font-size="12.6" lengthAdjust="spacing" textLength="165.6" x="1572.3" y="382.268">addOrder(order: Order): void</text><ellipse cx="1564.2" cy="395.1598" fill="#84BE84" rx="2.7" ry="2.7" style="stroke:#038048;stroke-width:0.9;"/><text fill="#000000" font-family="sans-serif" font-size="12.6" lengthAdjust="spacing" textLength="186.3" x="1572.3" y="399.027">removeOrder(order: Order): void</text><ellipse cx="1564.2" cy="411.9188" fill="#84BE84" rx="2.7" ry="2.7" style="stroke:#038048;stroke-width:0.9;"/><text fill="#000000" font-family="sans-serif" font-size="12.6" lengthAdjust="spacing" textLength="141.3" x="1572.3" y="415.7859">getOrders(): List&lt;Order&gt;</text><ellipse cx="1564.2" cy="428.6777" fill="#84BE84" rx="2.7" ry="2.7" style="stroke:#038048;stroke-width:0.9;"/><text fill="#000000" font-family="sans-serif" font-size="12.6" lengthAdjust="spacing" textLength="331.2" x="1572.3" y="432.5449">filterOrdersByCustomer(customer: Customer): List&lt;Order&gt;</text></g><!--class ItemList--><g id="elem_ItemList"><rect codeLine="51" fill="#F1F1F1" height="110.2359" id="ItemList" rx="2.25" ry="2.25" style="stroke:#181818;stroke-width:0.45;" width="182.7" x="1940.85" y="320.8623"/><ellipse cx="2006.775" cy="335.2623" fill="#ADD1B2" rx="9.9" ry="9.9" style="stroke:#181818;stroke-width:0.9;"/><path d="M2009.2641,331.5498 Q2009.4047,331.3529 2009.5734,331.2545 Q2009.7422,331.1561 2009.9391,331.1561 Q2010.2766,331.1561 2010.4875,331.3951 Q2010.6984,331.6201 2010.6984,332.1686 L2010.6984,333.4764 Q2010.6984,334.0248 2010.4875,334.2639 Q2010.2766,334.5029 2009.9391,334.5029 Q2009.6297,334.5029 2009.4469,334.3201 Q2009.2641,334.1514 2009.1656,333.6873 Q2009.1234,333.3639 2008.9547,333.1951 Q2008.6594,332.8576 2008.1109,332.6607 Q2007.5625,332.4639 2007,332.4639 Q2006.3109,332.4639 2005.7344,332.7592 Q2005.1719,333.0545 2004.7219,333.7295 Q2004.2859,334.4045 2004.2859,335.3326 L2004.2859,336.317 Q2004.2859,337.4279 2005.0875,338.1732 Q2005.8891,338.9045 2007.3234,338.9045 Q2008.1672,338.9045 2008.7578,338.6795 Q2009.1094,338.5389 2009.4891,338.1451 Q2009.7281,337.9061 2009.8547,337.8357 Q2009.9953,337.7654 2010.1781,337.7654 Q2010.4734,337.7654 2010.6984,338.0045 Q2010.9375,338.2295 2010.9375,338.5389 Q2010.9375,338.8482 2010.6281,339.2139 Q2010.1781,339.7342 2009.4609,340.0295 Q2008.4906,340.4373 2007.3234,340.4373 Q2005.9594,340.4373 2004.8766,339.8748 Q2003.9906,339.4248 2003.3719,338.4686 Q2002.7531,337.4982 2002.7531,336.3451 L2002.7531,335.3045 Q2002.7531,334.1092 2003.3016,333.0826 Q2003.8641,332.042 2004.8484,331.4936 Q2005.8328,330.9311 2006.9438,330.9311 Q2007.6047,330.9311 2008.1813,331.0857 Q2008.7719,331.2264 2009.2641,331.5498 Z " fill="#000000"/><text fill="#000000" font-family="sans-serif" font-size="12.6" lengthAdjust="spacing" textLength="43.2" x="2025.225" y="340.4795">ItemList</text><line style="stroke:#181818;stroke-width:0.45;" x1="1941.75" x2="2122.65" y1="349.6623" y2="349.6623"/><rect fill="none" height="5.4" style="stroke:#C82930;stroke-width:0.9;" width="5.4" x="1948.05" y="360.2918"/><text fill="#000000" font-family="sans-serif" font-size="12.6" lengthAdjust="spacing" textLength="94.5" x="1958.85" y="366.859">items: List&lt;Item&gt;</text><line style="stroke:#181818;stroke-width:0.45;" x1="1941.75" x2="2122.65" y1="373.6213" y2="373.6213"/><ellipse cx="1950.75" cy="386.9508" fill="#84BE84" rx="2.7" ry="2.7" style="stroke:#038048;stroke-width:0.9;"/><text fill="#000000" font-family="sans-serif" font-size="12.6" lengthAdjust="spacing" textLength="138.6" x="1958.85" y="390.818">addItem(item: Item): void</text><ellipse cx="1950.75" cy="403.7098" fill="#84BE84" rx="2.7" ry="2.7" style="stroke:#038048;stroke-width:0.9;"/><text fill="#000000" font-family="sans-serif" font-size="12.6" lengthAdjust="spacing" textLength="159.3" x="1958.85" y="407.577">removeItem(item: Item): void</text><ellipse cx="1950.75" cy="420.4688" fill="#84BE84" rx="2.7" ry="2.7" style="stroke:#038048;stroke-width:0.9;"/><text fill="#000000" font-family="sans-serif" font-size="12.6" lengthAdjust="spacing" textLength="121.5" x="1958.85" y="424.3359">getItems(): List&lt;Item&gt;</text></g><!--reverse link List to AbstractList--><g id="link_List_AbstractList"><path codeLine="150" d="M2372.49,165.8463 C2373.84,219.0363 2376.216,312.5553 2377.269,354.0363 " fill="none" id="List-backto-AbstractList" style="stroke:#181818;stroke-width:0.9;"/><polygon fill="none" points="2366.19,165.7833,2372.022,147.6303,2378.781,165.4593,2366.19,165.7833" style="stroke:#181818;stroke-width:0.9;"/></g><!--reverse link Collection to AbstractCollection--><g id="link_Collection_AbstractCollection"><path codeLine="151" d="M2247.318,165.8463 C2243.646,219.0363 2237.193,312.5553 2234.34,354.0363 " fill="none" id="Collection-backto-AbstractCollection" style="stroke:#181818;stroke-width:0.9;"/><polygon fill="none" points="2241.045,165.1533,2248.569,147.6303,2253.618,166.0173,2241.045,165.1533" style="stroke:#181818;stroke-width:0.9;"/></g><!--reverse link Collection to List--><g id="link_Collection_List"><path codeLine="153" d="M2310.831,126.0123 C2322.927,126.0123 2335.023,126.0123 2347.11,126.0123 " fill="none" id="Collection-backto-List" style="stroke:#181818;stroke-width:0.9;"/><polygon fill="none" points="2310.48,132.3123,2292.48,126.0123,2310.48,119.7123,2310.48,132.3123" style="stroke:#181818;stroke-width:0.9;"/></g><!--reverse link AbstractCollection to AbstractList--><g id="link_AbstractCollection_AbstractList"><path codeLine="154" d="M2316.852,375.7623 C2321.235,375.7623 2325.609,375.7623 2329.992,375.7623 " fill="none" id="AbstractCollection-backto-AbstractList" style="stroke:#181818;stroke-width:0.9;"/><polygon fill="none" points="2316.843,382.0623,2298.843,375.7623,2316.843,369.4623,2316.843,382.0623" style="stroke:#181818;stroke-width:0.9;"/></g><!--reverse link AbstractList to ArrayList--><g id="link_AbstractList_ArrayList"><path codeLine="155" d="M2374.722,415.5963 C2369.664,479.5413 2359.656,605.9643 2354.67,668.9733 " fill="none" id="AbstractList-backto-ArrayList" style="stroke:#181818;stroke-width:0.9;"/><polygon fill="none" points="2368.449,414.9933,2376.144,397.5423,2381.004,415.9833,2368.449,414.9933" style="stroke:#181818;stroke-width:0.9;"/></g><!--reverse link Customer to Order--><g id="link_Customer_Order"><path codeLine="162" d="M1291.5,895.8993 C1317.78,916.8783 1344.6,938.2983 1371.015,959.3853 " fill="none" id="Customer-backto-Order" style="stroke:#181818;stroke-width:0.9;"/><polygon fill="none" points="1282.23,888.4923,1284.202,894.6754,1290.668,895.2332,1288.696,889.0501,1282.23,888.4923" style="stroke:#181818;stroke-width:0.9;"/><text fill="#000000" font-family="sans-serif" font-size="11.7" lengthAdjust="spacing" textLength="36" x="1338.3" y="928.8378">Places</text></g><!--link StandardCustomer to Customer--><g id="link_StandardCustomer_Customer"><path codeLine="163" d="M883.548,405.9303 C897.957,430.9593 920.061,469.3533 943.713,510.4293 " fill="none" id="StandardCustomer-to-Customer" style="stroke:#181818;stroke-width:0.9;"/><polygon fill="none" points="949.311,507.5313,952.839,526.2783,938.394,513.8223,949.311,507.5313" style="stroke:#181818;stroke-width:0.9;"/></g><!--link PremiumCustomer to Customer--><g id="link_PremiumCustomer_Customer"><path codeLine="164" d="M441.9,430.7613 C508.851,460.7943 596.16,499.9623 683.847,539.3013 " fill="none" id="PremiumCustomer-to-Customer" style="stroke:#181818;stroke-width:0.9;"/><polygon fill="none" points="686.664,533.6583,700.515,546.7713,681.507,545.1513,686.664,533.6583" style="stroke:#181818;stroke-width:0.9;"/></g><!--link Order to Item--><g id="link_Order_Item"><path codeLine="165" d="M1714.095,1354.6023 C1724.022,1374.7713 1734.03,1395.1203 1743.768,1414.9023 " fill="none" id="Order-to-Item" style="stroke:#181818;stroke-width:0.9;"/><polygon fill="none" points="1748.988,1425.5133,1749.8373,1419.0791,1744.2247,1415.8205,1743.3754,1422.2546,1748.988,1425.5133" style="stroke:#181818;stroke-width:0.9;"/><text fill="#000000" font-family="sans-serif" font-size="11.7" lengthAdjust="spacing" textLength="45.9" x="1735.2" y="1395.0378">Contains</text></g><!--link Data to Lists--><g id="link_Data_Lists"><path codeLine="166" d="M1118.7,206.3913 C1118.7,224.2383 1118.7,243.5039 1118.7,262.4091 C1118.7,264.7723 1118.7,267.1298 1118.7,269.4782 C1118.7,270.0653 1118.7,270.6519 1118.7,271.2378 " fill="none" id="Data-to-Lists" style="stroke:#181818;stroke-width:0.9;"/><polygon fill="#181818" points="1118.7,271.2378,1122.3,265.8378,1118.7,260.4378,1115.1,265.8378,1118.7,271.2378" style="stroke:#181818;stroke-width:0.9;"/><text fill="#000000" font-family="sans-serif" font-size="11.7" lengthAdjust="spacing" textLength="45.9" x="1119.6" y="246.6378">Contains</text></g><!--link CustomerList to Customer--><g id="link_CustomerList_Customer"><path codeLine="167" d="M1283.193,439.4823 C1263.87,462.2523 1240.92,489.2973 1217.151,517.3053 " fill="none" id="CustomerList-to-Customer" style="stroke:#181818;stroke-width:0.9;"/><polygon fill="#181818" points="1209.411,526.4313,1215.6499,524.6437,1216.3994,518.1971,1210.1605,519.9847,1209.411,526.4313" style="stroke:#181818;stroke-width:0.9;"/><text fill="#000000" font-family="sans-serif" font-size="11.7" lengthAdjust="spacing" textLength="45.9" x="1247.4" y="495.9378">Contains</text></g><!--link OrderList to Order--><g id="link_OrderList_Order"><path codeLine="168" d="M1722.393,439.4553 C1706.391,548.5713 1672.776,777.7563 1647.855,947.7123 " fill="none" id="OrderList-to-Order" style="stroke:#181818;stroke-width:0.9;"/><polygon fill="#181818" points="1646.154,959.3313,1650.4995,954.5109,1647.7212,948.6456,1643.3757,953.4661,1646.154,959.3313" style="stroke:#181818;stroke-width:0.9;"/><text fill="#000000" font-family="sans-serif" font-size="11.7" lengthAdjust="spacing" textLength="45.9" x="1710.9" y="712.3878">Contains</text></g><!--link ItemList to Item--><g id="link_ItemList_Item"><path codeLine="169" d="M2043.477,430.9233 C2072.511,582.8433 2139.237,1022.9703 2015.1,1354.5123 C2007.189,1375.6533 1996.371,1396.2093 1983.888,1415.7483 " fill="none" id="ItemList-to-Item" style="stroke:#181818;stroke-width:0.9;"/><polygon fill="#181818" points="1977.426,1425.5673,1983.4014,1423.0347,1983.3619,1416.5448,1977.3864,1419.0774,1977.426,1425.5673" style="stroke:#181818;stroke-width:0.9;"/><text fill="#000000" font-family="sans-serif" font-size="11.7" lengthAdjust="spacing" textLength="45.9" x="2088.9" y="928.8378">Contains</text></g><!--reverse link Model to Controller--><g id="link_Model_Controller"><path codeLine="172" d="M2454.302,159.4408 C2454.376,159.7754 2454.4506,160.112 2454.5256,160.4506 C2454.6755,161.1278 2454.8272,161.8129 2454.9806,162.5056 C2455.2874,163.8911 2455.601,165.3073 2455.921,166.7524 C2461.0407,189.8732 2467.7972,220.3857 2474.5534,250.8974 C2481.3096,281.4091 2488.0655,311.92 2493.1841,335.0374 C2493.504,336.4823 2493.8175,337.8983 2494.1242,339.2835 C2494.2776,339.9762 2494.4293,340.6611 2494.5792,341.3382 C2494.6166,341.5075 2494.654,341.6762 2494.6913,341.8445 " fill="none" id="Model-backto-Controller" style="stroke:#181818;stroke-width:0.9;"/><polygon fill="none" points="2454.302,159.4408,2451.9546,165.4914,2456.6369,169.9853,2458.9843,163.9347,2454.302,159.4408" style="stroke:#181818;stroke-width:0.9;"/><text fill="#000000" font-family="sans-serif" font-size="11.7" lengthAdjust="spacing" textLength="59.4" x="2474.1" y="246.6378">Aggregates</text></g><!--reverse link Controller to View--><g id="link_Controller_View"><path codeLine="173" d="M2503.3811,461.0802 C2503.4179,463.3266 2503.4551,465.5994 2503.4927,467.8962 C2503.5679,472.4898 2503.6448,477.1794 2503.7228,481.9459 C2504.0351,501.0116 2504.3676,521.3064 2504.7,541.6008 C2505.0324,561.8952 2505.3649,582.1894 2505.6772,601.254 C2505.8333,610.7864 2505.9844,620.0113 2506.128,628.7752 C2506.1639,630.9662 2506.1993,633.1283 2506.2342,635.2593 C2506.2386,635.5256 2506.2429,635.7915 2506.2473,636.0569 " fill="none" id="Controller-backto-View" style="stroke:#181818;stroke-width:0.9;"/><polygon fill="none" points="2503.3811,461.0802,2499.87,466.5384,2503.5579,471.8787,2507.069,466.4205,2503.3811,461.0802" style="stroke:#181818;stroke-width:0.9;"/><text fill="#000000" font-family="sans-serif" font-size="11.7" lengthAdjust="spacing" textLength="59.4" x="2504.7" y="495.9378">Aggregates</text></g><!--SRC=[nLXBZzis4BxxLn1xgRUskdSX2E3OMtI1-j6rjq0Hv41BZCDMeboIIk4s-zz3KWyENyvkUwWFXitvEFFnut0qudUVf3oB_ExkN64csxhweMZgkwB2GcGbnIUEwydaZ8i_y8cWcryf-Ui6_JD1wcCmQ8qfqwFzeFxCQZKslStHvuQMPlHvyWoSB1icULDLXBkkjgoYZEnbmqdW3VEJoD5USifExp-ule4Bwnfuo4eiSOvMwjjwjSYfDT_2g4oHNRP2DZNXmbaE03n8KYUDMrxwKrqbrar9AbS4JGDoBmO6EHh8_4o5j8361CcH2UQQg2QN8ytHCSnqa2bOx8b8PwNHI1fbLnI6q_PH3YTclqNZihL1t81Lzfi7eWAZBuCslncmRntO39VbO9aEK-no_6qoKpYfcy_ajRDynQwH-aWhIVW8VtSvNCvaAjMN3QA7qcvw0S5H6TJtTHgomJWog50XCpmro7uVhmZpGh2J6ydWdH8TyDtbkkOn9u4EGvhvClIPRtneJ2Y27frgM9UhLnHu2HAcVYJeCpm6-2WanuNqiXuUUePhCbGxEwfOSo94QA1bE4PKsQp2uPhKHoN-9th-aQWGPTCUAn9McqEGdA1o3ji6MSwHnswEBAivSjZCKPJ57AMZkxLgem9hfRt5pKHlWiI2qgpcBpgg2HU3rLjGpD53cV2X37RviPdtMf34vCxcI1PpiOOYQbVUPcfNBYOgUymrb1u-3zn441xmolQbdjTxYLc9UHav13FVzg_pxJQCkrD7cxPrxEnfUSvgregAeccP37Nr9l-7Sv2AvQRxtaCbzZg09Rs7k-7L95szd2P4zIbXBIc9A3WzIzgmq2X8fRgvquxJ8b9d1chBHeG2PsTEpfXZxVX0QxAch9L4AKePw3PCMOR4vYX2I6aS8MALXmJcw4fWhrjISHEdrvWWhzW1Mrcc2JSG4LbNpEaUh3IL8n0IKoRg5sZrZTmpa9YsCR-xgDewWhFH8ecyjbtVp77JMi0aDptEfjKbqcMGXVs9ssDtZO4T-xDLhr9KNfuObLxQTb5K_qqqO_FMONwzClb1LmOOsoUePQhgpyXmZa9cSvHWz8hJiBKyOhi7pJxbQqyV-EI9FdLUqAmFdTdmJk8-fQztTdhkBr2msE9SGAXlpEaMAgwT1bamoZQY4hlqVvuhuwN0LT5MYesXcwmzL2mnAqY5rQYs7vkc8fZ1yqbOMpjT0pYS-yDYireyhiQ1tUFz-k5f7SpNVBNuOEvgyTj-_FFJzkdH_bi_R9uEz_R__dwvtQpsqAjQC-4VSK7G-3fhXvRw0g7GEdLWyohovakMeKLVRCP95ke2V1SkpWODySOUn843VIJEySNOGGCq3i8AI2fI4oPNvZvaU_nTnNd_0IGC_Pl0BEeL6fkeHWNhgcgETfNIHnXxqEDbsPUtxi7ssx4GqVdDigRhJN9pquCfwqAOIvCi-zx89NohSw-WKMCS3sZVgZLgM8e36LyuDSAdCdcUc1kTF3U4j1xscYdFmULKZXQd4oSdTMx4987Hq_NDMfwFTsnmsbS0]--></g></svg>