<?xml version="1.0" encoding="us-ascii" standalone="no"?><svg xmlns="http://www.w3.org/2000/svg" xmlns:xlink="http://www.w3.org/1999/xlink" contentStyleType="text/css" height="1005.6px" preserveAspectRatio="none" style="width:2022px;height:1005px;background:#FFFFFF;" version="1.1" viewBox="0 0 2022 1005" width="2022.6px" zoomAndPan="magnify"><defs/><g><!--cluster View--><g id="cluster_View"><path d="M1663.5,52.8082 L1683.9,52.8082 A2.25,2.25 0 0 1 1685.4,54.3082 L1689.6,67.5809 L1739.7,67.5809 A1.5,1.5 0 0 1 1741.2,69.0809 L1741.2,123.3082 A1.5,1.5 0 0 1 1739.7,124.8082 L1663.5,124.8082 A1.5,1.5 0 0 1 1662,123.3082 L1662,54.3082 A1.5,1.5 0 0 1 1663.5,52.8082 " fill="none" style="stroke:#000000;stroke-width:0.8999999999999999;"/><line style="stroke:#000000;stroke-width:0.8999999999999999;" x1="1662" x2="1689.6" y1="67.5809" y2="67.5809"/><text fill="#000000" font-family="sans-serif" font-size="8.4" font-weight="bold" lengthAdjust="spacing" textLength="19.8" x="1664.4" y="63.0727">View</text></g><!--cluster Controller--><g id="cluster_Controller"><path d="M1757.1,30.6082 L1800.3,30.6082 A2.25,2.25 0 0 1 1801.8,32.1082 L1806,45.3809 L2016.9,45.3809 A1.5,1.5 0 0 1 2018.4,46.8809 L2018.4,145.5082 A1.5,1.5 0 0 1 2016.9,147.0082 L1757.1,147.0082 A1.5,1.5 0 0 1 1755.6,145.5082 L1755.6,32.1082 A1.5,1.5 0 0 1 1757.1,30.6082 " fill="none" style="stroke:#000000;stroke-width:0.8999999999999999;"/><line style="stroke:#000000;stroke-width:0.8999999999999999;" x1="1755.6" x2="1806" y1="45.3809" y2="45.3809"/><text fill="#000000" font-family="sans-serif" font-size="8.4" font-weight="bold" lengthAdjust="spacing" textLength="42.6" x="1758" y="40.8727">Controller</text></g><!--cluster Model--><g id="cluster_Model"><path d="M5.1,3.6082 L32.1,3.6082 A2.25,2.25 0 0 1 33.6,5.1082 L37.8,18.3809 L1646.1,18.3809 A1.5,1.5 0 0 1 1647.6,19.8809 L1647.6,1000.2082 A1.5,1.5 0 0 1 1646.1,1001.7082 L5.1,1001.7082 A1.5,1.5 0 0 1 3.6,1000.2082 L3.6,5.1082 A1.5,1.5 0 0 1 5.1,3.6082 " fill="none" style="stroke:#000000;stroke-width:0.8999999999999999;"/><line style="stroke:#000000;stroke-width:0.8999999999999999;" x1="3.6" x2="37.8" y1="18.3809" y2="18.3809"/><text fill="#000000" font-family="sans-serif" font-size="8.4" font-weight="bold" lengthAdjust="spacing" textLength="26.4" x="6" y="13.8727">Model</text></g><!--cluster Lists--><g id="cluster_Lists"><path d="M1109.7,30.6082 L1130.1,30.6082 A2.25,2.25 0 0 1 1131.6,32.1082 L1135.8,45.3809 L1631.7,45.3809 A1.5,1.5 0 0 1 1633.2,46.8809 L1633.2,350.4082 A1.5,1.5 0 0 1 1631.7,351.9082 L1109.7,351.9082 A1.5,1.5 0 0 1 1108.2,350.4082 L1108.2,32.1082 A1.5,1.5 0 0 1 1109.7,30.6082 " fill="none" style="stroke:#000000;stroke-width:0.8999999999999999;"/><line style="stroke:#000000;stroke-width:0.8999999999999999;" x1="1108.2" x2="1135.8" y1="45.3809" y2="45.3809"/><text fill="#000000" font-family="sans-serif" font-size="8.4" font-weight="bold" lengthAdjust="spacing" textLength="19.8" x="1110.6" y="40.8727">Lists</text></g><!--class MainView--><g id="elem_MainView"><rect codeLine="4" fill="#F1F1F1" height="39.9727" id="MainView" rx="1.5" ry="1.5" style="stroke:#181818;stroke-width:0.3;" width="60" x="1671.6" y="75.0082"/><ellipse cx="1683.03" cy="84.6082" fill="#ADD1B2" rx="6.6" ry="6.6" style="stroke:#181818;stroke-width:0.6;"/><path d="M1684.6894,82.1332 Q1684.7831,82.002 1684.8956,81.9363 Q1685.0081,81.8707 1685.1394,81.8707 Q1685.3644,81.8707 1685.505,82.0301 Q1685.6456,82.1801 1685.6456,82.5457 L1685.6456,83.4176 Q1685.6456,83.7832 1685.505,83.9426 Q1685.3644,84.102 1685.1394,84.102 Q1684.9331,84.102 1684.8113,83.9801 Q1684.6894,83.8676 1684.6238,83.5582 Q1684.5956,83.3426 1684.4831,83.2301 Q1684.2863,83.0051 1683.9206,82.8738 Q1683.555,82.7426 1683.18,82.7426 Q1682.7206,82.7426 1682.3363,82.9395 Q1681.9613,83.1363 1681.6613,83.5863 Q1681.3706,84.0363 1681.3706,84.6551 L1681.3706,85.3113 Q1681.3706,86.052 1681.905,86.5488 Q1682.4394,87.0363 1683.3956,87.0363 Q1683.9581,87.0363 1684.3519,86.8863 Q1684.5863,86.7926 1684.8394,86.5301 Q1684.9988,86.3707 1685.0831,86.3238 Q1685.1769,86.277 1685.2988,86.277 Q1685.4956,86.277 1685.6456,86.4363 Q1685.805,86.5863 1685.805,86.7926 Q1685.805,86.9988 1685.5988,87.2426 Q1685.2988,87.5895 1684.8206,87.7863 Q1684.1738,88.0582 1683.3956,88.0582 Q1682.4863,88.0582 1681.7644,87.6832 Q1681.1738,87.3832 1680.7613,86.7457 Q1680.3488,86.0988 1680.3488,85.3301 L1680.3488,84.6363 Q1680.3488,83.8395 1680.7144,83.1551 Q1681.0894,82.4613 1681.7456,82.0957 Q1682.4019,81.7207 1683.1425,81.7207 Q1683.5831,81.7207 1683.9675,81.8238 Q1684.3613,81.9176 1684.6894,82.1332 Z " fill="#000000"/><text fill="#000000" font-family="sans-serif" font-size="8.4" lengthAdjust="spacing" textLength="35.4" x="1691.97" y="88.0863">MainView</text><line style="stroke:#181818;stroke-width:0.3;" x1="1672.2" x2="1731" y1="94.2082" y2="94.2082"/><line style="stroke:#181818;stroke-width:0.3;" x1="1672.2" x2="1731" y1="99.0082" y2="99.0082"/><ellipse cx="1678.2" cy="107.8945" fill="#84BE84" rx="1.8" ry="1.8" style="stroke:#038048;stroke-width:0.6;"/><text fill="#000000" font-family="sans-serif" font-size="8.4" lengthAdjust="spacing" textLength="44.4" x="1683.6" y="110.4727">main(): void</text></g><!--class OnlineStore--><g id="elem_OnlineStore"><rect codeLine="10" fill="#F1F1F1" height="39.9727" id="OnlineStore" rx="1.5" ry="1.5" style="stroke:#181818;stroke-width:0.3;" width="108.6" x="1899.9" y="75.0082"/><ellipse cx="1929.15" cy="84.6082" fill="#ADD1B2" rx="6.6" ry="6.6" style="stroke:#181818;stroke-width:0.6;"/><path d="M1930.8094,82.1332 Q1930.9031,82.002 1931.0156,81.9363 Q1931.1281,81.8707 1931.2594,81.8707 Q1931.4844,81.8707 1931.625,82.0301 Q1931.7656,82.1801 1931.7656,82.5457 L1931.7656,83.4176 Q1931.7656,83.7832 1931.625,83.9426 Q1931.4844,84.102 1931.2594,84.102 Q1931.0531,84.102 1930.9312,83.9801 Q1930.8094,83.8676 1930.7437,83.5582 Q1930.7156,83.3426 1930.6031,83.2301 Q1930.4063,83.0051 1930.0406,82.8738 Q1929.675,82.7426 1929.3,82.7426 Q1928.8406,82.7426 1928.4563,82.9395 Q1928.0813,83.1363 1927.7813,83.5863 Q1927.4906,84.0363 1927.4906,84.6551 L1927.4906,85.3113 Q1927.4906,86.052 1928.025,86.5488 Q1928.5594,87.0363 1929.5156,87.0363 Q1930.0781,87.0363 1930.4719,86.8863 Q1930.7063,86.7926 1930.9594,86.5301 Q1931.1187,86.3707 1931.2031,86.3238 Q1931.2969,86.277 1931.4187,86.277 Q1931.6156,86.277 1931.7656,86.4363 Q1931.925,86.5863 1931.925,86.7926 Q1931.925,86.9988 1931.7188,87.2426 Q1931.4187,87.5895 1930.9406,87.7863 Q1930.2937,88.0582 1929.5156,88.0582 Q1928.6062,88.0582 1927.8844,87.6832 Q1927.2937,87.3832 1926.8813,86.7457 Q1926.4688,86.0988 1926.4688,85.3301 L1926.4688,84.6363 Q1926.4688,83.8395 1926.8344,83.1551 Q1927.2094,82.4613 1927.8656,82.0957 Q1928.5219,81.7207 1929.2625,81.7207 Q1929.7031,81.7207 1930.0875,81.8238 Q1930.4812,81.9176 1930.8094,82.1332 Z " fill="#000000"/><text fill="#000000" font-family="sans-serif" font-size="8.4" lengthAdjust="spacing" textLength="45" x="1941.45" y="88.0863">OnlineStore</text><line style="stroke:#181818;stroke-width:0.3;" x1="1900.5" x2="2007.9" y1="94.2082" y2="94.2082"/><line style="stroke:#181818;stroke-width:0.3;" x1="1900.5" x2="2007.9" y1="99.0082" y2="99.0082"/><ellipse cx="1906.5" cy="107.8945" fill="#84BE84" rx="1.8" ry="1.8" style="stroke:#038048;stroke-width:0.6;"/><text fill="#000000" font-family="sans-serif" font-size="8.4" lengthAdjust="spacing" textLength="93" x="1911.9" y="110.4727">main(args: String[]): void</text></g><!--class Controller--><g id="elem_Controller"><rect codeLine="14" fill="#F1F1F1" height="84.6633" id="Controller" rx="1.5" ry="1.5" style="stroke:#181818;stroke-width:0.3;" width="113.4" x="1765.5" y="52.8082"/><ellipse cx="1801.05" cy="62.4082" fill="#ADD1B2" rx="6.6" ry="6.6" style="stroke:#181818;stroke-width:0.6;"/><path d="M1802.7094,59.9332 Q1802.8031,59.802 1802.9156,59.7363 Q1803.0281,59.6707 1803.1594,59.6707 Q1803.3844,59.6707 1803.525,59.8301 Q1803.6656,59.9801 1803.6656,60.3457 L1803.6656,61.2176 Q1803.6656,61.5832 1803.525,61.7426 Q1803.3844,61.902 1803.1594,61.902 Q1802.9531,61.902 1802.8313,61.7801 Q1802.7094,61.6676 1802.6438,61.3582 Q1802.6156,61.1426 1802.5031,61.0301 Q1802.3062,60.8051 1801.9406,60.6738 Q1801.575,60.5426 1801.2,60.5426 Q1800.7406,60.5426 1800.3563,60.7395 Q1799.9813,60.9363 1799.6812,61.3863 Q1799.3906,61.8363 1799.3906,62.4551 L1799.3906,63.1113 Q1799.3906,63.852 1799.925,64.3488 Q1800.4594,64.8363 1801.4156,64.8363 Q1801.9781,64.8363 1802.3719,64.6863 Q1802.6063,64.5926 1802.8594,64.3301 Q1803.0188,64.1707 1803.1031,64.1238 Q1803.1969,64.077 1803.3188,64.077 Q1803.5156,64.077 1803.6656,64.2363 Q1803.825,64.3863 1803.825,64.5926 Q1803.825,64.7988 1803.6187,65.0426 Q1803.3188,65.3895 1802.8406,65.5863 Q1802.1938,65.8582 1801.4156,65.8582 Q1800.5063,65.8582 1799.7844,65.4832 Q1799.1938,65.1832 1798.7813,64.5457 Q1798.3687,63.8988 1798.3687,63.1301 L1798.3687,62.4363 Q1798.3687,61.6395 1798.7344,60.9551 Q1799.1094,60.2613 1799.7656,59.8957 Q1800.4219,59.5207 1801.1625,59.5207 Q1801.6031,59.5207 1801.9875,59.6238 Q1802.3813,59.7176 1802.7094,59.9332 Z " fill="#000000"/><text fill="#000000" font-family="sans-serif" font-size="8.4" lengthAdjust="spacing" textLength="37.2" x="1813.35" y="65.8863">Controller</text><line style="stroke:#181818;stroke-width:0.3;" x1="1766.1" x2="1878.3" y1="72.0082" y2="72.0082"/><rect fill="none" height="3.6" style="stroke:#C82930;stroke-width:0.6;" width="3.6" x="1770.3" y="79.0945"/><text fill="#000000" font-family="sans-serif" font-size="8.4" lengthAdjust="spacing" textLength="39.6" x="1777.5" y="83.4727">data: Data</text><line style="stroke:#181818;stroke-width:0.3;" x1="1766.1" x2="1878.3" y1="87.9809" y2="87.9809"/><ellipse cx="1772.1" cy="96.8672" fill="#84BE84" rx="1.8" ry="1.8" style="stroke:#038048;stroke-width:0.6;"/><text fill="#000000" font-family="sans-serif" font-size="8.4" lengthAdjust="spacing" textLength="82.8" x="1777.5" y="99.4453">Controller(data: Data)</text><ellipse cx="1772.1" cy="108.0398" fill="#84BE84" rx="1.8" ry="1.8" style="stroke:#038048;stroke-width:0.6;"/><text fill="#000000" font-family="sans-serif" font-size="8.4" lengthAdjust="spacing" textLength="97.8" x="1777.5" y="110.618">manageCustomers(): void</text><ellipse cx="1772.1" cy="119.2125" fill="#84BE84" rx="1.8" ry="1.8" style="stroke:#038048;stroke-width:0.6;"/><text fill="#000000" font-family="sans-serif" font-size="8.4" lengthAdjust="spacing" textLength="76.8" x="1777.5" y="121.7906">manageItems(): void</text><ellipse cx="1772.1" cy="130.3852" fill="#84BE84" rx="1.8" ry="1.8" style="stroke:#038048;stroke-width:0.6;"/><text fill="#000000" font-family="sans-serif" font-size="8.4" lengthAdjust="spacing" textLength="83.4" x="1777.5" y="132.9633">manageOrders(): void</text></g><!--class Data--><g id="elem_Data"><rect codeLine="24" fill="#F1F1F1" height="107.0086" id="Data" rx="1.5" ry="1.5" style="stroke:#181818;stroke-width:0.3;" width="129" x="740.7" y="41.7082"/><ellipse cx="793.65" cy="51.3082" fill="#ADD1B2" rx="6.6" ry="6.6" style="stroke:#181818;stroke-width:0.6;"/><path d="M795.3094,48.8332 Q795.4031,48.702 795.5156,48.6363 Q795.6281,48.5707 795.7594,48.5707 Q795.9844,48.5707 796.125,48.7301 Q796.2656,48.8801 796.2656,49.2457 L796.2656,50.1176 Q796.2656,50.4832 796.125,50.6426 Q795.9844,50.802 795.7594,50.802 Q795.5531,50.802 795.4313,50.6801 Q795.3094,50.5676 795.2438,50.2582 Q795.2156,50.0426 795.1031,49.9301 Q794.9063,49.7051 794.5406,49.5738 Q794.175,49.4426 793.8,49.4426 Q793.3406,49.4426 792.9563,49.6395 Q792.5813,49.8363 792.2813,50.2863 Q791.9906,50.7363 791.9906,51.3551 L791.9906,52.0113 Q791.9906,52.752 792.525,53.2488 Q793.0594,53.7363 794.0156,53.7363 Q794.5781,53.7363 794.9719,53.5863 Q795.2063,53.4926 795.4594,53.2301 Q795.6188,53.0707 795.7031,53.0238 Q795.7969,52.977 795.9187,52.977 Q796.1156,52.977 796.2656,53.1363 Q796.425,53.2863 796.425,53.4926 Q796.425,53.6988 796.2188,53.9426 Q795.9187,54.2895 795.4406,54.4863 Q794.7937,54.7582 794.0156,54.7582 Q793.1062,54.7582 792.3844,54.3832 Q791.7937,54.0832 791.3813,53.4457 Q790.9688,52.7988 790.9688,52.0301 L790.9688,51.3363 Q790.9688,50.5395 791.3344,49.8551 Q791.7094,49.1613 792.3656,48.7957 Q793.0219,48.4207 793.7625,48.4207 Q794.2031,48.4207 794.5875,48.5238 Q794.9812,48.6176 795.3094,48.8332 Z " fill="#000000"/><text fill="#000000" font-family="sans-serif" font-size="8.4" lengthAdjust="spacing" textLength="18" x="805.95" y="54.7863">Data</text><line style="stroke:#181818;stroke-width:0.3;" x1="741.3" x2="869.1" y1="60.9082" y2="60.9082"/><rect fill="none" height="3.6" style="stroke:#C82930;stroke-width:0.6;" width="3.6" x="745.5" y="67.9945"/><text fill="#000000" font-family="sans-serif" font-size="8.4" lengthAdjust="spacing" textLength="93.6" x="752.7" y="72.3727">customers: CustomerList</text><rect fill="none" height="3.6" style="stroke:#C82930;stroke-width:0.6;" width="3.6" x="745.5" y="79.1672"/><text fill="#000000" font-family="sans-serif" font-size="8.4" lengthAdjust="spacing" textLength="64.8" x="752.7" y="83.5453">orders: OrderList</text><rect fill="none" height="3.6" style="stroke:#C82930;stroke-width:0.6;" width="3.6" x="745.5" y="90.3398"/><text fill="#000000" font-family="sans-serif" font-size="8.4" lengthAdjust="spacing" textLength="53.4" x="752.7" y="94.718">items: ItemList</text><line style="stroke:#181818;stroke-width:0.3;" x1="741.3" x2="869.1" y1="99.2262" y2="99.2262"/><ellipse cx="747.3" cy="108.1125" fill="#84BE84" rx="1.8" ry="1.8" style="stroke:#038048;stroke-width:0.6;"/><text fill="#000000" font-family="sans-serif" font-size="8.4" lengthAdjust="spacing" textLength="24" x="752.7" y="110.6906">Data()</text><ellipse cx="747.3" cy="119.2852" fill="#84BE84" rx="1.8" ry="1.8" style="stroke:#038048;stroke-width:0.6;"/><text fill="#000000" font-family="sans-serif" font-size="8.4" lengthAdjust="spacing" textLength="113.4" x="752.7" y="121.8633">getCustomers(): CustomerList</text><ellipse cx="747.3" cy="130.4578" fill="#84BE84" rx="1.8" ry="1.8" style="stroke:#038048;stroke-width:0.6;"/><text fill="#000000" font-family="sans-serif" font-size="8.4" lengthAdjust="spacing" textLength="84.6" x="752.7" y="133.0359">getOrders(): OrderList</text><ellipse cx="747.3" cy="141.6305" fill="#84BE84" rx="1.8" ry="1.8" style="stroke:#038048;stroke-width:0.6;"/><text fill="#000000" font-family="sans-serif" font-size="8.4" lengthAdjust="spacing" textLength="71.4" x="752.7" y="144.2086">getItems(): ItemList</text></g><!--class Customer--><g id="elem_Customer"><rect codeLine="59" fill="#F1F1F1" height="241.0805" id="Customer" rx="1.5" ry="1.5" style="stroke:#181818;stroke-width:0.3;" width="474.6" x="156.9" y="185.1082"/><ellipse cx="373.35" cy="194.7082" fill="#A9DCDF" rx="6.6" ry="6.6" style="stroke:#181818;stroke-width:0.6;"/><path d="M374.6625,195.7676 L372.1781,195.7676 L371.925,196.3863 L372.1781,196.3863 Q372.5438,196.3863 372.7031,196.527 Q372.8625,196.6676 372.8625,196.902 Q372.8625,197.127 372.7031,197.2676 Q372.5438,197.4082 372.1781,197.4082 L370.8,197.4082 Q370.4344,197.4082 370.2844,197.2676 Q370.125,197.127 370.125,196.8926 Q370.125,196.6676 370.2938,196.527 Q370.4531,196.377 370.8281,196.3863 L372.4313,192.3926 L371.7656,192.3926 Q371.4,192.3926 371.2406,192.252 Q371.0813,192.1113 371.0813,191.877 Q371.0813,191.652 371.2406,191.5113 Q371.4,191.3707 371.7656,191.3707 L373.9688,191.3707 L376.0031,196.3863 Q376.3594,196.3863 376.4719,196.4707 Q376.7063,196.6301 376.7063,196.902 Q376.7063,197.127 376.5469,197.2676 Q376.3969,197.4082 376.0313,197.4082 L374.6531,197.4082 Q374.2875,197.4082 374.1281,197.2676 Q373.9688,197.127 373.9688,196.8926 Q373.9688,196.6676 374.1281,196.527 Q374.2875,196.3863 374.6531,196.3863 L374.9063,196.3863 L374.6625,195.7676 Z M374.2313,194.7457 L373.4156,192.7207 L372.5906,194.7457 L374.2313,194.7457 Z " fill="#000000"/><text fill="#000000" font-family="sans-serif" font-size="8.4" font-style="italic" lengthAdjust="spacing" textLength="36.6" x="385.65" y="198.1863">Customer</text><line style="stroke:#181818;stroke-width:0.3;" x1="157.5" x2="630.9" y1="204.3082" y2="204.3082"/><rect fill="none" height="3.6" style="stroke:#C82930;stroke-width:0.6;" width="3.6" x="161.7" y="211.3945"/><text fill="#000000" font-family="sans-serif" font-size="8.4" lengthAdjust="spacing" textLength="48" x="168.9" y="215.7727">name: String</text><rect fill="none" height="3.6" style="stroke:#C82930;stroke-width:0.6;" width="3.6" x="161.7" y="222.5672"/><text fill="#000000" font-family="sans-serif" font-size="8.4" lengthAdjust="spacing" textLength="57.6" x="168.9" y="226.9453">address: String</text><rect fill="none" height="3.6" style="stroke:#C82930;stroke-width:0.6;" width="3.6" x="161.7" y="233.7398"/><text fill="#000000" font-family="sans-serif" font-size="8.4" lengthAdjust="spacing" textLength="33.6" x="168.9" y="238.118">id: String</text><rect fill="none" height="3.6" style="stroke:#C82930;stroke-width:0.6;" width="3.6" x="161.7" y="244.9125"/><text fill="#000000" font-family="sans-serif" font-size="8.4" lengthAdjust="spacing" textLength="46.8" x="168.9" y="249.2906">email: String</text><rect fill="none" height="3.6" style="stroke:#C82930;stroke-width:0.6;" width="3.6" x="161.7" y="256.0852"/><text fill="#000000" font-family="sans-serif" font-size="8.4" lengthAdjust="spacing" textLength="91.8" x="168.9" y="260.4633">membershipFee: double</text><rect fill="none" height="3.6" style="stroke:#C82930;stroke-width:0.6;" width="3.6" x="161.7" y="267.2578"/><text fill="#000000" font-family="sans-serif" font-size="8.4" lengthAdjust="spacing" textLength="114.6" x="168.9" y="271.6359">customerType: CustomerType</text><line style="stroke:#181818;stroke-width:0.3;" x1="157.5" x2="630.9" y1="276.1441" y2="276.1441"/><ellipse cx="163.5" cy="285.0305" fill="#84BE84" rx="1.8" ry="1.8" style="stroke:#038048;stroke-width:0.6;"/><text fill="#000000" font-family="sans-serif" font-size="8.4" lengthAdjust="spacing" textLength="459" x="168.9" y="287.6086">Customer(name: String, address: String, id: String, email: String, membershipFee: double, customerType: CustomerType)</text><ellipse cx="163.5" cy="296.2031" fill="#84BE84" rx="1.8" ry="1.8" style="stroke:#038048;stroke-width:0.6;"/><text fill="#000000" font-family="sans-serif" font-size="8.4" lengthAdjust="spacing" textLength="66.6" x="168.9" y="298.7813">getName(): String</text><ellipse cx="163.5" cy="307.3758" fill="#84BE84" rx="1.8" ry="1.8" style="stroke:#038048;stroke-width:0.6;"/><text fill="#000000" font-family="sans-serif" font-size="8.4" lengthAdjust="spacing" textLength="107.4" x="168.9" y="309.9539">setName(name: String): void</text><ellipse cx="163.5" cy="318.5484" fill="#84BE84" rx="1.8" ry="1.8" style="stroke:#038048;stroke-width:0.6;"/><text fill="#000000" font-family="sans-serif" font-size="8.4" lengthAdjust="spacing" textLength="76.2" x="168.9" y="321.1266">getAddress(): String</text><ellipse cx="163.5" cy="329.7211" fill="#84BE84" rx="1.8" ry="1.8" style="stroke:#038048;stroke-width:0.6;"/><text fill="#000000" font-family="sans-serif" font-size="8.4" lengthAdjust="spacing" textLength="126.6" x="168.9" y="332.2992">setAddress(address: String): void</text><ellipse cx="163.5" cy="340.8938" fill="#84BE84" rx="1.8" ry="1.8" style="stroke:#038048;stroke-width:0.6;"/><text fill="#000000" font-family="sans-serif" font-size="8.4" lengthAdjust="spacing" textLength="51.6" x="168.9" y="343.4719">getId(): String</text><ellipse cx="163.5" cy="352.0664" fill="#84BE84" rx="1.8" ry="1.8" style="stroke:#038048;stroke-width:0.6;"/><text fill="#000000" font-family="sans-serif" font-size="8.4" lengthAdjust="spacing" textLength="78" x="168.9" y="354.6445">setId(id: String): void</text><ellipse cx="163.5" cy="363.2391" fill="#84BE84" rx="1.8" ry="1.8" style="stroke:#038048;stroke-width:0.6;"/><text fill="#000000" font-family="sans-serif" font-size="8.4" lengthAdjust="spacing" textLength="65.4" x="168.9" y="365.8172">getEmail(): String</text><ellipse cx="163.5" cy="374.4117" fill="#84BE84" rx="1.8" ry="1.8" style="stroke:#038048;stroke-width:0.6;"/><text fill="#000000" font-family="sans-serif" font-size="8.4" lengthAdjust="spacing" textLength="105" x="168.9" y="376.9898">setEmail(email: String): void</text><ellipse cx="163.5" cy="385.5844" fill="#84BE84" rx="1.8" ry="1.8" style="stroke:#038048;stroke-width:0.6;"/><text fill="#000000" font-family="sans-serif" font-size="8.4" lengthAdjust="spacing" textLength="109.8" x="168.9" y="388.1625">getMembershipFee(): double</text><ellipse cx="163.5" cy="396.757" fill="#84BE84" rx="1.8" ry="1.8" style="stroke:#038048;stroke-width:0.6;"/><text fill="#000000" font-family="sans-serif" font-size="8.4" lengthAdjust="spacing" textLength="190.8" x="168.9" y="399.3352">setMembershipFee(membershipFee: double): void</text><ellipse cx="163.5" cy="407.9297" fill="#84BE84" rx="1.8" ry="1.8" style="stroke:#038048;stroke-width:0.6;"/><text fill="#000000" font-family="sans-serif" font-size="8.4" lengthAdjust="spacing" textLength="134.4" x="168.9" y="410.5078">getCustomerType(): CustomerType</text><ellipse cx="163.5" cy="419.1023" fill="#84BE84" rx="1.8" ry="1.8" style="stroke:#038048;stroke-width:0.6;"/><text fill="#000000" font-family="sans-serif" font-size="8.4" lengthAdjust="spacing" textLength="208.2" x="168.9" y="421.6805">setCustomerType(customerType: CustomerType): void</text></g><!--class StandardCustomer--><g id="elem_StandardCustomer"><rect codeLine="81" fill="#F1F1F1" height="39.9727" id="StandardCustomer" rx="1.5" ry="1.5" style="stroke:#181818;stroke-width:0.3;" width="293.4" x="426.3" y="75.0082"/><ellipse cx="534.75" cy="84.6082" fill="#ADD1B2" rx="6.6" ry="6.6" style="stroke:#181818;stroke-width:0.6;"/><path d="M536.4094,82.1332 Q536.5031,82.002 536.6156,81.9363 Q536.7281,81.8707 536.8594,81.8707 Q537.0844,81.8707 537.225,82.0301 Q537.3656,82.1801 537.3656,82.5457 L537.3656,83.4176 Q537.3656,83.7832 537.225,83.9426 Q537.0844,84.102 536.8594,84.102 Q536.6531,84.102 536.5313,83.9801 Q536.4094,83.8676 536.3438,83.5582 Q536.3156,83.3426 536.2031,83.2301 Q536.0063,83.0051 535.6406,82.8738 Q535.275,82.7426 534.9,82.7426 Q534.4406,82.7426 534.0563,82.9395 Q533.6813,83.1363 533.3813,83.5863 Q533.0906,84.0363 533.0906,84.6551 L533.0906,85.3113 Q533.0906,86.052 533.625,86.5488 Q534.1594,87.0363 535.1156,87.0363 Q535.6781,87.0363 536.0719,86.8863 Q536.3063,86.7926 536.5594,86.5301 Q536.7188,86.3707 536.8031,86.3238 Q536.8969,86.277 537.0188,86.277 Q537.2156,86.277 537.3656,86.4363 Q537.525,86.5863 537.525,86.7926 Q537.525,86.9988 537.3188,87.2426 Q537.0188,87.5895 536.5406,87.7863 Q535.8938,88.0582 535.1156,88.0582 Q534.2063,88.0582 533.4844,87.6832 Q532.8938,87.3832 532.4812,86.7457 Q532.0688,86.0988 532.0688,85.3301 L532.0688,84.6363 Q532.0688,83.8395 532.4344,83.1551 Q532.8094,82.4613 533.4656,82.0957 Q534.1219,81.7207 534.8625,81.7207 Q535.3031,81.7207 535.6875,81.8238 Q536.0813,81.9176 536.4094,82.1332 Z " fill="#000000"/><text fill="#000000" font-family="sans-serif" font-size="8.4" lengthAdjust="spacing" textLength="71.4" x="547.05" y="88.0863">StandardCustomer</text><line style="stroke:#181818;stroke-width:0.3;" x1="426.9" x2="719.1" y1="94.2082" y2="94.2082"/><line style="stroke:#181818;stroke-width:0.3;" x1="426.9" x2="719.1" y1="99.0082" y2="99.0082"/><ellipse cx="432.9" cy="107.8945" fill="#84BE84" rx="1.8" ry="1.8" style="stroke:#038048;stroke-width:0.6;"/><text fill="#000000" font-family="sans-serif" font-size="8.4" lengthAdjust="spacing" textLength="277.8" x="438.3" y="110.4727">StandardCustomer(name: String, address: String, id: String, email: String)</text></g><!--class PremiumCustomer--><g id="elem_PremiumCustomer"><rect codeLine="85" fill="#F1F1F1" height="73.4906" id="PremiumCustomer" rx="1.5" ry="1.5" style="stroke:#181818;stroke-width:0.3;" width="391.8" x="13.5" y="58.5082"/><ellipse cx="172.05" cy="68.1082" fill="#ADD1B2" rx="6.6" ry="6.6" style="stroke:#181818;stroke-width:0.6;"/><path d="M173.7094,65.6332 Q173.8031,65.502 173.9156,65.4363 Q174.0281,65.3707 174.1594,65.3707 Q174.3844,65.3707 174.525,65.5301 Q174.6656,65.6801 174.6656,66.0457 L174.6656,66.9176 Q174.6656,67.2832 174.525,67.4426 Q174.3844,67.602 174.1594,67.602 Q173.9531,67.602 173.8312,67.4801 Q173.7094,67.3676 173.6437,67.0582 Q173.6156,66.8426 173.5031,66.7301 Q173.3063,66.5051 172.9406,66.3738 Q172.575,66.2426 172.2,66.2426 Q171.7406,66.2426 171.3563,66.4395 Q170.9813,66.6363 170.6813,67.0863 Q170.3906,67.5363 170.3906,68.1551 L170.3906,68.8113 Q170.3906,69.552 170.925,70.0488 Q171.4594,70.5363 172.4156,70.5363 Q172.9781,70.5363 173.3719,70.3863 Q173.6063,70.2926 173.8594,70.0301 Q174.0187,69.8707 174.1031,69.8238 Q174.1969,69.777 174.3188,69.777 Q174.5156,69.777 174.6656,69.9363 Q174.825,70.0863 174.825,70.2926 Q174.825,70.4988 174.6188,70.7426 Q174.3188,71.0895 173.8406,71.2863 Q173.1938,71.5582 172.4156,71.5582 Q171.5063,71.5582 170.7844,71.1832 Q170.1938,70.8832 169.7813,70.2457 Q169.3688,69.5988 169.3688,68.8301 L169.3688,68.1363 Q169.3688,67.3395 169.7344,66.6551 Q170.1094,65.9613 170.7656,65.5957 Q171.4219,65.2207 172.1625,65.2207 Q172.6031,65.2207 172.9875,65.3238 Q173.3813,65.4176 173.7094,65.6332 Z " fill="#000000"/><text fill="#000000" font-family="sans-serif" font-size="8.4" lengthAdjust="spacing" textLength="69.6" x="184.35" y="71.5863">PremiumCustomer</text><line style="stroke:#181818;stroke-width:0.3;" x1="14.1" x2="404.7" y1="77.7082" y2="77.7082"/><rect fill="none" height="3.6" style="stroke:#C82930;stroke-width:0.6;" width="3.6" x="18.3" y="84.7945"/><text fill="#000000" font-family="sans-serif" font-size="8.4" lengthAdjust="spacing" textLength="95.4" x="25.5" y="89.1727">shippingDiscount: double</text><line style="stroke:#181818;stroke-width:0.3;" x1="14.1" x2="404.7" y1="93.6809" y2="93.6809"/><ellipse cx="20.1" cy="102.5672" fill="#84BE84" rx="1.8" ry="1.8" style="stroke:#038048;stroke-width:0.6;"/><text fill="#000000" font-family="sans-serif" font-size="8.4" lengthAdjust="spacing" textLength="376.2" x="25.5" y="105.1453">PremiumCustomer(name: String, address: String, id: String, email: String, shippingDiscount: double)</text><ellipse cx="20.1" cy="113.7398" fill="#84BE84" rx="1.8" ry="1.8" style="stroke:#038048;stroke-width:0.6;"/><text fill="#000000" font-family="sans-serif" font-size="8.4" lengthAdjust="spacing" textLength="114.6" x="25.5" y="116.318">getShippingDiscount(): double</text><ellipse cx="20.1" cy="124.9125" fill="#84BE84" rx="1.8" ry="1.8" style="stroke:#038048;stroke-width:0.6;"/><text fill="#000000" font-family="sans-serif" font-size="8.4" lengthAdjust="spacing" textLength="199.2" x="25.5" y="127.4906">setShippingDiscount(shippingDiscount: double): void</text></g><!--class Item--><g id="elem_Item"><rect codeLine="92" fill="#F1F1F1" height="207.5625" id="Item" rx="1.5" ry="1.5" style="stroke:#181818;stroke-width:0.3;" width="429.6" x="179.4" y="784.5082"/><ellipse cx="383.55" cy="794.1082" fill="#A9DCDF" rx="6.6" ry="6.6" style="stroke:#181818;stroke-width:0.6;"/><path d="M384.8625,795.1676 L382.3781,795.1676 L382.125,795.7863 L382.3781,795.7863 Q382.7438,795.7863 382.9031,795.927 Q383.0625,796.0676 383.0625,796.302 Q383.0625,796.527 382.9031,796.6676 Q382.7438,796.8082 382.3781,796.8082 L381,796.8082 Q380.6344,796.8082 380.4844,796.6676 Q380.325,796.527 380.325,796.2926 Q380.325,796.0676 380.4938,795.927 Q380.6531,795.777 381.0281,795.7863 L382.6312,791.7926 L381.9656,791.7926 Q381.6,791.7926 381.4406,791.652 Q381.2813,791.5113 381.2813,791.277 Q381.2813,791.052 381.4406,790.9113 Q381.6,790.7707 381.9656,790.7707 L384.1688,790.7707 L386.2031,795.7863 Q386.5594,795.7863 386.6719,795.8707 Q386.9063,796.0301 386.9063,796.302 Q386.9063,796.527 386.7469,796.6676 Q386.5969,796.8082 386.2313,796.8082 L384.8531,796.8082 Q384.4875,796.8082 384.3281,796.6676 Q384.1688,796.527 384.1688,796.2926 Q384.1688,796.0676 384.3281,795.927 Q384.4875,795.7863 384.8531,795.7863 L385.1063,795.7863 L384.8625,795.1676 Z M384.4313,794.1457 L383.6156,792.1207 L382.7906,794.1457 L384.4313,794.1457 Z " fill="#000000"/><text fill="#000000" font-family="sans-serif" font-size="8.4" font-style="italic" lengthAdjust="spacing" textLength="16.2" x="395.85" y="797.5863">Item</text><line style="stroke:#181818;stroke-width:0.3;" x1="180" x2="608.4" y1="803.7082" y2="803.7082"/><rect fill="none" height="3.6" style="stroke:#C82930;stroke-width:0.6;" width="3.6" x="184.2" y="810.7945"/><text fill="#000000" font-family="sans-serif" font-size="8.4" lengthAdjust="spacing" textLength="45.6" x="191.4" y="815.1727">code: String</text><rect fill="none" height="3.6" style="stroke:#C82930;stroke-width:0.6;" width="3.6" x="184.2" y="821.9672"/><text fill="#000000" font-family="sans-serif" font-size="8.4" lengthAdjust="spacing" textLength="68.4" x="191.4" y="826.3453">description: String</text><rect fill="none" height="3.6" style="stroke:#C82930;stroke-width:0.6;" width="3.6" x="184.2" y="833.1398"/><text fill="#000000" font-family="sans-serif" font-size="8.4" lengthAdjust="spacing" textLength="73.8" x="191.4" y="837.518">sellingPrice: double</text><rect fill="none" height="3.6" style="stroke:#C82930;stroke-width:0.6;" width="3.6" x="184.2" y="844.3125"/><text fill="#000000" font-family="sans-serif" font-size="8.4" lengthAdjust="spacing" textLength="79.8" x="191.4" y="848.6906">shippingCost: double</text><rect fill="none" height="3.6" style="stroke:#C82930;stroke-width:0.6;" width="3.6" x="184.2" y="855.4852"/><text fill="#000000" font-family="sans-serif" font-size="8.4" lengthAdjust="spacing" textLength="105.6" x="191.4" y="859.8633">preparationTimeMinutes: int</text><line style="stroke:#181818;stroke-width:0.3;" x1="180" x2="608.4" y1="864.3715" y2="864.3715"/><ellipse cx="186" cy="873.2578" fill="#84BE84" rx="1.8" ry="1.8" style="stroke:#038048;stroke-width:0.6;"/><text fill="#000000" font-family="sans-serif" font-size="8.4" lengthAdjust="spacing" textLength="414" x="191.4" y="875.8359">Item(code: String, description: String, sellingPrice: double, shippingCost: double, preparationTimeMinutes: int)</text><ellipse cx="186" cy="884.4305" fill="#84BE84" rx="1.8" ry="1.8" style="stroke:#038048;stroke-width:0.6;"/><text fill="#000000" font-family="sans-serif" font-size="8.4" lengthAdjust="spacing" textLength="65.4" x="191.4" y="887.0086">getCode(): String</text><ellipse cx="186" cy="895.6031" fill="#84BE84" rx="1.8" ry="1.8" style="stroke:#038048;stroke-width:0.6;"/><text fill="#000000" font-family="sans-serif" font-size="8.4" lengthAdjust="spacing" textLength="103.8" x="191.4" y="898.1813">setCode(code: String): void</text><ellipse cx="186" cy="906.7758" fill="#84BE84" rx="1.8" ry="1.8" style="stroke:#038048;stroke-width:0.6;"/><text fill="#000000" font-family="sans-serif" font-size="8.4" lengthAdjust="spacing" textLength="87.6" x="191.4" y="909.3539">getDescription(): String</text><ellipse cx="186" cy="917.9484" fill="#84BE84" rx="1.8" ry="1.8" style="stroke:#038048;stroke-width:0.6;"/><text fill="#000000" font-family="sans-serif" font-size="8.4" lengthAdjust="spacing" textLength="148.8" x="191.4" y="920.5266">setDescription(description: String): void</text><ellipse cx="186" cy="929.1211" fill="#84BE84" rx="1.8" ry="1.8" style="stroke:#038048;stroke-width:0.6;"/><text fill="#000000" font-family="sans-serif" font-size="8.4" lengthAdjust="spacing" textLength="93" x="191.4" y="931.6992">getSellingPrice(): double</text><ellipse cx="186" cy="940.2937" fill="#84BE84" rx="1.8" ry="1.8" style="stroke:#038048;stroke-width:0.6;"/><text fill="#000000" font-family="sans-serif" font-size="8.4" lengthAdjust="spacing" textLength="156" x="191.4" y="942.8719">setSellingPrice(sellingPrice: double): void</text><ellipse cx="186" cy="951.4664" fill="#84BE84" rx="1.8" ry="1.8" style="stroke:#038048;stroke-width:0.6;"/><text fill="#000000" font-family="sans-serif" font-size="8.4" lengthAdjust="spacing" textLength="99" x="191.4" y="954.0445">getShippingCost(): double</text><ellipse cx="186" cy="962.6391" fill="#84BE84" rx="1.8" ry="1.8" style="stroke:#038048;stroke-width:0.6;"/><text fill="#000000" font-family="sans-serif" font-size="8.4" lengthAdjust="spacing" textLength="168" x="191.4" y="965.2172">setShippingCost(shippingCost: double): void</text><ellipse cx="186" cy="973.8117" fill="#84BE84" rx="1.8" ry="1.8" style="stroke:#038048;stroke-width:0.6;"/><text fill="#000000" font-family="sans-serif" font-size="8.4" lengthAdjust="spacing" textLength="124.2" x="191.4" y="976.3898">getPreparationTimeMinutes(): int</text><ellipse cx="186" cy="984.9844" fill="#84BE84" rx="1.8" ry="1.8" style="stroke:#038048;stroke-width:0.6;"/><text fill="#000000" font-family="sans-serif" font-size="8.4" lengthAdjust="spacing" textLength="235.8" x="191.4" y="987.5625">setPreparationTimeMinutes(preparationTimeMinutes: int): void</text></g><!--class Order--><g id="elem_Order"><rect codeLine="111" fill="#F1F1F1" height="263.4258" id="Order" rx="1.5" ry="1.5" style="stroke:#181818;stroke-width:0.3;" width="510" x="139.2" y="473.7082"/><ellipse cx="380.55" cy="483.3082" fill="#A9DCDF" rx="6.6" ry="6.6" style="stroke:#181818;stroke-width:0.6;"/><path d="M381.8625,484.3676 L379.3781,484.3676 L379.125,484.9863 L379.3781,484.9863 Q379.7438,484.9863 379.9031,485.127 Q380.0625,485.2676 380.0625,485.502 Q380.0625,485.727 379.9031,485.8676 Q379.7438,486.0082 379.3781,486.0082 L378,486.0082 Q377.6344,486.0082 377.4844,485.8676 Q377.325,485.727 377.325,485.4926 Q377.325,485.2676 377.4938,485.127 Q377.6531,484.977 378.0281,484.9863 L379.6312,480.9926 L378.9656,480.9926 Q378.6,480.9926 378.4406,480.852 Q378.2813,480.7113 378.2813,480.477 Q378.2813,480.252 378.4406,480.1113 Q378.6,479.9707 378.9656,479.9707 L381.1688,479.9707 L383.2031,484.9863 Q383.5594,484.9863 383.6719,485.0707 Q383.9063,485.2301 383.9063,485.502 Q383.9063,485.727 383.7469,485.8676 Q383.5969,486.0082 383.2313,486.0082 L381.8531,486.0082 Q381.4875,486.0082 381.3281,485.8676 Q381.1688,485.727 381.1688,485.4926 Q381.1688,485.2676 381.3281,485.127 Q381.4875,484.9863 381.8531,484.9863 L382.1063,484.9863 L381.8625,484.3676 Z M381.4313,483.3457 L380.6156,481.3207 L379.7906,483.3457 L381.4313,483.3457 Z " fill="#000000"/><text fill="#000000" font-family="sans-serif" font-size="8.4" font-style="italic" lengthAdjust="spacing" textLength="22.2" x="392.85" y="486.7863">Order</text><line style="stroke:#181818;stroke-width:0.3;" x1="139.8" x2="648.6" y1="492.9082" y2="492.9082"/><rect fill="none" height="3.6" style="stroke:#C82930;stroke-width:0.6;" width="3.6" x="144" y="499.9945"/><text fill="#000000" font-family="sans-serif" font-size="8.4" lengthAdjust="spacing" textLength="63.6" x="151.2" y="504.3727">orderNumber: int</text><rect fill="none" height="3.6" style="stroke:#C82930;stroke-width:0.6;" width="3.6" x="144" y="511.1672"/><text fill="#000000" font-family="sans-serif" font-size="8.4" lengthAdjust="spacing" textLength="76.2" x="151.2" y="515.5453">customer: Customer</text><rect fill="none" height="3.6" style="stroke:#C82930;stroke-width:0.6;" width="3.6" x="144" y="522.3398"/><text fill="#000000" font-family="sans-serif" font-size="8.4" lengthAdjust="spacing" textLength="36" x="151.2" y="526.718">item: Item</text><rect fill="none" height="3.6" style="stroke:#C82930;stroke-width:0.6;" width="3.6" x="144" y="533.5125"/><text fill="#000000" font-family="sans-serif" font-size="8.4" lengthAdjust="spacing" textLength="62.4" x="151.2" y="537.8906">quantityUnits: int</text><rect fill="none" height="3.6" style="stroke:#C82930;stroke-width:0.6;" width="3.6" x="144" y="544.6852"/><text fill="#000000" font-family="sans-serif" font-size="8.4" lengthAdjust="spacing" textLength="98.4" x="151.2" y="549.0633">orderDateTime: DateTime</text><rect fill="none" height="3.6" style="stroke:#C82930;stroke-width:0.6;" width="3.6" x="144" y="555.8578"/><text fill="#000000" font-family="sans-serif" font-size="8.4" lengthAdjust="spacing" textLength="105.6" x="151.2" y="560.2359">preparationTimeMinutes: int</text><line style="stroke:#181818;stroke-width:0.3;" x1="139.8" x2="648.6" y1="564.7441" y2="564.7441"/><ellipse cx="145.8" cy="573.6305" fill="#84BE84" rx="1.8" ry="1.8" style="stroke:#038048;stroke-width:0.6;"/><text fill="#000000" font-family="sans-serif" font-size="8.4" lengthAdjust="spacing" textLength="494.4" x="151.2" y="576.2086">Order(orderNumber: int, customer: Customer, item: Item, quantityUnits: int, orderDateTime: DateTime, preparationTimeMinutes: int)</text><ellipse cx="145.8" cy="584.8031" fill="#84BE84" rx="1.8" ry="1.8" style="stroke:#038048;stroke-width:0.6;"/><text fill="#000000" font-family="sans-serif" font-size="8.4" lengthAdjust="spacing" textLength="83.4" x="151.2" y="587.3813">getOrderNumber(): int</text><ellipse cx="145.8" cy="595.9758" fill="#84BE84" rx="1.8" ry="1.8" style="stroke:#038048;stroke-width:0.6;"/><text fill="#000000" font-family="sans-serif" font-size="8.4" lengthAdjust="spacing" textLength="153" x="151.2" y="598.5539">setOrderNumber(orderNumber: int): void</text><ellipse cx="145.8" cy="607.1484" fill="#84BE84" rx="1.8" ry="1.8" style="stroke:#038048;stroke-width:0.6;"/><text fill="#000000" font-family="sans-serif" font-size="8.4" lengthAdjust="spacing" textLength="96" x="151.2" y="609.7266">getCustomer(): Customer</text><ellipse cx="145.8" cy="618.3211" fill="#84BE84" rx="1.8" ry="1.8" style="stroke:#038048;stroke-width:0.6;"/><text fill="#000000" font-family="sans-serif" font-size="8.4" lengthAdjust="spacing" textLength="150.6" x="151.2" y="620.8992">setCustomer(customer: Customer): void</text><ellipse cx="145.8" cy="629.4938" fill="#84BE84" rx="1.8" ry="1.8" style="stroke:#038048;stroke-width:0.6;"/><text fill="#000000" font-family="sans-serif" font-size="8.4" lengthAdjust="spacing" textLength="54" x="151.2" y="632.0719">getItem(): Item</text><ellipse cx="145.8" cy="640.6664" fill="#84BE84" rx="1.8" ry="1.8" style="stroke:#038048;stroke-width:0.6;"/><text fill="#000000" font-family="sans-serif" font-size="8.4" lengthAdjust="spacing" textLength="89.4" x="151.2" y="643.2445">setItem(item: Item): void</text><ellipse cx="145.8" cy="651.8391" fill="#84BE84" rx="1.8" ry="1.8" style="stroke:#038048;stroke-width:0.6;"/><text fill="#000000" font-family="sans-serif" font-size="8.4" lengthAdjust="spacing" textLength="82.2" x="151.2" y="654.4172">getQuantityUnits(): int</text><ellipse cx="145.8" cy="663.0117" fill="#84BE84" rx="1.8" ry="1.8" style="stroke:#038048;stroke-width:0.6;"/><text fill="#000000" font-family="sans-serif" font-size="8.4" lengthAdjust="spacing" textLength="150.6" x="151.2" y="665.5898">setQuantityUnits(quantityUnits: int): void</text><ellipse cx="145.8" cy="674.1844" fill="#84BE84" rx="1.8" ry="1.8" style="stroke:#038048;stroke-width:0.6;"/><text fill="#000000" font-family="sans-serif" font-size="8.4" lengthAdjust="spacing" textLength="118.2" x="151.2" y="676.7625">getOrderDateTime(): DateTime</text><ellipse cx="145.8" cy="685.357" fill="#84BE84" rx="1.8" ry="1.8" style="stroke:#038048;stroke-width:0.6;"/><text fill="#000000" font-family="sans-serif" font-size="8.4" lengthAdjust="spacing" textLength="195" x="151.2" y="687.9352">setOrderDateTime(orderDateTime: DateTime): void</text><ellipse cx="145.8" cy="696.5297" fill="#84BE84" rx="1.8" ry="1.8" style="stroke:#038048;stroke-width:0.6;"/><text fill="#000000" font-family="sans-serif" font-size="8.4" lengthAdjust="spacing" textLength="124.2" x="151.2" y="699.1078">getPreparationTimeMinutes(): int</text><ellipse cx="145.8" cy="707.7023" fill="#84BE84" rx="1.8" ry="1.8" style="stroke:#038048;stroke-width:0.6;"/><text fill="#000000" font-family="sans-serif" font-size="8.4" lengthAdjust="spacing" textLength="235.8" x="151.2" y="710.2805">setPreparationTimeMinutes(preparationTimeMinutes: int): void</text><ellipse cx="145.8" cy="718.875" fill="#84BE84" rx="1.8" ry="1.8" style="stroke:#038048;stroke-width:0.6;"/><text fill="#000000" font-family="sans-serif" font-size="8.4" lengthAdjust="spacing" textLength="111.6" x="151.2" y="721.4531">calculateOrderPrice(): double</text><ellipse cx="145.8" cy="730.0477" fill="#84BE84" rx="1.8" ry="1.8" style="stroke:#038048;stroke-width:0.6;"/><text fill="#000000" font-family="sans-serif" font-size="8.4" lengthAdjust="spacing" textLength="90" x="151.2" y="732.6258">isCancelable(): boolean</text></g><!--class CustomerType--><g id="elem_CustomerType"><rect codeLine="135" fill="#F1F1F1" height="51.1453" id="CustomerType" rx="1.5" ry="1.5" style="stroke:#181818;stroke-width:0.3;" width="75" x="890.7" y="69.6082"/><ellipse cx="899.7" cy="79.2082" fill="#EB937F" rx="6.6" ry="6.6" style="stroke:#181818;stroke-width:0.6;"/><path d="M899.0156,79.6863 L899.0156,81.1863 L901.6125,81.1863 L901.6125,80.6332 Q901.6125,80.2676 901.7531,80.1082 Q901.9031,79.9488 902.1281,79.9488 Q902.3531,79.9488 902.4938,80.1082 Q902.6344,80.2676 902.6344,80.6332 L902.6344,82.2082 L897.8344,82.2082 Q897.4594,82.2082 897.3,82.0676 Q897.15,81.927 897.15,81.6926 Q897.15,81.4676 897.3094,81.327 Q897.4688,81.1863 897.8344,81.1863 L897.9938,81.1863 L897.9938,77.1926 L897.8344,77.1926 Q897.4594,77.1926 897.3,77.052 Q897.15,76.9113 897.15,76.677 Q897.15,76.452 897.3,76.3113 Q897.4594,76.1707 897.8344,76.1707 L902.4094,76.1707 L902.4094,77.727 Q902.4094,78.0926 902.2688,78.252 Q902.1375,78.402 901.9031,78.402 Q901.6781,78.402 901.5375,78.252 Q901.3969,78.0926 901.3969,77.727 L901.3969,77.1926 L899.0156,77.1926 L899.0156,78.6645 L899.9063,78.6645 Q899.9063,78.2707 899.9812,78.1582 Q900.1406,77.9145 900.4219,77.9145 Q900.6469,77.9145 900.7875,78.0738 Q900.9281,78.2238 900.9281,78.5895 L900.9281,79.7707 Q900.9281,80.0988 900.8531,80.2113 Q900.6938,80.4457 900.4219,80.4457 Q900.1406,80.4457 899.9812,80.202 Q899.9063,80.0895 899.9063,79.6863 L899.0156,79.6863 Z " fill="#000000"/><text fill="#000000" font-family="sans-serif" font-size="8.4" lengthAdjust="spacing" textLength="55.8" x="908.1" y="82.6863">CustomerType</text><line style="stroke:#181818;stroke-width:0.3;" x1="891.3" x2="965.1" y1="88.8082" y2="88.8082"/><text fill="#000000" font-family="sans-serif" font-size="8.4" lengthAdjust="spacing" textLength="45" x="894.3" y="100.2727">STANDARD</text><text fill="#000000" font-family="sans-serif" font-size="8.4" lengthAdjust="spacing" textLength="37.2" x="894.3" y="111.4453">PREMIUM</text><line style="stroke:#181818;stroke-width:0.3;" x1="891.3" x2="965.1" y1="115.9535" y2="115.9535"/></g><!--class TimeUnit--><g id="elem_TimeUnit"><rect codeLine="140" fill="#F1F1F1" height="73.4906" id="TimeUnit" rx="1.5" ry="1.5" style="stroke:#181818;stroke-width:0.3;" width="52.2" x="779.1" y="269.1082"/><ellipse cx="788.1" cy="278.7082" fill="#EB937F" rx="6.6" ry="6.6" style="stroke:#181818;stroke-width:0.6;"/><path d="M787.4156,279.1863 L787.4156,280.6863 L790.0125,280.6863 L790.0125,280.1332 Q790.0125,279.7676 790.1531,279.6082 Q790.3031,279.4488 790.5281,279.4488 Q790.7531,279.4488 790.8938,279.6082 Q791.0344,279.7676 791.0344,280.1332 L791.0344,281.7082 L786.2344,281.7082 Q785.8594,281.7082 785.7,281.5676 Q785.55,281.427 785.55,281.1926 Q785.55,280.9676 785.7094,280.827 Q785.8688,280.6863 786.2344,280.6863 L786.3938,280.6863 L786.3938,276.6926 L786.2344,276.6926 Q785.8594,276.6926 785.7,276.552 Q785.55,276.4113 785.55,276.177 Q785.55,275.952 785.7,275.8113 Q785.8594,275.6707 786.2344,275.6707 L790.8094,275.6707 L790.8094,277.227 Q790.8094,277.5926 790.6687,277.752 Q790.5375,277.902 790.3031,277.902 Q790.0781,277.902 789.9375,277.752 Q789.7969,277.5926 789.7969,277.227 L789.7969,276.6926 L787.4156,276.6926 L787.4156,278.1645 L788.3063,278.1645 Q788.3063,277.7707 788.3813,277.6582 Q788.5406,277.4145 788.8219,277.4145 Q789.0469,277.4145 789.1875,277.5738 Q789.3281,277.7238 789.3281,278.0895 L789.3281,279.2707 Q789.3281,279.5988 789.2531,279.7113 Q789.0938,279.9457 788.8219,279.9457 Q788.5406,279.9457 788.3813,279.702 Q788.3063,279.5895 788.3063,279.1863 L787.4156,279.1863 Z " fill="#000000"/><text fill="#000000" font-family="sans-serif" font-size="8.4" lengthAdjust="spacing" textLength="33" x="796.5" y="282.1863">TimeUnit</text><line style="stroke:#181818;stroke-width:0.3;" x1="779.7" x2="830.7" y1="288.3082" y2="288.3082"/><text fill="#000000" font-family="sans-serif" font-size="8.4" lengthAdjust="spacing" textLength="22.2" x="782.7" y="299.7727">DAYS</text><text fill="#000000" font-family="sans-serif" font-size="8.4" lengthAdjust="spacing" textLength="28.8" x="782.7" y="310.9453">HOURS</text><text fill="#000000" font-family="sans-serif" font-size="8.4" lengthAdjust="spacing" textLength="35.4" x="782.7" y="322.118">MINUTES</text><text fill="#000000" font-family="sans-serif" font-size="8.4" lengthAdjust="spacing" textLength="40.2" x="782.7" y="333.2906">SECONDS</text><line style="stroke:#181818;stroke-width:0.3;" x1="779.7" x2="830.7" y1="337.7988" y2="337.7988"/></g><!--class List--><g id="elem_List"><rect codeLine="147" fill="#F1F1F1" height="28.8" id="List" rx="1.5" ry="1.5" style="stroke:#181818;stroke-width:0.3;" width="32.4" x="1064.4" y="80.7082"/><ellipse cx="1073.4" cy="90.3082" fill="#B4A7E5" rx="6.6" ry="6.6" style="stroke:#181818;stroke-width:0.6;"/><path d="M1073.9719,88.2926 L1073.9719,92.2863 L1075.0031,92.2863 Q1075.3687,92.2863 1075.5281,92.427 Q1075.6875,92.5676 1075.6875,92.802 Q1075.6875,93.027 1075.5281,93.1676 Q1075.3687,93.3082 1075.0031,93.3082 L1071.9188,93.3082 Q1071.5531,93.3082 1071.3938,93.1676 Q1071.2344,93.027 1071.2344,92.7926 Q1071.2344,92.5676 1071.3938,92.427 Q1071.5531,92.2863 1071.9188,92.2863 L1072.95,92.2863 L1072.95,88.2926 L1071.9188,88.2926 Q1071.5531,88.2926 1071.3938,88.152 Q1071.2344,88.0113 1071.2344,87.777 Q1071.2344,87.552 1071.3938,87.4113 Q1071.5531,87.2707 1071.9188,87.2707 L1075.0031,87.2707 Q1075.3687,87.2707 1075.5281,87.4113 Q1075.6875,87.552 1075.6875,87.777 Q1075.6875,88.0113 1075.5281,88.152 Q1075.3687,88.2926 1075.0031,88.2926 L1073.9719,88.2926 Z " fill="#000000"/><text fill="#000000" font-family="sans-serif" font-size="8.4" font-style="italic" lengthAdjust="spacing" textLength="13.2" x="1081.8" y="93.7863">List</text><line style="stroke:#181818;stroke-width:0.3;" x1="1065" x2="1096.2" y1="99.9082" y2="99.9082"/><line style="stroke:#181818;stroke-width:0.3;" x1="1065" x2="1096.2" y1="104.7082" y2="104.7082"/></g><!--class Collection--><g id="elem_Collection"><rect codeLine="148" fill="#F1F1F1" height="28.8" id="Collection" rx="1.5" ry="1.5" style="stroke:#181818;stroke-width:0.3;" width="56.4" x="987" y="80.7082"/><ellipse cx="996" cy="90.3082" fill="#B4A7E5" rx="6.6" ry="6.6" style="stroke:#181818;stroke-width:0.6;"/><path d="M996.5719,88.2926 L996.5719,92.2863 L997.6031,92.2863 Q997.9688,92.2863 998.1281,92.427 Q998.2875,92.5676 998.2875,92.802 Q998.2875,93.027 998.1281,93.1676 Q997.9688,93.3082 997.6031,93.3082 L994.5188,93.3082 Q994.1531,93.3082 993.9938,93.1676 Q993.8344,93.027 993.8344,92.7926 Q993.8344,92.5676 993.9938,92.427 Q994.1531,92.2863 994.5188,92.2863 L995.55,92.2863 L995.55,88.2926 L994.5188,88.2926 Q994.1531,88.2926 993.9938,88.152 Q993.8344,88.0113 993.8344,87.777 Q993.8344,87.552 993.9938,87.4113 Q994.1531,87.2707 994.5188,87.2707 L997.6031,87.2707 Q997.9688,87.2707 998.1281,87.4113 Q998.2875,87.552 998.2875,87.777 Q998.2875,88.0113 998.1281,88.152 Q997.9688,88.2926 997.6031,88.2926 L996.5719,88.2926 Z " fill="#000000"/><text fill="#000000" font-family="sans-serif" font-size="8.4" font-style="italic" lengthAdjust="spacing" textLength="37.2" x="1004.4" y="93.7863">Collection</text><line style="stroke:#181818;stroke-width:0.3;" x1="987.6" x2="1042.8" y1="99.9082" y2="99.9082"/><line style="stroke:#181818;stroke-width:0.3;" x1="987.6" x2="1042.8" y1="104.7082" y2="104.7082"/></g><!--class AbstractList--><g id="elem_AbstractList"><rect fill="#F1F1F1" height="28.8" id="AbstractList" rx="1.5" ry="1.5" style="stroke:#181818;stroke-width:0.3;" width="63.6" x="1035" y="291.3082"/><ellipse cx="1044" cy="300.9082" fill="#ADD1B2" rx="6.6" ry="6.6" style="stroke:#181818;stroke-width:0.6;"/><path d="M1045.6594,298.4332 Q1045.7531,298.302 1045.8656,298.2363 Q1045.9781,298.1707 1046.1094,298.1707 Q1046.3344,298.1707 1046.475,298.3301 Q1046.6156,298.4801 1046.6156,298.8457 L1046.6156,299.7176 Q1046.6156,300.0832 1046.475,300.2426 Q1046.3344,300.402 1046.1094,300.402 Q1045.9031,300.402 1045.7813,300.2801 Q1045.6594,300.1676 1045.5938,299.8582 Q1045.5656,299.6426 1045.4531,299.5301 Q1045.2563,299.3051 1044.8906,299.1738 Q1044.525,299.0426 1044.15,299.0426 Q1043.6906,299.0426 1043.3062,299.2395 Q1042.9312,299.4363 1042.6313,299.8863 Q1042.3406,300.3363 1042.3406,300.9551 L1042.3406,301.6113 Q1042.3406,302.352 1042.875,302.8488 Q1043.4094,303.3363 1044.3656,303.3363 Q1044.9281,303.3363 1045.3219,303.1863 Q1045.5562,303.0926 1045.8094,302.8301 Q1045.9688,302.6707 1046.0531,302.6238 Q1046.1469,302.577 1046.2688,302.577 Q1046.4656,302.577 1046.6156,302.7363 Q1046.775,302.8863 1046.775,303.0926 Q1046.775,303.2988 1046.5688,303.5426 Q1046.2688,303.8895 1045.7906,304.0863 Q1045.1438,304.3582 1044.3656,304.3582 Q1043.4563,304.3582 1042.7344,303.9832 Q1042.1438,303.6832 1041.7313,303.0457 Q1041.3188,302.3988 1041.3188,301.6301 L1041.3188,300.9363 Q1041.3188,300.1395 1041.6844,299.4551 Q1042.0594,298.7613 1042.7156,298.3957 Q1043.3719,298.0207 1044.1125,298.0207 Q1044.5531,298.0207 1044.9375,298.1238 Q1045.3313,298.2176 1045.6594,298.4332 Z " fill="#000000"/><text fill="#000000" font-family="sans-serif" font-size="8.4" lengthAdjust="spacing" textLength="44.4" x="1052.4" y="304.3863">AbstractList</text><line style="stroke:#181818;stroke-width:0.3;" x1="1035.6" x2="1098" y1="310.5082" y2="310.5082"/><line style="stroke:#181818;stroke-width:0.3;" x1="1035.6" x2="1098" y1="315.3082" y2="315.3082"/></g><!--class AbstractCollection--><g id="elem_AbstractCollection"><rect fill="#F1F1F1" height="28.8" id="AbstractCollection" rx="1.5" ry="1.5" style="stroke:#181818;stroke-width:0.3;" width="87.6" x="926.4" y="291.3082"/><ellipse cx="935.4" cy="300.9082" fill="#ADD1B2" rx="6.6" ry="6.6" style="stroke:#181818;stroke-width:0.6;"/><path d="M937.0594,298.4332 Q937.1531,298.302 937.2656,298.2363 Q937.3781,298.1707 937.5094,298.1707 Q937.7344,298.1707 937.875,298.3301 Q938.0156,298.4801 938.0156,298.8457 L938.0156,299.7176 Q938.0156,300.0832 937.875,300.2426 Q937.7344,300.402 937.5094,300.402 Q937.3031,300.402 937.1813,300.2801 Q937.0594,300.1676 936.9938,299.8582 Q936.9656,299.6426 936.8531,299.5301 Q936.6563,299.3051 936.2906,299.1738 Q935.925,299.0426 935.55,299.0426 Q935.0906,299.0426 934.7063,299.2395 Q934.3313,299.4363 934.0313,299.8863 Q933.7406,300.3363 933.7406,300.9551 L933.7406,301.6113 Q933.7406,302.352 934.275,302.8488 Q934.8094,303.3363 935.7656,303.3363 Q936.3281,303.3363 936.7219,303.1863 Q936.9563,303.0926 937.2094,302.8301 Q937.3688,302.6707 937.4531,302.6238 Q937.5469,302.577 937.6687,302.577 Q937.8656,302.577 938.0156,302.7363 Q938.175,302.8863 938.175,303.0926 Q938.175,303.2988 937.9688,303.5426 Q937.6687,303.8895 937.1906,304.0863 Q936.5437,304.3582 935.7656,304.3582 Q934.8562,304.3582 934.1344,303.9832 Q933.5437,303.6832 933.1312,303.0457 Q932.7188,302.3988 932.7188,301.6301 L932.7188,300.9363 Q932.7188,300.1395 933.0844,299.4551 Q933.4594,298.7613 934.1156,298.3957 Q934.7719,298.0207 935.5125,298.0207 Q935.9531,298.0207 936.3375,298.1238 Q936.7312,298.2176 937.0594,298.4332 Z " fill="#000000"/><text fill="#000000" font-family="sans-serif" font-size="8.4" lengthAdjust="spacing" textLength="68.4" x="943.8" y="304.3863">AbstractCollection</text><line style="stroke:#181818;stroke-width:0.3;" x1="927" x2="1013.4" y1="310.5082" y2="310.5082"/><line style="stroke:#181818;stroke-width:0.3;" x1="927" x2="1013.4" y1="315.3082" y2="315.3082"/></g><!--class ArrayList--><g id="elem_ArrayList"><rect codeLine="157" fill="#F1F1F1" height="51.1453" id="ArrayList" rx="1.5" ry="1.5" style="stroke:#181818;stroke-width:0.3;" width="97.8" x="1017.9" y="579.9082"/><ellipse cx="1047.45" cy="589.5082" fill="#ADD1B2" rx="6.6" ry="6.6" style="stroke:#181818;stroke-width:0.6;"/><path d="M1049.1094,587.0332 Q1049.2031,586.902 1049.3156,586.8363 Q1049.4281,586.7707 1049.5594,586.7707 Q1049.7844,586.7707 1049.925,586.9301 Q1050.0656,587.0801 1050.0656,587.4457 L1050.0656,588.3176 Q1050.0656,588.6832 1049.925,588.8426 Q1049.7844,589.002 1049.5594,589.002 Q1049.3531,589.002 1049.2313,588.8801 Q1049.1094,588.7676 1049.0438,588.4582 Q1049.0156,588.2426 1048.9031,588.1301 Q1048.7063,587.9051 1048.3406,587.7738 Q1047.975,587.6426 1047.6,587.6426 Q1047.1406,587.6426 1046.7563,587.8395 Q1046.3813,588.0363 1046.0813,588.4863 Q1045.7906,588.9363 1045.7906,589.5551 L1045.7906,590.2113 Q1045.7906,590.952 1046.325,591.4488 Q1046.8594,591.9363 1047.8156,591.9363 Q1048.3781,591.9363 1048.7719,591.7863 Q1049.0063,591.6926 1049.2594,591.4301 Q1049.4188,591.2707 1049.5031,591.2238 Q1049.5969,591.177 1049.7188,591.177 Q1049.9156,591.177 1050.0656,591.3363 Q1050.225,591.4863 1050.225,591.6926 Q1050.225,591.8988 1050.0188,592.1426 Q1049.7188,592.4895 1049.2406,592.6863 Q1048.5938,592.9582 1047.8156,592.9582 Q1046.9063,592.9582 1046.1844,592.5832 Q1045.5938,592.2832 1045.1812,591.6457 Q1044.7688,590.9988 1044.7688,590.2301 L1044.7688,589.5363 Q1044.7688,588.7395 1045.1344,588.0551 Q1045.5094,587.3613 1046.1656,586.9957 Q1046.8219,586.6207 1047.5625,586.6207 Q1048.0031,586.6207 1048.3875,586.7238 Q1048.7813,586.8176 1049.1094,587.0332 Z " fill="#000000"/><text fill="#000000" font-family="sans-serif" font-size="8.4" lengthAdjust="spacing" textLength="33.6" x="1059.75" y="592.9863">ArrayList</text><line style="stroke:#181818;stroke-width:0.3;" x1="1018.5" x2="1115.1" y1="599.1082" y2="599.1082"/><rect fill="none" height="3.6" style="stroke:#C82930;stroke-width:0.6;" width="3.6" x="1022.7" y="606.1945"/><text fill="#000000" font-family="sans-serif" font-size="8.4" lengthAdjust="spacing" textLength="82.2" x="1029.9" y="610.5727">elementData: Object[]</text><line style="stroke:#181818;stroke-width:0.3;" x1="1018.5" x2="1115.1" y1="615.0809" y2="615.0809"/><ellipse cx="1024.5" cy="623.9672" fill="#84BE84" rx="1.8" ry="1.8" style="stroke:#038048;stroke-width:0.6;"/><text fill="#000000" font-family="sans-serif" font-size="8.4" lengthAdjust="spacing" textLength="34.2" x="1029.9" y="626.5453">size(): int</text></g><!--class CustomerList--><g id="elem_CustomerList"><rect codeLine="35" fill="#F1F1F1" height="84.6633" id="CustomerList" rx="1.5" ry="1.5" style="stroke:#181818;stroke-width:0.3;" width="248.4" x="1117.8" y="52.8082"/><ellipse cx="1214.55" cy="62.4082" fill="#ADD1B2" rx="6.6" ry="6.6" style="stroke:#181818;stroke-width:0.6;"/><path d="M1216.2094,59.9332 Q1216.3031,59.802 1216.4156,59.7363 Q1216.5281,59.6707 1216.6594,59.6707 Q1216.8844,59.6707 1217.025,59.8301 Q1217.1656,59.9801 1217.1656,60.3457 L1217.1656,61.2176 Q1217.1656,61.5832 1217.025,61.7426 Q1216.8844,61.902 1216.6594,61.902 Q1216.4531,61.902 1216.3313,61.7801 Q1216.2094,61.6676 1216.1438,61.3582 Q1216.1156,61.1426 1216.0031,61.0301 Q1215.8062,60.8051 1215.4406,60.6738 Q1215.075,60.5426 1214.7,60.5426 Q1214.2406,60.5426 1213.8563,60.7395 Q1213.4813,60.9363 1213.1812,61.3863 Q1212.8906,61.8363 1212.8906,62.4551 L1212.8906,63.1113 Q1212.8906,63.852 1213.425,64.3488 Q1213.9594,64.8363 1214.9156,64.8363 Q1215.4781,64.8363 1215.8719,64.6863 Q1216.1063,64.5926 1216.3594,64.3301 Q1216.5188,64.1707 1216.6031,64.1238 Q1216.6969,64.077 1216.8188,64.077 Q1217.0156,64.077 1217.1656,64.2363 Q1217.325,64.3863 1217.325,64.5926 Q1217.325,64.7988 1217.1187,65.0426 Q1216.8188,65.3895 1216.3406,65.5863 Q1215.6938,65.8582 1214.9156,65.8582 Q1214.0063,65.8582 1213.2844,65.4832 Q1212.6938,65.1832 1212.2813,64.5457 Q1211.8687,63.8988 1211.8687,63.1301 L1211.8687,62.4363 Q1211.8687,61.6395 1212.2344,60.9551 Q1212.6094,60.2613 1213.2656,59.8957 Q1213.9219,59.5207 1214.6625,59.5207 Q1215.1031,59.5207 1215.4875,59.6238 Q1215.8813,59.7176 1216.2094,59.9332 Z " fill="#000000"/><text fill="#000000" font-family="sans-serif" font-size="8.4" lengthAdjust="spacing" textLength="49.8" x="1226.85" y="65.8863">CustomerList</text><line style="stroke:#181818;stroke-width:0.3;" x1="1118.4" x2="1365.6" y1="72.0082" y2="72.0082"/><rect fill="none" height="3.6" style="stroke:#C82930;stroke-width:0.6;" width="3.6" x="1122.6" y="79.0945"/><text fill="#000000" font-family="sans-serif" font-size="8.4" lengthAdjust="spacing" textLength="103.2" x="1129.8" y="83.4727">customers: List&lt;Customer&gt;</text><line style="stroke:#181818;stroke-width:0.3;" x1="1118.4" x2="1365.6" y1="87.9809" y2="87.9809"/><ellipse cx="1124.4" cy="96.8672" fill="#84BE84" rx="1.8" ry="1.8" style="stroke:#038048;stroke-width:0.6;"/><text fill="#000000" font-family="sans-serif" font-size="8.4" lengthAdjust="spacing" textLength="153.6" x="1129.8" y="99.4453">addCustomer(customer: Customer): void</text><ellipse cx="1124.4" cy="108.0398" fill="#84BE84" rx="1.8" ry="1.8" style="stroke:#038048;stroke-width:0.6;"/><text fill="#000000" font-family="sans-serif" font-size="8.4" lengthAdjust="spacing" textLength="167.4" x="1129.8" y="110.618">removeCustomer(customer: Customer): void</text><ellipse cx="1124.4" cy="119.2125" fill="#84BE84" rx="1.8" ry="1.8" style="stroke:#038048;stroke-width:0.6;"/><text fill="#000000" font-family="sans-serif" font-size="8.4" lengthAdjust="spacing" textLength="123" x="1129.8" y="121.7906">getCustomers(): List&lt;Customer&gt;</text><ellipse cx="1124.4" cy="130.3852" fill="#84BE84" rx="1.8" ry="1.8" style="stroke:#038048;stroke-width:0.6;"/><text fill="#000000" font-family="sans-serif" font-size="8.4" lengthAdjust="spacing" textLength="232.8" x="1129.8" y="132.9633">filterCustomersByType(type: CustomerType): List&lt;Customer&gt;</text></g><!--class OrderList--><g id="elem_OrderList"><rect codeLine="43" fill="#F1F1F1" height="84.6633" id="OrderList" rx="1.5" ry="1.5" style="stroke:#181818;stroke-width:0.3;" width="236.4" x="1387.2" y="52.8082"/><ellipse cx="1485.15" cy="62.4082" fill="#ADD1B2" rx="6.6" ry="6.6" style="stroke:#181818;stroke-width:0.6;"/><path d="M1486.8094,59.9332 Q1486.9031,59.802 1487.0156,59.7363 Q1487.1281,59.6707 1487.2594,59.6707 Q1487.4844,59.6707 1487.625,59.8301 Q1487.7656,59.9801 1487.7656,60.3457 L1487.7656,61.2176 Q1487.7656,61.5832 1487.625,61.7426 Q1487.4844,61.902 1487.2594,61.902 Q1487.0531,61.902 1486.9312,61.7801 Q1486.8094,61.6676 1486.7437,61.3582 Q1486.7156,61.1426 1486.6031,61.0301 Q1486.4063,60.8051 1486.0406,60.6738 Q1485.675,60.5426 1485.3,60.5426 Q1484.8406,60.5426 1484.4563,60.7395 Q1484.0813,60.9363 1483.7813,61.3863 Q1483.4906,61.8363 1483.4906,62.4551 L1483.4906,63.1113 Q1483.4906,63.852 1484.025,64.3488 Q1484.5594,64.8363 1485.5156,64.8363 Q1486.0781,64.8363 1486.4719,64.6863 Q1486.7063,64.5926 1486.9594,64.3301 Q1487.1187,64.1707 1487.2031,64.1238 Q1487.2969,64.077 1487.4188,64.077 Q1487.6156,64.077 1487.7656,64.2363 Q1487.925,64.3863 1487.925,64.5926 Q1487.925,64.7988 1487.7188,65.0426 Q1487.4188,65.3895 1486.9406,65.5863 Q1486.2938,65.8582 1485.5156,65.8582 Q1484.6063,65.8582 1483.8844,65.4832 Q1483.2938,65.1832 1482.8813,64.5457 Q1482.4688,63.8988 1482.4688,63.1301 L1482.4688,62.4363 Q1482.4688,61.6395 1482.8344,60.9551 Q1483.2094,60.2613 1483.8656,59.8957 Q1484.5219,59.5207 1485.2625,59.5207 Q1485.7031,59.5207 1486.0875,59.6238 Q1486.4813,59.7176 1486.8094,59.9332 Z " fill="#000000"/><text fill="#000000" font-family="sans-serif" font-size="8.4" lengthAdjust="spacing" textLength="35.4" x="1497.45" y="65.8863">OrderList</text><line style="stroke:#181818;stroke-width:0.3;" x1="1387.8" x2="1623" y1="72.0082" y2="72.0082"/><rect fill="none" height="3.6" style="stroke:#C82930;stroke-width:0.6;" width="3.6" x="1392" y="79.0945"/><text fill="#000000" font-family="sans-serif" font-size="8.4" lengthAdjust="spacing" textLength="74.4" x="1399.2" y="83.4727">orders: List&lt;Order&gt;</text><line style="stroke:#181818;stroke-width:0.3;" x1="1387.8" x2="1623" y1="87.9809" y2="87.9809"/><ellipse cx="1393.8" cy="96.8672" fill="#84BE84" rx="1.8" ry="1.8" style="stroke:#038048;stroke-width:0.6;"/><text fill="#000000" font-family="sans-serif" font-size="8.4" lengthAdjust="spacing" textLength="110.4" x="1399.2" y="99.4453">addOrder(order: Order): void</text><ellipse cx="1393.8" cy="108.0398" fill="#84BE84" rx="1.8" ry="1.8" style="stroke:#038048;stroke-width:0.6;"/><text fill="#000000" font-family="sans-serif" font-size="8.4" lengthAdjust="spacing" textLength="124.2" x="1399.2" y="110.618">removeOrder(order: Order): void</text><ellipse cx="1393.8" cy="119.2125" fill="#84BE84" rx="1.8" ry="1.8" style="stroke:#038048;stroke-width:0.6;"/><text fill="#000000" font-family="sans-serif" font-size="8.4" lengthAdjust="spacing" textLength="94.2" x="1399.2" y="121.7906">getOrders(): List&lt;Order&gt;</text><ellipse cx="1393.8" cy="130.3852" fill="#84BE84" rx="1.8" ry="1.8" style="stroke:#038048;stroke-width:0.6;"/><text fill="#000000" font-family="sans-serif" font-size="8.4" lengthAdjust="spacing" textLength="220.8" x="1399.2" y="132.9633">filterOrdersByCustomer(customer: Customer): List&lt;Order&gt;</text></g><!--class ItemList--><g id="elem_ItemList"><rect codeLine="51" fill="#F1F1F1" height="73.4906" id="ItemList" rx="1.5" ry="1.5" style="stroke:#181818;stroke-width:0.3;" width="121.8" x="1181.1" y="269.1082"/><ellipse cx="1225.05" cy="278.7082" fill="#ADD1B2" rx="6.6" ry="6.6" style="stroke:#181818;stroke-width:0.6;"/><path d="M1226.7094,276.2332 Q1226.8031,276.102 1226.9156,276.0363 Q1227.0281,275.9707 1227.1594,275.9707 Q1227.3844,275.9707 1227.525,276.1301 Q1227.6656,276.2801 1227.6656,276.6457 L1227.6656,277.5176 Q1227.6656,277.8832 1227.525,278.0426 Q1227.3844,278.202 1227.1594,278.202 Q1226.9531,278.202 1226.8313,278.0801 Q1226.7094,277.9676 1226.6438,277.6582 Q1226.6156,277.4426 1226.5031,277.3301 Q1226.3062,277.1051 1225.9406,276.9738 Q1225.575,276.8426 1225.2,276.8426 Q1224.7406,276.8426 1224.3563,277.0395 Q1223.9813,277.2363 1223.6812,277.6863 Q1223.3906,278.1363 1223.3906,278.7551 L1223.3906,279.4113 Q1223.3906,280.152 1223.925,280.6488 Q1224.4594,281.1363 1225.4156,281.1363 Q1225.9781,281.1363 1226.3719,280.9863 Q1226.6063,280.8926 1226.8594,280.6301 Q1227.0188,280.4707 1227.1031,280.4238 Q1227.1969,280.377 1227.3188,280.377 Q1227.5156,280.377 1227.6656,280.5363 Q1227.825,280.6863 1227.825,280.8926 Q1227.825,281.0988 1227.6187,281.3426 Q1227.3188,281.6895 1226.8406,281.8863 Q1226.1938,282.1582 1225.4156,282.1582 Q1224.5063,282.1582 1223.7844,281.7832 Q1223.1938,281.4832 1222.7813,280.8457 Q1222.3687,280.1988 1222.3687,279.4301 L1222.3687,278.7363 Q1222.3687,277.9395 1222.7344,277.2551 Q1223.1094,276.5613 1223.7656,276.1957 Q1224.4219,275.8207 1225.1625,275.8207 Q1225.6031,275.8207 1225.9875,275.9238 Q1226.3813,276.0176 1226.7094,276.2332 Z " fill="#000000"/><text fill="#000000" font-family="sans-serif" font-size="8.4" lengthAdjust="spacing" textLength="28.8" x="1237.35" y="282.1863">ItemList</text><line style="stroke:#181818;stroke-width:0.3;" x1="1181.7" x2="1302.3" y1="288.3082" y2="288.3082"/><rect fill="none" height="3.6" style="stroke:#C82930;stroke-width:0.6;" width="3.6" x="1185.9" y="295.3945"/><text fill="#000000" font-family="sans-serif" font-size="8.4" lengthAdjust="spacing" textLength="63" x="1193.1" y="299.7727">items: List&lt;Item&gt;</text><line style="stroke:#181818;stroke-width:0.3;" x1="1181.7" x2="1302.3" y1="304.2809" y2="304.2809"/><ellipse cx="1187.7" cy="313.1672" fill="#84BE84" rx="1.8" ry="1.8" style="stroke:#038048;stroke-width:0.6;"/><text fill="#000000" font-family="sans-serif" font-size="8.4" lengthAdjust="spacing" textLength="92.4" x="1193.1" y="315.7453">addItem(item: Item): void</text><ellipse cx="1187.7" cy="324.3398" fill="#84BE84" rx="1.8" ry="1.8" style="stroke:#038048;stroke-width:0.6;"/><text fill="#000000" font-family="sans-serif" font-size="8.4" lengthAdjust="spacing" textLength="106.2" x="1193.1" y="326.918">removeItem(item: Item): void</text><ellipse cx="1187.7" cy="335.5125" fill="#84BE84" rx="1.8" ry="1.8" style="stroke:#038048;stroke-width:0.6;"/><text fill="#000000" font-family="sans-serif" font-size="8.4" lengthAdjust="spacing" textLength="81" x="1193.1" y="338.0906">getItems(): List&lt;Item&gt;</text></g><!--reverse link List to AbstractList--><g id="link_List_AbstractList"><path codeLine="150" d="M1078.89,121.6702 C1075.944,166.3762 1070.01,256.4242 1067.724,291.0742 " fill="none" id="List-backto-AbstractList" style="stroke:#181818;stroke-width:0.6;"/><polygon fill="none" points="1074.702,121.3102,1079.682,109.6102,1083.084,121.8622,1074.702,121.3102" style="stroke:#181818;stroke-width:0.6;"/></g><!--reverse link Collection to AbstractCollection--><g id="link_Collection_AbstractCollection"><path codeLine="151" d="M1009.68,121.3822 C1000.098,165.9922 980.676,256.3462 973.218,291.0742 " fill="none" id="Collection-backto-AbstractCollection" style="stroke:#181818;stroke-width:0.6;"/><polygon fill="none" points="1005.588,120.4582,1012.212,109.6102,1013.796,122.2222,1005.588,120.4582" style="stroke:#181818;stroke-width:0.6;"/></g><!--reverse link Collection to List--><g id="link_Collection_List"><path codeLine="153" d="M1055.604,95.1082 C1058.532,95.1082 1061.466,95.1082 1064.394,95.1082 " fill="none" id="Collection-backto-List" style="stroke:#181818;stroke-width:0.6;"/><polygon fill="none" points="1055.556,99.3082,1043.556,95.1082,1055.556,90.9082,1055.556,99.3082" style="stroke:#181818;stroke-width:0.6;"/></g><!--reverse link AbstractCollection to AbstractList--><g id="link_AbstractCollection_AbstractList"><path codeLine="154" d="M1026.168,305.7082 C1029.09,305.7082 1032.006,305.7082 1034.928,305.7082 " fill="none" id="AbstractCollection-backto-AbstractList" style="stroke:#181818;stroke-width:0.6;"/><polygon fill="none" points="1026.162,309.9082,1014.162,305.7082,1026.162,301.5082,1026.162,309.9082" style="stroke:#181818;stroke-width:0.6;"/></g><!--reverse link AbstractList to ArrayList--><g id="link_AbstractList_ArrayList"><path codeLine="155" d="M1066.8,332.4082 C1066.8,389.2882 1066.8,523.8082 1066.8,579.7402 " fill="none" id="AbstractList-backto-ArrayList" style="stroke:#181818;stroke-width:0.6;"/><polygon fill="none" points="1062.6,332.3062,1066.8,320.3062,1071,332.3062,1062.6,332.3062" style="stroke:#181818;stroke-width:0.6;"/></g><!--link Customer to Order--><g id="link_Customer_Order"><path codeLine="162" d="M394.2,426.4282 C394.2,441.9802 394.2,457.9702 394.2,473.6902 " fill="none" id="Customer-Order" style="stroke:#181818;stroke-width:0.6;"/><text fill="#000000" font-family="sans-serif" font-size="7.8" lengthAdjust="spacing" textLength="24" x="394.8" y="453.3252">Places</text></g><!--link StandardCustomer to Customer--><g id="link_StandardCustomer_Customer"><path codeLine="163" d="M556.338,115.2202 C543.618,130.1182 524.868,152.0782 504.588,175.8262 " fill="none" id="StandardCustomer-to-Customer" style="stroke:#181818;stroke-width:0.6;"/><polygon fill="none" points="507.738,178.6042,496.752,185.0002,501.354,173.1502,507.738,178.6042" style="stroke:#181818;stroke-width:0.6;"/></g><!--link PremiumCustomer to Customer--><g id="link_PremiumCustomer_Customer"><path codeLine="164" d="M241.38,131.9422 C252.612,144.6742 265.974,159.8122 280.044,175.7542 " fill="none" id="PremiumCustomer-to-Customer" style="stroke:#181818;stroke-width:0.6;"/><polygon fill="none" points="283.368,173.1802,288.162,184.9522,277.074,178.7362,283.368,173.1802" style="stroke:#181818;stroke-width:0.6;"/></g><!--link Order to Item--><g id="link_Order_Item"><path codeLine="165" d="M394.2,737.1682 C394.2,753.0322 394.2,769.0582 394.2,784.4422 " fill="none" id="Order-Item" style="stroke:#181818;stroke-width:0.6;"/><text fill="#000000" font-family="sans-serif" font-size="7.8" lengthAdjust="spacing" textLength="30.6" x="394.8" y="764.1252">Contains</text></g><!--SRC=[nLXBZzis4BxxLn1xgHUMktSX2E3O6tI1-j6Ljq0Hv41BZCDMeboIIk4s-zzBKWyE7r9scqFtOAndFivy_3WSZVp3Poal8hsxkvIOoQOgVyphwYuliH3BWk8pnzLiTi7v7_XCqCslbFnrW_wP8VLdC6YBATFMpgZ_5fMopMzJzAMcXR4-pvv1a7ND9A_Bad0tr9wLb95Crfm4qJ0_YnHbabDs_l3HZGr2sD0WmhB04gTeepvjL8kSM_SjpCeKsNKZP5qHBfpj0C239DMeSyyBVwchnBOkIEcAe6b0xddF84KzcP-fa1PGcoGfCibS5zNaKgGvEew5JZ87cpqJwUmqcacZx8x2TDe_oE7ax8vesBPsY1kmo-xmG5RWz6NGxZSzzgq3M-2Yw3tpVedTZdzCPWadLVs5l7QLhzWKgK-qb8GFy7VNu_L2vb9zs2JQD1wc4n1SbLvzNwU-6amWWmeLCkQvGNRdE27C2y5EROmcRvLeWU-kqvh7WWGwz6Ncoz1LlecXCQ48sZhNiBPM9nHu2HAMVYJfCxm6-2GanxdqgXvUUeOhqdSxQrMiEH4YTD0Yj17LDilGN97gfCJ_J2_lYKfHrCsf966tEGR52JfdVsoGPO8yTWcoh1Bai4bGb4M2nhExlMgd4ckblSqjHEU2n8BMhDQlMgeZ8Ngljw5Oe8TY98PosEt7LjvhGKOMjpv7ibY8BHHHX_8EKuToCL7POw6XzF1vu1Q2y80JnpVslCuaPWNcHUGIB7pVVwwtsp3lGLrjsbInkwVbkQXL6ohokc4orDLR_1ttO2oNM-wPXnevwm0s6Zqy3QydwUxb325gJWbxIK54pkb5qfg5Ja5ADSsT3vpcaJxJKrlN8XHuUU7aWZdMWO-q8blA6acKefI1QSEqPKWiGH52IkC84Qiy992WYSJUjAJoZjnUuuAyOXTiOvcEX868oBvYGJEmqx4QWP2OCj6uGAjlr9w1nBIDnJr4rTOPd8CMeyYfu_fcZPlH0XQvcN5sZMwHBeDbE9-uCtOx65ZRdurwbQBo-iIezCgspQBcRw8PcxSEyzyhYnzCPO2nVO9Qfgh_30mJ539Bq0YZLzo6lUKHEptezYbFFNtWaoVwr7d1iDvFPlqxYVkKdfxizDfVe62npRc0KDzOq3rKN0SDgc2GRK2DdDB_UQzCb1oNULCgDeRkQE-XOerPJagihDf_gkkIO0Rl9s5DvKmDu79cnzLkithS38R3u_tsuMaRhDTyjVXWxMRrMpPy-Md_z6Y_RHzsJyTx-psxN-ztcmn6LNic_1FE2HfUPwrfhNz0oBLEBTYyYhpvkboYLTTiXaKMwWBy42xE9WtnnX_aWOOk4-VuQlnW01gCi0EIabI4oOtvFMH_-btb-V0H50pzcy0gwXGQXYYLgssgAJgKIXvXtC68jrn-VUlUQtyQ2n5jN9N0J2Qf-Pq7KoPcp_y2]--></g></svg>