<?xml version="1.0" encoding="us-ascii" standalone="no"?><svg xmlns="http://www.w3.org/2000/svg" xmlns:xlink="http://www.w3.org/1999/xlink" contentStyleType="text/css" height="2066px" preserveAspectRatio="none" style="width:4639px;height:2066px;background:#FFFFFF;" version="1.1" viewBox="0 0 4639 2066" width="4639px" zoomAndPan="magnify"><defs/><g><!--cluster View--><g id="cluster_View"><path d="M4093.5,1042.0137 L4127.5,1042.0137 A3.75,3.75 0 0 1 4130,1044.5137 L4137,1066.6348 L4629.5,1066.6348 A2.5,2.5 0 0 1 4632,1069.1348 L4632,1305.5137 A2.5,2.5 0 0 1 4629.5,1308.0137 L4093.5,1308.0137 A2.5,2.5 0 0 1 4091,1305.5137 L4091,1044.5137 A2.5,2.5 0 0 1 4093.5,1042.0137 " fill="none" style="stroke:#000000;stroke-width:1.5;"/><line style="stroke:#000000;stroke-width:1.5;" x1="4091" x2="4137" y1="1066.6348" y2="1066.6348"/><text fill="#000000" font-family="sans-serif" font-size="14" font-weight="bold" lengthAdjust="spacing" textLength="33" x="4095" y="1059.1211">View</text></g><!--cluster Controller--><g id="cluster_Controller"><path d="M3399.5,582.1537 L3471.5,582.1537 A3.75,3.75 0 0 1 3474,584.6537 L3481,606.7748 L4048.5,606.7748 A2.5,2.5 0 0 1 4051,609.2748 L4051,1768.0137 A2.5,2.5 0 0 1 4048.5,1770.5137 L3399.5,1770.5137 A2.5,2.5 0 0 1 3397,1768.0137 L3397,584.6537 A2.5,2.5 0 0 1 3399.5,582.1537 " fill="none" style="stroke:#000000;stroke-width:1.5;"/><line style="stroke:#000000;stroke-width:1.5;" x1="3397" x2="3481" y1="606.7748" y2="606.7748"/><text fill="#000000" font-family="sans-serif" font-size="14" font-weight="bold" lengthAdjust="spacing" textLength="71" x="3401" y="599.2611">Controller</text></g><!--cluster Model--><g id="cluster_Model"><path d="M8.5,6.0137 L53.5,6.0137 A3.75,3.75 0 0 1 56,8.5137 L63,30.6348 L3354.5,30.6348 A2.5,2.5 0 0 1 3357,33.1348 L3357,1935.5137 A2.5,2.5 0 0 1 3354.5,1938.0137 L8.5,1938.0137 A2.5,2.5 0 0 1 6,1935.5137 L6,8.5137 A2.5,2.5 0 0 1 8.5,6.0137 " fill="none" style="stroke:#000000;stroke-width:1.5;"/><line style="stroke:#000000;stroke-width:1.5;" x1="6" x2="63" y1="30.6348" y2="30.6348"/><text fill="#000000" font-family="sans-serif" font-size="14" font-weight="bold" lengthAdjust="spacing" textLength="44" x="10" y="23.1211">Model</text></g><!--cluster Lists--><g id="cluster_Lists"><path d="M2205.5,60.5137 L2239.5,60.5137 A3.75,3.75 0 0 1 2242,63.0137 L2249,85.1348 L3314.5,85.1348 A2.5,2.5 0 0 1 3317,87.6348 L3317,252.0137 A2.5,2.5 0 0 1 3314.5,254.5137 L2205.5,254.5137 A2.5,2.5 0 0 1 2203,252.0137 L2203,63.0137 A2.5,2.5 0 0 1 2205.5,60.5137 " fill="none" style="stroke:#000000;stroke-width:1.5;"/><line style="stroke:#000000;stroke-width:1.5;" x1="2203" x2="2249" y1="85.1348" y2="85.1348"/><text fill="#000000" font-family="sans-serif" font-size="14" font-weight="bold" lengthAdjust="spacing" textLength="33" x="2207" y="77.6211">Lists</text></g><!--class OnlineStore--><g id="elem_OnlineStore"><rect codeLine="4" fill="#F1F1F1" height="66.6211" id="OnlineStore" rx="2.5" ry="2.5" style="stroke:#181818;stroke-width:0.5;" width="181" x="4426.5" y="1152.0137"/><ellipse cx="4475.25" cy="1168.0137" fill="#ADD1B2" rx="11" ry="11" style="stroke:#181818;stroke-width:1.0;"/><path d="M4478.0156,1163.8887 Q4478.1719,1163.6699 4478.3594,1163.5605 Q4478.5469,1163.4512 4478.7656,1163.4512 Q4479.1406,1163.4512 4479.375,1163.7168 Q4479.6094,1163.9668 4479.6094,1164.5762 L4479.6094,1166.0293 Q4479.6094,1166.6387 4479.375,1166.9043 Q4479.1406,1167.1699 4478.7656,1167.1699 Q4478.4219,1167.1699 4478.2188,1166.9668 Q4478.0156,1166.7793 4477.9063,1166.2637 Q4477.8594,1165.9043 4477.6719,1165.7168 Q4477.3438,1165.3418 4476.7344,1165.123 Q4476.125,1164.9043 4475.5,1164.9043 Q4474.7344,1164.9043 4474.0938,1165.2324 Q4473.4688,1165.5605 4472.9688,1166.3105 Q4472.4844,1167.0605 4472.4844,1168.0918 L4472.4844,1169.1855 Q4472.4844,1170.4199 4473.375,1171.248 Q4474.2656,1172.0605 4475.8594,1172.0605 Q4476.7969,1172.0605 4477.4531,1171.8105 Q4477.8438,1171.6543 4478.2656,1171.2168 Q4478.5313,1170.9512 4478.6719,1170.873 Q4478.8281,1170.7949 4479.0313,1170.7949 Q4479.3594,1170.7949 4479.6094,1171.0605 Q4479.875,1171.3105 4479.875,1171.6543 Q4479.875,1171.998 4479.5313,1172.4043 Q4479.0313,1172.9824 4478.2344,1173.3105 Q4477.1563,1173.7637 4475.8594,1173.7637 Q4474.3438,1173.7637 4473.1406,1173.1387 Q4472.1563,1172.6387 4471.4688,1171.5762 Q4470.7813,1170.498 4470.7813,1169.2168 L4470.7813,1168.0605 Q4470.7813,1166.7324 4471.3906,1165.5918 Q4472.0156,1164.4355 4473.1094,1163.8262 Q4474.2031,1163.2012 4475.4375,1163.2012 Q4476.1719,1163.2012 4476.8125,1163.373 Q4477.4688,1163.5293 4478.0156,1163.8887 Z " fill="#000000"/><text fill="#000000" font-family="sans-serif" font-size="14" lengthAdjust="spacing" textLength="75" x="4495.75" y="1173.8105">OnlineStore</text><line style="stroke:#181818;stroke-width:0.5;" x1="4427.5" x2="4606.5" y1="1184.0137" y2="1184.0137"/><line style="stroke:#181818;stroke-width:0.5;" x1="4427.5" x2="4606.5" y1="1192.0137" y2="1192.0137"/><ellipse cx="4437.5" cy="1206.8242" fill="#84BE84" rx="3" ry="3" style="stroke:#038048;stroke-width:1.0;"/><text fill="#000000" font-family="sans-serif" font-size="14" lengthAdjust="spacing" text-decoration="underline" textLength="155" x="4446.5" y="1211.1211">main(args: String[]): void</text></g><!--class ManageOS--><g id="elem_ManageOS"><rect codeLine="7" fill="#F1F1F1" height="196.9688" id="ManageOS" rx="2.5" ry="2.5" style="stroke:#181818;stroke-width:0.5;" width="257" x="4134.5" y="1087.0137"/><ellipse cx="4223.25" cy="1103.0137" fill="#ADD1B2" rx="11" ry="11" style="stroke:#181818;stroke-width:1.0;"/><path d="M4226.0156,1098.8887 Q4226.1719,1098.6699 4226.3594,1098.5605 Q4226.5469,1098.4512 4226.7656,1098.4512 Q4227.1406,1098.4512 4227.375,1098.7168 Q4227.6094,1098.9668 4227.6094,1099.5762 L4227.6094,1101.0293 Q4227.6094,1101.6387 4227.375,1101.9043 Q4227.1406,1102.1699 4226.7656,1102.1699 Q4226.4219,1102.1699 4226.2188,1101.9668 Q4226.0156,1101.7793 4225.9063,1101.2637 Q4225.8594,1100.9043 4225.6719,1100.7168 Q4225.3438,1100.3418 4224.7344,1100.123 Q4224.125,1099.9043 4223.5,1099.9043 Q4222.7344,1099.9043 4222.0938,1100.2324 Q4221.4688,1100.5605 4220.9688,1101.3105 Q4220.4844,1102.0605 4220.4844,1103.0918 L4220.4844,1104.1855 Q4220.4844,1105.4199 4221.375,1106.248 Q4222.2656,1107.0605 4223.8594,1107.0605 Q4224.7969,1107.0605 4225.4531,1106.8105 Q4225.8438,1106.6543 4226.2656,1106.2168 Q4226.5313,1105.9512 4226.6719,1105.873 Q4226.8281,1105.7949 4227.0313,1105.7949 Q4227.3594,1105.7949 4227.6094,1106.0605 Q4227.875,1106.3105 4227.875,1106.6543 Q4227.875,1106.998 4227.5313,1107.4043 Q4227.0313,1107.9824 4226.2344,1108.3105 Q4225.1563,1108.7637 4223.8594,1108.7637 Q4222.3438,1108.7637 4221.1406,1108.1387 Q4220.1563,1107.6387 4219.4688,1106.5762 Q4218.7813,1105.498 4218.7813,1104.2168 L4218.7813,1103.0605 Q4218.7813,1101.7324 4219.3906,1100.5918 Q4220.0156,1099.4355 4221.1094,1098.8262 Q4222.2031,1098.2012 4223.4375,1098.2012 Q4224.1719,1098.2012 4224.8125,1098.373 Q4225.4688,1098.5293 4226.0156,1098.8887 Z " fill="#000000"/><text fill="#000000" font-family="sans-serif" font-size="14" lengthAdjust="spacing" textLength="71" x="4243.75" y="1108.8105">ManageOS</text><line style="stroke:#181818;stroke-width:0.5;" x1="4135.5" x2="4390.5" y1="1119.0137" y2="1119.0137"/><rect fill="none" height="6" style="stroke:#C82930;stroke-width:1.0;" width="6" x="4142.5" y="1130.8242"/><text fill="#000000" font-family="sans-serif" font-size="14" lengthAdjust="spacing" textLength="129" x="4154.5" y="1138.1211">controller: Controller</text><line style="stroke:#181818;stroke-width:0.5;" x1="4135.5" x2="4390.5" y1="1145.6348" y2="1145.6348"/><ellipse cx="4145.5" cy="1160.4453" fill="#84BE84" rx="3" ry="3" style="stroke:#038048;stroke-width:1.0;"/><text fill="#000000" font-family="sans-serif" font-size="14" lengthAdjust="spacing" textLength="81" x="4154.5" y="1164.7422">ManageOS()</text><ellipse cx="4145.5" cy="1179.0664" fill="#84BE84" rx="3" ry="3" style="stroke:#038048;stroke-width:1.0;"/><text fill="#000000" font-family="sans-serif" font-size="14" lengthAdjust="spacing" textLength="210" x="4154.5" y="1183.3633">ManageOS(controller: Controller)</text><ellipse cx="4145.5" cy="1197.6875" fill="#84BE84" rx="3" ry="3" style="stroke:#038048;stroke-width:1.0;"/><text fill="#000000" font-family="sans-serif" font-size="14" lengthAdjust="spacing" textLength="231" x="4154.5" y="1201.9844">ManageOS(manageOS: ManageOS)</text><ellipse cx="4145.5" cy="1216.3086" fill="#84BE84" rx="3" ry="3" style="stroke:#038048;stroke-width:1.0;"/><text fill="#000000" font-family="sans-serif" font-size="14" lengthAdjust="spacing" textLength="65" x="4154.5" y="1220.6055">run(): void</text><ellipse cx="4145.5" cy="1234.9297" fill="#84BE84" rx="3" ry="3" style="stroke:#038048;stroke-width:1.0;"/><text fill="#000000" font-family="sans-serif" font-size="14" lengthAdjust="spacing" textLength="163" x="4154.5" y="1239.2266">manageCustomers(): void</text><ellipse cx="4145.5" cy="1253.5508" fill="#84BE84" rx="3" ry="3" style="stroke:#038048;stroke-width:1.0;"/><text fill="#000000" font-family="sans-serif" font-size="14" lengthAdjust="spacing" textLength="128" x="4154.5" y="1257.8477">manageItems(): void</text><ellipse cx="4145.5" cy="1272.1719" fill="#84BE84" rx="3" ry="3" style="stroke:#038048;stroke-width:1.0;"/><text fill="#000000" font-family="sans-serif" font-size="14" lengthAdjust="spacing" textLength="139" x="4154.5" y="1276.4688">manageOrders(): void</text></g><!--class Controller--><g id="elem_Controller"><rect codeLine="20" fill="#F1F1F1" height="122.4844" id="Controller" rx="2.5" ry="2.5" style="stroke:#181818;stroke-width:0.5;" width="227" x="3713.5" y="1124.5137"/><ellipse cx="3791.75" cy="1140.5137" fill="#ADD1B2" rx="11" ry="11" style="stroke:#181818;stroke-width:1.0;"/><path d="M3794.5156,1136.3887 Q3794.6719,1136.1699 3794.8594,1136.0605 Q3795.0469,1135.9512 3795.2656,1135.9512 Q3795.6406,1135.9512 3795.875,1136.2168 Q3796.1094,1136.4668 3796.1094,1137.0762 L3796.1094,1138.5293 Q3796.1094,1139.1387 3795.875,1139.4043 Q3795.6406,1139.6699 3795.2656,1139.6699 Q3794.9219,1139.6699 3794.7188,1139.4668 Q3794.5156,1139.2793 3794.4063,1138.7637 Q3794.3594,1138.4043 3794.1719,1138.2168 Q3793.8438,1137.8418 3793.2344,1137.623 Q3792.625,1137.4043 3792,1137.4043 Q3791.2344,1137.4043 3790.5938,1137.7324 Q3789.9688,1138.0605 3789.4688,1138.8105 Q3788.9844,1139.5605 3788.9844,1140.5918 L3788.9844,1141.6855 Q3788.9844,1142.9199 3789.875,1143.748 Q3790.7656,1144.5605 3792.3594,1144.5605 Q3793.2969,1144.5605 3793.9531,1144.3105 Q3794.3438,1144.1543 3794.7656,1143.7168 Q3795.0313,1143.4512 3795.1719,1143.373 Q3795.3281,1143.2949 3795.5313,1143.2949 Q3795.8594,1143.2949 3796.1094,1143.5605 Q3796.375,1143.8105 3796.375,1144.1543 Q3796.375,1144.498 3796.0313,1144.9043 Q3795.5313,1145.4824 3794.7344,1145.8105 Q3793.6563,1146.2637 3792.3594,1146.2637 Q3790.8438,1146.2637 3789.6406,1145.6387 Q3788.6563,1145.1387 3787.9688,1144.0762 Q3787.2813,1142.998 3787.2813,1141.7168 L3787.2813,1140.5605 Q3787.2813,1139.2324 3787.8906,1138.0918 Q3788.5156,1136.9355 3789.6094,1136.3262 Q3790.7031,1135.7012 3791.9375,1135.7012 Q3792.6719,1135.7012 3793.3125,1135.873 Q3793.9688,1136.0293 3794.5156,1136.3887 Z " fill="#000000"/><text fill="#000000" font-family="sans-serif" font-size="14" lengthAdjust="spacing" textLength="62" x="3812.25" y="1146.3105">Controller</text><line style="stroke:#181818;stroke-width:0.5;" x1="3714.5" x2="3939.5" y1="1156.5137" y2="1156.5137"/><rect fill="none" height="6" style="stroke:#C82930;stroke-width:1.0;" width="6" x="3721.5" y="1168.3242"/><text fill="#000000" font-family="sans-serif" font-size="14" lengthAdjust="spacing" textLength="66" x="3733.5" y="1175.6211">data: Data</text><line style="stroke:#181818;stroke-width:0.5;" x1="3714.5" x2="3939.5" y1="1183.1348" y2="1183.1348"/><ellipse cx="3724.5" cy="1197.9453" fill="#84BE84" rx="3" ry="3" style="stroke:#038048;stroke-width:1.0;"/><text fill="#000000" font-family="sans-serif" font-size="14" lengthAdjust="spacing" textLength="72" x="3733.5" y="1202.2422">Controller()</text><ellipse cx="3724.5" cy="1216.5664" fill="#84BE84" rx="3" ry="3" style="stroke:#038048;stroke-width:1.0;"/><text fill="#000000" font-family="sans-serif" font-size="14" lengthAdjust="spacing" textLength="138" x="3733.5" y="1220.8633">Controller(data: Data)</text><ellipse cx="3724.5" cy="1235.1875" fill="#84BE84" rx="3" ry="3" style="stroke:#038048;stroke-width:1.0;"/><text fill="#000000" font-family="sans-serif" font-size="14" lengthAdjust="spacing" textLength="201" x="3733.5" y="1239.4844">Controller(controller: Controller)</text></g><!--class ExceptionHandler--><g id="elem_ExceptionHandler"><rect codeLine="27" fill="#F1F1F1" height="66.6211" id="ExceptionHandler" rx="2.5" ry="2.5" style="stroke:#181818;stroke-width:0.5;" width="257" x="3421.5" y="1152.0137"/><ellipse cx="3490.75" cy="1168.0137" fill="#ADD1B2" rx="11" ry="11" style="stroke:#181818;stroke-width:1.0;"/><path d="M3493.5156,1163.8887 Q3493.6719,1163.6699 3493.8594,1163.5605 Q3494.0469,1163.4512 3494.2656,1163.4512 Q3494.6406,1163.4512 3494.875,1163.7168 Q3495.1094,1163.9668 3495.1094,1164.5762 L3495.1094,1166.0293 Q3495.1094,1166.6387 3494.875,1166.9043 Q3494.6406,1167.1699 3494.2656,1167.1699 Q3493.9219,1167.1699 3493.7188,1166.9668 Q3493.5156,1166.7793 3493.4063,1166.2637 Q3493.3594,1165.9043 3493.1719,1165.7168 Q3492.8438,1165.3418 3492.2344,1165.123 Q3491.625,1164.9043 3491,1164.9043 Q3490.2344,1164.9043 3489.5938,1165.2324 Q3488.9688,1165.5605 3488.4688,1166.3105 Q3487.9844,1167.0605 3487.9844,1168.0918 L3487.9844,1169.1855 Q3487.9844,1170.4199 3488.875,1171.248 Q3489.7656,1172.0605 3491.3594,1172.0605 Q3492.2969,1172.0605 3492.9531,1171.8105 Q3493.3438,1171.6543 3493.7656,1171.2168 Q3494.0313,1170.9512 3494.1719,1170.873 Q3494.3281,1170.7949 3494.5313,1170.7949 Q3494.8594,1170.7949 3495.1094,1171.0605 Q3495.375,1171.3105 3495.375,1171.6543 Q3495.375,1171.998 3495.0313,1172.4043 Q3494.5313,1172.9824 3493.7344,1173.3105 Q3492.6563,1173.7637 3491.3594,1173.7637 Q3489.8438,1173.7637 3488.6406,1173.1387 Q3487.6563,1172.6387 3486.9688,1171.5762 Q3486.2813,1170.498 3486.2813,1169.2168 L3486.2813,1168.0605 Q3486.2813,1166.7324 3486.8906,1165.5918 Q3487.5156,1164.4355 3488.6094,1163.8262 Q3489.7031,1163.2012 3490.9375,1163.2012 Q3491.6719,1163.2012 3492.3125,1163.373 Q3492.9688,1163.5293 3493.5156,1163.8887 Z " fill="#000000"/><text fill="#000000" font-family="sans-serif" font-size="14" lengthAdjust="spacing" textLength="110" x="3511.25" y="1173.8105">ExceptionHandler</text><line style="stroke:#181818;stroke-width:0.5;" x1="3422.5" x2="3677.5" y1="1184.0137" y2="1184.0137"/><line style="stroke:#181818;stroke-width:0.5;" x1="3422.5" x2="3677.5" y1="1192.0137" y2="1192.0137"/><ellipse cx="3432.5" cy="1206.8242" fill="#84BE84" rx="3" ry="3" style="stroke:#038048;stroke-width:1.0;"/><text fill="#000000" font-family="sans-serif" font-size="14" lengthAdjust="spacing" textLength="231" x="3441.5" y="1211.1211">handleException(ex: Exception): void</text></g><!--class TestController--><g id="elem_TestController"><rect codeLine="31" fill="#F1F1F1" height="66.6211" id="TestController" rx="2.5" ry="2.5" style="stroke:#181818;stroke-width:0.5;" width="126" x="3733" y="1679.5137"/><ellipse cx="3749.8" cy="1695.5137" fill="#ADD1B2" rx="11" ry="11" style="stroke:#181818;stroke-width:1.0;"/><path d="M3752.5656,1691.3887 Q3752.7219,1691.1699 3752.9094,1691.0605 Q3753.0969,1690.9512 3753.3156,1690.9512 Q3753.6906,1690.9512 3753.925,1691.2168 Q3754.1594,1691.4668 3754.1594,1692.0762 L3754.1594,1693.5293 Q3754.1594,1694.1387 3753.925,1694.4043 Q3753.6906,1694.6699 3753.3156,1694.6699 Q3752.9719,1694.6699 3752.7688,1694.4668 Q3752.5656,1694.2793 3752.4563,1693.7637 Q3752.4094,1693.4043 3752.2219,1693.2168 Q3751.8938,1692.8418 3751.2844,1692.623 Q3750.675,1692.4043 3750.05,1692.4043 Q3749.2844,1692.4043 3748.6438,1692.7324 Q3748.0188,1693.0605 3747.5188,1693.8105 Q3747.0344,1694.5605 3747.0344,1695.5918 L3747.0344,1696.6855 Q3747.0344,1697.9199 3747.925,1698.748 Q3748.8156,1699.5605 3750.4094,1699.5605 Q3751.3469,1699.5605 3752.0031,1699.3105 Q3752.3938,1699.1543 3752.8156,1698.7168 Q3753.0813,1698.4512 3753.2219,1698.373 Q3753.3781,1698.2949 3753.5813,1698.2949 Q3753.9094,1698.2949 3754.1594,1698.5605 Q3754.425,1698.8105 3754.425,1699.1543 Q3754.425,1699.498 3754.0813,1699.9043 Q3753.5813,1700.4824 3752.7844,1700.8105 Q3751.7063,1701.2637 3750.4094,1701.2637 Q3748.8938,1701.2637 3747.6906,1700.6387 Q3746.7063,1700.1387 3746.0188,1699.0762 Q3745.3313,1697.998 3745.3313,1696.7168 L3745.3313,1695.5605 Q3745.3313,1694.2324 3745.9406,1693.0918 Q3746.5656,1691.9355 3747.6594,1691.3262 Q3748.7531,1690.7012 3749.9875,1690.7012 Q3750.7219,1690.7012 3751.3625,1690.873 Q3752.0188,1691.0293 3752.5656,1691.3887 Z " fill="#000000"/><text fill="#000000" font-family="sans-serif" font-size="14" lengthAdjust="spacing" textLength="90" x="3764.2" y="1701.3105">TestController</text><line style="stroke:#181818;stroke-width:0.5;" x1="3734" x2="3858" y1="1711.5137" y2="1711.5137"/><line style="stroke:#181818;stroke-width:0.5;" x1="3734" x2="3858" y1="1719.5137" y2="1719.5137"/><ellipse cx="3744" cy="1734.3242" fill="#84BE84" rx="3" ry="3" style="stroke:#038048;stroke-width:1.0;"/><text fill="#000000" font-family="sans-serif" font-size="14" lengthAdjust="spacing" textLength="100" x="3753" y="1738.6211">runTests(): void</text></g><!--class Data--><g id="elem_Data"><rect codeLine="37" fill="#F1F1F1" height="234.2109" id="Data" rx="2.5" ry="2.5" style="stroke:#181818;stroke-width:0.5;" width="501" x="312.5" y="51.0137"/><ellipse cx="543.75" cy="67.0137" fill="#ADD1B2" rx="11" ry="11" style="stroke:#181818;stroke-width:1.0;"/><path d="M546.5156,62.8887 Q546.6719,62.6699 546.8594,62.5605 Q547.0469,62.4512 547.2656,62.4512 Q547.6406,62.4512 547.875,62.7168 Q548.1094,62.9668 548.1094,63.5762 L548.1094,65.0293 Q548.1094,65.6387 547.875,65.9043 Q547.6406,66.1699 547.2656,66.1699 Q546.9219,66.1699 546.7188,65.9668 Q546.5156,65.7793 546.4063,65.2637 Q546.3594,64.9043 546.1719,64.7168 Q545.8438,64.3418 545.2344,64.123 Q544.625,63.9043 544,63.9043 Q543.2344,63.9043 542.5938,64.2324 Q541.9688,64.5605 541.4688,65.3105 Q540.9844,66.0605 540.9844,67.0918 L540.9844,68.1855 Q540.9844,69.4199 541.875,70.248 Q542.7656,71.0605 544.3594,71.0605 Q545.2969,71.0605 545.9531,70.8105 Q546.3438,70.6543 546.7656,70.2168 Q547.0313,69.9512 547.1719,69.873 Q547.3281,69.7949 547.5313,69.7949 Q547.8594,69.7949 548.1094,70.0605 Q548.375,70.3105 548.375,70.6543 Q548.375,70.998 548.0313,71.4043 Q547.5313,71.9824 546.7344,72.3105 Q545.6563,72.7637 544.3594,72.7637 Q542.8438,72.7637 541.6406,72.1387 Q540.6563,71.6387 539.9688,70.5762 Q539.2813,69.498 539.2813,68.2168 L539.2813,67.0605 Q539.2813,65.7324 539.8906,64.5918 Q540.5156,63.4355 541.6094,62.8262 Q542.7031,62.2012 543.9375,62.2012 Q544.6719,62.2012 545.3125,62.373 Q545.9688,62.5293 546.5156,62.8887 Z " fill="#000000"/><text fill="#000000" font-family="sans-serif" font-size="14" lengthAdjust="spacing" textLength="30" x="564.25" y="72.8105">Data</text><line style="stroke:#181818;stroke-width:0.5;" x1="313.5" x2="812.5" y1="83.0137" y2="83.0137"/><rect fill="none" height="6" style="stroke:#C82930;stroke-width:1.0;" width="6" x="320.5" y="94.8242"/><text fill="#000000" font-family="sans-serif" font-size="14" lengthAdjust="spacing" textLength="178" x="332.5" y="102.1211">customersList: CustomerList</text><rect fill="none" height="6" style="stroke:#C82930;stroke-width:1.0;" width="6" x="320.5" y="113.4453"/><text fill="#000000" font-family="sans-serif" font-size="14" lengthAdjust="spacing" textLength="130" x="332.5" y="120.7422">ordersList: OrderList</text><rect fill="none" height="6" style="stroke:#C82930;stroke-width:1.0;" width="6" x="320.5" y="132.0664"/><text fill="#000000" font-family="sans-serif" font-size="14" lengthAdjust="spacing" textLength="111" x="332.5" y="139.3633">itemsList: ItemList</text><line style="stroke:#181818;stroke-width:0.5;" x1="313.5" x2="812.5" y1="146.877" y2="146.877"/><ellipse cx="323.5" cy="161.6875" fill="#84BE84" rx="3" ry="3" style="stroke:#038048;stroke-width:1.0;"/><text fill="#000000" font-family="sans-serif" font-size="14" lengthAdjust="spacing" textLength="40" x="332.5" y="165.9844">Data()</text><ellipse cx="323.5" cy="180.3086" fill="#84BE84" rx="3" ry="3" style="stroke:#038048;stroke-width:1.0;"/><text fill="#000000" font-family="sans-serif" font-size="14" lengthAdjust="spacing" textLength="475" x="332.5" y="184.6055">Data(customersList: CustomerList, ordersList: OrderList, itemsList: ItemList)</text><ellipse cx="323.5" cy="198.9297" fill="#84BE84" rx="3" ry="3" style="stroke:#038048;stroke-width:1.0;"/><text fill="#000000" font-family="sans-serif" font-size="14" lengthAdjust="spacing" textLength="106" x="332.5" y="203.2266">Data(data: Data)</text><ellipse cx="323.5" cy="217.5508" fill="#84BE84" rx="3" ry="3" style="stroke:#038048;stroke-width:1.0;"/><text fill="#000000" font-family="sans-serif" font-size="14" lengthAdjust="spacing" textLength="189" x="332.5" y="221.8477">getCustomers(): CustomerList</text><ellipse cx="323.5" cy="236.1719" fill="#84BE84" rx="3" ry="3" style="stroke:#038048;stroke-width:1.0;"/><text fill="#000000" font-family="sans-serif" font-size="14" lengthAdjust="spacing" textLength="141" x="332.5" y="240.4688">getOrders(): OrderList</text><ellipse cx="323.5" cy="254.793" fill="#84BE84" rx="3" ry="3" style="stroke:#038048;stroke-width:1.0;"/><text fill="#000000" font-family="sans-serif" font-size="14" lengthAdjust="spacing" textLength="119" x="332.5" y="259.0898">getItems(): ItemList</text><ellipse cx="323.5" cy="273.4141" fill="#84BE84" rx="3" ry="3" style="stroke:#038048;stroke-width:1.0;"/><text fill="#000000" font-family="sans-serif" font-size="14" lengthAdjust="spacing" textLength="104" x="332.5" y="277.7109">toString(): String</text></g><!--class Customer--><g id="elem_Customer"><rect codeLine="75" fill="#F1F1F1" height="494.9063" id="Customer" rx="2.5" ry="2.5" style="stroke:#181818;stroke-width:0.5;" width="958" x="1658" y="364.0137"/><ellipse cx="2102.25" cy="380.0137" fill="#A9DCDF" rx="11" ry="11" style="stroke:#181818;stroke-width:1.0;"/><path d="M2104.4375,381.7793 L2100.2969,381.7793 L2099.875,382.8105 L2100.2969,382.8105 Q2100.9063,382.8105 2101.1719,383.0449 Q2101.4375,383.2793 2101.4375,383.6699 Q2101.4375,384.0449 2101.1719,384.2793 Q2100.9063,384.5137 2100.2969,384.5137 L2098,384.5137 Q2097.3906,384.5137 2097.1406,384.2793 Q2096.875,384.0449 2096.875,383.6543 Q2096.875,383.2793 2097.1563,383.0449 Q2097.4219,382.7949 2098.0469,382.8105 L2100.7188,376.1543 L2099.6094,376.1543 Q2099,376.1543 2098.7344,375.9199 Q2098.4688,375.6855 2098.4688,375.2949 Q2098.4688,374.9199 2098.7344,374.6855 Q2099,374.4512 2099.6094,374.4512 L2103.2813,374.4512 L2106.6719,382.8105 Q2107.2656,382.8105 2107.4531,382.9512 Q2107.8438,383.2168 2107.8438,383.6699 Q2107.8438,384.0449 2107.5781,384.2793 Q2107.3281,384.5137 2106.7188,384.5137 L2104.4219,384.5137 Q2103.8125,384.5137 2103.5469,384.2793 Q2103.2813,384.0449 2103.2813,383.6543 Q2103.2813,383.2793 2103.5469,383.0449 Q2103.8125,382.8105 2104.4219,382.8105 L2104.8438,382.8105 L2104.4375,381.7793 Z M2103.7188,380.0762 L2102.3594,376.7012 L2100.9844,380.0762 L2103.7188,380.0762 Z " fill="#000000"/><text fill="#000000" font-family="sans-serif" font-size="14" font-style="italic" lengthAdjust="spacing" textLength="61" x="2122.75" y="385.8105">Customer</text><line style="stroke:#181818;stroke-width:0.5;" x1="1659" x2="2615" y1="396.0137" y2="396.0137"/><rect fill="none" height="6" style="stroke:#C82930;stroke-width:1.0;" width="6" x="1666" y="407.8242"/><text fill="#000000" font-family="sans-serif" font-size="14" lengthAdjust="spacing" textLength="80" x="1678" y="415.1211">name: String</text><rect fill="none" height="6" style="stroke:#C82930;stroke-width:1.0;" width="6" x="1666" y="426.4453"/><text fill="#000000" font-family="sans-serif" font-size="14" lengthAdjust="spacing" textLength="96" x="1678" y="433.7422">address: String</text><rect fill="none" height="6" style="stroke:#C82930;stroke-width:1.0;" width="6" x="1666" y="445.0664"/><text fill="#000000" font-family="sans-serif" font-size="14" lengthAdjust="spacing" textLength="56" x="1678" y="452.3633">id: String</text><rect fill="none" height="6" style="stroke:#C82930;stroke-width:1.0;" width="6" x="1666" y="463.6875"/><text fill="#000000" font-family="sans-serif" font-size="14" lengthAdjust="spacing" textLength="78" x="1678" y="470.9844">email: String</text><polygon fill="none" points="1669,480.3086,1673,484.3086,1669,488.3086,1665,484.3086" style="stroke:#B38D22;stroke-width:1.0;"/><text fill="#000000" font-family="sans-serif" font-size="14" lengthAdjust="spacing" textLength="191" x="1678" y="489.6055">customerType: CustomerType</text><polygon fill="none" points="1669,498.9297,1673,502.9297,1669,506.9297,1665,502.9297" style="stroke:#B38D22;stroke-width:1.0;"/><text fill="#000000" font-family="sans-serif" font-size="14" lengthAdjust="spacing" textLength="153" x="1678" y="508.2266">membershipFee: double</text><polygon fill="none" points="1669,517.5508,1673,521.5508,1669,525.5508,1665,521.5508" style="stroke:#B38D22;stroke-width:1.0;"/><text fill="#000000" font-family="sans-serif" font-size="14" lengthAdjust="spacing" textLength="159" x="1678" y="526.8477">shippingDiscount: double</text><line style="stroke:#181818;stroke-width:0.5;" x1="1659" x2="2615" y1="534.3613" y2="534.3613"/><ellipse cx="1669" cy="549.1719" fill="#84BE84" rx="3" ry="3" style="stroke:#038048;stroke-width:1.0;"/><text fill="#000000" font-family="sans-serif" font-size="14" lengthAdjust="spacing" textLength="932" x="1678" y="553.4688">Customer(name: String, address: String, id: String, email: String,  customerType: CustomerType, membershipFee: double,shippingDiscount: double)</text><ellipse cx="1669" cy="567.793" fill="#84BE84" rx="3" ry="3" style="stroke:#038048;stroke-width:1.0;"/><text fill="#000000" font-family="sans-serif" font-size="14" lengthAdjust="spacing" textLength="111" x="1678" y="572.0898">getName(): String</text><ellipse cx="1669" cy="586.4141" fill="#84BE84" rx="3" ry="3" style="stroke:#038048;stroke-width:1.0;"/><text fill="#000000" font-family="sans-serif" font-size="14" lengthAdjust="spacing" textLength="179" x="1678" y="590.7109">setName(name: String): void</text><ellipse cx="1669" cy="605.0352" fill="#84BE84" rx="3" ry="3" style="stroke:#038048;stroke-width:1.0;"/><text fill="#000000" font-family="sans-serif" font-size="14" lengthAdjust="spacing" textLength="127" x="1678" y="609.332">getAddress(): String</text><ellipse cx="1669" cy="623.6563" fill="#84BE84" rx="3" ry="3" style="stroke:#038048;stroke-width:1.0;"/><text fill="#000000" font-family="sans-serif" font-size="14" lengthAdjust="spacing" textLength="211" x="1678" y="627.9531">setAddress(address: String): void</text><ellipse cx="1669" cy="642.2773" fill="#84BE84" rx="3" ry="3" style="stroke:#038048;stroke-width:1.0;"/><text fill="#000000" font-family="sans-serif" font-size="14" lengthAdjust="spacing" textLength="86" x="1678" y="646.5742">getId(): String</text><ellipse cx="1669" cy="660.8984" fill="#84BE84" rx="3" ry="3" style="stroke:#038048;stroke-width:1.0;"/><text fill="#000000" font-family="sans-serif" font-size="14" lengthAdjust="spacing" textLength="130" x="1678" y="665.1953">setId(id: String): void</text><ellipse cx="1669" cy="679.5195" fill="#84BE84" rx="3" ry="3" style="stroke:#038048;stroke-width:1.0;"/><text fill="#000000" font-family="sans-serif" font-size="14" lengthAdjust="spacing" textLength="109" x="1678" y="683.8164">getEmail(): String</text><ellipse cx="1669" cy="698.1406" fill="#84BE84" rx="3" ry="3" style="stroke:#038048;stroke-width:1.0;"/><text fill="#000000" font-family="sans-serif" font-size="14" lengthAdjust="spacing" textLength="175" x="1678" y="702.4375">setEmail(email: String): void</text><ellipse cx="1669" cy="716.7617" fill="#84BE84" rx="3" ry="3" style="stroke:#038048;stroke-width:1.0;"/><text fill="#000000" font-family="sans-serif" font-size="14" lengthAdjust="spacing" textLength="183" x="1678" y="721.0586">getMembershipFee(): double</text><ellipse cx="1669" cy="735.3828" fill="#84BE84" rx="3" ry="3" style="stroke:#038048;stroke-width:1.0;"/><text fill="#000000" font-family="sans-serif" font-size="14" lengthAdjust="spacing" textLength="318" x="1678" y="739.6797">setMembershipFee(membershipFee: double): void</text><ellipse cx="1669" cy="754.0039" fill="#84BE84" rx="3" ry="3" style="stroke:#038048;stroke-width:1.0;"/><text fill="#000000" font-family="sans-serif" font-size="14" lengthAdjust="spacing" textLength="224" x="1678" y="758.3008">getCustomerType(): CustomerType</text><ellipse cx="1669" cy="772.625" fill="#84BE84" rx="3" ry="3" style="stroke:#038048;stroke-width:1.0;"/><text fill="#000000" font-family="sans-serif" font-size="14" lengthAdjust="spacing" textLength="347" x="1678" y="776.9219">setCustomerType(customerType: CustomerType): void</text><ellipse cx="1669" cy="791.2461" fill="#84BE84" rx="3" ry="3" style="stroke:#038048;stroke-width:1.0;"/><text fill="#000000" font-family="sans-serif" font-size="14" font-style="italic" lengthAdjust="spacing" textLength="199" x="1678" y="795.543">typeCustomer(): CustomerType</text><ellipse cx="1669" cy="809.8672" fill="#84BE84" rx="3" ry="3" style="stroke:#038048;stroke-width:1.0;"/><text fill="#000000" font-family="sans-serif" font-size="14" font-style="italic" lengthAdjust="spacing" textLength="220" x="1678" y="814.1641">calculateMembershipFee(): double</text><ellipse cx="1669" cy="828.4883" fill="#84BE84" rx="3" ry="3" style="stroke:#038048;stroke-width:1.0;"/><text fill="#000000" font-family="sans-serif" font-size="14" font-style="italic" lengthAdjust="spacing" textLength="169" x="1678" y="832.7852">shippingDiscount(): double</text><ellipse cx="1669" cy="847.1094" fill="#84BE84" rx="3" ry="3" style="stroke:#038048;stroke-width:1.0;"/><text fill="#000000" font-family="sans-serif" font-size="14" lengthAdjust="spacing" textLength="104" x="1678" y="851.4063">toString(): String</text></g><!--class StandardCustomer--><g id="elem_StandardCustomer"><rect codeLine="102" fill="#F1F1F1" height="141.1055" id="StandardCustomer" rx="2.5" ry="2.5" style="stroke:#181818;stroke-width:0.5;" width="489" x="1694.5" y="97.5137"/><ellipse cx="1875.25" cy="113.5137" fill="#ADD1B2" rx="11" ry="11" style="stroke:#181818;stroke-width:1.0;"/><path d="M1878.0156,109.3887 Q1878.1719,109.1699 1878.3594,109.0605 Q1878.5469,108.9512 1878.7656,108.9512 Q1879.1406,108.9512 1879.375,109.2168 Q1879.6094,109.4668 1879.6094,110.0762 L1879.6094,111.5293 Q1879.6094,112.1387 1879.375,112.4043 Q1879.1406,112.6699 1878.7656,112.6699 Q1878.4219,112.6699 1878.2188,112.4668 Q1878.0156,112.2793 1877.9063,111.7637 Q1877.8594,111.4043 1877.6719,111.2168 Q1877.3438,110.8418 1876.7344,110.623 Q1876.125,110.4043 1875.5,110.4043 Q1874.7344,110.4043 1874.0938,110.7324 Q1873.4688,111.0605 1872.9688,111.8105 Q1872.4844,112.5605 1872.4844,113.5918 L1872.4844,114.6855 Q1872.4844,115.9199 1873.375,116.748 Q1874.2656,117.5605 1875.8594,117.5605 Q1876.7969,117.5605 1877.4531,117.3105 Q1877.8438,117.1543 1878.2656,116.7168 Q1878.5313,116.4512 1878.6719,116.373 Q1878.8281,116.2949 1879.0313,116.2949 Q1879.3594,116.2949 1879.6094,116.5605 Q1879.875,116.8105 1879.875,117.1543 Q1879.875,117.498 1879.5313,117.9043 Q1879.0313,118.4824 1878.2344,118.8105 Q1877.1563,119.2637 1875.8594,119.2637 Q1874.3438,119.2637 1873.1406,118.6387 Q1872.1563,118.1387 1871.4688,117.0762 Q1870.7813,115.998 1870.7813,114.7168 L1870.7813,113.5605 Q1870.7813,112.2324 1871.3906,111.0918 Q1872.0156,109.9355 1873.1094,109.3262 Q1874.2031,108.7012 1875.4375,108.7012 Q1876.1719,108.7012 1876.8125,108.873 Q1877.4688,109.0293 1878.0156,109.3887 Z " fill="#000000"/><text fill="#000000" font-family="sans-serif" font-size="14" lengthAdjust="spacing" textLength="119" x="1895.75" y="119.3105">StandardCustomer</text><line style="stroke:#181818;stroke-width:0.5;" x1="1695.5" x2="2182.5" y1="129.5137" y2="129.5137"/><line style="stroke:#181818;stroke-width:0.5;" x1="1695.5" x2="2182.5" y1="137.5137" y2="137.5137"/><ellipse cx="1705.5" cy="152.3242" fill="#84BE84" rx="3" ry="3" style="stroke:#038048;stroke-width:1.0;"/><text fill="#000000" font-family="sans-serif" font-size="14" lengthAdjust="spacing" textLength="463" x="1714.5" y="156.6211">StandardCustomer(name: String, address: String, id: String, email: String)</text><ellipse cx="1705.5" cy="170.9453" fill="#84BE84" rx="3" ry="3" style="stroke:#038048;stroke-width:1.0;"/><text fill="#000000" font-family="sans-serif" font-size="14" lengthAdjust="spacing" textLength="199" x="1714.5" y="175.2422">typeCustomer(): CustomerType</text><ellipse cx="1705.5" cy="189.5664" fill="#84BE84" rx="3" ry="3" style="stroke:#038048;stroke-width:1.0;"/><text fill="#000000" font-family="sans-serif" font-size="14" lengthAdjust="spacing" textLength="219" x="1714.5" y="193.8633">calculateMembershipFee(): double</text><ellipse cx="1705.5" cy="208.1875" fill="#84BE84" rx="3" ry="3" style="stroke:#038048;stroke-width:1.0;"/><text fill="#000000" font-family="sans-serif" font-size="14" lengthAdjust="spacing" textLength="169" x="1714.5" y="212.4844">shippingDiscount(): double</text><ellipse cx="1705.5" cy="226.8086" fill="#84BE84" rx="3" ry="3" style="stroke:#038048;stroke-width:1.0;"/><text fill="#000000" font-family="sans-serif" font-size="14" lengthAdjust="spacing" textLength="104" x="1714.5" y="231.1055">toString(): String</text></g><!--class PremiumCustomer--><g id="elem_PremiumCustomer"><rect codeLine="110" fill="#F1F1F1" height="141.1055" id="PremiumCustomer" rx="2.5" ry="2.5" style="stroke:#181818;stroke-width:0.5;" width="810" x="849" y="97.5137"/><ellipse cx="1191.75" cy="113.5137" fill="#ADD1B2" rx="11" ry="11" style="stroke:#181818;stroke-width:1.0;"/><path d="M1194.5156,109.3887 Q1194.6719,109.1699 1194.8594,109.0605 Q1195.0469,108.9512 1195.2656,108.9512 Q1195.6406,108.9512 1195.875,109.2168 Q1196.1094,109.4668 1196.1094,110.0762 L1196.1094,111.5293 Q1196.1094,112.1387 1195.875,112.4043 Q1195.6406,112.6699 1195.2656,112.6699 Q1194.9219,112.6699 1194.7188,112.4668 Q1194.5156,112.2793 1194.4063,111.7637 Q1194.3594,111.4043 1194.1719,111.2168 Q1193.8438,110.8418 1193.2344,110.623 Q1192.625,110.4043 1192,110.4043 Q1191.2344,110.4043 1190.5938,110.7324 Q1189.9688,111.0605 1189.4688,111.8105 Q1188.9844,112.5605 1188.9844,113.5918 L1188.9844,114.6855 Q1188.9844,115.9199 1189.875,116.748 Q1190.7656,117.5605 1192.3594,117.5605 Q1193.2969,117.5605 1193.9531,117.3105 Q1194.3438,117.1543 1194.7656,116.7168 Q1195.0313,116.4512 1195.1719,116.373 Q1195.3281,116.2949 1195.5313,116.2949 Q1195.8594,116.2949 1196.1094,116.5605 Q1196.375,116.8105 1196.375,117.1543 Q1196.375,117.498 1196.0313,117.9043 Q1195.5313,118.4824 1194.7344,118.8105 Q1193.6563,119.2637 1192.3594,119.2637 Q1190.8438,119.2637 1189.6406,118.6387 Q1188.6563,118.1387 1187.9688,117.0762 Q1187.2813,115.998 1187.2813,114.7168 L1187.2813,113.5605 Q1187.2813,112.2324 1187.8906,111.0918 Q1188.5156,109.9355 1189.6094,109.3262 Q1190.7031,108.7012 1191.9375,108.7012 Q1192.6719,108.7012 1193.3125,108.873 Q1193.9688,109.0293 1194.5156,109.3887 Z " fill="#000000"/><text fill="#000000" font-family="sans-serif" font-size="14" lengthAdjust="spacing" textLength="116" x="1212.25" y="119.3105">PremiumCustomer</text><line style="stroke:#181818;stroke-width:0.5;" x1="850" x2="1658" y1="129.5137" y2="129.5137"/><line style="stroke:#181818;stroke-width:0.5;" x1="850" x2="1658" y1="137.5137" y2="137.5137"/><ellipse cx="860" cy="152.3242" fill="#84BE84" rx="3" ry="3" style="stroke:#038048;stroke-width:1.0;"/><text fill="#000000" font-family="sans-serif" font-size="14" lengthAdjust="spacing" textLength="784" x="869" y="156.6211">PremiumCustomer(name: String, address: String, id: String, email: String, membershipFee: double,shippingDiscount: double)</text><ellipse cx="860" cy="170.9453" fill="#84BE84" rx="3" ry="3" style="stroke:#038048;stroke-width:1.0;"/><text fill="#000000" font-family="sans-serif" font-size="14" lengthAdjust="spacing" textLength="199" x="869" y="175.2422">typeCustomer(): CustomerType</text><ellipse cx="860" cy="189.5664" fill="#84BE84" rx="3" ry="3" style="stroke:#038048;stroke-width:1.0;"/><text fill="#000000" font-family="sans-serif" font-size="14" lengthAdjust="spacing" textLength="219" x="869" y="193.8633">calculateMembershipFee(): double</text><ellipse cx="860" cy="208.1875" fill="#84BE84" rx="3" ry="3" style="stroke:#038048;stroke-width:1.0;"/><text fill="#000000" font-family="sans-serif" font-size="14" lengthAdjust="spacing" textLength="169" x="869" y="212.4844">shippingDiscount(): double</text><ellipse cx="860" cy="226.8086" fill="#84BE84" rx="3" ry="3" style="stroke:#038048;stroke-width:1.0;"/><text fill="#000000" font-family="sans-serif" font-size="14" lengthAdjust="spacing" textLength="104" x="869" y="231.1055">toString(): String</text></g><!--class Item--><g id="elem_Item"><rect codeLine="118" fill="#F1F1F1" height="401.8008" id="Item" rx="2.5" ry="2.5" style="stroke:#181818;stroke-width:0.5;" width="716" x="2495" y="1512.0137"/><ellipse cx="2835.25" cy="1528.0137" fill="#A9DCDF" rx="11" ry="11" style="stroke:#181818;stroke-width:1.0;"/><path d="M2837.4375,1529.7793 L2833.2969,1529.7793 L2832.875,1530.8105 L2833.2969,1530.8105 Q2833.9063,1530.8105 2834.1719,1531.0449 Q2834.4375,1531.2793 2834.4375,1531.6699 Q2834.4375,1532.0449 2834.1719,1532.2793 Q2833.9063,1532.5137 2833.2969,1532.5137 L2831,1532.5137 Q2830.3906,1532.5137 2830.1406,1532.2793 Q2829.875,1532.0449 2829.875,1531.6543 Q2829.875,1531.2793 2830.1563,1531.0449 Q2830.4219,1530.7949 2831.0469,1530.8105 L2833.7188,1524.1543 L2832.6094,1524.1543 Q2832,1524.1543 2831.7344,1523.9199 Q2831.4688,1523.6855 2831.4688,1523.2949 Q2831.4688,1522.9199 2831.7344,1522.6855 Q2832,1522.4512 2832.6094,1522.4512 L2836.2813,1522.4512 L2839.6719,1530.8105 Q2840.2656,1530.8105 2840.4531,1530.9512 Q2840.8438,1531.2168 2840.8438,1531.6699 Q2840.8438,1532.0449 2840.5781,1532.2793 Q2840.3281,1532.5137 2839.7188,1532.5137 L2837.4219,1532.5137 Q2836.8125,1532.5137 2836.5469,1532.2793 Q2836.2813,1532.0449 2836.2813,1531.6543 Q2836.2813,1531.2793 2836.5469,1531.0449 Q2836.8125,1530.8105 2837.4219,1530.8105 L2837.8438,1530.8105 L2837.4375,1529.7793 Z M2836.7188,1528.0762 L2835.3594,1524.7012 L2833.9844,1528.0762 L2836.7188,1528.0762 Z " fill="#000000"/><text fill="#000000" font-family="sans-serif" font-size="14" font-style="italic" lengthAdjust="spacing" textLength="27" x="2855.75" y="1533.8105">Item</text><line style="stroke:#181818;stroke-width:0.5;" x1="2496" x2="3210" y1="1544.0137" y2="1544.0137"/><rect fill="none" height="6" style="stroke:#C82930;stroke-width:1.0;" width="6" x="2503" y="1555.8242"/><text fill="#000000" font-family="sans-serif" font-size="14" lengthAdjust="spacing" textLength="76" x="2515" y="1563.1211">code: String</text><rect fill="none" height="6" style="stroke:#C82930;stroke-width:1.0;" width="6" x="2503" y="1574.4453"/><text fill="#000000" font-family="sans-serif" font-size="14" lengthAdjust="spacing" textLength="114" x="2515" y="1581.7422">description: String</text><rect fill="none" height="6" style="stroke:#C82930;stroke-width:1.0;" width="6" x="2503" y="1593.0664"/><text fill="#000000" font-family="sans-serif" font-size="14" lengthAdjust="spacing" textLength="123" x="2515" y="1600.3633">sellingPrice: double</text><rect fill="none" height="6" style="stroke:#C82930;stroke-width:1.0;" width="6" x="2503" y="1611.6875"/><text fill="#000000" font-family="sans-serif" font-size="14" lengthAdjust="spacing" textLength="133" x="2515" y="1618.9844">shippingCost: double</text><rect fill="none" height="6" style="stroke:#C82930;stroke-width:1.0;" width="6" x="2503" y="1630.3086"/><text fill="#000000" font-family="sans-serif" font-size="14" lengthAdjust="spacing" textLength="176" x="2515" y="1637.6055">preparationTimeMinutes: int</text><line style="stroke:#181818;stroke-width:0.5;" x1="2496" x2="3210" y1="1645.1191" y2="1645.1191"/><ellipse cx="2506" cy="1659.9297" fill="#84BE84" rx="3" ry="3" style="stroke:#038048;stroke-width:1.0;"/><text fill="#000000" font-family="sans-serif" font-size="14" lengthAdjust="spacing" textLength="36" x="2515" y="1664.2266">Item()</text><ellipse cx="2506" cy="1678.5508" fill="#84BE84" rx="3" ry="3" style="stroke:#038048;stroke-width:1.0;"/><text fill="#000000" font-family="sans-serif" font-size="14" lengthAdjust="spacing" textLength="690" x="2515" y="1682.8477">Item(code: String, description: String, sellingPrice: double, shippingCost: double, preparationTimeMinutes: int)</text><ellipse cx="2506" cy="1697.1719" fill="#84BE84" rx="3" ry="3" style="stroke:#038048;stroke-width:1.0;"/><text fill="#000000" font-family="sans-serif" font-size="14" lengthAdjust="spacing" textLength="96" x="2515" y="1701.4688">Item(item: Item)</text><ellipse cx="2506" cy="1715.793" fill="#84BE84" rx="3" ry="3" style="stroke:#038048;stroke-width:1.0;"/><text fill="#000000" font-family="sans-serif" font-size="14" lengthAdjust="spacing" textLength="109" x="2515" y="1720.0898">getCode(): String</text><ellipse cx="2506" cy="1734.4141" fill="#84BE84" rx="3" ry="3" style="stroke:#038048;stroke-width:1.0;"/><text fill="#000000" font-family="sans-serif" font-size="14" lengthAdjust="spacing" textLength="173" x="2515" y="1738.7109">setCode(code: String): void</text><ellipse cx="2506" cy="1753.0352" fill="#84BE84" rx="3" ry="3" style="stroke:#038048;stroke-width:1.0;"/><text fill="#000000" font-family="sans-serif" font-size="14" lengthAdjust="spacing" textLength="146" x="2515" y="1757.332">getDescription(): String</text><ellipse cx="2506" cy="1771.6563" fill="#84BE84" rx="3" ry="3" style="stroke:#038048;stroke-width:1.0;"/><text fill="#000000" font-family="sans-serif" font-size="14" lengthAdjust="spacing" textLength="248" x="2515" y="1775.9531">setDescription(description: String): void</text><ellipse cx="2506" cy="1790.2773" fill="#84BE84" rx="3" ry="3" style="stroke:#038048;stroke-width:1.0;"/><text fill="#000000" font-family="sans-serif" font-size="14" lengthAdjust="spacing" textLength="155" x="2515" y="1794.5742">getSellingPrice(): double</text><ellipse cx="2506" cy="1808.8984" fill="#84BE84" rx="3" ry="3" style="stroke:#038048;stroke-width:1.0;"/><text fill="#000000" font-family="sans-serif" font-size="14" lengthAdjust="spacing" textLength="260" x="2515" y="1813.1953">setSellingPrice(sellingPrice: double): void</text><ellipse cx="2506" cy="1827.5195" fill="#84BE84" rx="3" ry="3" style="stroke:#038048;stroke-width:1.0;"/><text fill="#000000" font-family="sans-serif" font-size="14" lengthAdjust="spacing" textLength="165" x="2515" y="1831.8164">getShippingCost(): double</text><ellipse cx="2506" cy="1846.1406" fill="#84BE84" rx="3" ry="3" style="stroke:#038048;stroke-width:1.0;"/><text fill="#000000" font-family="sans-serif" font-size="14" lengthAdjust="spacing" textLength="280" x="2515" y="1850.4375">setShippingCost(shippingCost: double): void</text><ellipse cx="2506" cy="1864.7617" fill="#84BE84" rx="3" ry="3" style="stroke:#038048;stroke-width:1.0;"/><text fill="#000000" font-family="sans-serif" font-size="14" lengthAdjust="spacing" textLength="207" x="2515" y="1869.0586">getPreparationTimeMinutes(): int</text><ellipse cx="2506" cy="1883.3828" fill="#84BE84" rx="3" ry="3" style="stroke:#038048;stroke-width:1.0;"/><text fill="#000000" font-family="sans-serif" font-size="14" lengthAdjust="spacing" textLength="393" x="2515" y="1887.6797">setPreparationTimeMinutes(preparationTimeMinutes: int): void</text><ellipse cx="2506" cy="1902.0039" fill="#84BE84" rx="3" ry="3" style="stroke:#038048;stroke-width:1.0;"/><text fill="#000000" font-family="sans-serif" font-size="14" lengthAdjust="spacing" textLength="104" x="2515" y="1906.3008">toString(): String</text></g><!--class Order--><g id="elem_Order"><rect codeLine="140" fill="#F1F1F1" height="494.9063" id="Order" rx="2.5" ry="2.5" style="stroke:#181818;stroke-width:0.5;" width="850" x="2313" y="938.0137"/><ellipse cx="2715.25" cy="954.0137" fill="#A9DCDF" rx="11" ry="11" style="stroke:#181818;stroke-width:1.0;"/><path d="M2717.4375,955.7793 L2713.2969,955.7793 L2712.875,956.8105 L2713.2969,956.8105 Q2713.9063,956.8105 2714.1719,957.0449 Q2714.4375,957.2793 2714.4375,957.6699 Q2714.4375,958.0449 2714.1719,958.2793 Q2713.9063,958.5137 2713.2969,958.5137 L2711,958.5137 Q2710.3906,958.5137 2710.1406,958.2793 Q2709.875,958.0449 2709.875,957.6543 Q2709.875,957.2793 2710.1563,957.0449 Q2710.4219,956.7949 2711.0469,956.8105 L2713.7188,950.1543 L2712.6094,950.1543 Q2712,950.1543 2711.7344,949.9199 Q2711.4688,949.6855 2711.4688,949.2949 Q2711.4688,948.9199 2711.7344,948.6855 Q2712,948.4512 2712.6094,948.4512 L2716.2813,948.4512 L2719.6719,956.8105 Q2720.2656,956.8105 2720.4531,956.9512 Q2720.8438,957.2168 2720.8438,957.6699 Q2720.8438,958.0449 2720.5781,958.2793 Q2720.3281,958.5137 2719.7188,958.5137 L2717.4219,958.5137 Q2716.8125,958.5137 2716.5469,958.2793 Q2716.2813,958.0449 2716.2813,957.6543 Q2716.2813,957.2793 2716.5469,957.0449 Q2716.8125,956.8105 2717.4219,956.8105 L2717.8438,956.8105 L2717.4375,955.7793 Z M2716.7188,954.0762 L2715.3594,950.7012 L2713.9844,954.0762 L2716.7188,954.0762 Z " fill="#000000"/><text fill="#000000" font-family="sans-serif" font-size="14" font-style="italic" lengthAdjust="spacing" textLength="37" x="2735.75" y="959.8105">Order</text><line style="stroke:#181818;stroke-width:0.5;" x1="2314" x2="3162" y1="970.0137" y2="970.0137"/><rect fill="none" height="6" style="stroke:#C82930;stroke-width:1.0;" width="6" x="2321" y="981.8242"/><text fill="#000000" font-family="sans-serif" font-size="14" lengthAdjust="spacing" textLength="106" x="2333" y="989.1211">orderNumber: int</text><rect fill="none" height="6" style="stroke:#C82930;stroke-width:1.0;" width="6" x="2321" y="1000.4453"/><text fill="#000000" font-family="sans-serif" font-size="14" lengthAdjust="spacing" textLength="127" x="2333" y="1007.7422">customer: Customer</text><rect fill="none" height="6" style="stroke:#C82930;stroke-width:1.0;" width="6" x="2321" y="1019.0664"/><text fill="#000000" font-family="sans-serif" font-size="14" lengthAdjust="spacing" textLength="60" x="2333" y="1026.3633">item: Item</text><rect fill="none" height="6" style="stroke:#C82930;stroke-width:1.0;" width="6" x="2321" y="1037.6875"/><text fill="#000000" font-family="sans-serif" font-size="14" lengthAdjust="spacing" textLength="104" x="2333" y="1044.9844">quantityUnits: int</text><rect fill="none" height="6" style="stroke:#C82930;stroke-width:1.0;" width="6" x="2321" y="1056.3086"/><text fill="#000000" font-family="sans-serif" font-size="14" lengthAdjust="spacing" textLength="164" x="2333" y="1063.6055">orderDateTime: DateTime</text><rect fill="none" height="6" style="stroke:#C82930;stroke-width:1.0;" width="6" x="2321" y="1074.9297"/><text fill="#000000" font-family="sans-serif" font-size="14" lengthAdjust="spacing" textLength="176" x="2333" y="1082.2266">preparationTimeMinutes: int</text><line style="stroke:#181818;stroke-width:0.5;" x1="2314" x2="3162" y1="1089.7402" y2="1089.7402"/><ellipse cx="2324" cy="1104.5508" fill="#84BE84" rx="3" ry="3" style="stroke:#038048;stroke-width:1.0;"/><text fill="#000000" font-family="sans-serif" font-size="14" lengthAdjust="spacing" textLength="47" x="2333" y="1108.8477">Order()</text><ellipse cx="2324" cy="1123.1719" fill="#84BE84" rx="3" ry="3" style="stroke:#038048;stroke-width:1.0;"/><text fill="#000000" font-family="sans-serif" font-size="14" lengthAdjust="spacing" textLength="824" x="2333" y="1127.4688">Order(orderNumber: int, customer: Customer, item: Item, quantityUnits: int, orderDateTime: DateTime, preparationTimeMinutes: int)</text><ellipse cx="2324" cy="1141.793" fill="#84BE84" rx="3" ry="3" style="stroke:#038048;stroke-width:1.0;"/><text fill="#000000" font-family="sans-serif" font-size="14" lengthAdjust="spacing" textLength="126" x="2333" y="1146.0898">Order(order: Order)</text><ellipse cx="2324" cy="1160.4141" fill="#84BE84" rx="3" ry="3" style="stroke:#038048;stroke-width:1.0;"/><text fill="#000000" font-family="sans-serif" font-size="14" lengthAdjust="spacing" textLength="139" x="2333" y="1164.7109">getOrderNumber(): int</text><ellipse cx="2324" cy="1179.0352" fill="#84BE84" rx="3" ry="3" style="stroke:#038048;stroke-width:1.0;"/><text fill="#000000" font-family="sans-serif" font-size="14" lengthAdjust="spacing" textLength="255" x="2333" y="1183.332">setOrderNumber(orderNumber: int): void</text><ellipse cx="2324" cy="1197.6563" fill="#84BE84" rx="3" ry="3" style="stroke:#038048;stroke-width:1.0;"/><text fill="#000000" font-family="sans-serif" font-size="14" lengthAdjust="spacing" textLength="160" x="2333" y="1201.9531">getCustomer(): Customer</text><ellipse cx="2324" cy="1216.2773" fill="#84BE84" rx="3" ry="3" style="stroke:#038048;stroke-width:1.0;"/><text fill="#000000" font-family="sans-serif" font-size="14" lengthAdjust="spacing" textLength="251" x="2333" y="1220.5742">setCustomer(customer: Customer): void</text><ellipse cx="2324" cy="1234.8984" fill="#84BE84" rx="3" ry="3" style="stroke:#038048;stroke-width:1.0;"/><text fill="#000000" font-family="sans-serif" font-size="14" lengthAdjust="spacing" textLength="90" x="2333" y="1239.1953">getItem(): Item</text><ellipse cx="2324" cy="1253.5195" fill="#84BE84" rx="3" ry="3" style="stroke:#038048;stroke-width:1.0;"/><text fill="#000000" font-family="sans-serif" font-size="14" lengthAdjust="spacing" textLength="149" x="2333" y="1257.8164">setItem(item: Item): void</text><ellipse cx="2324" cy="1272.1406" fill="#84BE84" rx="3" ry="3" style="stroke:#038048;stroke-width:1.0;"/><text fill="#000000" font-family="sans-serif" font-size="14" lengthAdjust="spacing" textLength="137" x="2333" y="1276.4375">getQuantityUnits(): int</text><ellipse cx="2324" cy="1290.7617" fill="#84BE84" rx="3" ry="3" style="stroke:#038048;stroke-width:1.0;"/><text fill="#000000" font-family="sans-serif" font-size="14" lengthAdjust="spacing" textLength="251" x="2333" y="1295.0586">setQuantityUnits(quantityUnits: int): void</text><ellipse cx="2324" cy="1309.3828" fill="#84BE84" rx="3" ry="3" style="stroke:#038048;stroke-width:1.0;"/><text fill="#000000" font-family="sans-serif" font-size="14" lengthAdjust="spacing" textLength="197" x="2333" y="1313.6797">getOrderDateTime(): DateTime</text><ellipse cx="2324" cy="1328.0039" fill="#84BE84" rx="3" ry="3" style="stroke:#038048;stroke-width:1.0;"/><text fill="#000000" font-family="sans-serif" font-size="14" lengthAdjust="spacing" textLength="325" x="2333" y="1332.3008">setOrderDateTime(orderDateTime: DateTime): void</text><ellipse cx="2324" cy="1346.625" fill="#84BE84" rx="3" ry="3" style="stroke:#038048;stroke-width:1.0;"/><text fill="#000000" font-family="sans-serif" font-size="14" lengthAdjust="spacing" textLength="207" x="2333" y="1350.9219">getPreparationTimeMinutes(): int</text><ellipse cx="2324" cy="1365.2461" fill="#84BE84" rx="3" ry="3" style="stroke:#038048;stroke-width:1.0;"/><text fill="#000000" font-family="sans-serif" font-size="14" lengthAdjust="spacing" textLength="393" x="2333" y="1369.543">setPreparationTimeMinutes(preparationTimeMinutes: int): void</text><ellipse cx="2324" cy="1383.8672" fill="#84BE84" rx="3" ry="3" style="stroke:#038048;stroke-width:1.0;"/><text fill="#000000" font-family="sans-serif" font-size="14" lengthAdjust="spacing" textLength="186" x="2333" y="1388.1641">calculateOrderPrice(): double</text><ellipse cx="2324" cy="1402.4883" fill="#84BE84" rx="3" ry="3" style="stroke:#038048;stroke-width:1.0;"/><text fill="#000000" font-family="sans-serif" font-size="14" lengthAdjust="spacing" textLength="150" x="2333" y="1406.7852">isCancelable(): boolean</text><ellipse cx="2324" cy="1421.1094" fill="#84BE84" rx="3" ry="3" style="stroke:#038048;stroke-width:1.0;"/><text fill="#000000" font-family="sans-serif" font-size="14" lengthAdjust="spacing" textLength="104" x="2333" y="1425.4063">toString(): String</text></g><!--class CustomerType--><g id="elem_CustomerType"><rect codeLine="167" fill="#F1F1F1" height="85.2422" id="CustomerType" rx="2.5" ry="2.5" style="stroke:#181818;stroke-width:0.5;" width="125" x="152.5" y="125.5137"/><ellipse cx="167.5" cy="141.5137" fill="#EB937F" rx="11" ry="11" style="stroke:#181818;stroke-width:1.0;"/><path d="M166.3594,142.3105 L166.3594,144.8105 L170.6875,144.8105 L170.6875,143.8887 Q170.6875,143.2793 170.9219,143.0137 Q171.1719,142.748 171.5469,142.748 Q171.9219,142.748 172.1563,143.0137 Q172.3906,143.2793 172.3906,143.8887 L172.3906,146.5137 L164.3906,146.5137 Q163.7656,146.5137 163.5,146.2793 Q163.25,146.0449 163.25,145.6543 Q163.25,145.2793 163.5156,145.0449 Q163.7813,144.8105 164.3906,144.8105 L164.6563,144.8105 L164.6563,138.1543 L164.3906,138.1543 Q163.7656,138.1543 163.5,137.9199 Q163.25,137.6855 163.25,137.2949 Q163.25,136.9199 163.5,136.6855 Q163.7656,136.4512 164.3906,136.4512 L172.0156,136.4512 L172.0156,139.0449 Q172.0156,139.6543 171.7813,139.9199 Q171.5625,140.1699 171.1719,140.1699 Q170.7969,140.1699 170.5625,139.9199 Q170.3281,139.6543 170.3281,139.0449 L170.3281,138.1543 L166.3594,138.1543 L166.3594,140.6074 L167.8438,140.6074 Q167.8438,139.9512 167.9688,139.7637 Q168.2344,139.3574 168.7031,139.3574 Q169.0781,139.3574 169.3125,139.623 Q169.5469,139.873 169.5469,140.4824 L169.5469,142.4512 Q169.5469,142.998 169.4219,143.1855 Q169.1563,143.5762 168.7031,143.5762 Q168.2344,143.5762 167.9688,143.1699 Q167.8438,142.9824 167.8438,142.3105 L166.3594,142.3105 Z " fill="#000000"/><text fill="#000000" font-family="sans-serif" font-size="14" lengthAdjust="spacing" textLength="93" x="181.5" y="147.3105">CustomerType</text><line style="stroke:#181818;stroke-width:0.5;" x1="153.5" x2="276.5" y1="157.5137" y2="157.5137"/><text fill="#000000" font-family="sans-serif" font-size="14" lengthAdjust="spacing" textLength="75" x="158.5" y="176.6211">STANDARD</text><text fill="#000000" font-family="sans-serif" font-size="14" lengthAdjust="spacing" textLength="62" x="158.5" y="195.2422">PREMIUM</text><line style="stroke:#181818;stroke-width:0.5;" x1="153.5" x2="276.5" y1="202.7559" y2="202.7559"/></g><!--class TimeUnit--><g id="elem_TimeUnit"><rect codeLine="172" fill="#F1F1F1" height="122.4844" id="TimeUnit" rx="2.5" ry="2.5" style="stroke:#181818;stroke-width:0.5;" width="87" x="30.5" y="107.0137"/><ellipse cx="45.5" cy="123.0137" fill="#EB937F" rx="11" ry="11" style="stroke:#181818;stroke-width:1.0;"/><path d="M44.3594,123.8105 L44.3594,126.3105 L48.6875,126.3105 L48.6875,125.3887 Q48.6875,124.7793 48.9219,124.5137 Q49.1719,124.248 49.5469,124.248 Q49.9219,124.248 50.1563,124.5137 Q50.3906,124.7793 50.3906,125.3887 L50.3906,128.0137 L42.3906,128.0137 Q41.7656,128.0137 41.5,127.7793 Q41.25,127.5449 41.25,127.1543 Q41.25,126.7793 41.5156,126.5449 Q41.7813,126.3105 42.3906,126.3105 L42.6563,126.3105 L42.6563,119.6543 L42.3906,119.6543 Q41.7656,119.6543 41.5,119.4199 Q41.25,119.1855 41.25,118.7949 Q41.25,118.4199 41.5,118.1855 Q41.7656,117.9512 42.3906,117.9512 L50.0156,117.9512 L50.0156,120.5449 Q50.0156,121.1543 49.7813,121.4199 Q49.5625,121.6699 49.1719,121.6699 Q48.7969,121.6699 48.5625,121.4199 Q48.3281,121.1543 48.3281,120.5449 L48.3281,119.6543 L44.3594,119.6543 L44.3594,122.1074 L45.8438,122.1074 Q45.8438,121.4512 45.9688,121.2637 Q46.2344,120.8574 46.7031,120.8574 Q47.0781,120.8574 47.3125,121.123 Q47.5469,121.373 47.5469,121.9824 L47.5469,123.9512 Q47.5469,124.498 47.4219,124.6855 Q47.1563,125.0762 46.7031,125.0762 Q46.2344,125.0762 45.9688,124.6699 Q45.8438,124.4824 45.8438,123.8105 L44.3594,123.8105 Z " fill="#000000"/><text fill="#000000" font-family="sans-serif" font-size="14" lengthAdjust="spacing" textLength="55" x="59.5" y="128.8105">TimeUnit</text><line style="stroke:#181818;stroke-width:0.5;" x1="31.5" x2="116.5" y1="139.0137" y2="139.0137"/><text fill="#000000" font-family="sans-serif" font-size="14" lengthAdjust="spacing" textLength="37" x="36.5" y="158.1211">DAYS</text><text fill="#000000" font-family="sans-serif" font-size="14" lengthAdjust="spacing" textLength="48" x="36.5" y="176.7422">HOURS</text><text fill="#000000" font-family="sans-serif" font-size="14" lengthAdjust="spacing" textLength="59" x="36.5" y="195.3633">MINUTES</text><text fill="#000000" font-family="sans-serif" font-size="14" lengthAdjust="spacing" textLength="67" x="36.5" y="213.9844">SECONDS</text><line style="stroke:#181818;stroke-width:0.5;" x1="31.5" x2="116.5" y1="221.498" y2="221.498"/></g><!--class List--><g id="elem_List"><rect codeLine="179" fill="#F1F1F1" height="234.2109" id="List" rx="2.5" ry="2.5" style="stroke:#181818;stroke-width:0.5;" width="201" x="462.5" y="494.5137"/><ellipse cx="542.25" cy="510.5137" fill="#ADD1B2" rx="11" ry="11" style="stroke:#181818;stroke-width:1.0;"/><path d="M545.0156,506.3887 Q545.1719,506.1699 545.3594,506.0605 Q545.5469,505.9512 545.7656,505.9512 Q546.1406,505.9512 546.375,506.2168 Q546.6094,506.4668 546.6094,507.0762 L546.6094,508.5293 Q546.6094,509.1387 546.375,509.4043 Q546.1406,509.6699 545.7656,509.6699 Q545.4219,509.6699 545.2188,509.4668 Q545.0156,509.2793 544.9063,508.7637 Q544.8594,508.4043 544.6719,508.2168 Q544.3438,507.8418 543.7344,507.623 Q543.125,507.4043 542.5,507.4043 Q541.7344,507.4043 541.0938,507.7324 Q540.4688,508.0605 539.9688,508.8105 Q539.4844,509.5605 539.4844,510.5918 L539.4844,511.6855 Q539.4844,512.9199 540.375,513.748 Q541.2656,514.5605 542.8594,514.5605 Q543.7969,514.5605 544.4531,514.3105 Q544.8438,514.1543 545.2656,513.7168 Q545.5313,513.4512 545.6719,513.373 Q545.8281,513.2949 546.0313,513.2949 Q546.3594,513.2949 546.6094,513.5605 Q546.875,513.8105 546.875,514.1543 Q546.875,514.498 546.5313,514.9043 Q546.0313,515.4824 545.2344,515.8105 Q544.1563,516.2637 542.8594,516.2637 Q541.3438,516.2637 540.1406,515.6387 Q539.1563,515.1387 538.4688,514.0762 Q537.7813,512.998 537.7813,511.7168 L537.7813,510.5605 Q537.7813,509.2324 538.3906,508.0918 Q539.0156,506.9355 540.1094,506.3262 Q541.2031,505.7012 542.4375,505.7012 Q543.1719,505.7012 543.8125,505.873 Q544.4688,506.0293 545.0156,506.3887 Z " fill="#000000"/><text fill="#000000" font-family="sans-serif" font-size="14" lengthAdjust="spacing" textLength="22" x="562.75" y="516.3105">List</text><rect fill="#FFFFFF" height="17.9609" style="stroke:#181818;stroke-width:1.0;stroke-dasharray:2.0,2.0;" width="9" x="657.5" y="491.5137"/><text fill="#000000" font-family="sans-serif" font-size="12" font-style="italic" lengthAdjust="spacing" textLength="7" x="658.5" y="505.4629">T</text><line style="stroke:#181818;stroke-width:0.5;" x1="463.5" x2="662.5" y1="526.5137" y2="526.5137"/><rect fill="none" height="6" style="stroke:#C82930;stroke-width:1.0;" width="6" x="470.5" y="538.3242"/><text fill="#000000" font-family="sans-serif" font-size="14" lengthAdjust="spacing" textLength="106" x="482.5" y="545.6211">list: ArrayList&lt;T&gt;</text><line style="stroke:#181818;stroke-width:0.5;" x1="463.5" x2="662.5" y1="553.1348" y2="553.1348"/><ellipse cx="473.5" cy="567.9453" fill="#84BE84" rx="3" ry="3" style="stroke:#038048;stroke-width:1.0;"/><text fill="#000000" font-family="sans-serif" font-size="14" lengthAdjust="spacing" textLength="32" x="482.5" y="572.2422">List()</text><ellipse cx="473.5" cy="586.5664" fill="#84BE84" rx="3" ry="3" style="stroke:#038048;stroke-width:1.0;"/><text fill="#000000" font-family="sans-serif" font-size="14" lengthAdjust="spacing" textLength="79" x="482.5" y="590.8633">getSize(): int</text><ellipse cx="473.5" cy="605.1875" fill="#84BE84" rx="3" ry="3" style="stroke:#038048;stroke-width:1.0;"/><text fill="#000000" font-family="sans-serif" font-size="14" lengthAdjust="spacing" textLength="89" x="482.5" y="609.4844">add(t: T): void</text><ellipse cx="473.5" cy="623.8086" fill="#84BE84" rx="3" ry="3" style="stroke:#038048;stroke-width:1.0;"/><text fill="#000000" font-family="sans-serif" font-size="14" lengthAdjust="spacing" textLength="104" x="482.5" y="628.1055">delete(t: T): void</text><ellipse cx="473.5" cy="642.4297" fill="#84BE84" rx="3" ry="3" style="stroke:#038048;stroke-width:1.0;"/><text fill="#000000" font-family="sans-serif" font-size="14" lengthAdjust="spacing" textLength="132" x="482.5" y="646.7266">getAt(position: int): T</text><ellipse cx="473.5" cy="661.0508" fill="#84BE84" rx="3" ry="3" style="stroke:#038048;stroke-width:1.0;"/><text fill="#000000" font-family="sans-serif" font-size="14" lengthAdjust="spacing" textLength="75" x="482.5" y="665.3477">clear(): void</text><ellipse cx="473.5" cy="679.6719" fill="#84BE84" rx="3" ry="3" style="stroke:#038048;stroke-width:1.0;"/><text fill="#000000" font-family="sans-serif" font-size="14" lengthAdjust="spacing" textLength="118" x="482.5" y="683.9688">isEmpty(): boolean</text><ellipse cx="473.5" cy="698.293" fill="#84BE84" rx="3" ry="3" style="stroke:#038048;stroke-width:1.0;"/><text fill="#000000" font-family="sans-serif" font-size="14" lengthAdjust="spacing" textLength="175" x="482.5" y="702.5898">getArrayList(): ArrayList&lt;T&gt;</text><ellipse cx="473.5" cy="716.9141" fill="#84BE84" rx="3" ry="3" style="stroke:#038048;stroke-width:1.0;"/><text fill="#000000" font-family="sans-serif" font-size="14" lengthAdjust="spacing" textLength="104" x="482.5" y="721.2109">toString(): String</text></g><!--class CustomerList--><g id="elem_CustomerList"><rect codeLine="51" fill="#F1F1F1" height="141.1055" id="CustomerList" rx="2.5" ry="2.5" style="stroke:#181818;stroke-width:0.5;" width="414" x="2219" y="97.5137"/><ellipse cx="2380.25" cy="113.5137" fill="#ADD1B2" rx="11" ry="11" style="stroke:#181818;stroke-width:1.0;"/><path d="M2383.0156,109.3887 Q2383.1719,109.1699 2383.3594,109.0605 Q2383.5469,108.9512 2383.7656,108.9512 Q2384.1406,108.9512 2384.375,109.2168 Q2384.6094,109.4668 2384.6094,110.0762 L2384.6094,111.5293 Q2384.6094,112.1387 2384.375,112.4043 Q2384.1406,112.6699 2383.7656,112.6699 Q2383.4219,112.6699 2383.2188,112.4668 Q2383.0156,112.2793 2382.9063,111.7637 Q2382.8594,111.4043 2382.6719,111.2168 Q2382.3438,110.8418 2381.7344,110.623 Q2381.125,110.4043 2380.5,110.4043 Q2379.7344,110.4043 2379.0938,110.7324 Q2378.4688,111.0605 2377.9688,111.8105 Q2377.4844,112.5605 2377.4844,113.5918 L2377.4844,114.6855 Q2377.4844,115.9199 2378.375,116.748 Q2379.2656,117.5605 2380.8594,117.5605 Q2381.7969,117.5605 2382.4531,117.3105 Q2382.8438,117.1543 2383.2656,116.7168 Q2383.5313,116.4512 2383.6719,116.373 Q2383.8281,116.2949 2384.0313,116.2949 Q2384.3594,116.2949 2384.6094,116.5605 Q2384.875,116.8105 2384.875,117.1543 Q2384.875,117.498 2384.5313,117.9043 Q2384.0313,118.4824 2383.2344,118.8105 Q2382.1563,119.2637 2380.8594,119.2637 Q2379.3438,119.2637 2378.1406,118.6387 Q2377.1563,118.1387 2376.4688,117.0762 Q2375.7813,115.998 2375.7813,114.7168 L2375.7813,113.5605 Q2375.7813,112.2324 2376.3906,111.0918 Q2377.0156,109.9355 2378.1094,109.3262 Q2379.2031,108.7012 2380.4375,108.7012 Q2381.1719,108.7012 2381.8125,108.873 Q2382.4688,109.0293 2383.0156,109.3887 Z " fill="#000000"/><text fill="#000000" font-family="sans-serif" font-size="14" lengthAdjust="spacing" textLength="83" x="2400.75" y="119.3105">CustomerList</text><line style="stroke:#181818;stroke-width:0.5;" x1="2220" x2="2632" y1="129.5137" y2="129.5137"/><rect fill="none" height="6" style="stroke:#C82930;stroke-width:1.0;" width="6" x="2227" y="141.3242"/><text fill="#000000" font-family="sans-serif" font-size="14" lengthAdjust="spacing" textLength="172" x="2239" y="148.6211">customers: List&lt;Customer&gt;</text><line style="stroke:#181818;stroke-width:0.5;" x1="2220" x2="2632" y1="156.1348" y2="156.1348"/><ellipse cx="2230" cy="170.9453" fill="#84BE84" rx="3" ry="3" style="stroke:#038048;stroke-width:1.0;"/><text fill="#000000" font-family="sans-serif" font-size="14" lengthAdjust="spacing" textLength="256" x="2239" y="175.2422">addCustomer(customer: Customer): void</text><ellipse cx="2230" cy="189.5664" fill="#84BE84" rx="3" ry="3" style="stroke:#038048;stroke-width:1.0;"/><text fill="#000000" font-family="sans-serif" font-size="14" lengthAdjust="spacing" textLength="279" x="2239" y="193.8633">removeCustomer(customer: Customer): void</text><ellipse cx="2230" cy="208.1875" fill="#84BE84" rx="3" ry="3" style="stroke:#038048;stroke-width:1.0;"/><text fill="#000000" font-family="sans-serif" font-size="14" lengthAdjust="spacing" textLength="205" x="2239" y="212.4844">getCustomers(): List&lt;Customer&gt;</text><ellipse cx="2230" cy="226.8086" fill="#84BE84" rx="3" ry="3" style="stroke:#038048;stroke-width:1.0;"/><text fill="#000000" font-family="sans-serif" font-size="14" lengthAdjust="spacing" textLength="388" x="2239" y="231.1055">filterCustomersByType(type: CustomerType): List&lt;Customer&gt;</text></g><!--class OrderList--><g id="elem_OrderList"><rect codeLine="59" fill="#F1F1F1" height="141.1055" id="OrderList" rx="2.5" ry="2.5" style="stroke:#181818;stroke-width:0.5;" width="394" x="2668" y="97.5137"/><ellipse cx="2831.25" cy="113.5137" fill="#ADD1B2" rx="11" ry="11" style="stroke:#181818;stroke-width:1.0;"/><path d="M2834.0156,109.3887 Q2834.1719,109.1699 2834.3594,109.0605 Q2834.5469,108.9512 2834.7656,108.9512 Q2835.1406,108.9512 2835.375,109.2168 Q2835.6094,109.4668 2835.6094,110.0762 L2835.6094,111.5293 Q2835.6094,112.1387 2835.375,112.4043 Q2835.1406,112.6699 2834.7656,112.6699 Q2834.4219,112.6699 2834.2188,112.4668 Q2834.0156,112.2793 2833.9063,111.7637 Q2833.8594,111.4043 2833.6719,111.2168 Q2833.3438,110.8418 2832.7344,110.623 Q2832.125,110.4043 2831.5,110.4043 Q2830.7344,110.4043 2830.0938,110.7324 Q2829.4688,111.0605 2828.9688,111.8105 Q2828.4844,112.5605 2828.4844,113.5918 L2828.4844,114.6855 Q2828.4844,115.9199 2829.375,116.748 Q2830.2656,117.5605 2831.8594,117.5605 Q2832.7969,117.5605 2833.4531,117.3105 Q2833.8438,117.1543 2834.2656,116.7168 Q2834.5313,116.4512 2834.6719,116.373 Q2834.8281,116.2949 2835.0313,116.2949 Q2835.3594,116.2949 2835.6094,116.5605 Q2835.875,116.8105 2835.875,117.1543 Q2835.875,117.498 2835.5313,117.9043 Q2835.0313,118.4824 2834.2344,118.8105 Q2833.1563,119.2637 2831.8594,119.2637 Q2830.3438,119.2637 2829.1406,118.6387 Q2828.1563,118.1387 2827.4688,117.0762 Q2826.7813,115.998 2826.7813,114.7168 L2826.7813,113.5605 Q2826.7813,112.2324 2827.3906,111.0918 Q2828.0156,109.9355 2829.1094,109.3262 Q2830.2031,108.7012 2831.4375,108.7012 Q2832.1719,108.7012 2832.8125,108.873 Q2833.4688,109.0293 2834.0156,109.3887 Z " fill="#000000"/><text fill="#000000" font-family="sans-serif" font-size="14" lengthAdjust="spacing" textLength="59" x="2851.75" y="119.3105">OrderList</text><line style="stroke:#181818;stroke-width:0.5;" x1="2669" x2="3061" y1="129.5137" y2="129.5137"/><rect fill="none" height="6" style="stroke:#C82930;stroke-width:1.0;" width="6" x="2676" y="141.3242"/><text fill="#000000" font-family="sans-serif" font-size="14" lengthAdjust="spacing" textLength="124" x="2688" y="148.6211">orders: List&lt;Order&gt;</text><line style="stroke:#181818;stroke-width:0.5;" x1="2669" x2="3061" y1="156.1348" y2="156.1348"/><ellipse cx="2679" cy="170.9453" fill="#84BE84" rx="3" ry="3" style="stroke:#038048;stroke-width:1.0;"/><text fill="#000000" font-family="sans-serif" font-size="14" lengthAdjust="spacing" textLength="184" x="2688" y="175.2422">addOrder(order: Order): void</text><ellipse cx="2679" cy="189.5664" fill="#84BE84" rx="3" ry="3" style="stroke:#038048;stroke-width:1.0;"/><text fill="#000000" font-family="sans-serif" font-size="14" lengthAdjust="spacing" textLength="207" x="2688" y="193.8633">removeOrder(order: Order): void</text><ellipse cx="2679" cy="208.1875" fill="#84BE84" rx="3" ry="3" style="stroke:#038048;stroke-width:1.0;"/><text fill="#000000" font-family="sans-serif" font-size="14" lengthAdjust="spacing" textLength="157" x="2688" y="212.4844">getOrders(): List&lt;Order&gt;</text><ellipse cx="2679" cy="226.8086" fill="#84BE84" rx="3" ry="3" style="stroke:#038048;stroke-width:1.0;"/><text fill="#000000" font-family="sans-serif" font-size="14" lengthAdjust="spacing" textLength="368" x="2688" y="231.1055">filterOrdersByCustomer(customer: Customer): List&lt;Order&gt;</text></g><!--class ItemList--><g id="elem_ItemList"><rect codeLine="67" fill="#F1F1F1" height="122.4844" id="ItemList" rx="2.5" ry="2.5" style="stroke:#181818;stroke-width:0.5;" width="203" x="3097.5" y="107.0137"/><ellipse cx="3170.75" cy="123.0137" fill="#ADD1B2" rx="11" ry="11" style="stroke:#181818;stroke-width:1.0;"/><path d="M3173.5156,118.8887 Q3173.6719,118.6699 3173.8594,118.5605 Q3174.0469,118.4512 3174.2656,118.4512 Q3174.6406,118.4512 3174.875,118.7168 Q3175.1094,118.9668 3175.1094,119.5762 L3175.1094,121.0293 Q3175.1094,121.6387 3174.875,121.9043 Q3174.6406,122.1699 3174.2656,122.1699 Q3173.9219,122.1699 3173.7188,121.9668 Q3173.5156,121.7793 3173.4063,121.2637 Q3173.3594,120.9043 3173.1719,120.7168 Q3172.8438,120.3418 3172.2344,120.123 Q3171.625,119.9043 3171,119.9043 Q3170.2344,119.9043 3169.5938,120.2324 Q3168.9688,120.5605 3168.4688,121.3105 Q3167.9844,122.0605 3167.9844,123.0918 L3167.9844,124.1855 Q3167.9844,125.4199 3168.875,126.248 Q3169.7656,127.0605 3171.3594,127.0605 Q3172.2969,127.0605 3172.9531,126.8105 Q3173.3438,126.6543 3173.7656,126.2168 Q3174.0313,125.9512 3174.1719,125.873 Q3174.3281,125.7949 3174.5313,125.7949 Q3174.8594,125.7949 3175.1094,126.0605 Q3175.375,126.3105 3175.375,126.6543 Q3175.375,126.998 3175.0313,127.4043 Q3174.5313,127.9824 3173.7344,128.3105 Q3172.6563,128.7637 3171.3594,128.7637 Q3169.8438,128.7637 3168.6406,128.1387 Q3167.6563,127.6387 3166.9688,126.5762 Q3166.2813,125.498 3166.2813,124.2168 L3166.2813,123.0605 Q3166.2813,121.7324 3166.8906,120.5918 Q3167.5156,119.4355 3168.6094,118.8262 Q3169.7031,118.2012 3170.9375,118.2012 Q3171.6719,118.2012 3172.3125,118.373 Q3172.9688,118.5293 3173.5156,118.8887 Z " fill="#000000"/><text fill="#000000" font-family="sans-serif" font-size="14" lengthAdjust="spacing" textLength="48" x="3191.25" y="128.8105">ItemList</text><line style="stroke:#181818;stroke-width:0.5;" x1="3098.5" x2="3299.5" y1="139.0137" y2="139.0137"/><rect fill="none" height="6" style="stroke:#C82930;stroke-width:1.0;" width="6" x="3105.5" y="150.8242"/><text fill="#000000" font-family="sans-serif" font-size="14" lengthAdjust="spacing" textLength="105" x="3117.5" y="158.1211">items: List&lt;Item&gt;</text><line style="stroke:#181818;stroke-width:0.5;" x1="3098.5" x2="3299.5" y1="165.6348" y2="165.6348"/><ellipse cx="3108.5" cy="180.4453" fill="#84BE84" rx="3" ry="3" style="stroke:#038048;stroke-width:1.0;"/><text fill="#000000" font-family="sans-serif" font-size="14" lengthAdjust="spacing" textLength="154" x="3117.5" y="184.7422">addItem(item: Item): void</text><ellipse cx="3108.5" cy="199.0664" fill="#84BE84" rx="3" ry="3" style="stroke:#038048;stroke-width:1.0;"/><text fill="#000000" font-family="sans-serif" font-size="14" lengthAdjust="spacing" textLength="177" x="3117.5" y="203.3633">removeItem(item: Item): void</text><ellipse cx="3108.5" cy="217.6875" fill="#84BE84" rx="3" ry="3" style="stroke:#038048;stroke-width:1.0;"/><text fill="#000000" font-family="sans-serif" font-size="14" lengthAdjust="spacing" textLength="135" x="3117.5" y="221.9844">getItems(): List&lt;Item&gt;</text></g><!--class Exception--><g id="elem_Exception"><rect fill="#F1F1F1" height="48" id="Exception" rx="2.5" ry="2.5" style="stroke:#181818;stroke-width:0.5;" width="93" x="4075.5" y="1689.0137"/><ellipse cx="4090.5" cy="1705.0137" fill="#ADD1B2" rx="11" ry="11" style="stroke:#181818;stroke-width:1.0;"/><path d="M4093.2656,1700.8887 Q4093.4219,1700.6699 4093.6094,1700.5605 Q4093.7969,1700.4512 4094.0156,1700.4512 Q4094.3906,1700.4512 4094.625,1700.7168 Q4094.8594,1700.9668 4094.8594,1701.5762 L4094.8594,1703.0293 Q4094.8594,1703.6387 4094.625,1703.9043 Q4094.3906,1704.1699 4094.0156,1704.1699 Q4093.6719,1704.1699 4093.4688,1703.9668 Q4093.2656,1703.7793 4093.1563,1703.2637 Q4093.1094,1702.9043 4092.9219,1702.7168 Q4092.5938,1702.3418 4091.9844,1702.123 Q4091.375,1701.9043 4090.75,1701.9043 Q4089.9844,1701.9043 4089.3438,1702.2324 Q4088.7188,1702.5605 4088.2188,1703.3105 Q4087.7344,1704.0605 4087.7344,1705.0918 L4087.7344,1706.1855 Q4087.7344,1707.4199 4088.625,1708.248 Q4089.5156,1709.0605 4091.1094,1709.0605 Q4092.0469,1709.0605 4092.7031,1708.8105 Q4093.0938,1708.6543 4093.5156,1708.2168 Q4093.7813,1707.9512 4093.9219,1707.873 Q4094.0781,1707.7949 4094.2813,1707.7949 Q4094.6094,1707.7949 4094.8594,1708.0605 Q4095.125,1708.3105 4095.125,1708.6543 Q4095.125,1708.998 4094.7813,1709.4043 Q4094.2813,1709.9824 4093.4844,1710.3105 Q4092.4063,1710.7637 4091.1094,1710.7637 Q4089.5938,1710.7637 4088.3906,1710.1387 Q4087.4063,1709.6387 4086.7188,1708.5762 Q4086.0313,1707.498 4086.0313,1706.2168 L4086.0313,1705.0605 Q4086.0313,1703.7324 4086.6406,1702.5918 Q4087.2656,1701.4355 4088.3594,1700.8262 Q4089.4531,1700.2012 4090.6875,1700.2012 Q4091.4219,1700.2012 4092.0625,1700.373 Q4092.7188,1700.5293 4093.2656,1700.8887 Z " fill="#000000"/><text fill="#000000" font-family="sans-serif" font-size="14" lengthAdjust="spacing" textLength="61" x="4104.5" y="1710.8105">Exception</text><line style="stroke:#181818;stroke-width:0.5;" x1="4076.5" x2="4167.5" y1="1721.0137" y2="1721.0137"/><line style="stroke:#181818;stroke-width:0.5;" x1="4076.5" x2="4167.5" y1="1729.0137" y2="1729.0137"/></g><!--class JUnit--><g id="elem_JUnit"><rect fill="#F1F1F1" height="48" id="JUnit" rx="2.5" ry="2.5" style="stroke:#181818;stroke-width:0.5;" width="62" x="3765" y="2011.0137"/><ellipse cx="3780" cy="2027.0137" fill="#ADD1B2" rx="11" ry="11" style="stroke:#181818;stroke-width:1.0;"/><path d="M3782.7656,2022.8887 Q3782.9219,2022.6699 3783.1094,2022.5605 Q3783.2969,2022.4512 3783.5156,2022.4512 Q3783.8906,2022.4512 3784.125,2022.7168 Q3784.3594,2022.9668 3784.3594,2023.5762 L3784.3594,2025.0293 Q3784.3594,2025.6387 3784.125,2025.9043 Q3783.8906,2026.1699 3783.5156,2026.1699 Q3783.1719,2026.1699 3782.9688,2025.9668 Q3782.7656,2025.7793 3782.6563,2025.2637 Q3782.6094,2024.9043 3782.4219,2024.7168 Q3782.0938,2024.3418 3781.4844,2024.123 Q3780.875,2023.9043 3780.25,2023.9043 Q3779.4844,2023.9043 3778.8438,2024.2324 Q3778.2188,2024.5605 3777.7188,2025.3105 Q3777.2344,2026.0605 3777.2344,2027.0918 L3777.2344,2028.1855 Q3777.2344,2029.4199 3778.125,2030.248 Q3779.0156,2031.0605 3780.6094,2031.0605 Q3781.5469,2031.0605 3782.2031,2030.8105 Q3782.5938,2030.6543 3783.0156,2030.2168 Q3783.2813,2029.9512 3783.4219,2029.873 Q3783.5781,2029.7949 3783.7813,2029.7949 Q3784.1094,2029.7949 3784.3594,2030.0605 Q3784.625,2030.3105 3784.625,2030.6543 Q3784.625,2030.998 3784.2813,2031.4043 Q3783.7813,2031.9824 3782.9844,2032.3105 Q3781.9063,2032.7637 3780.6094,2032.7637 Q3779.0938,2032.7637 3777.8906,2032.1387 Q3776.9063,2031.6387 3776.2188,2030.5762 Q3775.5313,2029.498 3775.5313,2028.2168 L3775.5313,2027.0605 Q3775.5313,2025.7324 3776.1406,2024.5918 Q3776.7656,2023.4355 3777.8594,2022.8262 Q3778.9531,2022.2012 3780.1875,2022.2012 Q3780.9219,2022.2012 3781.5625,2022.373 Q3782.2188,2022.5293 3782.7656,2022.8887 Z " fill="#000000"/><text fill="#000000" font-family="sans-serif" font-size="14" lengthAdjust="spacing" textLength="30" x="3794" y="2032.8105">JUnit</text><line style="stroke:#181818;stroke-width:0.5;" x1="3766" x2="3826" y1="2043.0137" y2="2043.0137"/><line style="stroke:#181818;stroke-width:0.5;" x1="3766" x2="3826" y1="2051.0137" y2="2051.0137"/></g><!--reverse link Customer to Order--><g id="link_Customer_Order"><path codeLine="192" d="M2404.9327,867.5164 C2432.2527,893.5164 2451.35,911.6937 2478.67,937.6937 " fill="none" id="Customer-backto-Order" style="stroke:#181818;stroke-width:1.0;"/><polygon fill="#181818" points="2396.24,859.2437,2397.8288,866.2776,2404.9327,867.5164,2403.3439,860.4825,2396.24,859.2437" style="stroke:#181818;stroke-width:1.0;"/><text fill="#000000" font-family="sans-serif" font-size="13" lengthAdjust="spacing" textLength="40" x="2439" y="904.042">Places</text><text fill="#000000" font-family="sans-serif" font-size="13" lengthAdjust="spacing" textLength="7" x="2396.8323" y="880.8845">1</text><text fill="#000000" font-family="sans-serif" font-size="13" lengthAdjust="spacing" textLength="7" x="2463.8672" y="927.1182">1</text></g><!--link StandardCustomer to Customer--><g id="link_StandardCustomer_Customer"><path codeLine="193" d="M1970.37,238.9737 C1985.97,273.7437 1998.4837,301.65 2019.0437,347.49 " fill="none" id="StandardCustomer-to-Customer" style="stroke:#181818;stroke-width:1.0;"/><polygon fill="none" points="2026.41,363.9137,2024.5183,345.0345,2013.5691,349.9454,2026.41,363.9137" style="stroke:#181818;stroke-width:1.0;"/></g><!--link PremiumCustomer to Customer--><g id="link_PremiumCustomer_Customer"><path codeLine="194" d="M1393.43,238.7237 C1466.57,275.2937 1544.8603,314.4438 1641.6803,362.8538 " fill="none" id="PremiumCustomer-to-Customer" style="stroke:#181818;stroke-width:1.0;"/><polygon fill="none" points="1657.78,370.9037,1644.3636,357.4873,1638.997,368.2204,1657.78,370.9037" style="stroke:#181818;stroke-width:1.0;"/></g><!--link Order to Item--><g id="link_Order_Item"><path codeLine="195" d="M2791.96,1433.1037 C2797.74,1459.5037 2801.0044,1474.4011 2806.6444,1500.1711 " fill="none" id="Order-to-Item" style="stroke:#181818;stroke-width:1.0;"/><polygon fill="#181818" points="2809.21,1511.8937,2811.8347,1505.1772,2806.6444,1500.1711,2804.0197,1506.8876,2809.21,1511.8937" style="stroke:#181818;stroke-width:1.0;"/><text fill="#000000" font-family="sans-serif" font-size="13" lengthAdjust="spacing" textLength="51" x="2804" y="1478.042">Contains</text><text fill="#000000" font-family="sans-serif" font-size="13" lengthAdjust="spacing" textLength="7" x="2786.458" y="1454.7404">1</text><text fill="#000000" font-family="sans-serif" font-size="13" lengthAdjust="spacing" textLength="7" x="2800.3627" y="1500.7433">1</text></g><!--link Data to List--><g id="link_Data_List"><path codeLine="196" d="M563,285.3037 C563,349.8137 563,417.7837 563,482.2837 " fill="none" id="Data-to-List" style="stroke:#181818;stroke-width:1.0;"/><polygon fill="#181818" points="563,494.2837,567,488.2837,563,482.2837,559,488.2837,563,494.2837" style="stroke:#181818;stroke-width:1.0;"/><text fill="#000000" font-family="sans-serif" font-size="13" lengthAdjust="spacing" textLength="51" x="564" y="330.042">Contains</text><text fill="#000000" font-family="sans-serif" font-size="13" lengthAdjust="spacing" textLength="7" x="555.7758" y="307.393">1</text><text fill="#000000" font-family="sans-serif" font-size="13" lengthAdjust="spacing" textLength="5" x="557.8398" y="483.26">*</text></g><!--link CustomerList to Customer--><g id="link_CustomerList_Customer"><path codeLine="197" d="M2380.21,238.9737 C2357.45,273.7437 2335.0028,308.0338 2304.9928,353.8738 " fill="none" id="CustomerList-to-Customer" style="stroke:#181818;stroke-width:1.0;"/><polygon fill="#181818" points="2298.42,363.9137,2305.053,361.0847,2304.9928,353.8738,2298.3598,356.7028,2298.42,363.9137" style="stroke:#181818;stroke-width:1.0;"/><text fill="#000000" font-family="sans-serif" font-size="13" lengthAdjust="spacing" textLength="51" x="2326" y="330.042">Contains</text><text fill="#000000" font-family="sans-serif" font-size="13" lengthAdjust="spacing" textLength="7" x="2368.512" y="260.5844">1</text><text fill="#000000" font-family="sans-serif" font-size="13" lengthAdjust="spacing" textLength="5" x="2298.6346" y="352.545">*</text></g><!--link OrderList to Order--><g id="link_OrderList_Order"><path codeLine="198" d="M2856.27,238.8137 C2838.54,380.5837 2799.0489,696.3364 2770.3289,926.0164 " fill="none" id="OrderList-to-Order" style="stroke:#181818;stroke-width:1.0;"/><polygon fill="#181818" points="2768.84,937.9237,2773.5536,932.4663,2770.3289,926.0164,2765.6154,931.4737,2768.84,937.9237" style="stroke:#181818;stroke-width:1.0;"/><text fill="#000000" font-family="sans-serif" font-size="13" lengthAdjust="spacing" textLength="51" x="2841" y="617.042">Contains</text><text fill="#000000" font-family="sans-serif" font-size="13" lengthAdjust="spacing" textLength="7" x="2848.0661" y="260.6572">1</text><text fill="#000000" font-family="sans-serif" font-size="13" lengthAdjust="spacing" textLength="5" x="2764.7699" y="926.5554">*</text></g><!--link ItemList to Item--><g id="link_ItemList_Item"><path codeLine="199" d="M3214.66,229.2137 C3260.42,417.9637 3378.65,1010.7637 3180,1433.0137 C3166.82,1461.0337 3156.9424,1478.0437 3136.8724,1502.3937 " fill="none" id="ItemList-to-Item" style="stroke:#181818;stroke-width:1.0;"/><polygon fill="#181818" points="3129.24,1511.6537,3136.1428,1509.5678,3136.8724,1502.3937,3129.9695,1504.4796,3129.24,1511.6537" style="stroke:#181818;stroke-width:1.0;"/><text fill="#000000" font-family="sans-serif" font-size="13" lengthAdjust="spacing" textLength="51" x="3292" y="904.042">Contains</text><text fill="#000000" font-family="sans-serif" font-size="13" lengthAdjust="spacing" textLength="7" x="3209.142" y="251.7249">1</text><text fill="#000000" font-family="sans-serif" font-size="13" lengthAdjust="spacing" textLength="5" x="3134.933" y="1500.4939">*</text></g><!--reverse link Model to Controller--><g id="link_Model_Controller"><path codeLine="202" d="M3366.4778,183.383 C3367.0651,183.8659 3359.2708,177.4571 3359.9113,177.9837 C3361.1922,179.0369 3362.5787,180.1769 3364.0668,181.4005 C3367.043,183.8476 3370.4257,186.6289 3374.1836,189.7186 C3389.2152,202.0777 3410.25,219.3723 3435.2869,239.9571 C3485.3606,281.1268 3551.4425,335.4574 3617.5225,389.7862 C3683.6025,444.1149 3749.6806,498.4418 3799.7469,539.604 C3812.2634,549.8945 3823.7793,559.3623 3834.0442,567.8016 C3839.1766,572.0212 3843.9964,575.9838 3848.4721,579.6635 C3849.0316,580.1234 3849.5857,580.579 3850.1343,581.03 C3850.4087,581.2556 3850.6816,581.48 3850.9532,581.7033 " fill="none" id="Model-backto-Controller" style="stroke:#181818;stroke-width:1.0;"/><polygon fill="none" points="3357.2088,175.7617,3359.3029,182.662,3366.4778,183.383,3364.3838,176.4827,3357.2088,175.7617" style="stroke:#181818;stroke-width:1.0;"/><text fill="#000000" font-family="sans-serif" font-size="13" lengthAdjust="spacing" textLength="81" x="3540" y="330.042">Aggregates[1]</text></g><!--reverse link Controller to View--><g id="link_Controller_View"><path codeLine="203" d="M4055.5336,927.6888 C4057.2654,932.488 4057.3922,933.2374 4059,938.0137 C4067.7125,963.9012 4074.5594,991.9755 4079.9312,1019.5927 C4082.6172,1033.4013 4084.9344,1047.0956 4086.9316,1060.3451 C4087.9303,1066.9699 4088.8489,1073.4834 4089.6937,1079.8444 C4090.1161,1083.025 4090.52,1086.1673 4090.9062,1089.2664 " fill="none" id="Controller-backto-View" style="stroke:#181818;stroke-width:1.0;"/><polygon fill="none" points="4051.3461,916.4432,4049.6913,923.4618,4055.5336,927.6888,4057.1884,920.6702,4051.3461,916.4432" style="stroke:#181818;stroke-width:1.0;"/><text fill="#000000" font-family="sans-serif" font-size="13" lengthAdjust="spacing" textLength="81" x="4046" y="904.042">Aggregates[1]</text></g><!--link Controller to ExceptionHandler--><g id="link_Controller_ExceptionHandler"><path codeLine="204" d="M3885.94,612.6137 C3881.53,620.1237 3642.959,1026.2602 3572.269,1146.6002 " fill="none" id="Controller-to-ExceptionHandler" style="stroke:#181818;stroke-width:1.0;"/><polygon fill="#181818" points="3569.23,1151.7737,3577.2374,1146.0395,3571.7625,1147.4625,3570.3395,1141.9875,3569.23,1151.7737" style="stroke:#181818;stroke-width:1.0;"/><text fill="#000000" font-family="sans-serif" font-size="13" lengthAdjust="spacing" textLength="30" x="3719" y="904.042">Uses</text></g><!--link Controller to TestController--><g id="link_Controller_TestController"><path codeLine="205" d="M3886.03,612.6037 C3888.6,619.8037 4052.44,1082.2937 3958,1433.0137 C3931.64,1530.9037 3865.2676,1625.1185 3826.4776,1674.6885 " fill="none" id="Controller-to-TestController" style="stroke:#181818;stroke-width:1.0;"/><polygon fill="#181818" points="3822.78,1679.4137,3831.4766,1674.7909,3825.8613,1675.476,3825.1763,1669.8608,3822.78,1679.4137" style="stroke:#181818;stroke-width:1.0;"/><text fill="#000000" font-family="sans-serif" font-size="13" lengthAdjust="spacing" textLength="30" x="3988" y="1191.042">Uses</text></g><!--reverse link ExceptionHandler to TestController--><g id="link_ExceptionHandler_TestController"><path codeLine="206" d="M3543.6478,1237.2186 C3537.5178,1293.6986 3533.22,1393.8337 3573,1482.0137 C3611.43,1567.1837 3695.46,1639.6237 3748.69,1679.3537 " fill="none" id="ExceptionHandler-backto-TestController" style="stroke:#181818;stroke-width:1.0;"/><polygon fill="none" points="3545.59,1219.3237,3537.6828,1236.5712,3549.6128,1237.866,3545.59,1219.3237" style="stroke:#181818;stroke-width:1.0;"/><text fill="#000000" font-family="sans-serif" font-size="13" lengthAdjust="spacing" textLength="67" x="3574" y="1478.042">Implements</text></g><!--link ExceptionHandler to Exception--><g id="link_ExceptionHandler_Exception"><path codeLine="207" d="M3560.6,1219.3437 C3579.35,1272.2337 3623.39,1376.0837 3696,1433.0137 C3791.37,1507.7937 3856.12,1444.8437 3957,1512.0137 C4028.37,1559.5437 4081.8732,1641.8973 4106.1232,1683.5873 " fill="none" id="ExceptionHandler-to-Exception" style="stroke:#181818;stroke-width:1.0;"/><polygon fill="#181818" points="4109.14,1688.7737,4108.0724,1678.9828,4106.626,1684.4517,4101.1572,1683.0053,4109.14,1688.7737" style="stroke:#181818;stroke-width:1.0;"/><text fill="#000000" font-family="sans-serif" font-size="13" lengthAdjust="spacing" textLength="41" x="3885" y="1478.042">Throws</text></g><!--link TestController to JUnit--><g id="link_TestController_JUnit"><path codeLine="208" d="M3796,1746.7537 C3796,1811.5837 3796,1948.8637 3796,2004.9037 " fill="none" id="TestController-to-JUnit" style="stroke:#181818;stroke-width:1.0;"/><polygon fill="#181818" points="3796,2010.9037,3800,2001.9037,3796,2005.9037,3792,2001.9037,3796,2010.9037" style="stroke:#181818;stroke-width:1.0;"/><text fill="#000000" font-family="sans-serif" font-size="13" lengthAdjust="spacing" textLength="30" x="3797" y="1977.042">Uses</text></g><!--SRC=[pLZTRzis47_tNq5u3tDYQK5VXI906djeXZdEOcV0KFI1aJY7cBucqaszrF_x-269nm-fJZTWwqDgyNuytltkU3po-oVEQvPSNDGvBlc-o7z8g-8YpJ5ZSKRnhi75P5BZz0-y8sZwAoNFK_GoGUAVmg1rcTEIR7ZLa7PS_7jX77EQ7j6ymBISuMR74hJX3Irt7pwU9UXJHJE5FG9DAroADTORemR5AArAtbHvJfe4NVU_Uy2ydpKx2ms6fmUXHViZwOSWhDcNCsYu6jLJhlUCLmLfs13WXfDYKBXkCdVgSN84b1kpRUBDE2GimnmdQ27-ceKC4f84Hisai7oCHM6giMdvEIKrfrNv7fUPRTdyIGtrY1dvd1YyxJxGk2MC1psTYuX8uHXrgoeZkSsQT1BobNR1-vaoBhnhF-MN0LKgHXgXucMBgOolbifGMyAvN13Ihhv7LerGSBK81LPnrGRZk2FSoj2WYn9bCj7tKShxDFQTv9NUt5AgVy58zl6GazWKqDzcCh082Etu94YAttROImisnrdMINfoZQlkrjFvGuhg4tdjB9VDCQD-fpadJGz_TzWUQZBZuezPH0uDgsa91DMsYupBaqwQLf52-GofuPb2jZ4U8UP4i9KtWujh9ZJmtM6Syv0IZuSk1LqQr2PfTKYCJu8SdKcOpkCH1av1mcqHMFG8jm5-PBp1ANUo7bQZ4XV4sa5gL5ZT4CPy0StyCI9EtDmR_Yu5-MPddy4Kf7WK0NgYzOz4WB9g_vW3iHJKGkc2ihJQbzn3pFl0GZyYvDWlIbbcVblsHYA-WuP6A6XWD6INNGDlXKbEUL8YregWoTvHBUPVQIS6L7HInzMGefjiG8SG6692CvUIge79McQH6LAnWWnALMu8cOi9SXvI3KC5pnahnwH-2pWSRdUDbsx_YAvIrj0-sORMWXDIdAVx77FoDGBW93UnGdoDdtnwfs-uQ7rmamLs_DoLVVFMCTb-8Zsl8ENVe-9Eb5QwBq9CEA9_K4E-jKpyFubpZWrvm5WDhEXn_LCW8onjg6gjVI4ZkRYpxUuQclfbFkuilgwON-BZkY4rRh1KlAK5MT5opua82or1EwXEpZFd6neQeO214GeP9aO31aLen11tPN26snLBM3HGJfK8MXogU0lZmu0QY0Xu75Aw0HmC56WB4k8ig1UmEAGNGaAiX_JU1UCWLx1IWWqYnmBfhlUgdQ9wIBXLL3DxkvTRrhOkzXjH-tQdiyUC_Rd79QVyy51IxYI_NaNSmOZqHjt6rAzNRY7TVf-v0wuB4V9DrrT5RNA4V5FR6wPlugcRAd0ry2-IsiXG7a2nwyzOOm4BSh2XEE4ErpNitJNMRi366tuvznV8PiWv6-2J7rAwXk6GIhsSwMdhKGCX_CztQ7yqAdC7gnXbrxXCIOx5g9G_LbLES7dgJYVblh0EPx3DDzkhsyNL_Q8VkBjVhcuULjvywOiC39YxkFfjqt-yNp_Scw_LpUt3Tcc-DylhzUrYuxSuwXgulOI59rUlDbTDWm-jr3Wg1sRs_jdGluWN7j40pOIIhSTuHdB2ILWcxoryLbUCwcD7HsmBmYLOR_odISgMHSqFmSX8dPqd4X1sQpn-VVytVJD5vt4i_zVbEa5tEKu9Kp2lSOxZBvTs3N0RIX-XzSg5ulXS_QzQAFsIYMcfbrBlWZteVAh2w8AiXoe8xfTt9fZd6eZkFBMW_Oi6HBgM2lhKcsQIA7ihmPnv74qIy50guhBRDMGdTYBxyERZP00cDSWt_II1x_WdJewpwhcCB_rNtmGzC172hqnpddRRIPwojr-4ZHxsfgXpKf2I1sPuTWdyzgcfdjd4qTCXVr9rG5lmDm00]--></g></svg>