<?xml version="1.0" encoding="us-ascii" standalone="no"?><svg xmlns="http://www.w3.org/2000/svg" xmlns:xlink="http://www.w3.org/1999/xlink" contentStyleType="text/css" height="1194.6px" preserveAspectRatio="none" style="width:2688px;height:1194px;background:#FFFFFF;" version="1.1" viewBox="0 0 2688 1194" width="2688.6px" zoomAndPan="magnify"><defs/><g><!--cluster View--><g id="cluster_View"><path d="M2361.3,580.2082 L2381.7,580.2082 A2.25,2.25 0 0 1 2383.2,581.7082 L2387.4,594.9809 L2682.9,594.9809 A1.5,1.5 0 0 1 2684.4,596.4809 L2684.4,738.3082 A1.5,1.5 0 0 1 2682.9,739.8082 L2361.3,739.8082 A1.5,1.5 0 0 1 2359.8,738.3082 L2359.8,581.7082 A1.5,1.5 0 0 1 2361.3,580.2082 " fill="none" style="stroke:#000000;stroke-width:0.8999999999999999;"/><line style="stroke:#000000;stroke-width:0.8999999999999999;" x1="2359.8" x2="2387.4" y1="594.9809" y2="594.9809"/><text fill="#000000" font-family="sans-serif" font-size="8.4" font-weight="bold" lengthAdjust="spacing" textLength="19.8" x="2362.2" y="590.4727">View</text></g><!--cluster Controller--><g id="cluster_Controller"><path d="M1944.9,326.7922 L1988.1,326.7922 A2.25,2.25 0 0 1 1989.6,328.2922 L1993.8,341.5649 L2334.3,341.5649 A1.5,1.5 0 0 1 2335.8,343.0649 L2335.8,1015.8082 A1.5,1.5 0 0 1 2334.3,1017.3082 L1944.9,1017.3082 A1.5,1.5 0 0 1 1943.4,1015.8082 L1943.4,328.2922 A1.5,1.5 0 0 1 1944.9,326.7922 " fill="none" style="stroke:#000000;stroke-width:0.8999999999999999;"/><line style="stroke:#000000;stroke-width:0.8999999999999999;" x1="1943.4" x2="1993.8" y1="341.5649" y2="341.5649"/><text fill="#000000" font-family="sans-serif" font-size="8.4" font-weight="bold" lengthAdjust="spacing" textLength="42.6" x="1945.8" y="337.0567">Controller</text></g><!--cluster Model--><g id="cluster_Model"><path d="M5.1,3.6082 L32.1,3.6082 A2.25,2.25 0 0 1 33.6,5.1082 L37.8,18.3809 L1917.9,18.3809 A1.5,1.5 0 0 1 1919.4,19.8809 L1919.4,1116.3082 A1.5,1.5 0 0 1 1917.9,1117.8082 L5.1,1117.8082 A1.5,1.5 0 0 1 3.6,1116.3082 L3.6,5.1082 A1.5,1.5 0 0 1 5.1,3.6082 " fill="none" style="stroke:#000000;stroke-width:0.8999999999999999;"/><line style="stroke:#000000;stroke-width:0.8999999999999999;" x1="3.6" x2="37.8" y1="18.3809" y2="18.3809"/><text fill="#000000" font-family="sans-serif" font-size="8.4" font-weight="bold" lengthAdjust="spacing" textLength="26.4" x="6" y="13.8727">Model</text></g><!--cluster Lists--><g id="cluster_Lists"><path d="M1228.5,36.3082 L1248.9,36.3082 A2.25,2.25 0 0 1 1250.4,37.8082 L1254.6,51.0809 L1893.9,51.0809 A1.5,1.5 0 0 1 1895.4,52.5809 L1895.4,151.2082 A1.5,1.5 0 0 1 1893.9,152.7082 L1228.5,152.7082 A1.5,1.5 0 0 1 1227,151.2082 L1227,37.8082 A1.5,1.5 0 0 1 1228.5,36.3082 " fill="none" style="stroke:#000000;stroke-width:0.8999999999999999;"/><line style="stroke:#000000;stroke-width:0.8999999999999999;" x1="1227" x2="1254.6" y1="51.0809" y2="51.0809"/><text fill="#000000" font-family="sans-serif" font-size="8.4" font-weight="bold" lengthAdjust="spacing" textLength="19.8" x="1229.4" y="46.5727">Lists</text></g><!--class OnlineStore--><g id="elem_OnlineStore"><rect codeLine="4" fill="#F1F1F1" height="39.9727" id="OnlineStore" rx="1.5" ry="1.5" style="stroke:#181818;stroke-width:0.3;" width="108.6" x="2561.1" y="646.2082"/><ellipse cx="2590.35" cy="655.8082" fill="#ADD1B2" rx="6.6" ry="6.6" style="stroke:#181818;stroke-width:0.6;"/><path d="M2592.0094,653.3332 Q2592.1031,653.202 2592.2156,653.1363 Q2592.3281,653.0707 2592.4594,653.0707 Q2592.6844,653.0707 2592.825,653.2301 Q2592.9656,653.3801 2592.9656,653.7457 L2592.9656,654.6176 Q2592.9656,654.9832 2592.825,655.1426 Q2592.6844,655.302 2592.4594,655.302 Q2592.2531,655.302 2592.1313,655.1801 Q2592.0094,655.0676 2591.9438,654.7582 Q2591.9156,654.5426 2591.8031,654.4301 Q2591.6063,654.2051 2591.2406,654.0738 Q2590.875,653.9426 2590.5,653.9426 Q2590.0406,653.9426 2589.6563,654.1395 Q2589.2813,654.3363 2588.9813,654.7863 Q2588.6906,655.2363 2588.6906,655.8551 L2588.6906,656.5113 Q2588.6906,657.252 2589.225,657.7488 Q2589.7594,658.2363 2590.7156,658.2363 Q2591.2781,658.2363 2591.6719,658.0863 Q2591.9063,657.9926 2592.1594,657.7301 Q2592.3188,657.5707 2592.4031,657.5238 Q2592.4969,657.477 2592.6188,657.477 Q2592.8156,657.477 2592.9656,657.6363 Q2593.125,657.7863 2593.125,657.9926 Q2593.125,658.1988 2592.9188,658.4426 Q2592.6188,658.7895 2592.1406,658.9863 Q2591.4938,659.2582 2590.7156,659.2582 Q2589.8063,659.2582 2589.0844,658.8832 Q2588.4938,658.5832 2588.0812,657.9457 Q2587.6688,657.2988 2587.6688,656.5301 L2587.6688,655.8363 Q2587.6688,655.0395 2588.0344,654.3551 Q2588.4094,653.6613 2589.0656,653.2957 Q2589.7219,652.9207 2590.4625,652.9207 Q2590.9031,652.9207 2591.2875,653.0238 Q2591.6813,653.1176 2592.0094,653.3332 Z " fill="#000000"/><text fill="#000000" font-family="sans-serif" font-size="8.4" lengthAdjust="spacing" textLength="45" x="2602.65" y="659.2863">OnlineStore</text><line style="stroke:#181818;stroke-width:0.3;" x1="2561.7" x2="2669.1" y1="665.4082" y2="665.4082"/><line style="stroke:#181818;stroke-width:0.3;" x1="2561.7" x2="2669.1" y1="670.2082" y2="670.2082"/><ellipse cx="2567.7" cy="679.0945" fill="#84BE84" rx="1.8" ry="1.8" style="stroke:#038048;stroke-width:0.6;"/><text fill="#000000" font-family="sans-serif" font-size="8.4" lengthAdjust="spacing" text-decoration="underline" textLength="93" x="2573.1" y="681.6727">main(args: String[]): void</text></g><!--class ManageOS--><g id="elem_ManageOS"><rect codeLine="7" fill="#F1F1F1" height="118.1812" id="ManageOS" rx="1.5" ry="1.5" style="stroke:#181818;stroke-width:0.3;" width="154.2" x="2385.9" y="607.2082"/><ellipse cx="2439.15" cy="616.8082" fill="#ADD1B2" rx="6.6" ry="6.6" style="stroke:#181818;stroke-width:0.6;"/><path d="M2440.8094,614.3332 Q2440.9031,614.202 2441.0156,614.1363 Q2441.1281,614.0707 2441.2594,614.0707 Q2441.4844,614.0707 2441.625,614.2301 Q2441.7656,614.3801 2441.7656,614.7457 L2441.7656,615.6176 Q2441.7656,615.9832 2441.625,616.1426 Q2441.4844,616.302 2441.2594,616.302 Q2441.0531,616.302 2440.9313,616.1801 Q2440.8094,616.0676 2440.7438,615.7582 Q2440.7156,615.5426 2440.6031,615.4301 Q2440.4063,615.2051 2440.0406,615.0738 Q2439.675,614.9426 2439.3,614.9426 Q2438.8406,614.9426 2438.4562,615.1395 Q2438.0812,615.3363 2437.7813,615.7863 Q2437.4906,616.2363 2437.4906,616.8551 L2437.4906,617.5113 Q2437.4906,618.252 2438.025,618.7488 Q2438.5594,619.2363 2439.5156,619.2363 Q2440.0781,619.2363 2440.4719,619.0863 Q2440.7062,618.9926 2440.9594,618.7301 Q2441.1188,618.5707 2441.2031,618.5238 Q2441.2969,618.477 2441.4188,618.477 Q2441.6156,618.477 2441.7656,618.6363 Q2441.925,618.7863 2441.925,618.9926 Q2441.925,619.1988 2441.7188,619.4426 Q2441.4188,619.7895 2440.9406,619.9863 Q2440.2938,620.2582 2439.5156,620.2582 Q2438.6063,620.2582 2437.8844,619.8832 Q2437.2938,619.5832 2436.8813,618.9457 Q2436.4688,618.2988 2436.4688,617.5301 L2436.4688,616.8363 Q2436.4688,616.0395 2436.8344,615.3551 Q2437.2094,614.6613 2437.8656,614.2957 Q2438.5219,613.9207 2439.2625,613.9207 Q2439.7031,613.9207 2440.0875,614.0238 Q2440.4813,614.1176 2440.8094,614.3332 Z " fill="#000000"/><text fill="#000000" font-family="sans-serif" font-size="8.4" lengthAdjust="spacing" textLength="42.6" x="2451.45" y="620.2863">ManageOS</text><line style="stroke:#181818;stroke-width:0.3;" x1="2386.5" x2="2539.5" y1="626.4082" y2="626.4082"/><rect fill="none" height="3.6" style="stroke:#C82930;stroke-width:0.6;" width="3.6" x="2390.7" y="633.4945"/><text fill="#000000" font-family="sans-serif" font-size="8.4" lengthAdjust="spacing" textLength="77.4" x="2397.9" y="637.8727">controller: Controller</text><line style="stroke:#181818;stroke-width:0.3;" x1="2386.5" x2="2539.5" y1="642.3809" y2="642.3809"/><ellipse cx="2392.5" cy="651.2672" fill="#84BE84" rx="1.8" ry="1.8" style="stroke:#038048;stroke-width:0.6;"/><text fill="#000000" font-family="sans-serif" font-size="8.4" lengthAdjust="spacing" textLength="48.6" x="2397.9" y="653.8453">ManageOS()</text><ellipse cx="2392.5" cy="662.4398" fill="#84BE84" rx="1.8" ry="1.8" style="stroke:#038048;stroke-width:0.6;"/><text fill="#000000" font-family="sans-serif" font-size="8.4" lengthAdjust="spacing" textLength="126" x="2397.9" y="665.018">ManageOS(controller: Controller)</text><ellipse cx="2392.5" cy="673.6125" fill="#84BE84" rx="1.8" ry="1.8" style="stroke:#038048;stroke-width:0.6;"/><text fill="#000000" font-family="sans-serif" font-size="8.4" lengthAdjust="spacing" textLength="138.6" x="2397.9" y="676.1906">ManageOS(manageOS: ManageOS)</text><ellipse cx="2392.5" cy="684.7852" fill="#84BE84" rx="1.8" ry="1.8" style="stroke:#038048;stroke-width:0.6;"/><text fill="#000000" font-family="sans-serif" font-size="8.4" lengthAdjust="spacing" textLength="39" x="2397.9" y="687.3633">run(): void</text><ellipse cx="2392.5" cy="695.9578" fill="#84BE84" rx="1.8" ry="1.8" style="stroke:#038048;stroke-width:0.6;"/><text fill="#000000" font-family="sans-serif" font-size="8.4" lengthAdjust="spacing" textLength="97.8" x="2397.9" y="698.5359">manageCustomers(): void</text><ellipse cx="2392.5" cy="707.1305" fill="#84BE84" rx="1.8" ry="1.8" style="stroke:#038048;stroke-width:0.6;"/><text fill="#000000" font-family="sans-serif" font-size="8.4" lengthAdjust="spacing" textLength="76.8" x="2397.9" y="709.7086">manageItems(): void</text><ellipse cx="2392.5" cy="718.3031" fill="#84BE84" rx="1.8" ry="1.8" style="stroke:#038048;stroke-width:0.6;"/><text fill="#000000" font-family="sans-serif" font-size="8.4" lengthAdjust="spacing" textLength="83.4" x="2397.9" y="720.8813">manageOrders(): void</text></g><!--class Controller--><g id="elem_Controller"><rect codeLine="20" fill="#F1F1F1" height="73.4906" id="Controller" rx="1.5" ry="1.5" style="stroke:#181818;stroke-width:0.3;" width="136.2" x="2133.3" y="629.7082"/><ellipse cx="2180.25" cy="639.3082" fill="#ADD1B2" rx="6.6" ry="6.6" style="stroke:#181818;stroke-width:0.6;"/><path d="M2181.9094,636.8332 Q2182.0031,636.702 2182.1156,636.6363 Q2182.2281,636.5707 2182.3594,636.5707 Q2182.5844,636.5707 2182.725,636.7301 Q2182.8656,636.8801 2182.8656,637.2457 L2182.8656,638.1176 Q2182.8656,638.4832 2182.725,638.6426 Q2182.5844,638.802 2182.3594,638.802 Q2182.1531,638.802 2182.0313,638.6801 Q2181.9094,638.5676 2181.8438,638.2582 Q2181.8156,638.0426 2181.7031,637.9301 Q2181.5063,637.7051 2181.1406,637.5738 Q2180.775,637.4426 2180.4,637.4426 Q2179.9406,637.4426 2179.5563,637.6395 Q2179.1813,637.8363 2178.8813,638.2863 Q2178.5906,638.7363 2178.5906,639.3551 L2178.5906,640.0113 Q2178.5906,640.752 2179.125,641.2488 Q2179.6594,641.7363 2180.6156,641.7363 Q2181.1781,641.7363 2181.5719,641.5863 Q2181.8063,641.4926 2182.0594,641.2301 Q2182.2188,641.0707 2182.3031,641.0238 Q2182.3969,640.977 2182.5187,640.977 Q2182.7156,640.977 2182.8656,641.1363 Q2183.025,641.2863 2183.025,641.4926 Q2183.025,641.6988 2182.8188,641.9426 Q2182.5187,642.2895 2182.0406,642.4863 Q2181.3937,642.7582 2180.6156,642.7582 Q2179.7062,642.7582 2178.9844,642.3832 Q2178.3937,642.0832 2177.9813,641.4457 Q2177.5688,640.7988 2177.5688,640.0301 L2177.5688,639.3363 Q2177.5688,638.5395 2177.9344,637.8551 Q2178.3094,637.1613 2178.9656,636.7957 Q2179.6219,636.4207 2180.3625,636.4207 Q2180.8031,636.4207 2181.1875,636.5238 Q2181.5812,636.6176 2181.9094,636.8332 Z " fill="#000000"/><text fill="#000000" font-family="sans-serif" font-size="8.4" lengthAdjust="spacing" textLength="37.2" x="2192.55" y="642.7863">Controller</text><line style="stroke:#181818;stroke-width:0.3;" x1="2133.9" x2="2268.9" y1="648.9082" y2="648.9082"/><rect fill="none" height="3.6" style="stroke:#C82930;stroke-width:0.6;" width="3.6" x="2138.1" y="655.9945"/><text fill="#000000" font-family="sans-serif" font-size="8.4" lengthAdjust="spacing" textLength="39.6" x="2145.3" y="660.3727">data: Data</text><line style="stroke:#181818;stroke-width:0.3;" x1="2133.9" x2="2268.9" y1="664.8809" y2="664.8809"/><ellipse cx="2139.9" cy="673.7672" fill="#84BE84" rx="1.8" ry="1.8" style="stroke:#038048;stroke-width:0.6;"/><text fill="#000000" font-family="sans-serif" font-size="8.4" lengthAdjust="spacing" textLength="43.2" x="2145.3" y="676.3453">Controller()</text><ellipse cx="2139.9" cy="684.9398" fill="#84BE84" rx="1.8" ry="1.8" style="stroke:#038048;stroke-width:0.6;"/><text fill="#000000" font-family="sans-serif" font-size="8.4" lengthAdjust="spacing" textLength="82.8" x="2145.3" y="687.518">Controller(data: Data)</text><ellipse cx="2139.9" cy="696.1125" fill="#84BE84" rx="1.8" ry="1.8" style="stroke:#038048;stroke-width:0.6;"/><text fill="#000000" font-family="sans-serif" font-size="8.4" lengthAdjust="spacing" textLength="120.6" x="2145.3" y="698.6906">Controller(controller: Controller)</text></g><!--class ExceptionHandler--><g id="elem_ExceptionHandler"><rect codeLine="27" fill="#F1F1F1" height="39.9727" id="ExceptionHandler" rx="1.5" ry="1.5" style="stroke:#181818;stroke-width:0.3;" width="154.2" x="1958.1" y="646.2082"/><ellipse cx="1999.65" cy="655.8082" fill="#ADD1B2" rx="6.6" ry="6.6" style="stroke:#181818;stroke-width:0.6;"/><path d="M2001.3094,653.3332 Q2001.4031,653.202 2001.5156,653.1363 Q2001.6281,653.0707 2001.7594,653.0707 Q2001.9844,653.0707 2002.125,653.2301 Q2002.2656,653.3801 2002.2656,653.7457 L2002.2656,654.6176 Q2002.2656,654.9832 2002.125,655.1426 Q2001.9844,655.302 2001.7594,655.302 Q2001.5531,655.302 2001.4312,655.1801 Q2001.3094,655.0676 2001.2437,654.7582 Q2001.2156,654.5426 2001.1031,654.4301 Q2000.9063,654.2051 2000.5406,654.0738 Q2000.175,653.9426 1999.8,653.9426 Q1999.3406,653.9426 1998.9563,654.1395 Q1998.5813,654.3363 1998.2813,654.7863 Q1997.9906,655.2363 1997.9906,655.8551 L1997.9906,656.5113 Q1997.9906,657.252 1998.525,657.7488 Q1999.0594,658.2363 2000.0156,658.2363 Q2000.5781,658.2363 2000.9719,658.0863 Q2001.2063,657.9926 2001.4594,657.7301 Q2001.6187,657.5707 2001.7031,657.5238 Q2001.7969,657.477 2001.9187,657.477 Q2002.1156,657.477 2002.2656,657.6363 Q2002.425,657.7863 2002.425,657.9926 Q2002.425,658.1988 2002.2188,658.4426 Q2001.9187,658.7895 2001.4406,658.9863 Q2000.7937,659.2582 2000.0156,659.2582 Q1999.1062,659.2582 1998.3844,658.8832 Q1997.7937,658.5832 1997.3813,657.9457 Q1996.9688,657.2988 1996.9688,656.5301 L1996.9688,655.8363 Q1996.9688,655.0395 1997.3344,654.3551 Q1997.7094,653.6613 1998.3656,653.2957 Q1999.0219,652.9207 1999.7625,652.9207 Q2000.2031,652.9207 2000.5875,653.0238 Q2000.9812,653.1176 2001.3094,653.3332 Z " fill="#000000"/><text fill="#000000" font-family="sans-serif" font-size="8.4" lengthAdjust="spacing" textLength="66" x="2011.95" y="659.2863">ExceptionHandler</text><line style="stroke:#181818;stroke-width:0.3;" x1="1958.7" x2="2111.7" y1="665.4082" y2="665.4082"/><line style="stroke:#181818;stroke-width:0.3;" x1="1958.7" x2="2111.7" y1="670.2082" y2="670.2082"/><ellipse cx="1964.7" cy="679.0945" fill="#84BE84" rx="1.8" ry="1.8" style="stroke:#038048;stroke-width:0.6;"/><text fill="#000000" font-family="sans-serif" font-size="8.4" lengthAdjust="spacing" textLength="138.6" x="1970.1" y="681.6727">handleException(ex: Exception): void</text></g><!--class TestController--><g id="elem_TestController"><rect codeLine="31" fill="#F1F1F1" height="39.9727" id="TestController" rx="1.5" ry="1.5" style="stroke:#181818;stroke-width:0.3;" width="75.6" x="2145" y="962.7082"/><ellipse cx="2155.08" cy="972.3082" fill="#ADD1B2" rx="6.6" ry="6.6" style="stroke:#181818;stroke-width:0.6;"/><path d="M2156.7394,969.8332 Q2156.8331,969.702 2156.9456,969.6363 Q2157.0581,969.5707 2157.1894,969.5707 Q2157.4144,969.5707 2157.555,969.7301 Q2157.6956,969.8801 2157.6956,970.2457 L2157.6956,971.1176 Q2157.6956,971.4832 2157.555,971.6426 Q2157.4144,971.802 2157.1894,971.802 Q2156.9831,971.802 2156.8613,971.6801 Q2156.7394,971.5676 2156.6738,971.2582 Q2156.6456,971.0426 2156.5331,970.9301 Q2156.3363,970.7051 2155.9706,970.5738 Q2155.605,970.4426 2155.23,970.4426 Q2154.7706,970.4426 2154.3863,970.6395 Q2154.0113,970.8363 2153.7113,971.2863 Q2153.4206,971.7363 2153.4206,972.3551 L2153.4206,973.0113 Q2153.4206,973.752 2153.955,974.2488 Q2154.4894,974.7363 2155.4456,974.7363 Q2156.0081,974.7363 2156.4019,974.5863 Q2156.6363,974.4926 2156.8894,974.2301 Q2157.0488,974.0707 2157.1331,974.0238 Q2157.2269,973.977 2157.3488,973.977 Q2157.5456,973.977 2157.6956,974.1363 Q2157.855,974.2863 2157.855,974.4926 Q2157.855,974.6988 2157.6488,974.9426 Q2157.3488,975.2895 2156.8706,975.4863 Q2156.2238,975.7582 2155.4456,975.7582 Q2154.5363,975.7582 2153.8144,975.3832 Q2153.2238,975.0832 2152.8113,974.4457 Q2152.3988,973.7988 2152.3988,973.0301 L2152.3988,972.3363 Q2152.3988,971.5395 2152.7644,970.8551 Q2153.1394,970.1613 2153.7956,969.7957 Q2154.4519,969.4207 2155.1925,969.4207 Q2155.6331,969.4207 2156.0175,969.5238 Q2156.4113,969.6176 2156.7394,969.8332 Z " fill="#000000"/><text fill="#000000" font-family="sans-serif" font-size="8.4" lengthAdjust="spacing" textLength="54" x="2163.72" y="975.7863">TestController</text><line style="stroke:#181818;stroke-width:0.3;" x1="2145.6" x2="2220" y1="981.9082" y2="981.9082"/><line style="stroke:#181818;stroke-width:0.3;" x1="2145.6" x2="2220" y1="986.7082" y2="986.7082"/><ellipse cx="2151.6" cy="995.5945" fill="#84BE84" rx="1.8" ry="1.8" style="stroke:#038048;stroke-width:0.6;"/><text fill="#000000" font-family="sans-serif" font-size="8.4" lengthAdjust="spacing" textLength="60" x="2157" y="998.1727">runTests(): void</text></g><!--class Data--><g id="elem_Data"><rect codeLine="37" fill="#F1F1F1" height="140.5266" id="Data" rx="1.5" ry="1.5" style="stroke:#181818;stroke-width:0.3;" width="300.6" x="187.5" y="30.6082"/><ellipse cx="326.25" cy="40.2082" fill="#ADD1B2" rx="6.6" ry="6.6" style="stroke:#181818;stroke-width:0.6;"/><path d="M327.9094,37.7332 Q328.0031,37.602 328.1156,37.5363 Q328.2281,37.4707 328.3594,37.4707 Q328.5844,37.4707 328.725,37.6301 Q328.8656,37.7801 328.8656,38.1457 L328.8656,39.0176 Q328.8656,39.3832 328.725,39.5426 Q328.5844,39.702 328.3594,39.702 Q328.1531,39.702 328.0313,39.5801 Q327.9094,39.4676 327.8438,39.1582 Q327.8156,38.9426 327.7031,38.8301 Q327.5062,38.6051 327.1406,38.4738 Q326.775,38.3426 326.4,38.3426 Q325.9406,38.3426 325.5563,38.5395 Q325.1813,38.7363 324.8812,39.1863 Q324.5906,39.6363 324.5906,40.2551 L324.5906,40.9113 Q324.5906,41.652 325.125,42.1488 Q325.6594,42.6363 326.6156,42.6363 Q327.1781,42.6363 327.5719,42.4863 Q327.8063,42.3926 328.0594,42.1301 Q328.2188,41.9707 328.3031,41.9238 Q328.3969,41.877 328.5188,41.877 Q328.7156,41.877 328.8656,42.0363 Q329.025,42.1863 329.025,42.3926 Q329.025,42.5988 328.8187,42.8426 Q328.5188,43.1895 328.0406,43.3863 Q327.3938,43.6582 326.6156,43.6582 Q325.7063,43.6582 324.9844,43.2832 Q324.3938,42.9832 323.9813,42.3457 Q323.5687,41.6988 323.5687,40.9301 L323.5687,40.2363 Q323.5687,39.4395 323.9344,38.7551 Q324.3094,38.0613 324.9656,37.6957 Q325.6219,37.3207 326.3625,37.3207 Q326.8031,37.3207 327.1875,37.4238 Q327.5813,37.5176 327.9094,37.7332 Z " fill="#000000"/><text fill="#000000" font-family="sans-serif" font-size="8.4" lengthAdjust="spacing" textLength="18" x="338.55" y="43.6863">Data</text><line style="stroke:#181818;stroke-width:0.3;" x1="188.1" x2="487.5" y1="49.8082" y2="49.8082"/><rect fill="none" height="3.6" style="stroke:#C82930;stroke-width:0.6;" width="3.6" x="192.3" y="56.8945"/><text fill="#000000" font-family="sans-serif" font-size="8.4" lengthAdjust="spacing" textLength="106.8" x="199.5" y="61.2727">customersList: CustomerList</text><rect fill="none" height="3.6" style="stroke:#C82930;stroke-width:0.6;" width="3.6" x="192.3" y="68.0672"/><text fill="#000000" font-family="sans-serif" font-size="8.4" lengthAdjust="spacing" textLength="78" x="199.5" y="72.4453">ordersList: OrderList</text><rect fill="none" height="3.6" style="stroke:#C82930;stroke-width:0.6;" width="3.6" x="192.3" y="79.2398"/><text fill="#000000" font-family="sans-serif" font-size="8.4" lengthAdjust="spacing" textLength="66.6" x="199.5" y="83.618">itemsList: ItemList</text><line style="stroke:#181818;stroke-width:0.3;" x1="188.1" x2="487.5" y1="88.1262" y2="88.1262"/><ellipse cx="194.1" cy="97.0125" fill="#84BE84" rx="1.8" ry="1.8" style="stroke:#038048;stroke-width:0.6;"/><text fill="#000000" font-family="sans-serif" font-size="8.4" lengthAdjust="spacing" textLength="24" x="199.5" y="99.5906">Data()</text><ellipse cx="194.1" cy="108.1852" fill="#84BE84" rx="1.8" ry="1.8" style="stroke:#038048;stroke-width:0.6;"/><text fill="#000000" font-family="sans-serif" font-size="8.4" lengthAdjust="spacing" textLength="285" x="199.5" y="110.7633">Data(customersList: CustomerList, ordersList: OrderList, itemsList: ItemList)</text><ellipse cx="194.1" cy="119.3578" fill="#84BE84" rx="1.8" ry="1.8" style="stroke:#038048;stroke-width:0.6;"/><text fill="#000000" font-family="sans-serif" font-size="8.4" lengthAdjust="spacing" textLength="63.6" x="199.5" y="121.9359">Data(data: Data)</text><ellipse cx="194.1" cy="130.5305" fill="#84BE84" rx="1.8" ry="1.8" style="stroke:#038048;stroke-width:0.6;"/><text fill="#000000" font-family="sans-serif" font-size="8.4" lengthAdjust="spacing" textLength="113.4" x="199.5" y="133.1086">getCustomers(): CustomerList</text><ellipse cx="194.1" cy="141.7031" fill="#84BE84" rx="1.8" ry="1.8" style="stroke:#038048;stroke-width:0.6;"/><text fill="#000000" font-family="sans-serif" font-size="8.4" lengthAdjust="spacing" textLength="84.6" x="199.5" y="144.2813">getOrders(): OrderList</text><ellipse cx="194.1" cy="152.8758" fill="#84BE84" rx="1.8" ry="1.8" style="stroke:#038048;stroke-width:0.6;"/><text fill="#000000" font-family="sans-serif" font-size="8.4" lengthAdjust="spacing" textLength="71.4" x="199.5" y="155.4539">getItems(): ItemList</text><ellipse cx="194.1" cy="164.0484" fill="#84BE84" rx="1.8" ry="1.8" style="stroke:#038048;stroke-width:0.6;"/><text fill="#000000" font-family="sans-serif" font-size="8.4" lengthAdjust="spacing" textLength="62.4" x="199.5" y="166.6266">toString(): String</text></g><!--class Customer--><g id="elem_Customer"><rect codeLine="75" fill="#F1F1F1" height="252.2531" id="Customer" rx="1.5" ry="1.5" style="stroke:#181818;stroke-width:0.3;" width="474.6" x="950.1" y="218.4082"/><ellipse cx="1166.55" cy="228.0082" fill="#A9DCDF" rx="6.6" ry="6.6" style="stroke:#181818;stroke-width:0.6;"/><path d="M1167.8625,229.0676 L1165.3781,229.0676 L1165.125,229.6863 L1165.3781,229.6863 Q1165.7437,229.6863 1165.9031,229.827 Q1166.0625,229.9676 1166.0625,230.202 Q1166.0625,230.427 1165.9031,230.5676 Q1165.7437,230.7082 1165.3781,230.7082 L1164,230.7082 Q1163.6344,230.7082 1163.4844,230.5676 Q1163.325,230.427 1163.325,230.1926 Q1163.325,229.9676 1163.4937,229.827 Q1163.6531,229.677 1164.0281,229.6863 L1165.6313,225.6926 L1164.9656,225.6926 Q1164.6,225.6926 1164.4406,225.552 Q1164.2813,225.4113 1164.2813,225.177 Q1164.2813,224.952 1164.4406,224.8113 Q1164.6,224.6707 1164.9656,224.6707 L1167.1688,224.6707 L1169.2031,229.6863 Q1169.5594,229.6863 1169.6719,229.7707 Q1169.9063,229.9301 1169.9063,230.202 Q1169.9063,230.427 1169.7469,230.5676 Q1169.5969,230.7082 1169.2313,230.7082 L1167.8531,230.7082 Q1167.4875,230.7082 1167.3281,230.5676 Q1167.1688,230.427 1167.1688,230.1926 Q1167.1688,229.9676 1167.3281,229.827 Q1167.4875,229.6863 1167.8531,229.6863 L1168.1063,229.6863 L1167.8625,229.0676 Z M1167.4312,228.0457 L1166.6156,226.0207 L1165.7906,228.0457 L1167.4312,228.0457 Z " fill="#000000"/><text fill="#000000" font-family="sans-serif" font-size="8.4" font-style="italic" lengthAdjust="spacing" textLength="36.6" x="1178.85" y="231.4863">Customer</text><line style="stroke:#181818;stroke-width:0.3;" x1="950.7" x2="1424.1" y1="237.6082" y2="237.6082"/><rect fill="none" height="3.6" style="stroke:#C82930;stroke-width:0.6;" width="3.6" x="954.9" y="244.6945"/><text fill="#000000" font-family="sans-serif" font-size="8.4" lengthAdjust="spacing" textLength="48" x="962.1" y="249.0727">name: String</text><rect fill="none" height="3.6" style="stroke:#C82930;stroke-width:0.6;" width="3.6" x="954.9" y="255.8672"/><text fill="#000000" font-family="sans-serif" font-size="8.4" lengthAdjust="spacing" textLength="57.6" x="962.1" y="260.2453">address: String</text><rect fill="none" height="3.6" style="stroke:#C82930;stroke-width:0.6;" width="3.6" x="954.9" y="267.0398"/><text fill="#000000" font-family="sans-serif" font-size="8.4" lengthAdjust="spacing" textLength="33.6" x="962.1" y="271.418">id: String</text><rect fill="none" height="3.6" style="stroke:#C82930;stroke-width:0.6;" width="3.6" x="954.9" y="278.2125"/><text fill="#000000" font-family="sans-serif" font-size="8.4" lengthAdjust="spacing" textLength="46.8" x="962.1" y="282.5906">email: String</text><rect fill="none" height="3.6" style="stroke:#C82930;stroke-width:0.6;" width="3.6" x="954.9" y="289.3852"/><text fill="#000000" font-family="sans-serif" font-size="8.4" lengthAdjust="spacing" textLength="91.8" x="962.1" y="293.7633">membershipFee: double</text><rect fill="none" height="3.6" style="stroke:#C82930;stroke-width:0.6;" width="3.6" x="954.9" y="300.5578"/><text fill="#000000" font-family="sans-serif" font-size="8.4" lengthAdjust="spacing" textLength="114.6" x="962.1" y="304.9359">customerType: CustomerType</text><line style="stroke:#181818;stroke-width:0.3;" x1="950.7" x2="1424.1" y1="309.4441" y2="309.4441"/><ellipse cx="956.7" cy="318.3305" fill="#84BE84" rx="1.8" ry="1.8" style="stroke:#038048;stroke-width:0.6;"/><text fill="#000000" font-family="sans-serif" font-size="8.4" lengthAdjust="spacing" textLength="459" x="962.1" y="320.9086">Customer(name: String, address: String, id: String, email: String, membershipFee: double, customerType: CustomerType)</text><ellipse cx="956.7" cy="329.5031" fill="#84BE84" rx="1.8" ry="1.8" style="stroke:#038048;stroke-width:0.6;"/><text fill="#000000" font-family="sans-serif" font-size="8.4" lengthAdjust="spacing" textLength="66.6" x="962.1" y="332.0813">getName(): String</text><ellipse cx="956.7" cy="340.6758" fill="#84BE84" rx="1.8" ry="1.8" style="stroke:#038048;stroke-width:0.6;"/><text fill="#000000" font-family="sans-serif" font-size="8.4" lengthAdjust="spacing" textLength="107.4" x="962.1" y="343.2539">setName(name: String): void</text><ellipse cx="956.7" cy="351.8484" fill="#84BE84" rx="1.8" ry="1.8" style="stroke:#038048;stroke-width:0.6;"/><text fill="#000000" font-family="sans-serif" font-size="8.4" lengthAdjust="spacing" textLength="76.2" x="962.1" y="354.4266">getAddress(): String</text><ellipse cx="956.7" cy="363.0211" fill="#84BE84" rx="1.8" ry="1.8" style="stroke:#038048;stroke-width:0.6;"/><text fill="#000000" font-family="sans-serif" font-size="8.4" lengthAdjust="spacing" textLength="126.6" x="962.1" y="365.5992">setAddress(address: String): void</text><ellipse cx="956.7" cy="374.1937" fill="#84BE84" rx="1.8" ry="1.8" style="stroke:#038048;stroke-width:0.6;"/><text fill="#000000" font-family="sans-serif" font-size="8.4" lengthAdjust="spacing" textLength="51.6" x="962.1" y="376.7719">getId(): String</text><ellipse cx="956.7" cy="385.3664" fill="#84BE84" rx="1.8" ry="1.8" style="stroke:#038048;stroke-width:0.6;"/><text fill="#000000" font-family="sans-serif" font-size="8.4" lengthAdjust="spacing" textLength="78" x="962.1" y="387.9445">setId(id: String): void</text><ellipse cx="956.7" cy="396.5391" fill="#84BE84" rx="1.8" ry="1.8" style="stroke:#038048;stroke-width:0.6;"/><text fill="#000000" font-family="sans-serif" font-size="8.4" lengthAdjust="spacing" textLength="65.4" x="962.1" y="399.1172">getEmail(): String</text><ellipse cx="956.7" cy="407.7117" fill="#84BE84" rx="1.8" ry="1.8" style="stroke:#038048;stroke-width:0.6;"/><text fill="#000000" font-family="sans-serif" font-size="8.4" lengthAdjust="spacing" textLength="105" x="962.1" y="410.2898">setEmail(email: String): void</text><ellipse cx="956.7" cy="418.8844" fill="#84BE84" rx="1.8" ry="1.8" style="stroke:#038048;stroke-width:0.6;"/><text fill="#000000" font-family="sans-serif" font-size="8.4" lengthAdjust="spacing" textLength="109.8" x="962.1" y="421.4625">getMembershipFee(): double</text><ellipse cx="956.7" cy="430.057" fill="#84BE84" rx="1.8" ry="1.8" style="stroke:#038048;stroke-width:0.6;"/><text fill="#000000" font-family="sans-serif" font-size="8.4" lengthAdjust="spacing" textLength="190.8" x="962.1" y="432.6352">setMembershipFee(membershipFee: double): void</text><ellipse cx="956.7" cy="441.2297" fill="#84BE84" rx="1.8" ry="1.8" style="stroke:#038048;stroke-width:0.6;"/><text fill="#000000" font-family="sans-serif" font-size="8.4" lengthAdjust="spacing" textLength="134.4" x="962.1" y="443.8078">getCustomerType(): CustomerType</text><ellipse cx="956.7" cy="452.4023" fill="#84BE84" rx="1.8" ry="1.8" style="stroke:#038048;stroke-width:0.6;"/><text fill="#000000" font-family="sans-serif" font-size="8.4" lengthAdjust="spacing" textLength="208.2" x="962.1" y="454.9805">setCustomerType(customerType: CustomerType): void</text><ellipse cx="956.7" cy="463.575" fill="#84BE84" rx="1.8" ry="1.8" style="stroke:#038048;stroke-width:0.6;"/><text fill="#000000" font-family="sans-serif" font-size="8.4" lengthAdjust="spacing" textLength="62.4" x="962.1" y="466.1531">toString(): String</text></g><!--class StandardCustomer--><g id="elem_StandardCustomer"><rect codeLine="98" fill="#F1F1F1" height="51.1453" id="StandardCustomer" rx="1.5" ry="1.5" style="stroke:#181818;stroke-width:0.3;" width="293.4" x="921.9" y="75.3082"/><ellipse cx="1030.35" cy="84.9082" fill="#ADD1B2" rx="6.6" ry="6.6" style="stroke:#181818;stroke-width:0.6;"/><path d="M1032.0094,82.4332 Q1032.1031,82.302 1032.2156,82.2363 Q1032.3281,82.1707 1032.4594,82.1707 Q1032.6844,82.1707 1032.825,82.3301 Q1032.9656,82.4801 1032.9656,82.8457 L1032.9656,83.7176 Q1032.9656,84.0832 1032.825,84.2426 Q1032.6844,84.402 1032.4594,84.402 Q1032.2531,84.402 1032.1313,84.2801 Q1032.0094,84.1676 1031.9438,83.8582 Q1031.9156,83.6426 1031.8031,83.5301 Q1031.6063,83.3051 1031.2406,83.1738 Q1030.875,83.0426 1030.5,83.0426 Q1030.0406,83.0426 1029.6563,83.2395 Q1029.2813,83.4363 1028.9813,83.8863 Q1028.6906,84.3363 1028.6906,84.9551 L1028.6906,85.6113 Q1028.6906,86.352 1029.225,86.8488 Q1029.7594,87.3363 1030.7156,87.3363 Q1031.2781,87.3363 1031.6719,87.1863 Q1031.9063,87.0926 1032.1594,86.8301 Q1032.3188,86.6707 1032.4031,86.6238 Q1032.4969,86.577 1032.6187,86.577 Q1032.8156,86.577 1032.9656,86.7363 Q1033.125,86.8863 1033.125,87.0926 Q1033.125,87.2988 1032.9188,87.5426 Q1032.6187,87.8895 1032.1406,88.0863 Q1031.4937,88.3582 1030.7156,88.3582 Q1029.8062,88.3582 1029.0844,87.9832 Q1028.4937,87.6832 1028.0813,87.0457 Q1027.6688,86.3988 1027.6688,85.6301 L1027.6688,84.9363 Q1027.6688,84.1395 1028.0344,83.4551 Q1028.4094,82.7613 1029.0656,82.3957 Q1029.7219,82.0207 1030.4625,82.0207 Q1030.9031,82.0207 1031.2875,82.1238 Q1031.6812,82.2176 1032.0094,82.4332 Z " fill="#000000"/><text fill="#000000" font-family="sans-serif" font-size="8.4" lengthAdjust="spacing" textLength="71.4" x="1042.65" y="88.3863">StandardCustomer</text><line style="stroke:#181818;stroke-width:0.3;" x1="922.5" x2="1214.7" y1="94.5082" y2="94.5082"/><line style="stroke:#181818;stroke-width:0.3;" x1="922.5" x2="1214.7" y1="99.3082" y2="99.3082"/><ellipse cx="928.5" cy="108.1945" fill="#84BE84" rx="1.8" ry="1.8" style="stroke:#038048;stroke-width:0.6;"/><text fill="#000000" font-family="sans-serif" font-size="8.4" lengthAdjust="spacing" textLength="277.8" x="933.9" y="110.7727">StandardCustomer(name: String, address: String, id: String, email: String)</text><ellipse cx="928.5" cy="119.3672" fill="#84BE84" rx="1.8" ry="1.8" style="stroke:#038048;stroke-width:0.6;"/><text fill="#000000" font-family="sans-serif" font-size="8.4" lengthAdjust="spacing" textLength="62.4" x="933.9" y="121.9453">toString(): String</text></g><!--class PremiumCustomer--><g id="elem_PremiumCustomer"><rect codeLine="103" fill="#F1F1F1" height="84.6633" id="PremiumCustomer" rx="1.5" ry="1.5" style="stroke:#181818;stroke-width:0.3;" width="391.8" x="509.1" y="58.5082"/><ellipse cx="667.65" cy="68.1082" fill="#ADD1B2" rx="6.6" ry="6.6" style="stroke:#181818;stroke-width:0.6;"/><path d="M669.3094,65.6332 Q669.4031,65.502 669.5156,65.4363 Q669.6281,65.3707 669.7594,65.3707 Q669.9844,65.3707 670.125,65.5301 Q670.2656,65.6801 670.2656,66.0457 L670.2656,66.9176 Q670.2656,67.2832 670.125,67.4426 Q669.9844,67.602 669.7594,67.602 Q669.5531,67.602 669.4313,67.4801 Q669.3094,67.3676 669.2438,67.0582 Q669.2156,66.8426 669.1031,66.7301 Q668.9063,66.5051 668.5406,66.3738 Q668.175,66.2426 667.8,66.2426 Q667.3406,66.2426 666.9563,66.4395 Q666.5813,66.6363 666.2813,67.0863 Q665.9906,67.5363 665.9906,68.1551 L665.9906,68.8113 Q665.9906,69.552 666.525,70.0488 Q667.0594,70.5363 668.0156,70.5363 Q668.5781,70.5363 668.9719,70.3863 Q669.2063,70.2926 669.4594,70.0301 Q669.6188,69.8707 669.7031,69.8238 Q669.7969,69.777 669.9187,69.777 Q670.1156,69.777 670.2656,69.9363 Q670.425,70.0863 670.425,70.2926 Q670.425,70.4988 670.2188,70.7426 Q669.9187,71.0895 669.4406,71.2863 Q668.7937,71.5582 668.0156,71.5582 Q667.1062,71.5582 666.3844,71.1832 Q665.7937,70.8832 665.3813,70.2457 Q664.9688,69.5988 664.9688,68.8301 L664.9688,68.1363 Q664.9688,67.3395 665.3344,66.6551 Q665.7094,65.9613 666.3656,65.5957 Q667.0219,65.2207 667.7625,65.2207 Q668.2031,65.2207 668.5875,65.3238 Q668.9812,65.4176 669.3094,65.6332 Z " fill="#000000"/><text fill="#000000" font-family="sans-serif" font-size="8.4" lengthAdjust="spacing" textLength="69.6" x="679.95" y="71.5863">PremiumCustomer</text><line style="stroke:#181818;stroke-width:0.3;" x1="509.7" x2="900.3" y1="77.7082" y2="77.7082"/><rect fill="none" height="3.6" style="stroke:#C82930;stroke-width:0.6;" width="3.6" x="513.9" y="84.7945"/><text fill="#000000" font-family="sans-serif" font-size="8.4" lengthAdjust="spacing" textLength="95.4" x="521.1" y="89.1727">shippingDiscount: double</text><line style="stroke:#181818;stroke-width:0.3;" x1="509.7" x2="900.3" y1="93.6809" y2="93.6809"/><ellipse cx="515.7" cy="102.5672" fill="#84BE84" rx="1.8" ry="1.8" style="stroke:#038048;stroke-width:0.6;"/><text fill="#000000" font-family="sans-serif" font-size="8.4" lengthAdjust="spacing" textLength="376.2" x="521.1" y="105.1453">PremiumCustomer(name: String, address: String, id: String, email: String, shippingDiscount: double)</text><ellipse cx="515.7" cy="113.7398" fill="#84BE84" rx="1.8" ry="1.8" style="stroke:#038048;stroke-width:0.6;"/><text fill="#000000" font-family="sans-serif" font-size="8.4" lengthAdjust="spacing" textLength="114.6" x="521.1" y="116.318">getShippingDiscount(): double</text><ellipse cx="515.7" cy="124.9125" fill="#84BE84" rx="1.8" ry="1.8" style="stroke:#038048;stroke-width:0.6;"/><text fill="#000000" font-family="sans-serif" font-size="8.4" lengthAdjust="spacing" textLength="199.2" x="521.1" y="127.4906">setShippingDiscount(shippingDiscount: double): void</text><ellipse cx="515.7" cy="136.0852" fill="#84BE84" rx="1.8" ry="1.8" style="stroke:#038048;stroke-width:0.6;"/><text fill="#000000" font-family="sans-serif" font-size="8.4" lengthAdjust="spacing" textLength="62.4" x="521.1" y="138.6633">toString(): String</text></g><!--class Item--><g id="elem_Item"><rect codeLine="111" fill="#F1F1F1" height="241.0805" id="Item" rx="1.5" ry="1.5" style="stroke:#181818;stroke-width:0.3;" width="429.6" x="1402.2" y="862.2082"/><ellipse cx="1606.35" cy="871.8082" fill="#A9DCDF" rx="6.6" ry="6.6" style="stroke:#181818;stroke-width:0.6;"/><path d="M1607.6625,872.8676 L1605.1781,872.8676 L1604.925,873.4863 L1605.1781,873.4863 Q1605.5438,873.4863 1605.7031,873.627 Q1605.8625,873.7676 1605.8625,874.002 Q1605.8625,874.227 1605.7031,874.3676 Q1605.5438,874.5082 1605.1781,874.5082 L1603.8,874.5082 Q1603.4344,874.5082 1603.2844,874.3676 Q1603.125,874.227 1603.125,873.9926 Q1603.125,873.7676 1603.2938,873.627 Q1603.4531,873.477 1603.8281,873.4863 L1605.4312,869.4926 L1604.7656,869.4926 Q1604.4,869.4926 1604.2406,869.352 Q1604.0813,869.2113 1604.0813,868.977 Q1604.0813,868.752 1604.2406,868.6113 Q1604.4,868.4707 1604.7656,868.4707 L1606.9688,868.4707 L1609.0031,873.4863 Q1609.3594,873.4863 1609.4719,873.5707 Q1609.7063,873.7301 1609.7063,874.002 Q1609.7063,874.227 1609.5469,874.3676 Q1609.3969,874.5082 1609.0313,874.5082 L1607.6531,874.5082 Q1607.2875,874.5082 1607.1281,874.3676 Q1606.9688,874.227 1606.9688,873.9926 Q1606.9688,873.7676 1607.1281,873.627 Q1607.2875,873.4863 1607.6531,873.4863 L1607.9063,873.4863 L1607.6625,872.8676 Z M1607.2313,871.8457 L1606.4156,869.8207 L1605.5906,871.8457 L1607.2313,871.8457 Z " fill="#000000"/><text fill="#000000" font-family="sans-serif" font-size="8.4" font-style="italic" lengthAdjust="spacing" textLength="16.2" x="1618.65" y="875.2863">Item</text><line style="stroke:#181818;stroke-width:0.3;" x1="1402.8" x2="1831.2" y1="881.4082" y2="881.4082"/><rect fill="none" height="3.6" style="stroke:#C82930;stroke-width:0.6;" width="3.6" x="1407" y="888.4945"/><text fill="#000000" font-family="sans-serif" font-size="8.4" lengthAdjust="spacing" textLength="45.6" x="1414.2" y="892.8727">code: String</text><rect fill="none" height="3.6" style="stroke:#C82930;stroke-width:0.6;" width="3.6" x="1407" y="899.6672"/><text fill="#000000" font-family="sans-serif" font-size="8.4" lengthAdjust="spacing" textLength="68.4" x="1414.2" y="904.0453">description: String</text><rect fill="none" height="3.6" style="stroke:#C82930;stroke-width:0.6;" width="3.6" x="1407" y="910.8398"/><text fill="#000000" font-family="sans-serif" font-size="8.4" lengthAdjust="spacing" textLength="73.8" x="1414.2" y="915.218">sellingPrice: double</text><rect fill="none" height="3.6" style="stroke:#C82930;stroke-width:0.6;" width="3.6" x="1407" y="922.0125"/><text fill="#000000" font-family="sans-serif" font-size="8.4" lengthAdjust="spacing" textLength="79.8" x="1414.2" y="926.3906">shippingCost: double</text><rect fill="none" height="3.6" style="stroke:#C82930;stroke-width:0.6;" width="3.6" x="1407" y="933.1852"/><text fill="#000000" font-family="sans-serif" font-size="8.4" lengthAdjust="spacing" textLength="105.6" x="1414.2" y="937.5633">preparationTimeMinutes: int</text><line style="stroke:#181818;stroke-width:0.3;" x1="1402.8" x2="1831.2" y1="942.0715" y2="942.0715"/><ellipse cx="1408.8" cy="950.9578" fill="#84BE84" rx="1.8" ry="1.8" style="stroke:#038048;stroke-width:0.6;"/><text fill="#000000" font-family="sans-serif" font-size="8.4" lengthAdjust="spacing" textLength="21.6" x="1414.2" y="953.5359">Item()</text><ellipse cx="1408.8" cy="962.1305" fill="#84BE84" rx="1.8" ry="1.8" style="stroke:#038048;stroke-width:0.6;"/><text fill="#000000" font-family="sans-serif" font-size="8.4" lengthAdjust="spacing" textLength="414" x="1414.2" y="964.7086">Item(code: String, description: String, sellingPrice: double, shippingCost: double, preparationTimeMinutes: int)</text><ellipse cx="1408.8" cy="973.3031" fill="#84BE84" rx="1.8" ry="1.8" style="stroke:#038048;stroke-width:0.6;"/><text fill="#000000" font-family="sans-serif" font-size="8.4" lengthAdjust="spacing" textLength="57.6" x="1414.2" y="975.8812">Item(item: Item)</text><ellipse cx="1408.8" cy="984.4758" fill="#84BE84" rx="1.8" ry="1.8" style="stroke:#038048;stroke-width:0.6;"/><text fill="#000000" font-family="sans-serif" font-size="8.4" lengthAdjust="spacing" textLength="65.4" x="1414.2" y="987.0539">getCode(): String</text><ellipse cx="1408.8" cy="995.6484" fill="#84BE84" rx="1.8" ry="1.8" style="stroke:#038048;stroke-width:0.6;"/><text fill="#000000" font-family="sans-serif" font-size="8.4" lengthAdjust="spacing" textLength="103.8" x="1414.2" y="998.2266">setCode(code: String): void</text><ellipse cx="1408.8" cy="1006.8211" fill="#84BE84" rx="1.8" ry="1.8" style="stroke:#038048;stroke-width:0.6;"/><text fill="#000000" font-family="sans-serif" font-size="8.4" lengthAdjust="spacing" textLength="87.6" x="1414.2" y="1009.3992">getDescription(): String</text><ellipse cx="1408.8" cy="1017.9938" fill="#84BE84" rx="1.8" ry="1.8" style="stroke:#038048;stroke-width:0.6;"/><text fill="#000000" font-family="sans-serif" font-size="8.4" lengthAdjust="spacing" textLength="148.8" x="1414.2" y="1020.5719">setDescription(description: String): void</text><ellipse cx="1408.8" cy="1029.1664" fill="#84BE84" rx="1.8" ry="1.8" style="stroke:#038048;stroke-width:0.6;"/><text fill="#000000" font-family="sans-serif" font-size="8.4" lengthAdjust="spacing" textLength="93" x="1414.2" y="1031.7445">getSellingPrice(): double</text><ellipse cx="1408.8" cy="1040.3391" fill="#84BE84" rx="1.8" ry="1.8" style="stroke:#038048;stroke-width:0.6;"/><text fill="#000000" font-family="sans-serif" font-size="8.4" lengthAdjust="spacing" textLength="156" x="1414.2" y="1042.9172">setSellingPrice(sellingPrice: double): void</text><ellipse cx="1408.8" cy="1051.5117" fill="#84BE84" rx="1.8" ry="1.8" style="stroke:#038048;stroke-width:0.6;"/><text fill="#000000" font-family="sans-serif" font-size="8.4" lengthAdjust="spacing" textLength="99" x="1414.2" y="1054.0898">getShippingCost(): double</text><ellipse cx="1408.8" cy="1062.6844" fill="#84BE84" rx="1.8" ry="1.8" style="stroke:#038048;stroke-width:0.6;"/><text fill="#000000" font-family="sans-serif" font-size="8.4" lengthAdjust="spacing" textLength="168" x="1414.2" y="1065.2625">setShippingCost(shippingCost: double): void</text><ellipse cx="1408.8" cy="1073.857" fill="#84BE84" rx="1.8" ry="1.8" style="stroke:#038048;stroke-width:0.6;"/><text fill="#000000" font-family="sans-serif" font-size="8.4" lengthAdjust="spacing" textLength="124.2" x="1414.2" y="1076.4352">getPreparationTimeMinutes(): int</text><ellipse cx="1408.8" cy="1085.0297" fill="#84BE84" rx="1.8" ry="1.8" style="stroke:#038048;stroke-width:0.6;"/><text fill="#000000" font-family="sans-serif" font-size="8.4" lengthAdjust="spacing" textLength="235.8" x="1414.2" y="1087.6078">setPreparationTimeMinutes(preparationTimeMinutes: int): void</text><ellipse cx="1408.8" cy="1096.2023" fill="#84BE84" rx="1.8" ry="1.8" style="stroke:#038048;stroke-width:0.6;"/><text fill="#000000" font-family="sans-serif" font-size="8.4" lengthAdjust="spacing" textLength="62.4" x="1414.2" y="1098.7805">toString(): String</text></g><!--class Order--><g id="elem_Order"><rect codeLine="133" fill="#F1F1F1" height="296.9437" id="Order" rx="1.5" ry="1.5" style="stroke:#181818;stroke-width:0.3;" width="510" x="1293" y="517.8082"/><ellipse cx="1534.35" cy="527.4082" fill="#A9DCDF" rx="6.6" ry="6.6" style="stroke:#181818;stroke-width:0.6;"/><path d="M1535.6625,528.4676 L1533.1781,528.4676 L1532.925,529.0863 L1533.1781,529.0863 Q1533.5438,529.0863 1533.7031,529.227 Q1533.8625,529.3676 1533.8625,529.602 Q1533.8625,529.827 1533.7031,529.9676 Q1533.5438,530.1082 1533.1781,530.1082 L1531.8,530.1082 Q1531.4344,530.1082 1531.2844,529.9676 Q1531.125,529.827 1531.125,529.5926 Q1531.125,529.3676 1531.2938,529.227 Q1531.4531,529.077 1531.8281,529.0863 L1533.4312,525.0926 L1532.7656,525.0926 Q1532.4,525.0926 1532.2406,524.952 Q1532.0813,524.8113 1532.0813,524.577 Q1532.0813,524.352 1532.2406,524.2113 Q1532.4,524.0707 1532.7656,524.0707 L1534.9688,524.0707 L1537.0031,529.0863 Q1537.3594,529.0863 1537.4719,529.1707 Q1537.7063,529.3301 1537.7063,529.602 Q1537.7063,529.827 1537.5469,529.9676 Q1537.3969,530.1082 1537.0313,530.1082 L1535.6531,530.1082 Q1535.2875,530.1082 1535.1281,529.9676 Q1534.9688,529.827 1534.9688,529.5926 Q1534.9688,529.3676 1535.1281,529.227 Q1535.2875,529.0863 1535.6531,529.0863 L1535.9063,529.0863 L1535.6625,528.4676 Z M1535.2313,527.4457 L1534.4156,525.4207 L1533.5906,527.4457 L1535.2313,527.4457 Z " fill="#000000"/><text fill="#000000" font-family="sans-serif" font-size="8.4" font-style="italic" lengthAdjust="spacing" textLength="22.2" x="1546.65" y="530.8863">Order</text><line style="stroke:#181818;stroke-width:0.3;" x1="1293.6" x2="1802.4" y1="537.0082" y2="537.0082"/><rect fill="none" height="3.6" style="stroke:#C82930;stroke-width:0.6;" width="3.6" x="1297.8" y="544.0945"/><text fill="#000000" font-family="sans-serif" font-size="8.4" lengthAdjust="spacing" textLength="63.6" x="1305" y="548.4727">orderNumber: int</text><rect fill="none" height="3.6" style="stroke:#C82930;stroke-width:0.6;" width="3.6" x="1297.8" y="555.2672"/><text fill="#000000" font-family="sans-serif" font-size="8.4" lengthAdjust="spacing" textLength="76.2" x="1305" y="559.6453">customer: Customer</text><rect fill="none" height="3.6" style="stroke:#C82930;stroke-width:0.6;" width="3.6" x="1297.8" y="566.4398"/><text fill="#000000" font-family="sans-serif" font-size="8.4" lengthAdjust="spacing" textLength="36" x="1305" y="570.818">item: Item</text><rect fill="none" height="3.6" style="stroke:#C82930;stroke-width:0.6;" width="3.6" x="1297.8" y="577.6125"/><text fill="#000000" font-family="sans-serif" font-size="8.4" lengthAdjust="spacing" textLength="62.4" x="1305" y="581.9906">quantityUnits: int</text><rect fill="none" height="3.6" style="stroke:#C82930;stroke-width:0.6;" width="3.6" x="1297.8" y="588.7852"/><text fill="#000000" font-family="sans-serif" font-size="8.4" lengthAdjust="spacing" textLength="98.4" x="1305" y="593.1633">orderDateTime: DateTime</text><rect fill="none" height="3.6" style="stroke:#C82930;stroke-width:0.6;" width="3.6" x="1297.8" y="599.9578"/><text fill="#000000" font-family="sans-serif" font-size="8.4" lengthAdjust="spacing" textLength="105.6" x="1305" y="604.3359">preparationTimeMinutes: int</text><line style="stroke:#181818;stroke-width:0.3;" x1="1293.6" x2="1802.4" y1="608.8441" y2="608.8441"/><ellipse cx="1299.6" cy="617.7305" fill="#84BE84" rx="1.8" ry="1.8" style="stroke:#038048;stroke-width:0.6;"/><text fill="#000000" font-family="sans-serif" font-size="8.4" lengthAdjust="spacing" textLength="28.2" x="1305" y="620.3086">Order()</text><ellipse cx="1299.6" cy="628.9031" fill="#84BE84" rx="1.8" ry="1.8" style="stroke:#038048;stroke-width:0.6;"/><text fill="#000000" font-family="sans-serif" font-size="8.4" lengthAdjust="spacing" textLength="494.4" x="1305" y="631.4812">Order(orderNumber: int, customer: Customer, item: Item, quantityUnits: int, orderDateTime: DateTime, preparationTimeMinutes: int)</text><ellipse cx="1299.6" cy="640.0758" fill="#84BE84" rx="1.8" ry="1.8" style="stroke:#038048;stroke-width:0.6;"/><text fill="#000000" font-family="sans-serif" font-size="8.4" lengthAdjust="spacing" textLength="75.6" x="1305" y="642.6539">Order(order: Order)</text><ellipse cx="1299.6" cy="651.2484" fill="#84BE84" rx="1.8" ry="1.8" style="stroke:#038048;stroke-width:0.6;"/><text fill="#000000" font-family="sans-serif" font-size="8.4" lengthAdjust="spacing" textLength="83.4" x="1305" y="653.8266">getOrderNumber(): int</text><ellipse cx="1299.6" cy="662.4211" fill="#84BE84" rx="1.8" ry="1.8" style="stroke:#038048;stroke-width:0.6;"/><text fill="#000000" font-family="sans-serif" font-size="8.4" lengthAdjust="spacing" textLength="153" x="1305" y="664.9992">setOrderNumber(orderNumber: int): void</text><ellipse cx="1299.6" cy="673.5938" fill="#84BE84" rx="1.8" ry="1.8" style="stroke:#038048;stroke-width:0.6;"/><text fill="#000000" font-family="sans-serif" font-size="8.4" lengthAdjust="spacing" textLength="96" x="1305" y="676.1719">getCustomer(): Customer</text><ellipse cx="1299.6" cy="684.7664" fill="#84BE84" rx="1.8" ry="1.8" style="stroke:#038048;stroke-width:0.6;"/><text fill="#000000" font-family="sans-serif" font-size="8.4" lengthAdjust="spacing" textLength="150.6" x="1305" y="687.3445">setCustomer(customer: Customer): void</text><ellipse cx="1299.6" cy="695.9391" fill="#84BE84" rx="1.8" ry="1.8" style="stroke:#038048;stroke-width:0.6;"/><text fill="#000000" font-family="sans-serif" font-size="8.4" lengthAdjust="spacing" textLength="54" x="1305" y="698.5172">getItem(): Item</text><ellipse cx="1299.6" cy="707.1117" fill="#84BE84" rx="1.8" ry="1.8" style="stroke:#038048;stroke-width:0.6;"/><text fill="#000000" font-family="sans-serif" font-size="8.4" lengthAdjust="spacing" textLength="89.4" x="1305" y="709.6898">setItem(item: Item): void</text><ellipse cx="1299.6" cy="718.2844" fill="#84BE84" rx="1.8" ry="1.8" style="stroke:#038048;stroke-width:0.6;"/><text fill="#000000" font-family="sans-serif" font-size="8.4" lengthAdjust="spacing" textLength="82.2" x="1305" y="720.8625">getQuantityUnits(): int</text><ellipse cx="1299.6" cy="729.457" fill="#84BE84" rx="1.8" ry="1.8" style="stroke:#038048;stroke-width:0.6;"/><text fill="#000000" font-family="sans-serif" font-size="8.4" lengthAdjust="spacing" textLength="150.6" x="1305" y="732.0352">setQuantityUnits(quantityUnits: int): void</text><ellipse cx="1299.6" cy="740.6297" fill="#84BE84" rx="1.8" ry="1.8" style="stroke:#038048;stroke-width:0.6;"/><text fill="#000000" font-family="sans-serif" font-size="8.4" lengthAdjust="spacing" textLength="118.2" x="1305" y="743.2078">getOrderDateTime(): DateTime</text><ellipse cx="1299.6" cy="751.8023" fill="#84BE84" rx="1.8" ry="1.8" style="stroke:#038048;stroke-width:0.6;"/><text fill="#000000" font-family="sans-serif" font-size="8.4" lengthAdjust="spacing" textLength="195" x="1305" y="754.3805">setOrderDateTime(orderDateTime: DateTime): void</text><ellipse cx="1299.6" cy="762.975" fill="#84BE84" rx="1.8" ry="1.8" style="stroke:#038048;stroke-width:0.6;"/><text fill="#000000" font-family="sans-serif" font-size="8.4" lengthAdjust="spacing" textLength="124.2" x="1305" y="765.5531">getPreparationTimeMinutes(): int</text><ellipse cx="1299.6" cy="774.1477" fill="#84BE84" rx="1.8" ry="1.8" style="stroke:#038048;stroke-width:0.6;"/><text fill="#000000" font-family="sans-serif" font-size="8.4" lengthAdjust="spacing" textLength="235.8" x="1305" y="776.7258">setPreparationTimeMinutes(preparationTimeMinutes: int): void</text><ellipse cx="1299.6" cy="785.3203" fill="#84BE84" rx="1.8" ry="1.8" style="stroke:#038048;stroke-width:0.6;"/><text fill="#000000" font-family="sans-serif" font-size="8.4" lengthAdjust="spacing" textLength="111.6" x="1305" y="787.8984">calculateOrderPrice(): double</text><ellipse cx="1299.6" cy="796.493" fill="#84BE84" rx="1.8" ry="1.8" style="stroke:#038048;stroke-width:0.6;"/><text fill="#000000" font-family="sans-serif" font-size="8.4" lengthAdjust="spacing" textLength="90" x="1305" y="799.0711">isCancelable(): boolean</text><ellipse cx="1299.6" cy="807.6656" fill="#84BE84" rx="1.8" ry="1.8" style="stroke:#038048;stroke-width:0.6;"/><text fill="#000000" font-family="sans-serif" font-size="8.4" lengthAdjust="spacing" textLength="62.4" x="1305" y="810.2438">toString(): String</text></g><!--class CustomerType--><g id="elem_CustomerType"><rect codeLine="160" fill="#F1F1F1" height="51.1453" id="CustomerType" rx="1.5" ry="1.5" style="stroke:#181818;stroke-width:0.3;" width="75" x="91.5" y="75.3082"/><ellipse cx="100.5" cy="84.9082" fill="#EB937F" rx="6.6" ry="6.6" style="stroke:#181818;stroke-width:0.6;"/><path d="M99.8156,85.3863 L99.8156,86.8863 L102.4125,86.8863 L102.4125,86.3332 Q102.4125,85.9676 102.5531,85.8082 Q102.7031,85.6488 102.9281,85.6488 Q103.1531,85.6488 103.2938,85.8082 Q103.4344,85.9676 103.4344,86.3332 L103.4344,87.9082 L98.6344,87.9082 Q98.2594,87.9082 98.1,87.7676 Q97.95,87.627 97.95,87.3926 Q97.95,87.1676 98.1094,87.027 Q98.2688,86.8863 98.6344,86.8863 L98.7938,86.8863 L98.7938,82.8926 L98.6344,82.8926 Q98.2594,82.8926 98.1,82.752 Q97.95,82.6113 97.95,82.377 Q97.95,82.152 98.1,82.0113 Q98.2594,81.8707 98.6344,81.8707 L103.2094,81.8707 L103.2094,83.427 Q103.2094,83.7926 103.0688,83.952 Q102.9375,84.102 102.7031,84.102 Q102.4781,84.102 102.3375,83.952 Q102.1969,83.7926 102.1969,83.427 L102.1969,82.8926 L99.8156,82.8926 L99.8156,84.3645 L100.7063,84.3645 Q100.7063,83.9707 100.7813,83.8582 Q100.9406,83.6145 101.2219,83.6145 Q101.4469,83.6145 101.5875,83.7738 Q101.7281,83.9238 101.7281,84.2895 L101.7281,85.4707 Q101.7281,85.7988 101.6531,85.9113 Q101.4937,86.1457 101.2219,86.1457 Q100.9406,86.1457 100.7813,85.902 Q100.7063,85.7895 100.7063,85.3863 L99.8156,85.3863 Z " fill="#000000"/><text fill="#000000" font-family="sans-serif" font-size="8.4" lengthAdjust="spacing" textLength="55.8" x="108.9" y="88.3863">CustomerType</text><line style="stroke:#181818;stroke-width:0.3;" x1="92.1" x2="165.9" y1="94.5082" y2="94.5082"/><text fill="#000000" font-family="sans-serif" font-size="8.4" lengthAdjust="spacing" textLength="45" x="95.1" y="105.9727">STANDARD</text><text fill="#000000" font-family="sans-serif" font-size="8.4" lengthAdjust="spacing" textLength="37.2" x="95.1" y="117.1453">PREMIUM</text><line style="stroke:#181818;stroke-width:0.3;" x1="92.1" x2="165.9" y1="121.6535" y2="121.6535"/></g><!--class TimeUnit--><g id="elem_TimeUnit"><rect codeLine="165" fill="#F1F1F1" height="73.4906" id="TimeUnit" rx="1.5" ry="1.5" style="stroke:#181818;stroke-width:0.3;" width="52.2" x="18.3" y="64.2082"/><ellipse cx="27.3" cy="73.8082" fill="#EB937F" rx="6.6" ry="6.6" style="stroke:#181818;stroke-width:0.6;"/><path d="M26.6156,74.2863 L26.6156,75.7863 L29.2125,75.7863 L29.2125,75.2332 Q29.2125,74.8676 29.3531,74.7082 Q29.5031,74.5488 29.7281,74.5488 Q29.9531,74.5488 30.0938,74.7082 Q30.2344,74.8676 30.2344,75.2332 L30.2344,76.8082 L25.4344,76.8082 Q25.0594,76.8082 24.9,76.6676 Q24.75,76.527 24.75,76.2926 Q24.75,76.0676 24.9094,75.927 Q25.0687,75.7863 25.4344,75.7863 L25.5938,75.7863 L25.5938,71.7926 L25.4344,71.7926 Q25.0594,71.7926 24.9,71.652 Q24.75,71.5113 24.75,71.277 Q24.75,71.052 24.9,70.9113 Q25.0594,70.7707 25.4344,70.7707 L30.0094,70.7707 L30.0094,72.327 Q30.0094,72.6926 29.8688,72.852 Q29.7375,73.002 29.5031,73.002 Q29.2781,73.002 29.1375,72.852 Q28.9969,72.6926 28.9969,72.327 L28.9969,71.7926 L26.6156,71.7926 L26.6156,73.2645 L27.5062,73.2645 Q27.5062,72.8707 27.5813,72.7582 Q27.7406,72.5145 28.0219,72.5145 Q28.2469,72.5145 28.3875,72.6738 Q28.5281,72.8238 28.5281,73.1895 L28.5281,74.3707 Q28.5281,74.6988 28.4531,74.8113 Q28.2938,75.0457 28.0219,75.0457 Q27.7406,75.0457 27.5813,74.802 Q27.5062,74.6895 27.5062,74.2863 L26.6156,74.2863 Z " fill="#000000"/><text fill="#000000" font-family="sans-serif" font-size="8.4" lengthAdjust="spacing" textLength="33" x="35.7" y="77.2863">TimeUnit</text><line style="stroke:#181818;stroke-width:0.3;" x1="18.9" x2="69.9" y1="83.4082" y2="83.4082"/><text fill="#000000" font-family="sans-serif" font-size="8.4" lengthAdjust="spacing" textLength="22.2" x="21.9" y="94.8727">DAYS</text><text fill="#000000" font-family="sans-serif" font-size="8.4" lengthAdjust="spacing" textLength="28.8" x="21.9" y="106.0453">HOURS</text><text fill="#000000" font-family="sans-serif" font-size="8.4" lengthAdjust="spacing" textLength="35.4" x="21.9" y="117.218">MINUTES</text><text fill="#000000" font-family="sans-serif" font-size="8.4" lengthAdjust="spacing" textLength="40.2" x="21.9" y="128.3906">SECONDS</text><line style="stroke:#181818;stroke-width:0.3;" x1="18.9" x2="69.9" y1="132.8988" y2="132.8988"/></g><!--class List--><g id="elem_List"><rect codeLine="172" fill="#F1F1F1" height="140.5266" id="List" rx="1.5" ry="1.5" style="stroke:#181818;stroke-width:0.3;" width="120.6" x="277.5" y="274.2082"/><ellipse cx="325.35" cy="283.8082" fill="#ADD1B2" rx="6.6" ry="6.6" style="stroke:#181818;stroke-width:0.6;"/><path d="M327.0094,281.3332 Q327.1031,281.202 327.2156,281.1363 Q327.3281,281.0707 327.4594,281.0707 Q327.6844,281.0707 327.825,281.2301 Q327.9656,281.3801 327.9656,281.7457 L327.9656,282.6176 Q327.9656,282.9832 327.825,283.1426 Q327.6844,283.302 327.4594,283.302 Q327.2531,283.302 327.1312,283.1801 Q327.0094,283.0676 326.9437,282.7582 Q326.9156,282.5426 326.8031,282.4301 Q326.6063,282.2051 326.2406,282.0738 Q325.875,281.9426 325.5,281.9426 Q325.0406,281.9426 324.6563,282.1395 Q324.2813,282.3363 323.9813,282.7863 Q323.6906,283.2363 323.6906,283.8551 L323.6906,284.5113 Q323.6906,285.252 324.225,285.7488 Q324.7594,286.2363 325.7156,286.2363 Q326.2781,286.2363 326.6719,286.0863 Q326.9063,285.9926 327.1594,285.7301 Q327.3187,285.5707 327.4031,285.5238 Q327.4969,285.477 327.6188,285.477 Q327.8156,285.477 327.9656,285.6363 Q328.125,285.7863 328.125,285.9926 Q328.125,286.1988 327.9188,286.4426 Q327.6188,286.7895 327.1406,286.9863 Q326.4938,287.2582 325.7156,287.2582 Q324.8063,287.2582 324.0844,286.8832 Q323.4938,286.5832 323.0813,285.9457 Q322.6688,285.2988 322.6688,284.5301 L322.6688,283.8363 Q322.6688,283.0395 323.0344,282.3551 Q323.4094,281.6613 324.0656,281.2957 Q324.7219,280.9207 325.4625,280.9207 Q325.9031,280.9207 326.2875,281.0238 Q326.6813,281.1176 327.0094,281.3332 Z " fill="#000000"/><text fill="#000000" font-family="sans-serif" font-size="8.4" lengthAdjust="spacing" textLength="13.2" x="337.65" y="287.2863">List</text><rect fill="#FFFFFF" height="10.7766" style="stroke:#181818;stroke-width:0.6;stroke-dasharray:2.0,2.0;" width="5.4" x="394.5" y="272.4082"/><text fill="#000000" font-family="sans-serif" font-size="7.2" font-style="italic" lengthAdjust="spacing" textLength="4.2" x="395.1" y="280.7777">T</text><line style="stroke:#181818;stroke-width:0.3;" x1="278.1" x2="397.5" y1="293.4082" y2="293.4082"/><rect fill="none" height="3.6" style="stroke:#C82930;stroke-width:0.6;" width="3.6" x="282.3" y="300.4945"/><text fill="#000000" font-family="sans-serif" font-size="8.4" lengthAdjust="spacing" textLength="63.6" x="289.5" y="304.8727">list: ArrayList&lt;T&gt;</text><line style="stroke:#181818;stroke-width:0.3;" x1="278.1" x2="397.5" y1="309.3809" y2="309.3809"/><ellipse cx="284.1" cy="318.2672" fill="#84BE84" rx="1.8" ry="1.8" style="stroke:#038048;stroke-width:0.6;"/><text fill="#000000" font-family="sans-serif" font-size="8.4" lengthAdjust="spacing" textLength="19.2" x="289.5" y="320.8453">List()</text><ellipse cx="284.1" cy="329.4398" fill="#84BE84" rx="1.8" ry="1.8" style="stroke:#038048;stroke-width:0.6;"/><text fill="#000000" font-family="sans-serif" font-size="8.4" lengthAdjust="spacing" textLength="47.4" x="289.5" y="332.018">getSize(): int</text><ellipse cx="284.1" cy="340.6125" fill="#84BE84" rx="1.8" ry="1.8" style="stroke:#038048;stroke-width:0.6;"/><text fill="#000000" font-family="sans-serif" font-size="8.4" lengthAdjust="spacing" textLength="53.4" x="289.5" y="343.1906">add(t: T): void</text><ellipse cx="284.1" cy="351.7852" fill="#84BE84" rx="1.8" ry="1.8" style="stroke:#038048;stroke-width:0.6;"/><text fill="#000000" font-family="sans-serif" font-size="8.4" lengthAdjust="spacing" textLength="62.4" x="289.5" y="354.3633">delete(t: T): void</text><ellipse cx="284.1" cy="362.9578" fill="#84BE84" rx="1.8" ry="1.8" style="stroke:#038048;stroke-width:0.6;"/><text fill="#000000" font-family="sans-serif" font-size="8.4" lengthAdjust="spacing" textLength="79.2" x="289.5" y="365.5359">getAt(position: int): T</text><ellipse cx="284.1" cy="374.1305" fill="#84BE84" rx="1.8" ry="1.8" style="stroke:#038048;stroke-width:0.6;"/><text fill="#000000" font-family="sans-serif" font-size="8.4" lengthAdjust="spacing" textLength="45" x="289.5" y="376.7086">clear(): void</text><ellipse cx="284.1" cy="385.3031" fill="#84BE84" rx="1.8" ry="1.8" style="stroke:#038048;stroke-width:0.6;"/><text fill="#000000" font-family="sans-serif" font-size="8.4" lengthAdjust="spacing" textLength="70.8" x="289.5" y="387.8812">isEmpty(): boolean</text><ellipse cx="284.1" cy="396.4758" fill="#84BE84" rx="1.8" ry="1.8" style="stroke:#038048;stroke-width:0.6;"/><text fill="#000000" font-family="sans-serif" font-size="8.4" lengthAdjust="spacing" textLength="105" x="289.5" y="399.0539">getArrayList(): ArrayList&lt;T&gt;</text><ellipse cx="284.1" cy="407.6484" fill="#84BE84" rx="1.8" ry="1.8" style="stroke:#038048;stroke-width:0.6;"/><text fill="#000000" font-family="sans-serif" font-size="8.4" lengthAdjust="spacing" textLength="62.4" x="289.5" y="410.2266">toString(): String</text></g><!--class CustomerList--><g id="elem_CustomerList"><rect codeLine="51" fill="#F1F1F1" height="84.6633" id="CustomerList" rx="1.5" ry="1.5" style="stroke:#181818;stroke-width:0.3;" width="248.4" x="1236.6" y="58.5082"/><ellipse cx="1333.35" cy="68.1082" fill="#ADD1B2" rx="6.6" ry="6.6" style="stroke:#181818;stroke-width:0.6;"/><path d="M1335.0094,65.6332 Q1335.1031,65.502 1335.2156,65.4363 Q1335.3281,65.3707 1335.4594,65.3707 Q1335.6844,65.3707 1335.825,65.5301 Q1335.9656,65.6801 1335.9656,66.0457 L1335.9656,66.9176 Q1335.9656,67.2832 1335.825,67.4426 Q1335.6844,67.602 1335.4594,67.602 Q1335.2531,67.602 1335.1313,67.4801 Q1335.0094,67.3676 1334.9438,67.0582 Q1334.9156,66.8426 1334.8031,66.7301 Q1334.6063,66.5051 1334.2406,66.3738 Q1333.875,66.2426 1333.5,66.2426 Q1333.0406,66.2426 1332.6563,66.4395 Q1332.2813,66.6363 1331.9813,67.0863 Q1331.6906,67.5363 1331.6906,68.1551 L1331.6906,68.8113 Q1331.6906,69.552 1332.225,70.0488 Q1332.7594,70.5363 1333.7156,70.5363 Q1334.2781,70.5363 1334.6719,70.3863 Q1334.9063,70.2926 1335.1594,70.0301 Q1335.3188,69.8707 1335.4031,69.8238 Q1335.4969,69.777 1335.6187,69.777 Q1335.8156,69.777 1335.9656,69.9363 Q1336.125,70.0863 1336.125,70.2926 Q1336.125,70.4988 1335.9188,70.7426 Q1335.6187,71.0895 1335.1406,71.2863 Q1334.4937,71.5582 1333.7156,71.5582 Q1332.8062,71.5582 1332.0844,71.1832 Q1331.4937,70.8832 1331.0813,70.2457 Q1330.6688,69.5988 1330.6688,68.8301 L1330.6688,68.1363 Q1330.6688,67.3395 1331.0344,66.6551 Q1331.4094,65.9613 1332.0656,65.5957 Q1332.7219,65.2207 1333.4625,65.2207 Q1333.9031,65.2207 1334.2875,65.3238 Q1334.6812,65.4176 1335.0094,65.6332 Z " fill="#000000"/><text fill="#000000" font-family="sans-serif" font-size="8.4" lengthAdjust="spacing" textLength="49.8" x="1345.65" y="71.5863">CustomerList</text><line style="stroke:#181818;stroke-width:0.3;" x1="1237.2" x2="1484.4" y1="77.7082" y2="77.7082"/><rect fill="none" height="3.6" style="stroke:#C82930;stroke-width:0.6;" width="3.6" x="1241.4" y="84.7945"/><text fill="#000000" font-family="sans-serif" font-size="8.4" lengthAdjust="spacing" textLength="103.2" x="1248.6" y="89.1727">customers: List&lt;Customer&gt;</text><line style="stroke:#181818;stroke-width:0.3;" x1="1237.2" x2="1484.4" y1="93.6809" y2="93.6809"/><ellipse cx="1243.2" cy="102.5672" fill="#84BE84" rx="1.8" ry="1.8" style="stroke:#038048;stroke-width:0.6;"/><text fill="#000000" font-family="sans-serif" font-size="8.4" lengthAdjust="spacing" textLength="153.6" x="1248.6" y="105.1453">addCustomer(customer: Customer): void</text><ellipse cx="1243.2" cy="113.7398" fill="#84BE84" rx="1.8" ry="1.8" style="stroke:#038048;stroke-width:0.6;"/><text fill="#000000" font-family="sans-serif" font-size="8.4" lengthAdjust="spacing" textLength="167.4" x="1248.6" y="116.318">removeCustomer(customer: Customer): void</text><ellipse cx="1243.2" cy="124.9125" fill="#84BE84" rx="1.8" ry="1.8" style="stroke:#038048;stroke-width:0.6;"/><text fill="#000000" font-family="sans-serif" font-size="8.4" lengthAdjust="spacing" textLength="123" x="1248.6" y="127.4906">getCustomers(): List&lt;Customer&gt;</text><ellipse cx="1243.2" cy="136.0852" fill="#84BE84" rx="1.8" ry="1.8" style="stroke:#038048;stroke-width:0.6;"/><text fill="#000000" font-family="sans-serif" font-size="8.4" lengthAdjust="spacing" textLength="232.8" x="1248.6" y="138.6633">filterCustomersByType(type: CustomerType): List&lt;Customer&gt;</text></g><!--class OrderList--><g id="elem_OrderList"><rect codeLine="59" fill="#F1F1F1" height="84.6633" id="OrderList" rx="1.5" ry="1.5" style="stroke:#181818;stroke-width:0.3;" width="236.4" x="1506" y="58.5082"/><ellipse cx="1603.95" cy="68.1082" fill="#ADD1B2" rx="6.6" ry="6.6" style="stroke:#181818;stroke-width:0.6;"/><path d="M1605.6094,65.6332 Q1605.7031,65.502 1605.8156,65.4363 Q1605.9281,65.3707 1606.0594,65.3707 Q1606.2844,65.3707 1606.425,65.5301 Q1606.5656,65.6801 1606.5656,66.0457 L1606.5656,66.9176 Q1606.5656,67.2832 1606.425,67.4426 Q1606.2844,67.602 1606.0594,67.602 Q1605.8531,67.602 1605.7313,67.4801 Q1605.6094,67.3676 1605.5438,67.0582 Q1605.5156,66.8426 1605.4031,66.7301 Q1605.2063,66.5051 1604.8406,66.3738 Q1604.475,66.2426 1604.1,66.2426 Q1603.6406,66.2426 1603.2563,66.4395 Q1602.8813,66.6363 1602.5813,67.0863 Q1602.2906,67.5363 1602.2906,68.1551 L1602.2906,68.8113 Q1602.2906,69.552 1602.825,70.0488 Q1603.3594,70.5363 1604.3156,70.5363 Q1604.8781,70.5363 1605.2719,70.3863 Q1605.5063,70.2926 1605.7594,70.0301 Q1605.9188,69.8707 1606.0031,69.8238 Q1606.0969,69.777 1606.2188,69.777 Q1606.4156,69.777 1606.5656,69.9363 Q1606.725,70.0863 1606.725,70.2926 Q1606.725,70.4988 1606.5188,70.7426 Q1606.2188,71.0895 1605.7406,71.2863 Q1605.0938,71.5582 1604.3156,71.5582 Q1603.4063,71.5582 1602.6844,71.1832 Q1602.0938,70.8832 1601.6812,70.2457 Q1601.2688,69.5988 1601.2688,68.8301 L1601.2688,68.1363 Q1601.2688,67.3395 1601.6344,66.6551 Q1602.0094,65.9613 1602.6656,65.5957 Q1603.3219,65.2207 1604.0625,65.2207 Q1604.5031,65.2207 1604.8875,65.3238 Q1605.2813,65.4176 1605.6094,65.6332 Z " fill="#000000"/><text fill="#000000" font-family="sans-serif" font-size="8.4" lengthAdjust="spacing" textLength="35.4" x="1616.25" y="71.5863">OrderList</text><line style="stroke:#181818;stroke-width:0.3;" x1="1506.6" x2="1741.8" y1="77.7082" y2="77.7082"/><rect fill="none" height="3.6" style="stroke:#C82930;stroke-width:0.6;" width="3.6" x="1510.8" y="84.7945"/><text fill="#000000" font-family="sans-serif" font-size="8.4" lengthAdjust="spacing" textLength="74.4" x="1518" y="89.1727">orders: List&lt;Order&gt;</text><line style="stroke:#181818;stroke-width:0.3;" x1="1506.6" x2="1741.8" y1="93.6809" y2="93.6809"/><ellipse cx="1512.6" cy="102.5672" fill="#84BE84" rx="1.8" ry="1.8" style="stroke:#038048;stroke-width:0.6;"/><text fill="#000000" font-family="sans-serif" font-size="8.4" lengthAdjust="spacing" textLength="110.4" x="1518" y="105.1453">addOrder(order: Order): void</text><ellipse cx="1512.6" cy="113.7398" fill="#84BE84" rx="1.8" ry="1.8" style="stroke:#038048;stroke-width:0.6;"/><text fill="#000000" font-family="sans-serif" font-size="8.4" lengthAdjust="spacing" textLength="124.2" x="1518" y="116.318">removeOrder(order: Order): void</text><ellipse cx="1512.6" cy="124.9125" fill="#84BE84" rx="1.8" ry="1.8" style="stroke:#038048;stroke-width:0.6;"/><text fill="#000000" font-family="sans-serif" font-size="8.4" lengthAdjust="spacing" textLength="94.2" x="1518" y="127.4906">getOrders(): List&lt;Order&gt;</text><ellipse cx="1512.6" cy="136.0852" fill="#84BE84" rx="1.8" ry="1.8" style="stroke:#038048;stroke-width:0.6;"/><text fill="#000000" font-family="sans-serif" font-size="8.4" lengthAdjust="spacing" textLength="220.8" x="1518" y="138.6633">filterOrdersByCustomer(customer: Customer): List&lt;Order&gt;</text></g><!--class ItemList--><g id="elem_ItemList"><rect codeLine="67" fill="#F1F1F1" height="73.4906" id="ItemList" rx="1.5" ry="1.5" style="stroke:#181818;stroke-width:0.3;" width="121.8" x="1763.7" y="64.2082"/><ellipse cx="1807.65" cy="73.8082" fill="#ADD1B2" rx="6.6" ry="6.6" style="stroke:#181818;stroke-width:0.6;"/><path d="M1809.3094,71.3332 Q1809.4031,71.202 1809.5156,71.1363 Q1809.6281,71.0707 1809.7594,71.0707 Q1809.9844,71.0707 1810.125,71.2301 Q1810.2656,71.3801 1810.2656,71.7457 L1810.2656,72.6176 Q1810.2656,72.9832 1810.125,73.1426 Q1809.9844,73.302 1809.7594,73.302 Q1809.5531,73.302 1809.4312,73.1801 Q1809.3094,73.0676 1809.2437,72.7582 Q1809.2156,72.5426 1809.1031,72.4301 Q1808.9063,72.2051 1808.5406,72.0738 Q1808.175,71.9426 1807.8,71.9426 Q1807.3406,71.9426 1806.9563,72.1395 Q1806.5813,72.3363 1806.2813,72.7863 Q1805.9906,73.2363 1805.9906,73.8551 L1805.9906,74.5113 Q1805.9906,75.252 1806.525,75.7488 Q1807.0594,76.2363 1808.0156,76.2363 Q1808.5781,76.2363 1808.9719,76.0863 Q1809.2063,75.9926 1809.4594,75.7301 Q1809.6187,75.5707 1809.7031,75.5238 Q1809.7969,75.477 1809.9188,75.477 Q1810.1156,75.477 1810.2656,75.6363 Q1810.425,75.7863 1810.425,75.9926 Q1810.425,76.1988 1810.2188,76.4426 Q1809.9188,76.7895 1809.4406,76.9863 Q1808.7938,77.2582 1808.0156,77.2582 Q1807.1063,77.2582 1806.3844,76.8832 Q1805.7938,76.5832 1805.3813,75.9457 Q1804.9688,75.2988 1804.9688,74.5301 L1804.9688,73.8363 Q1804.9688,73.0395 1805.3344,72.3551 Q1805.7094,71.6613 1806.3656,71.2957 Q1807.0219,70.9207 1807.7625,70.9207 Q1808.2031,70.9207 1808.5875,71.0238 Q1808.9813,71.1176 1809.3094,71.3332 Z " fill="#000000"/><text fill="#000000" font-family="sans-serif" font-size="8.4" lengthAdjust="spacing" textLength="28.8" x="1819.95" y="77.2863">ItemList</text><line style="stroke:#181818;stroke-width:0.3;" x1="1764.3" x2="1884.9" y1="83.4082" y2="83.4082"/><rect fill="none" height="3.6" style="stroke:#C82930;stroke-width:0.6;" width="3.6" x="1768.5" y="90.4945"/><text fill="#000000" font-family="sans-serif" font-size="8.4" lengthAdjust="spacing" textLength="63" x="1775.7" y="94.8727">items: List&lt;Item&gt;</text><line style="stroke:#181818;stroke-width:0.3;" x1="1764.3" x2="1884.9" y1="99.3809" y2="99.3809"/><ellipse cx="1770.3" cy="108.2672" fill="#84BE84" rx="1.8" ry="1.8" style="stroke:#038048;stroke-width:0.6;"/><text fill="#000000" font-family="sans-serif" font-size="8.4" lengthAdjust="spacing" textLength="92.4" x="1775.7" y="110.8453">addItem(item: Item): void</text><ellipse cx="1770.3" cy="119.4398" fill="#84BE84" rx="1.8" ry="1.8" style="stroke:#038048;stroke-width:0.6;"/><text fill="#000000" font-family="sans-serif" font-size="8.4" lengthAdjust="spacing" textLength="106.2" x="1775.7" y="122.018">removeItem(item: Item): void</text><ellipse cx="1770.3" cy="130.6125" fill="#84BE84" rx="1.8" ry="1.8" style="stroke:#038048;stroke-width:0.6;"/><text fill="#000000" font-family="sans-serif" font-size="8.4" lengthAdjust="spacing" textLength="81" x="1775.7" y="133.1906">getItems(): List&lt;Item&gt;</text></g><!--class Exception--><g id="elem_Exception"><rect fill="#F1F1F1" height="28.8" id="Exception" rx="1.5" ry="1.5" style="stroke:#181818;stroke-width:0.3;" width="55.8" x="2350.5" y="968.4082"/><ellipse cx="2359.5" cy="978.0082" fill="#ADD1B2" rx="6.6" ry="6.6" style="stroke:#181818;stroke-width:0.6;"/><path d="M2361.1594,975.5332 Q2361.2531,975.402 2361.3656,975.3363 Q2361.4781,975.2707 2361.6094,975.2707 Q2361.8344,975.2707 2361.975,975.4301 Q2362.1156,975.5801 2362.1156,975.9457 L2362.1156,976.8176 Q2362.1156,977.1832 2361.975,977.3426 Q2361.8344,977.502 2361.6094,977.502 Q2361.4031,977.502 2361.2813,977.3801 Q2361.1594,977.2676 2361.0938,976.9582 Q2361.0656,976.7426 2360.9531,976.6301 Q2360.7563,976.4051 2360.3906,976.2738 Q2360.025,976.1426 2359.65,976.1426 Q2359.1906,976.1426 2358.8063,976.3395 Q2358.4313,976.5363 2358.1313,976.9863 Q2357.8406,977.4363 2357.8406,978.0551 L2357.8406,978.7113 Q2357.8406,979.452 2358.375,979.9488 Q2358.9094,980.4363 2359.8656,980.4363 Q2360.4281,980.4363 2360.8219,980.2863 Q2361.0563,980.1926 2361.3094,979.9301 Q2361.4688,979.7707 2361.5531,979.7238 Q2361.6469,979.677 2361.7687,979.677 Q2361.9656,979.677 2362.1156,979.8363 Q2362.275,979.9863 2362.275,980.1926 Q2362.275,980.3988 2362.0688,980.6426 Q2361.7687,980.9895 2361.2906,981.1863 Q2360.6437,981.4582 2359.8656,981.4582 Q2358.9562,981.4582 2358.2344,981.0832 Q2357.6437,980.7832 2357.2313,980.1457 Q2356.8188,979.4988 2356.8188,978.7301 L2356.8188,978.0363 Q2356.8188,977.2395 2357.1844,976.5551 Q2357.5594,975.8613 2358.2156,975.4957 Q2358.8719,975.1207 2359.6125,975.1207 Q2360.0531,975.1207 2360.4375,975.2238 Q2360.8312,975.3176 2361.1594,975.5332 Z " fill="#000000"/><text fill="#000000" font-family="sans-serif" font-size="8.4" lengthAdjust="spacing" textLength="36.6" x="2367.9" y="981.4863">Exception</text><line style="stroke:#181818;stroke-width:0.3;" x1="2351.1" x2="2405.7" y1="987.6082" y2="987.6082"/><line style="stroke:#181818;stroke-width:0.3;" x1="2351.1" x2="2405.7" y1="992.4082" y2="992.4082"/></g><!--class JUnit--><g id="elem_JUnit"><rect fill="#F1F1F1" height="28.8" id="JUnit" rx="1.5" ry="1.5" style="stroke:#181818;stroke-width:0.3;" width="37.2" x="2164.2" y="1161.6082"/><ellipse cx="2173.2" cy="1171.2082" fill="#ADD1B2" rx="6.6" ry="6.6" style="stroke:#181818;stroke-width:0.6;"/><path d="M2174.8594,1168.7332 Q2174.9531,1168.602 2175.0656,1168.5363 Q2175.1781,1168.4707 2175.3094,1168.4707 Q2175.5344,1168.4707 2175.675,1168.6301 Q2175.8156,1168.7801 2175.8156,1169.1457 L2175.8156,1170.0176 Q2175.8156,1170.3832 2175.675,1170.5426 Q2175.5344,1170.702 2175.3094,1170.702 Q2175.1031,1170.702 2174.9813,1170.5801 Q2174.8594,1170.4676 2174.7938,1170.1582 Q2174.7656,1169.9426 2174.6531,1169.8301 Q2174.4562,1169.6051 2174.0906,1169.4738 Q2173.725,1169.3426 2173.35,1169.3426 Q2172.8906,1169.3426 2172.5063,1169.5395 Q2172.1313,1169.7363 2171.8312,1170.1863 Q2171.5406,1170.6363 2171.5406,1171.2551 L2171.5406,1171.9113 Q2171.5406,1172.652 2172.075,1173.1488 Q2172.6094,1173.6363 2173.5656,1173.6363 Q2174.1281,1173.6363 2174.5219,1173.4863 Q2174.7563,1173.3926 2175.0094,1173.1301 Q2175.1688,1172.9707 2175.2531,1172.9238 Q2175.3469,1172.877 2175.4688,1172.877 Q2175.6656,1172.877 2175.8156,1173.0363 Q2175.975,1173.1863 2175.975,1173.3926 Q2175.975,1173.5988 2175.7687,1173.8426 Q2175.4688,1174.1895 2174.9906,1174.3863 Q2174.3438,1174.6582 2173.5656,1174.6582 Q2172.6563,1174.6582 2171.9344,1174.2832 Q2171.3438,1173.9832 2170.9313,1173.3457 Q2170.5187,1172.6988 2170.5187,1171.9301 L2170.5187,1171.2363 Q2170.5187,1170.4395 2170.8844,1169.7551 Q2171.2594,1169.0613 2171.9156,1168.6957 Q2172.5719,1168.3207 2173.3125,1168.3207 Q2173.7531,1168.3207 2174.1375,1168.4238 Q2174.5313,1168.5176 2174.8594,1168.7332 Z " fill="#000000"/><text fill="#000000" font-family="sans-serif" font-size="8.4" lengthAdjust="spacing" textLength="18" x="2181.6" y="1174.6863">JUnit</text><line style="stroke:#181818;stroke-width:0.3;" x1="2164.8" x2="2200.8" y1="1180.8082" y2="1180.8082"/><line style="stroke:#181818;stroke-width:0.3;" x1="2164.8" x2="2200.8" y1="1185.6082" y2="1185.6082"/></g><!--reverse link Customer to Order--><g id="link_Customer_Order"><path codeLine="185" d="M1334.0078,475.3914 C1351.3778,490.8414 1363.878,501.9622 1381.584,517.7062 " fill="none" id="Customer-backto-Order" style="stroke:#181818;stroke-width:0.6;"/><polygon fill="none" points="1328.628,470.6062,1329.7229,474.792,1334.0078,475.3914,1332.913,471.2055,1328.628,470.6062" style="stroke:#181818;stroke-width:0.6;"/><text fill="#000000" font-family="sans-serif" font-size="7.8" lengthAdjust="spacing" textLength="24" x="1357.8" y="497.4252">Places</text></g><!--link StandardCustomer to Customer--><g id="link_StandardCustomer_Customer"><path codeLine="186" d="M1080.864,126.4342 C1091.802,148.7542 1103.9395,173.5141 1121.0695,208.4701 " fill="none" id="StandardCustomer-to-Customer" style="stroke:#181818;stroke-width:0.6;"/><polygon fill="none" points="1125.822,218.1682,1124.3022,206.8859,1117.8368,210.0543,1125.822,218.1682" style="stroke:#181818;stroke-width:0.6;"/></g><!--link PremiumCustomer to Customer--><g id="link_PremiumCustomer_Customer"><path codeLine="187" d="M788.202,143.2162 C833.418,165.9322 882.2016,190.4536 940.3476,219.6676 " fill="none" id="PremiumCustomer-to-Customer" style="stroke:#181818;stroke-width:0.6;"/><polygon fill="none" points="949.998,224.5162,941.9638,216.4508,938.7314,222.8844,949.998,224.5162" style="stroke:#181818;stroke-width:0.6;"/></g><!--link Order to Item--><g id="link_Order_Item"><path codeLine="188" d="M1580.376,814.8622 C1583.844,830.7022 1585.8026,839.6407 1589.1866,855.1027 " fill="none" id="Order-to-Item" style="stroke:#181818;stroke-width:0.6;"/><polygon fill="none" points="1590.726,862.1362,1592.3008,858.1063,1589.1866,855.1027,1587.6118,859.1326,1590.726,862.1362" style="stroke:#181818;stroke-width:0.6;"/><text fill="#000000" font-family="sans-serif" font-size="7.8" lengthAdjust="spacing" textLength="30.6" x="1587.6" y="841.8252">Contains</text></g><!--link Data to List--><g id="link_Data_List"><path codeLine="189" d="M337.8,171.0322 C337.8,203.3482 337.8,234.4702 337.8,266.8042 " fill="none" id="Data-to-List" style="stroke:#181818;stroke-width:0.6;"/><polygon fill="#181818" points="337.8,274.0042,340.2,270.4042,337.8,266.8042,335.4,270.4042,337.8,274.0042" style="stroke:#181818;stroke-width:0.6;"/><text fill="#000000" font-family="sans-serif" font-size="7.8" lengthAdjust="spacing" textLength="30.6" x="338.4" y="198.0252">Contains</text><text fill="#000000" font-family="sans-serif" font-size="7.8" lengthAdjust="spacing" textLength="4.2" x="333.4655" y="184.2762">1</text><text fill="#000000" font-family="sans-serif" font-size="7.8" lengthAdjust="spacing" textLength="3" x="334.7039" y="267.3858">*</text></g><!--link CustomerList to Customer--><g id="link_CustomerList_Customer"><path codeLine="190" d="M1330.794,143.3542 C1315.722,164.4262 1300.7646,185.33 1281.4146,212.384 " fill="none" id="CustomerList-to-Customer" style="stroke:#181818;stroke-width:0.6;"/><polygon fill="#181818" points="1277.226,218.2402,1281.2724,216.7083,1281.4146,212.384,1277.3682,213.9159,1277.226,218.2402" style="stroke:#181818;stroke-width:0.6;"/><text fill="#000000" font-family="sans-serif" font-size="7.8" lengthAdjust="spacing" textLength="30.6" x="1295.4" y="198.0252">Contains</text><text fill="#000000" font-family="sans-serif" font-size="7.8" lengthAdjust="spacing" textLength="4.2" x="1323.5339" y="156.3178">1</text><text fill="#000000" font-family="sans-serif" font-size="7.8" lengthAdjust="spacing" textLength="3" x="1277.4002" y="211.7383">*</text></g><!--link OrderList to Order--><g id="link_OrderList_Order"><path codeLine="191" d="M1618.566,143.1322 C1608.036,221.1202 1585.8635,385.303 1568.9435,510.601 " fill="none" id="OrderList-to-Order" style="stroke:#181818;stroke-width:0.6;"/><polygon fill="#181818" points="1567.98,517.7362,1570.8402,514.4898,1568.9435,510.601,1566.0834,513.8474,1567.98,517.7362" style="stroke:#181818;stroke-width:0.6;"/><text fill="#000000" font-family="sans-serif" font-size="7.8" lengthAdjust="spacing" textLength="30.6" x="1608.6" y="347.7252">Contains</text><text fill="#000000" font-family="sans-serif" font-size="7.8" lengthAdjust="spacing" textLength="4.2" x="1613.5684" y="156.4455">1</text><text fill="#000000" font-family="sans-serif" font-size="7.8" lengthAdjust="spacing" textLength="3" x="1565.5864" y="510.9146">*</text></g><!--link ItemList to Item--><g id="link_ItemList_Item"><path codeLine="192" d="M1833.9,137.4862 C1859.946,246.2602 1924.71,578.0782 1813.2,814.8082 C1805.28,831.6202 1799.3548,841.8213 1787.3068,856.4313 " fill="none" id="ItemList-to-Item" style="stroke:#181818;stroke-width:0.6;"/><polygon fill="#181818" points="1782.726,861.9862,1786.868,860.7357,1787.3068,856.4313,1783.1648,857.6818,1782.726,861.9862" style="stroke:#181818;stroke-width:0.6;"/><text fill="#000000" font-family="sans-serif" font-size="7.8" lengthAdjust="spacing" textLength="30.6" x="1877.4" y="497.4252">Contains</text><text fill="#000000" font-family="sans-serif" font-size="7.8" lengthAdjust="spacing" textLength="4.2" x="1830.5775" y="150.9878">1</text><text fill="#000000" font-family="sans-serif" font-size="7.8" lengthAdjust="spacing" textLength="3" x="1786.1411" y="855.2901">*</text></g><!--reverse link Model to Controller--><g id="link_Model_Controller"><path codeLine="195" d="M1925.2786,109.4404 C1925.6309,109.7055 1920.7625,106.0423 1921.1468,106.3314 C1921.9153,106.9097 1922.7472,107.5357 1923.6401,108.2074 C1925.4258,109.551 1927.4554,111.0781 1929.7102,112.7745 C1938.7291,119.5601 1951.35,129.0556 1966.3721,140.3575 C1996.4164,162.9613 2036.0655,192.7908 2075.7135,222.6195 C2115.3615,252.4481 2155.0084,282.2758 2185.0481,304.8758 C2192.5581,310.5258 2199.4676,315.7241 2205.6265,320.3577 C2207.1662,321.5161 2208.6591,322.6392 2210.1027,323.7253 C2210.8244,324.2683 2211.5339,324.8021 2212.2308,325.3264 C2212.5792,325.5885 2212.9245,325.8483 2213.2666,326.1057 C2213.4376,326.2344 2213.6079,326.3624 2213.7773,326.4899 " fill="none" id="Model-backto-Controller" style="stroke:#181818;stroke-width:0.6;"/><polygon fill="none" points="1919.5253,105.1114,1920.959,109.1937,1925.2786,109.4404,1923.8449,105.3581,1919.5253,105.1114" style="stroke:#181818;stroke-width:0.6;"/><text fill="#000000" font-family="sans-serif" font-size="7.8" lengthAdjust="spacing" textLength="48.6" x="2038.2" y="198.0252">Aggregates[1]</text></g><!--reverse link Controller to View--><g id="link_Controller_View"><path codeLine="196" d="M2338.8004,512.8077 C2339.8244,515.4016 2339.6526,515.2201 2340.6,517.8082 C2346.234,533.1982 2350.5484,549.9705 2353.8515,566.5126 C2355.503,574.7837 2356.9017,582.9973 2358.0862,590.9518 C2358.6784,594.9291 2359.2171,598.8416 2359.707,602.6641 C2359.7376,602.903 2359.768,603.1416 2359.7983,603.3798 " fill="none" id="Controller-backto-View" style="stroke:#181818;stroke-width:0.6;"/><polygon fill="none" points="2336.0783,506.1421,2335.2175,510.3823,2338.8004,512.8077,2339.6612,508.5675,2336.0783,506.1421" style="stroke:#181818;stroke-width:0.6;"/><text fill="#000000" font-family="sans-serif" font-size="7.8" lengthAdjust="spacing" textLength="48.6" x="2332.8" y="497.4252">Aggregates[1]</text></g><!--link Controller to ExceptionHandler--><g id="link_Controller_ExceptionHandler"><path codeLine="197" d="M2236.752,345.0802 C2234.766,347.9662 2170.83,441.0202 2122.8,517.8082 C2094.39,563.2222 2064.5457,614.5449 2048.1777,643.0269 " fill="none" id="Controller-to-ExceptionHandler" style="stroke:#181818;stroke-width:0.6;"/><polygon fill="#181818" points="2046.384,646.1482,2051.1555,642.6621,2047.8788,643.5471,2046.9937,640.2704,2046.384,646.1482" style="stroke:#181818;stroke-width:0.6;"/><text fill="#000000" font-family="sans-serif" font-size="7.8" lengthAdjust="spacing" textLength="18" x="2141.4" y="497.4252">Uses</text></g><!--link Controller to TestController--><g id="link_Controller_TestController"><path codeLine="198" d="M2236.818,345.0562 C2238.318,349.1842 2334.096,613.9222 2280,814.8082 C2264.184,873.5422 2224.3606,930.0711 2201.0866,959.8131 " fill="none" id="Controller-to-TestController" style="stroke:#181818;stroke-width:0.6;"/><polygon fill="#181818" points="2198.868,962.6482,2204.0859,959.8746,2200.7168,960.2856,2200.3058,956.9165,2198.868,962.6482" style="stroke:#181818;stroke-width:0.6;"/><text fill="#000000" font-family="sans-serif" font-size="7.8" lengthAdjust="spacing" textLength="18" x="2296.8" y="669.6252">Uses</text></g><!--reverse link ExceptionHandler to TestController--><g id="link_ExceptionHandler_TestController"><path codeLine="199" d="M2031.3887,697.3311 C2027.7107,731.2191 2025.132,791.3002 2049,844.2082 C2072.058,895.3102 2122.476,938.7742 2154.414,962.6122 " fill="none" id="ExceptionHandler-backto-TestController" style="stroke:#181818;stroke-width:0.6;"/><polygon fill="none" points="2032.554,686.5942,2027.8097,696.9427,2034.9677,697.7196,2032.554,686.5942" style="stroke:#181818;stroke-width:0.6;"/><text fill="#000000" font-family="sans-serif" font-size="7.8" lengthAdjust="spacing" textLength="40.2" x="2049.6" y="841.8252">Implements</text></g><!--link ExceptionHandler to Exception--><g id="link_ExceptionHandler_Exception"><path codeLine="200" d="M2041.56,686.6062 C2052.81,718.3402 2079.234,780.6502 2122.8,814.8082 C2180.022,859.6762 2218.872,821.9062 2279.4,862.2082 C2322.222,890.7262 2354.3239,940.1384 2368.8739,965.1524 " fill="none" id="ExceptionHandler-to-Exception" style="stroke:#181818;stroke-width:0.6;"/><polygon fill="#181818" points="2370.684,968.2642,2370.0434,962.3897,2369.1756,965.671,2365.8943,964.8032,2370.684,968.2642" style="stroke:#181818;stroke-width:0.6;"/><text fill="#000000" font-family="sans-serif" font-size="7.8" lengthAdjust="spacing" textLength="24.6" x="2236.2" y="841.8252">Throws</text></g><!--link TestController to JUnit--><g id="link_TestController_JUnit"><path codeLine="201" d="M2182.8,1003.0522 C2182.8,1041.9502 2182.8,1124.3182 2182.8,1157.9422 " fill="none" id="TestController-to-JUnit" style="stroke:#181818;stroke-width:0.6;"/><polygon fill="#181818" points="2182.8,1161.5422,2185.2,1156.1422,2182.8,1158.5422,2180.4,1156.1422,2182.8,1161.5422" style="stroke:#181818;stroke-width:0.6;"/><text fill="#000000" font-family="sans-serif" font-size="7.8" lengthAdjust="spacing" textLength="18" x="2183.4" y="1141.2252">Uses</text></g><!--SRC=[nLXBRnit4BxhLn2wH8wqDN9T10OSIqLSL9PhoGM280TwbvM9xgia5KT9_D_Bn-vo-DYDt1pgWw7bV1pEV3D33ldgKOY6f-VdJO4hSIYBNxAwFCyAp7cIKxndk9nC6fpzZVS4JV-av6cAlasG_DCOjAaAMf6jg1bfn-NVDowmeDapcfUOLZFCzZn5My5ejV_uwIn5dskQQ-mpqBJ6bLnZixLgK8AokXAiBWh2KdJL_-u1ytxMx2ms69yUXPRjZxGVWZ1sg6RGS3rgfbmTkAXBmlWGu5gGSb2uORa_zNdo32YtPhl4st58M8u5Jj5I_hSBMIGa2OpQIN7v68lIL6lJwaj66a7hwZskSjUo-QCUwX4pyYMrUDTze757k8XwEfSHKS8nwjPrJWgNDUKav2lhWlSxvK9wrtwgBmkgTOmCGiVB5LCLNoDLeNQ4SxKWf5r_ZwowGD7L5YYoYgys6iSz4Kw6HbrKA9k9eOzAtgTnwAIeJN4hgVa58zd7GqtYKq1_cyd08Y1quvCY9NxROIySs1pdUIVfoRMk-gLdyeUKzMVoqba-csD6_KKBGLWFVtVS7Hio4_AVNKGD3Qjf2GIxRHSPdoUJDAqYZGePqiCpZMnZF4BCYM0dRmONDqmOuBlZEESn9G4FNGhwDEWYQNKeJ4Y26fqfcCdZ4GPEGSAoY2pw3Ci0Ft31S2Qyh8UxKOLBubIG7fLMCy9vAA1vE4RaYLk4moKf7oJvZxJvbSWbylhmK91m6zm5oGaEX2viqCe5ygoJ6rLkVplMB53KYWKQNjtTnsxamjuMeqMy5K73WkDMphyqfWwewAIUGp55r_c03YcmxiTchXGX0vEDpA4ifc8DILIgl60gLIucIdjCDQGUdXLk8d0FE18-VutnWy8KnbR8JW6pF58WSr_sdtFnx6KstSejWHxAMCqgMXivQKbvLXyg4SR3c_mJzJEqbbicMmyra2C1R53xowBexNDgHtGwBjcKXVjJJdZ6gEu5Go4dXRnax6yPpI9xLsVsLSr3yfE6aGOph1JlQ4dMj3e88jcc5UXVz5P_vdr3GnSeOg2CHyGm6oLeq0AD6EAl30uTjpobHGDxXnP1YsFblRG-3AY1Y8Z7CQLRmC5Gfa58ZBEeNi3Y3p9OGsAin_JUHkEWLd1IWWyYnmBvKvMYcnvOAhhxkZcepTkrBWax9_SwOhB7Zlrpa9TxAext5HLUyfjLvAM1A6_qzK7_Uc49cNxnp1_mNR27lJNTt6sCoGiKcjfUYK8JJosgI2yRtdoCaR4yW6BVdx5J59wWqTFpX4j7rs5szowtsnZlKDNSFo2RCUTSG4X-JEa6XaCf3NAcfwr73OJmVw_G31VPeP3MQ7C7Tp7Aht2LaGBBKIL_gEk2uEhKIYVLeNGw8r3csztbpVBoRjaFtDwjrjVtws2-yaK51inTNdxOzX_lD_TtzcjzVNE_MzdlxUfgSxFSXhsDlhViBk36K-XdXal6yB6LMaVLmCnhEEXN4eH7zZKpgMGNC9wJWWWIbwacNSoQcbDpx9Y8xK2u9EiiV4kZV5KsuXYDZDBPUQ80SRV6uzStVdMIjFjqYcuBd16kvK7FcYJVBzpYzrl8467q9abjUYRprePfPPRGBrVJDrC9U8schwSwRZx8UKg1u7vPRu9zK83epaC7sj-v8TAtLFAbNztILDkhwBBFTsaAdl9a8FPxHlQozFZ7Dvyc0p2bGRqwfobyQJvnSfBNJrLo4RvBfkYUoz3zO9ht-DXE2fIz_Ivj3B3NPLEGabGYCYEmI-9tZwn-uXDFJuVyJHU-iU1V]--></g></svg>