<?xml version="1.0" encoding="us-ascii" standalone="no"?><svg xmlns="http://www.w3.org/2000/svg" xmlns:xlink="http://www.w3.org/1999/xlink" contentStyleType="text/css" height="1361px" preserveAspectRatio="none" style="width:1162px;height:1361px;background:#FFFFFF;" version="1.1" viewBox="0 0 1162 1361" width="1162px" zoomAndPan="magnify"><defs/><g><!--cluster Interfaces--><g id="cluster_Interfaces"><path d="M44.14,6.0137 L116.14,6.0137 A3.75,3.75 0 0 1 118.64,8.5137 L125.64,30.6348 L382.64,30.6348 A2.5,2.5 0 0 1 385.14,33.1348 L385.14,157.5137 A2.5,2.5 0 0 1 382.64,160.0137 L44.14,160.0137 A2.5,2.5 0 0 1 41.64,157.5137 L41.64,8.5137 A2.5,2.5 0 0 1 44.14,6.0137 " fill="none" style="stroke:#000000;stroke-width:1.5;"/><line style="stroke:#000000;stroke-width:1.5;" x1="41.64" x2="125.64" y1="30.6348" y2="30.6348"/><text fill="#000000" font-family="sans-serif" font-size="14" font-weight="bold" lengthAdjust="spacing" textLength="71" x="45.64" y="23.1211">Interfaces</text></g><!--cluster System--><g id="cluster_System"><rect fill="none" height="1053" rx="2.5" ry="2.5" style="stroke:#181818;stroke-width:1.0;" width="918" x="238.64" y="302.0137"/><text fill="#000000" font-family="sans-serif" font-size="14" font-weight="bold" lengthAdjust="spacing" textLength="50" x="672.64" y="319.1211">System</text></g><g id="elem_Articulo"><ellipse cx="102.722" cy="126.7952" fill="#F1F1F1" rx="45.082" ry="16.2816" style="stroke:#181818;stroke-width:0.5;"/><text fill="#000000" font-family="sans-serif" font-size="14" lengthAdjust="spacing" textLength="47" x="76.222" y="131.599">Art&#237;culo</text></g><g id="elem_Pedido"><ellipse cx="102.4863" cy="59.2634" fill="#F1F1F1" rx="42.8463" ry="16.2497" style="stroke:#181818;stroke-width:0.5;"/><text fill="#000000" font-family="sans-serif" font-size="14" lengthAdjust="spacing" textLength="44" x="77.4863" y="64.0671">Pedido</text></g><!--entity Cliente--><g id="elem_Cliente"><ellipse cx="340.64" cy="79.5137" fill="#F1F1F1" rx="16" ry="16" style="stroke:#181818;stroke-width:1.5;"/><path d="M340.64,99.5137 C344.64,99.5137 347.64,99.5137 351.64,95.5137 C359.64,95.5137 367.64,103.5137 367.64,111.5137 L367.64,115.5137 C367.64,119.5137 363.64,123.5137 359.64,123.5137 L321.64,123.5137 C317.64,123.5137 313.64,119.5137 313.64,115.5137 L313.64,111.5137 C313.64,103.5137 321.64,95.5137 329.64,95.5137 C333.64,99.5137 336.64,99.5137 340.64,99.5137 " fill="#F1F1F1" style="stroke:#181818;stroke-width:1.5;"/><text fill="#000000" font-family="sans-serif" font-size="14" lengthAdjust="spacing" textLength="44" x="318.64" y="140.1211">Cliente</text></g><g id="elem_GestionArticulos"><ellipse cx="340.6479" cy="818.8153" fill="#F1F1F1" rx="79.5079" ry="18.3016" style="stroke:#181818;stroke-width:0.5;"/><text fill="#000000" font-family="sans-serif" font-size="14" lengthAdjust="spacing" textLength="107" x="284.1479" y="823.619">Gesti&#243;n Art&#237;culos</text></g><g id="elem_AnadirArticulo"><ellipse cx="678.2892" cy="889.2435" fill="#F1F1F1" rx="74.1492" ry="17.2298" style="stroke:#181818;stroke-width:0.5;"/><text fill="#000000" font-family="sans-serif" font-size="14" lengthAdjust="spacing" textLength="92" x="629.2892" y="894.0472">A&#241;adir Articulo</text></g><g id="elem_MostrarArticulos"><ellipse cx="678.2794" cy="819.2416" fill="#F1F1F1" rx="79.1394" ry="18.2279" style="stroke:#181818;stroke-width:0.5;"/><text fill="#000000" font-family="sans-serif" font-size="14" lengthAdjust="spacing" textLength="106" x="622.2794" y="824.0453">Mostrar Art&#237;culos</text></g><g id="elem_ActualizarArticulos"><ellipse cx="678.1799" cy="747.2216" fill="#F1F1F1" rx="84.0399" ry="19.208" style="stroke:#181818;stroke-width:0.5;"/><text fill="#000000" font-family="sans-serif" font-size="14" lengthAdjust="spacing" textLength="119" x="615.6799" y="752.0254">Actualizar Art&#237;culos</text></g><g id="elem_EliminarArticulos"><ellipse cx="678.0179" cy="959.8892" fill="#F1F1F1" rx="79.8779" ry="18.3756" style="stroke:#181818;stroke-width:0.5;"/><text fill="#000000" font-family="sans-serif" font-size="14" lengthAdjust="spacing" textLength="108" x="621.0179" y="964.693">Eliminar Art&#237;culos</text></g><g id="elem_Aplicar 20% de descuento"><ellipse cx="1037.6385" cy="927.0134" fill="#F1F1F1" rx="102.9985" ry="22.9997" style="stroke:#181818;stroke-width:0.5;"/><text fill="#000000" font-family="sans-serif" font-size="14" lengthAdjust="spacing" textLength="165" x="954.8841" y="930.907">Aplicar 20% de descuento</text></g><g id="elem_Pedir datos nuevo cliente"><ellipse cx="1037.4485" cy="846.0754" fill="#F1F1F1" rx="100.8085" ry="22.5617" style="stroke:#181818;stroke-width:0.5;"/><text fill="#000000" font-family="sans-serif" font-size="14" lengthAdjust="spacing" textLength="160" x="956.5787" y="850.1936">Pedir datos nuevo cliente</text></g><g id="elem_GestionClientes"><ellipse cx="340.6232" cy="1134.1103" fill="#F1F1F1" rx="85.9832" ry="19.5966" style="stroke:#181818;stroke-width:0.5;"/><text fill="#000000" font-family="sans-serif" font-size="14" lengthAdjust="spacing" textLength="124" x="275.6232" y="1138.914">Gesti&#243;n de Clientes</text></g><g id="elem_AnadirClientes"><ellipse cx="678.1811" cy="1031.0219" fill="#F1F1F1" rx="75.5411" ry="17.5082" style="stroke:#181818;stroke-width:0.5;"/><text fill="#000000" font-family="sans-serif" font-size="14" lengthAdjust="spacing" textLength="96" x="627.1811" y="1035.8256">A&#241;adir Clientes</text></g><g id="elem_MostrarClientes"><ellipse cx="678.1831" cy="1321.0223" fill="#F1F1F1" rx="78.0431" ry="18.0086" style="stroke:#181818;stroke-width:0.5;"/><text fill="#000000" font-family="sans-serif" font-size="14" lengthAdjust="spacing" textLength="103" x="623.6831" y="1325.826">Mostrar Clientes</text></g><g id="elem_MostrarClientesTipo"><ellipse cx="678.3465" cy="1247.055" fill="#F1F1F1" rx="93.2065" ry="21.0413" style="stroke:#181818;stroke-width:0.5;"/><text fill="#000000" font-family="sans-serif" font-size="14" lengthAdjust="spacing" textLength="142" x="604.3465" y="1251.8587">Mostrar Clientes Tipos</text></g><g id="elem_ActualizarCliente"><ellipse cx="678.3893" cy="1171.9635" fill="#F1F1F1" rx="80.2493" ry="18.4499" style="stroke:#181818;stroke-width:0.5;"/><text fill="#000000" font-family="sans-serif" font-size="14" lengthAdjust="spacing" textLength="109" x="620.8893" y="1176.7672">Actualizar Cliente</text></g><g id="elem_EliminarCliente"><ellipse cx="678.3876" cy="1101.1632" fill="#F1F1F1" rx="76.2476" ry="17.6495" style="stroke:#181818;stroke-width:0.5;"/><text fill="#000000" font-family="sans-serif" font-size="14" lengthAdjust="spacing" textLength="98" x="626.3876" y="1105.9669">Eliminar Cliente</text></g><g id="elem_GestionPedidos"><ellipse cx="340.6232" cy="498.1103" fill="#F1F1F1" rx="85.9832" ry="19.5966" style="stroke:#181818;stroke-width:0.5;"/><text fill="#000000" font-family="sans-serif" font-size="14" lengthAdjust="spacing" textLength="124" x="275.6232" y="502.914">Gesti&#243;n de Pedidos</text></g><g id="elem_AnadirPedido"><ellipse cx="678.2646" cy="427.0386" fill="#F1F1F1" rx="73.1246" ry="17.0249" style="stroke:#181818;stroke-width:0.5;"/><text fill="#000000" font-family="sans-serif" font-size="14" lengthAdjust="spacing" textLength="89" x="630.7646" y="431.8423">A&#241;adir Pedido</text></g><g id="elem_EliminarPedido"><ellipse cx="678.3876" cy="357.1632" fill="#F1F1F1" rx="76.2476" ry="17.6495" style="stroke:#181818;stroke-width:0.5;"/><text fill="#000000" font-family="sans-serif" font-size="14" lengthAdjust="spacing" textLength="98" x="626.3876" y="361.9669">Eliminar Pedido</text></g><g id="elem_MostrarPedidosPend"><ellipse cx="678.1549" cy="662.8166" fill="#F1F1F1" rx="134.5149" ry="29.303" style="stroke:#181818;stroke-width:0.5;"/><text fill="#000000" font-family="sans-serif" font-size="14" lengthAdjust="spacing" textLength="234" x="561.1549" y="666.6135">Mostrar pedidos pendientes de env&#237;o</text></g><g id="elem_MostrarPedidosEnviados"><ellipse cx="678.2588" cy="574.8374" fill="#F1F1F1" rx="102.1188" ry="22.8238" style="stroke:#181818;stroke-width:0.5;"/><text fill="#000000" font-family="sans-serif" font-size="14" lengthAdjust="spacing" textLength="163" x="596.2614" y="578.8213">Mostrar pedidos enviados</text></g><g id="elem_ActualizarPedido"><ellipse cx="678.3893" cy="497.9635" fill="#F1F1F1" rx="80.2493" ry="18.4499" style="stroke:#181818;stroke-width:0.5;"/><text fill="#000000" font-family="sans-serif" font-size="14" lengthAdjust="spacing" textLength="109" x="620.8893" y="502.7672">Actualizar Pedido</text></g><g id="elem_Use"><ellipse cx="678.0661" cy="231.7989" fill="#F1F1F1" rx="84.4261" ry="19.2852" style="stroke:#181818;stroke-width:0.5;"/><text fill="#000000" font-family="sans-serif" font-size="14" lengthAdjust="spacing" textLength="120" x="615.0661" y="236.6026">Use the application</text></g><!--entity User--><g id="elem_User"><ellipse cx="102.64" cy="431.5137" fill="#F1F1F1" rx="16" ry="16" style="stroke:#181818;stroke-width:1.5;"/><path d="M102.64,451.5137 C106.64,451.5137 109.64,451.5137 113.64,447.5137 C121.64,447.5137 129.64,455.5137 129.64,463.5137 L129.64,467.5137 C129.64,471.5137 125.64,475.5137 121.64,475.5137 L83.64,475.5137 C79.64,475.5137 75.64,471.5137 75.64,467.5137 L75.64,463.5137 C75.64,455.5137 83.64,447.5137 91.64,447.5137 C95.64,451.5137 98.64,451.5137 102.64,451.5137 " fill="#F1F1F1" style="stroke:#181818;stroke-width:1.5;"/><text fill="#000000" font-family="sans-serif" font-size="14" lengthAdjust="spacing" textLength="29" x="88.14" y="492.1211">User</text></g><g id="elem_Start"><ellipse cx="102.8385" cy="664.1808" fill="#F1F1F1" rx="32.6985" ry="16.1671" style="stroke:#181818;stroke-width:0.5;"/><text fill="#000000" font-family="sans-serif" font-size="14" lengthAdjust="spacing" textLength="30" x="87.8385" y="667.9776">Start</text></g><!--entity Admin--><g id="elem_Admin"><ellipse cx="102.64" cy="548.5137" fill="#F1F1F1" rx="16" ry="16" style="stroke:#181818;stroke-width:1.5;"/><path d="M102.64,568.5137 C106.64,568.5137 109.64,568.5137 113.64,564.5137 C121.64,564.5137 129.64,572.5137 129.64,580.5137 L129.64,584.5137 C129.64,588.5137 125.64,592.5137 121.64,592.5137 L83.64,592.5137 C79.64,592.5137 75.64,588.5137 75.64,584.5137 L75.64,580.5137 C75.64,572.5137 83.64,564.5137 91.64,564.5137 C95.64,568.5137 98.64,568.5137 102.64,568.5137 " fill="#F1F1F1" style="stroke:#181818;stroke-width:1.5;"/><text fill="#000000" font-family="sans-serif" font-size="14" lengthAdjust="spacing" textLength="39" x="83.14" y="609.1211">Admin</text></g><!--link User to Start--><g id="link_User_Start"><path d="M74.1,470.5137 C53.79,483.4537 28.44,504.0337 18.64,530.5137 C6,564.6937 6,578.3337 18.64,612.5137 C27.25,635.7737 47.3872,647.2306 68.1472,654.5006 " fill="none" id="User-to-Start" style="stroke:#181818;stroke-width:1.0;"/><polygon fill="#181818" points="73.81,656.4837,66.6378,649.7339,69.091,654.8311,63.9937,657.2843,73.81,656.4837" style="stroke:#181818;stroke-width:1.0;"/></g><!--link User to Use--><g id="link_User_Use"><path d="M104.75,413.6137 C108.57,363.6537 123.32,281.4737 177.64,242.0137 C313.96,142.9937 525.2318,186.832 622.0018,214.542 " fill="none" id="User-to-Use" style="stroke:#181818;stroke-width:1.0;"/><polygon fill="#181818" points="627.77,216.1937,620.2189,209.8707,622.9632,214.8172,618.0166,217.5616,627.77,216.1937" style="stroke:#181818;stroke-width:1.0;"/></g><!--link Admin to Start--><g id="link_Admin_Start"><path d="M102.64,613.1837 C102.64,624.7337 102.64,630.2937 102.64,641.8437 " fill="none" id="Admin-to-Start" style="stroke:#181818;stroke-width:1.0;"/><polygon fill="#181818" points="102.64,647.8437,106.64,638.8437,102.64,642.8437,98.64,638.8437,102.64,647.8437" style="stroke:#181818;stroke-width:1.0;"/></g><!--link Admin to Use--><g id="link_Admin_Use"><path d="M131.15,538.0237 C136.98,530.0637 142.82,521.4437 147.64,513.0137 C193.45,433.0537 158.78,380.7037 230.64,323.0137 C335.67,238.7037 492.4804,226.2134 589.7704,227.3534 " fill="none" id="Admin-to-Use" style="stroke:#181818;stroke-width:1.0;"/><polygon fill="#181818" points="595.77,227.4237,586.8175,223.3185,590.7703,227.3651,586.7238,231.3179,595.77,227.4237" style="stroke:#181818;stroke-width:1.0;"/></g><!--link Admin to GestionArticulos--><g id="link_Admin_GestionArticulos"><path d="M131.18,600.8337 C180.3,652.2437 277.555,754.0256 318.145,796.5056 " fill="none" id="Admin-to-GestionArticulos" style="stroke:#181818;stroke-width:1.0;"/><polygon fill="#181818" points="322.29,800.8437,318.9645,791.5732,318.8358,797.2286,313.1804,797.1,322.29,800.8437" style="stroke:#181818;stroke-width:1.0;"/><text fill="#000000" font-family="sans-serif" font-size="13" lengthAdjust="spacing" textLength="43" x="178.64" y="648.042">Realiza</text></g><!--link Admin to GestionClientes--><g id="link_Admin_GestionClientes"><path d="M131.27,604.4637 C137.22,612.4737 143.09,621.2737 147.64,630.0137 C167.72,668.5237 163.01,682.1237 177.64,723.0137 C232.18,875.3737 304.554,1050.2487 329.124,1108.9687 " fill="none" id="Admin-to-GestionClientes" style="stroke:#181818;stroke-width:1.0;"/><polygon fill="#181818" points="331.44,1114.5037,331.656,1104.6572,329.51,1109.8912,324.276,1107.7452,331.44,1114.5037" style="stroke:#181818;stroke-width:1.0;"/><text fill="#000000" font-family="sans-serif" font-size="13" lengthAdjust="spacing" textLength="43" x="178.64" y="719.042">Realiza</text></g><!--link Admin to GestionPedidos--><g id="link_Admin_GestionPedidos"><path d="M131.18,563.3837 C169.84,551.2537 235.1748,530.7687 283.4648,515.6287 " fill="none" id="Admin-to-GestionPedidos" style="stroke:#181818;stroke-width:1.0;"/><polygon fill="#181818" points="289.19,513.8337,279.4055,512.7093,284.419,515.3295,281.7988,520.343,289.19,513.8337" style="stroke:#181818;stroke-width:1.0;"/><text fill="#000000" font-family="sans-serif" font-size="13" lengthAdjust="spacing" textLength="43" x="178.64" y="531.042">Realiza</text></g><!--link User to GestionPedidos--><g id="link_User_GestionPedidos"><path d="M131.18,460.0337 C165.71,466.3237 220.167,476.2493 267.087,484.7893 " fill="none" id="User-to-GestionPedidos" style="stroke:#181818;stroke-width:1.0;"/><polygon fill="#181818" points="272.99,485.8637,264.8518,480.3167,268.0708,484.9683,263.4192,488.1874,272.99,485.8637" style="stroke:#181818;stroke-width:1.0;"/><text fill="#000000" font-family="sans-serif" font-size="13" lengthAdjust="spacing" textLength="43" x="178.64" y="465.042">Realiza</text></g><!--link GestionArticulos to AnadirArticulo--><g id="link_GestionArticulos_AnadirArticulo"><path d="M396.24,832.2837 C415.32,836.7937 436.89,841.7737 456.64,846.0137 C511.94,857.8937 569.4328,869.0078 614.0128,877.3678 " fill="none" id="GestionArticulos-to-AnadirArticulo" style="stroke:#181818;stroke-width:1.0;"/><polygon fill="#181818" points="619.91,878.4737,611.8015,872.8834,614.9957,877.5521,610.3269,880.7463,619.91,878.4737" style="stroke:#181818;stroke-width:1.0;"/><text fill="#000000" font-family="sans-serif" font-size="13" lengthAdjust="spacing" textLength="55" x="457.64" y="842.042">&#171;include&#187;</text></g><!--link AnadirArticulo to Aplicar 20% de descuento--><g id="link_AnadirArticulo_Aplicar 20% de descuento"><path d="M732.25,900.7037 C764.1,907.2337 805.5,914.8637 842.64,919.0137 C872.46,922.3437 898.9946,924.1 928.7546,925.26 " fill="none" id="AnadirArticulo-to-Aplicar 20% de descuento" style="stroke:#181818;stroke-width:1.0;"/><polygon fill="#181818" points="934.75,925.4937,925.9126,921.1462,929.7538,925.2989,925.601,929.1401,934.75,925.4937" style="stroke:#181818;stroke-width:1.0;"/><text fill="#000000" font-family="sans-serif" font-size="13" lengthAdjust="spacing" textLength="60" x="843.64" y="915.042">&#171;extends&#187;</text></g><!--link AnadirArticulo to Pedir datos nuevo cliente--><g id="link_AnadirArticulo_Pedir datos nuevo cliente"><path d="M744.3,881.1737 C801.5,874.2937 879.2329,864.9501 942.4229,857.3501 " fill="none" id="AnadirArticulo-to-Pedir datos nuevo cliente" style="stroke:#181818;stroke-width:1.0;"/><polygon fill="#181818" points="948.38,856.6337,938.9667,853.737,943.4158,857.2307,939.922,861.6798,948.38,856.6337" style="stroke:#181818;stroke-width:1.0;"/><text fill="#000000" font-family="sans-serif" font-size="13" lengthAdjust="spacing" textLength="60" x="843.64" y="859.042">&#171;extends&#187;</text></g><!--link GestionArticulos to MostrarArticulos--><g id="link_GestionArticulos_MostrarArticulos"><path d="M420.3,819.0137 C474.15,819.0137 539.24,819.0137 592.98,819.0137 " fill="none" id="GestionArticulos-to-MostrarArticulos" style="stroke:#181818;stroke-width:1.0;"/><polygon fill="#181818" points="598.98,819.0137,589.98,815.0137,593.98,819.0137,589.98,823.0137,598.98,819.0137" style="stroke:#181818;stroke-width:1.0;"/><text fill="#000000" font-family="sans-serif" font-size="13" lengthAdjust="spacing" textLength="55" x="457.64" y="815.042">&#171;include&#187;</text></g><!--link GestionArticulos to ActualizarArticulos--><g id="link_GestionArticulos_ActualizarArticulos"><path d="M396.55,805.7737 C415.56,801.2837 437.01,796.3237 456.64,792.0137 C509.5,780.4137 563.8151,769.3632 607.9451,760.5932 " fill="none" id="GestionArticulos-to-ActualizarArticulos" style="stroke:#181818;stroke-width:1.0;"/><polygon fill="#181818" points="613.83,759.4237,604.2229,757.2547,608.9259,760.3983,605.7823,765.1012,613.83,759.4237" style="stroke:#181818;stroke-width:1.0;"/><text fill="#000000" font-family="sans-serif" font-size="13" lengthAdjust="spacing" textLength="55" x="457.64" y="777.042">&#171;include&#187;</text></g><!--link GestionArticulos to EliminarArticulos--><g id="link_GestionArticulos_EliminarArticulos"><path d="M370,836.4437 C392.99,850.2937 426.42,869.7937 456.64,885.0137 C494.33,903.9837 503.88,908.9037 543.64,923.0137 C569.14,932.0637 592.2071,938.7785 616.5571,945.1785 " fill="none" id="GestionArticulos-to-EliminarArticulos" style="stroke:#181818;stroke-width:1.0;"/><polygon fill="#181818" points="622.36,946.7037,614.6724,940.5473,617.5242,945.4327,612.6388,948.2845,622.36,946.7037" style="stroke:#181818;stroke-width:1.0;"/><text fill="#000000" font-family="sans-serif" font-size="13" lengthAdjust="spacing" textLength="55" x="457.64" y="881.042">&#171;include&#187;</text></g><!--link GestionClientes to AnadirClientes--><g id="link_GestionClientes_AnadirClientes"><path d="M384.23,1117.1837 C405.79,1108.8937 432.46,1098.9937 456.64,1091.0137 C513.53,1072.2337 574.1978,1056.1834 619.1778,1044.9834 " fill="none" id="GestionClientes-to-AnadirClientes" style="stroke:#181818;stroke-width:1.0;"/><polygon fill="#181818" points="625,1043.5337,615.3002,1041.8268,620.1481,1044.7418,617.2332,1049.5898,625,1043.5337" style="stroke:#181818;stroke-width:1.0;"/><text fill="#000000" font-family="sans-serif" font-size="13" lengthAdjust="spacing" textLength="55" x="457.64" y="1071.042">&#171;include&#187;</text></g><!--link GestionClientes to MostrarClientes--><g id="link_GestionClientes_MostrarClientes"><path d="M360.63,1153.0737 C394.33,1185.7237 468.18,1252.1137 543.64,1286.0137 C566.81,1296.4237 587.8401,1302.8368 611.3801,1308.3868 " fill="none" id="GestionClientes-to-MostrarClientes" style="stroke:#181818;stroke-width:1.0;"/><polygon fill="#181818" points="617.22,1309.7637,609.3781,1303.8051,612.3534,1308.6163,607.5423,1311.5916,617.22,1309.7637" style="stroke:#181818;stroke-width:1.0;"/><text fill="#000000" font-family="sans-serif" font-size="13" lengthAdjust="spacing" textLength="55" x="457.64" y="1232.042">&#171;include&#187;</text></g><!--link GestionClientes to MostrarClientesTipo--><g id="link_GestionClientes_MostrarClientesTipo"><path d="M378.69,1151.6037 C400.99,1161.8137 430.1,1174.5037 456.64,1184.0137 C509.11,1202.8237 564.3341,1218.3899 608.8641,1229.9999 " fill="none" id="GestionClientes-to-MostrarClientesTipo" style="stroke:#181818;stroke-width:1.0;"/><polygon fill="#181818" points="614.67,1231.5137,606.9703,1225.3725,609.8317,1230.2522,604.952,1233.1137,614.67,1231.5137" style="stroke:#181818;stroke-width:1.0;"/><text fill="#000000" font-family="sans-serif" font-size="13" lengthAdjust="spacing" textLength="55" x="457.64" y="1180.042">&#171;include&#187;</text></g><!--link GestionClientes to ActualizarCliente--><g id="link_GestionClientes_ActualizarCliente"><path d="M413.36,1144.4337 C427.69,1146.3837 442.63,1148.3437 456.64,1150.0137 C505.44,1155.8437 554.4765,1160.7706 597.3365,1164.8106 " fill="none" id="GestionClientes-to-ActualizarCliente" style="stroke:#181818;stroke-width:1.0;"/><polygon fill="#181818" points="603.31,1165.3737,594.7251,1160.5467,598.3321,1164.9044,593.9743,1168.5114,603.31,1165.3737" style="stroke:#181818;stroke-width:1.0;"/><text fill="#000000" font-family="sans-serif" font-size="13" lengthAdjust="spacing" textLength="55" x="457.64" y="1146.042">&#171;include&#187;</text></g><!--link GestionClientes to EliminarCliente--><g id="link_GestionClientes_EliminarCliente"><path d="M419.88,1126.3137 C476.81,1120.7237 547.2088,1113.7908 601.9288,1108.4108 " fill="none" id="GestionClientes-to-EliminarCliente" style="stroke:#181818;stroke-width:1.0;"/><polygon fill="#181818" points="607.9,1107.8237,598.5518,1104.7235,602.924,1108.3129,599.3346,1112.6851,607.9,1107.8237" style="stroke:#181818;stroke-width:1.0;"/><text fill="#000000" font-family="sans-serif" font-size="13" lengthAdjust="spacing" textLength="55" x="457.64" y="1114.042">&#171;include&#187;</text></g><!--link GestionPedidos to AnadirPedido--><g id="link_GestionPedidos_AnadirPedido"><path d="M401.57,484.2137 C419.29,480.2037 438.73,475.8637 456.64,472.0137 C512.79,459.9337 571.2763,448.0694 615.9163,439.1494 " fill="none" id="GestionPedidos-to-AnadirPedido" style="stroke:#181818;stroke-width:1.0;"/><polygon fill="#181818" points="621.8,437.9737,612.1907,435.8147,616.8969,438.9534,613.7583,443.6597,621.8,437.9737" style="stroke:#181818;stroke-width:1.0;"/><text fill="#000000" font-family="sans-serif" font-size="13" lengthAdjust="spacing" textLength="55" x="457.64" y="457.042">&#171;include&#187;</text></g><!--link GestionPedidos to MostrarPedidosPend--><g id="link_GestionPedidos_MostrarPedidosPend"><path d="M372.85,516.2637 C395.97,529.7637 428.24,548.5837 456.64,565.0137 C495.24,587.3537 503.17,596.2837 543.64,615.0137 C562.2,623.5937 577.1073,629.624 596.4173,636.604 " fill="none" id="GestionPedidos-to-MostrarPedidosPend" style="stroke:#181818;stroke-width:1.0;"/><polygon fill="#181818" points="602.06,638.6437,594.9558,631.8224,597.3578,636.944,592.2362,639.346,602.06,638.6437" style="stroke:#181818;stroke-width:1.0;"/><text fill="#000000" font-family="sans-serif" font-size="13" lengthAdjust="spacing" textLength="55" x="457.64" y="561.042">&#171;include&#187;</text></g><!--link GestionPedidos to MostrarPedidosEnviados--><g id="link_GestionPedidos_MostrarPedidosEnviados"><path d="M400.72,511.9737 C418.67,516.1937 438.46,520.8137 456.64,525.0137 C506.17,536.4437 556.1671,547.7834 599.2571,557.5034 " fill="none" id="GestionPedidos-to-MostrarPedidosEnviados" style="stroke:#181818;stroke-width:1.0;"/><polygon fill="#181818" points="605.11,558.8237,597.2108,552.9413,600.2326,557.7234,595.4504,560.7452,605.11,558.8237" style="stroke:#181818;stroke-width:1.0;"/><text fill="#000000" font-family="sans-serif" font-size="13" lengthAdjust="spacing" textLength="55" x="457.64" y="521.042">&#171;include&#187;</text></g><!--link GestionPedidos to ActualizarPedido--><g id="link_GestionPedidos_ActualizarPedido"><path d="M426.74,498.0137 C479.35,498.0137 540.42,498.0137 591.9,498.0137 " fill="none" id="GestionPedidos-to-ActualizarPedido" style="stroke:#181818;stroke-width:1.0;"/><polygon fill="#181818" points="597.9,498.0137,588.9,494.0137,592.9,498.0137,588.9,502.0137,597.9,498.0137" style="stroke:#181818;stroke-width:1.0;"/><text fill="#000000" font-family="sans-serif" font-size="13" lengthAdjust="spacing" textLength="55" x="457.64" y="494.042">&#171;include&#187;</text></g><!--link GestionPedidos to EliminarPedido--><g id="link_GestionPedidos_EliminarPedido"><path d="M370.64,479.6837 C408.9,456.2437 478.98,415.8437 543.64,392.0137 C568.94,382.6937 591.9488,376.2167 616.3388,370.3067 " fill="none" id="GestionPedidos-to-EliminarPedido" style="stroke:#181818;stroke-width:1.0;"/><polygon fill="#181818" points="622.17,368.8937,612.4811,367.1256,617.3106,370.0712,614.3651,374.9006,622.17,368.8937" style="stroke:#181818;stroke-width:1.0;"/><text fill="#000000" font-family="sans-serif" font-size="13" lengthAdjust="spacing" textLength="55" x="457.64" y="402.042">&#171;include&#187;</text></g><!--SRC=[dLH1Rjim4Bpp5NifQXyA53qAWG7328eU2WHrym12sYH4P58WwRHkaIVbKFG9_bYN8YcJb1GelTZYx0wvEqkEUHIouveVWDTMwRqzjGZy1nfrGDRYdGMhG8lx1mkDq5XReIJhUFt8xn6-I8lwZjTeu3UhjjgUN-fZgohW1bQq56wrPjKDDg89iFycSDSA97wFXc_sp5Qt1i4-K0rTrugQk_FMFP42QyReLyE73Qpsbckx3ci7-7YrRGv2zflsNwp_JHa1k71SLrpUKz_xax5ue5xUmuuRPQ11k3KAd43GSlYCnehpN-dmeLl3gW6_WBxPFg1abC9Gszlp7qvAGiI2MDA1YMHVbR6Qwz6E0SzshEsHj-BNHFObb1AkMq4IJAJ7GBPxFmODdpw-SsqtQEeZpIhMFHCDGzVGS4iwoYC-AQYJYQzcmpJ41VA76vEAdw2P-X5CnC_plFX9MXG_JmleAtdmNNHgEjj5ybcbzpyPr2wgS1bJbXdHtLlKye-k42k0cLO1IwHAtwuNQdZ1Gu5fJWI7h2XIvxUcVza4kQW8b4_d5vL95cgueRm9EX44RmgL0-Kwn7AXimu6EDRtp9o2tx3bDVMFxW2h4UZomzOv8Y6dVfMAp0ONsK3vng6YtVepnad3HNab9_IIf0mUDvinsq9MzDYEl7CMvaFxNbq9MRV71ZSRDWfxpjp3xzduqzBqp2nx_l6NzEcIInSiIvvcJRZXCkB85sTeWpNuup9RMKGfJED_ECvebfLNMiuYLc4_Cvne8uaE7bgIFxQ1jxEY4oogh_249PpSvGe6-mS0]--></g></svg>