<?xml version="1.0" encoding="us-ascii" standalone="no"?><svg xmlns="http://www.w3.org/2000/svg" xmlns:xlink="http://www.w3.org/1999/xlink" contentStyleType="text/css" height="1088.8px" preserveAspectRatio="none" style="width:667px;height:1088px;background:#FFFFFF;" version="1.1" viewBox="0 0 667 1088" width="667.2px" zoomAndPan="magnify"><defs/><g><!--cluster Interfaces--><g id="cluster_Interfaces"><path d="M35.312,4.8109 L92.912,4.8109 A3,3 0 0 1 94.912,6.8109 L100.512,24.5078 L306.112,24.5078 A2,2 0 0 1 308.112,26.5078 L308.112,126.0109 A2,2 0 0 1 306.112,128.0109 L35.312,128.0109 A2,2 0 0 1 33.312,126.0109 L33.312,6.8109 A2,2 0 0 1 35.312,4.8109 " fill="none" style="stroke:#000000;stroke-width:1.2000000000000002;"/><line style="stroke:#000000;stroke-width:1.2000000000000002;" x1="33.312" x2="100.512" y1="24.5078" y2="24.5078"/><text fill="#000000" font-family="sans-serif" font-size="11.2" font-weight="bold" lengthAdjust="spacing" textLength="56.8" x="36.512" y="18.4969">Interfaces</text></g><!--cluster System--><g id="cluster_System"><rect fill="none" height="842.4" rx="2" ry="2" style="stroke:#181818;stroke-width:0.8000000000000002;" width="472" x="190.912" y="241.6109"/><text fill="#000000" font-family="sans-serif" font-size="11.2" font-weight="bold" lengthAdjust="spacing" textLength="40" x="406.912" y="255.2969">System</text></g><g id="elem_Articulo"><ellipse cx="82.1776" cy="101.4362" fill="#F1F1F1" rx="36.0656" ry="13.0253" style="stroke:#181818;stroke-width:0.4000000000000001;"/><text fill="#000000" font-family="sans-serif" font-size="11.2" lengthAdjust="spacing" textLength="37.6" x="60.9776" y="105.2792">Art&#237;culo</text></g><g id="elem_Pedido"><ellipse cx="81.9891" cy="47.4107" fill="#F1F1F1" rx="34.2771" ry="12.9997" style="stroke:#181818;stroke-width:0.4000000000000001;"/><text fill="#000000" font-family="sans-serif" font-size="11.2" lengthAdjust="spacing" textLength="35.2" x="61.9891" y="51.2537">Pedido</text></g><!--entity Cliente--><g id="elem_Cliente"><ellipse cx="272.512" cy="63.6109" fill="#F1F1F1" rx="12.8" ry="12.8" style="stroke:#181818;stroke-width:1.2000000000000002;"/><path d="M272.512,79.6109 C275.712,79.6109 278.112,79.6109 281.312,76.4109 C287.712,76.4109 294.112,82.8109 294.112,89.2109 L294.112,92.4109 C294.112,95.6109 290.912,98.8109 287.712,98.8109 L257.312,98.8109 C254.112,98.8109 250.912,95.6109 250.912,92.4109 L250.912,89.2109 C250.912,82.8109 257.312,76.4109 263.712,76.4109 C266.912,79.6109 269.312,79.6109 272.512,79.6109 " fill="#F1F1F1" style="stroke:#181818;stroke-width:1.2000000000000002;"/><text fill="#000000" font-family="sans-serif" font-size="11.2" lengthAdjust="spacing" textLength="35.2" x="254.912" y="112.0969">Cliente</text></g><g id="elem_GestionArticulos"><ellipse cx="272.5183" cy="655.0522" fill="#F1F1F1" rx="63.6063" ry="14.6413" style="stroke:#181818;stroke-width:0.4000000000000001;"/><text fill="#000000" font-family="sans-serif" font-size="11.2" lengthAdjust="spacing" textLength="85.6" x="227.3183" y="658.8952">Gesti&#243;n Art&#237;culos</text></g><g id="elem_AnadirArticulo"><ellipse cx="542.6314" cy="711.3948" fill="#F1F1F1" rx="59.3194" ry="13.7839" style="stroke:#181818;stroke-width:0.4000000000000001;"/><text fill="#000000" font-family="sans-serif" font-size="11.2" lengthAdjust="spacing" textLength="73.6" x="503.4314" y="715.2378">A&#241;adir Articulo</text></g><g id="elem_MostrarArticulos"><ellipse cx="542.6235" cy="655.3932" fill="#F1F1F1" rx="63.3115" ry="14.5823" style="stroke:#181818;stroke-width:0.4000000000000001;"/><text fill="#000000" font-family="sans-serif" font-size="11.2" lengthAdjust="spacing" textLength="84.8" x="497.8235" y="659.2362">Mostrar Art&#237;culos</text></g><g id="elem_ActualizarArticulos"><ellipse cx="542.5439" cy="597.7773" fill="#F1F1F1" rx="67.2319" ry="15.3664" style="stroke:#181818;stroke-width:0.4000000000000001;"/><text fill="#000000" font-family="sans-serif" font-size="11.2" lengthAdjust="spacing" textLength="95.2" x="492.5439" y="601.6203">Actualizar Art&#237;culos</text></g><g id="elem_EliminarArticulos"><ellipse cx="542.4143" cy="767.9114" fill="#F1F1F1" rx="63.9023" ry="14.7005" style="stroke:#181818;stroke-width:0.4000000000000001;"/><text fill="#000000" font-family="sans-serif" font-size="11.2" lengthAdjust="spacing" textLength="86.4" x="496.8143" y="771.7544">Eliminar Art&#237;culos</text></g><g id="elem_GestionClientes"><ellipse cx="272.4986" cy="907.2882" fill="#F1F1F1" rx="68.7866" ry="15.6773" style="stroke:#181818;stroke-width:0.4000000000000001;"/><text fill="#000000" font-family="sans-serif" font-size="11.2" lengthAdjust="spacing" textLength="99.2" x="220.4986" y="911.1312">Gesti&#243;n de Clientes</text></g><g id="elem_AnadirClientes"><ellipse cx="542.5449" cy="824.8175" fill="#F1F1F1" rx="60.4329" ry="14.0066" style="stroke:#181818;stroke-width:0.4000000000000001;"/><text fill="#000000" font-family="sans-serif" font-size="11.2" lengthAdjust="spacing" textLength="76.8" x="501.7449" y="828.6605">A&#241;adir Clientes</text></g><g id="elem_MostrarClientes"><ellipse cx="542.5464" cy="1056.8178" fill="#F1F1F1" rx="62.4344" ry="14.4069" style="stroke:#181818;stroke-width:0.4000000000000001;"/><text fill="#000000" font-family="sans-serif" font-size="11.2" lengthAdjust="spacing" textLength="82.4" x="498.9464" y="1060.6608">Mostrar Clientes</text></g><g id="elem_MostrarClientesTipo"><ellipse cx="542.6772" cy="997.644" fill="#F1F1F1" rx="74.5652" ry="16.833" style="stroke:#181818;stroke-width:0.4000000000000001;"/><text fill="#000000" font-family="sans-serif" font-size="11.2" lengthAdjust="spacing" textLength="113.6" x="483.4772" y="1001.4869">Mostrar Clientes Tipos</text></g><g id="elem_ActualizarCliente"><ellipse cx="542.7115" cy="937.5708" fill="#F1F1F1" rx="64.1995" ry="14.7599" style="stroke:#181818;stroke-width:0.4000000000000001;"/><text fill="#000000" font-family="sans-serif" font-size="11.2" lengthAdjust="spacing" textLength="87.2" x="496.7115" y="941.4138">Actualizar Cliente</text></g><g id="elem_EliminarCliente"><ellipse cx="542.7101" cy="880.9306" fill="#F1F1F1" rx="60.9981" ry="14.1196" style="stroke:#181818;stroke-width:0.4000000000000001;"/><text fill="#000000" font-family="sans-serif" font-size="11.2" lengthAdjust="spacing" textLength="78.4" x="501.1101" y="884.7735">Eliminar Cliente</text></g><g id="elem_GestionPedidos"><ellipse cx="272.4986" cy="398.4882" fill="#F1F1F1" rx="68.7866" ry="15.6773" style="stroke:#181818;stroke-width:0.4000000000000001;"/><text fill="#000000" font-family="sans-serif" font-size="11.2" lengthAdjust="spacing" textLength="99.2" x="220.4986" y="402.3312">Gesti&#243;n de Pedidos</text></g><g id="elem_AnadirPedido"><ellipse cx="542.6117" cy="341.6309" fill="#F1F1F1" rx="58.4997" ry="13.6199" style="stroke:#181818;stroke-width:0.4000000000000001;"/><text fill="#000000" font-family="sans-serif" font-size="11.2" lengthAdjust="spacing" textLength="71.2" x="504.6117" y="345.4738">A&#241;adir Pedido</text></g><g id="elem_EliminarPedido"><ellipse cx="542.7101" cy="285.7306" fill="#F1F1F1" rx="60.9981" ry="14.1196" style="stroke:#181818;stroke-width:0.4000000000000001;"/><text fill="#000000" font-family="sans-serif" font-size="11.2" lengthAdjust="spacing" textLength="78.4" x="501.1101" y="289.5735">Eliminar Pedido</text></g><g id="elem_MostrarPedidosPend"><ellipse cx="542.5239" cy="530.2533" fill="#F1F1F1" rx="107.6119" ry="23.4424" style="stroke:#181818;stroke-width:0.4000000000000001;"/><text fill="#000000" font-family="sans-serif" font-size="11.2" lengthAdjust="spacing" textLength="187.2" x="448.9239" y="533.2908">Mostrar pedidos pendientes de env&#237;o</text></g><g id="elem_MostrarPedidosEnviados"><ellipse cx="542.607" cy="459.8699" fill="#F1F1F1" rx="81.695" ry="18.259" style="stroke:#181818;stroke-width:0.4000000000000001;"/><text fill="#000000" font-family="sans-serif" font-size="11.2" lengthAdjust="spacing" textLength="130.4" x="477.0091" y="463.057">Mostrar pedidos enviados</text></g><g id="elem_ActualizarPedido"><ellipse cx="542.7115" cy="398.3708" fill="#F1F1F1" rx="64.1995" ry="14.7599" style="stroke:#181818;stroke-width:0.4000000000000001;"/><text fill="#000000" font-family="sans-serif" font-size="11.2" lengthAdjust="spacing" textLength="87.2" x="496.7115" y="402.2138">Actualizar Pedido</text></g><g id="elem_Use"><ellipse cx="542.4529" cy="185.4391" fill="#F1F1F1" rx="67.5409" ry="15.4282" style="stroke:#181818;stroke-width:0.4000000000000001;"/><text fill="#000000" font-family="sans-serif" font-size="11.2" lengthAdjust="spacing" textLength="96" x="492.0529" y="189.2821">Use the application</text></g><!--entity User--><g id="elem_User"><ellipse cx="82.112" cy="345.2109" fill="#F1F1F1" rx="12.8" ry="12.8" style="stroke:#181818;stroke-width:1.2000000000000002;"/><path d="M82.112,361.2109 C85.312,361.2109 87.712,361.2109 90.912,358.0109 C97.312,358.0109 103.712,364.4109 103.712,370.8109 L103.712,374.0109 C103.712,377.2109 100.512,380.4109 97.312,380.4109 L66.912,380.4109 C63.712,380.4109 60.512,377.2109 60.512,374.0109 L60.512,370.8109 C60.512,364.4109 66.912,358.0109 73.312,358.0109 C76.512,361.2109 78.912,361.2109 82.112,361.2109 " fill="#F1F1F1" style="stroke:#181818;stroke-width:1.2000000000000002;"/><text fill="#000000" font-family="sans-serif" font-size="11.2" lengthAdjust="spacing" textLength="23.2" x="70.512" y="393.6969">User</text></g><g id="elem_Start"><ellipse cx="82.2708" cy="531.3446" fill="#F1F1F1" rx="26.1588" ry="12.9337" style="stroke:#181818;stroke-width:0.4000000000000001;"/><text fill="#000000" font-family="sans-serif" font-size="11.2" lengthAdjust="spacing" textLength="24" x="70.2708" y="534.3821">Start</text></g><!--entity Admin--><g id="elem_Admin"><ellipse cx="82.112" cy="438.8109" fill="#F1F1F1" rx="12.8" ry="12.8" style="stroke:#181818;stroke-width:1.2000000000000002;"/><path d="M82.112,454.8109 C85.312,454.8109 87.712,454.8109 90.912,451.6109 C97.312,451.6109 103.712,458.0109 103.712,464.4109 L103.712,467.6109 C103.712,470.8109 100.512,474.0109 97.312,474.0109 L66.912,474.0109 C63.712,474.0109 60.512,470.8109 60.512,467.6109 L60.512,464.4109 C60.512,458.0109 66.912,451.6109 73.312,451.6109 C76.512,454.8109 78.912,454.8109 82.112,454.8109 " fill="#F1F1F1" style="stroke:#181818;stroke-width:1.2000000000000002;"/><text fill="#000000" font-family="sans-serif" font-size="11.2" lengthAdjust="spacing" textLength="31.2" x="66.512" y="487.2969">Admin</text></g><!--link User to Start--><g id="link_User_Start"><path d="M59.28,376.4109 C43.032,386.7629 22.752,403.2269 14.912,424.4109 C4.8,451.7549 4.8,462.6669 14.912,490.0109 C21.288,507.2429 39.456,517.7309 55.296,523.8109 " fill="none" id="User-to-Start" style="stroke:#181818;stroke-width:0.8000000000000002;"/><polygon fill="#181818" points="59.048,525.1869,53.3858,519.708,55.2915,523.8126,51.1869,525.7183,59.048,525.1869" style="stroke:#181818;stroke-width:0.8000000000000002;"/></g><!--link User to Use--><g id="link_User_Use"><path d="M83.8,330.8909 C86.856,290.9229 98.656,225.1789 142.112,193.6109 C249.36,115.7069 419.048,149.6109 498.28,171.8429 " fill="none" id="User-to-Use" style="stroke:#181818;stroke-width:0.8000000000000002;"/><polygon fill="#181818" points="502.216,172.9549,496.1682,167.9048,498.369,171.8591,494.4148,174.0599,502.216,172.9549" style="stroke:#181818;stroke-width:0.8000000000000002;"/></g><!--link Admin to Start--><g id="link_Admin_Start"><path d="M82.112,490.5469 C82.112,498.4189 82.112,506.2909 82.112,514.1549 " fill="none" id="Admin-to-Start" style="stroke:#181818;stroke-width:0.8000000000000002;"/><polygon fill="#181818" points="82.112,518.2749,85.312,511.0749,82.112,514.2749,78.912,511.0749,82.112,518.2749" style="stroke:#181818;stroke-width:0.8000000000000002;"/></g><!--link Admin to Use--><g id="link_Admin_Use"><path d="M104.92,430.4189 C109.584,424.0509 114.256,417.1549 118.112,410.4109 C154.76,346.4429 127.024,304.5629 184.512,258.4109 C267.064,192.1469 394.224,181.3949 472.464,181.8989 " fill="none" id="Admin-to-Use" style="stroke:#181818;stroke-width:0.8000000000000002;"/><polygon fill="#181818" points="476.616,181.9389,469.4437,178.6773,472.6161,181.9047,469.3888,185.0771,476.616,181.9389" style="stroke:#181818;stroke-width:0.8000000000000002;"/></g><!--link Admin to GestionArticulos--><g id="link_Admin_GestionArticulos"><path d="M104.944,480.6669 C143.168,520.6669 220.952,602.0829 255.056,637.7789 " fill="none" id="Admin-to-GestionArticulos" style="stroke:#181818;stroke-width:0.8000000000000002;"/><polygon fill="#181818" points="257.832,640.6749,255.1677,633.26,255.0671,637.7844,250.5427,637.6838,257.832,640.6749" style="stroke:#181818;stroke-width:0.8000000000000002;"/><text fill="#000000" font-family="sans-serif" font-size="10.4" lengthAdjust="spacing" textLength="34.4" x="142.912" y="518.4336">Realiza</text></g><!--link Admin to GestionClientes--><g id="link_Admin_GestionClientes"><path d="M105.016,483.5709 C109.776,489.9789 114.472,497.0189 118.112,504.0109 C134.176,534.8189 130.408,545.6989 142.112,578.4109 C184.64,697.2029 242.472,837.3149 263.576,887.8349 " fill="none" id="Admin-to-GestionClientes" style="stroke:#181818;stroke-width:0.8000000000000002;"/><polygon fill="#181818" points="265.152,891.6029,265.328,883.7258,263.6095,887.9123,259.423,886.1938,265.152,891.6029" style="stroke:#181818;stroke-width:0.8000000000000002;"/><text fill="#000000" font-family="sans-serif" font-size="10.4" lengthAdjust="spacing" textLength="34.4" x="142.912" y="575.2336">Realiza</text></g><!--link Admin to GestionPedidos--><g id="link_Admin_GestionPedidos"><path d="M104.944,450.7069 C134.848,441.3229 188.968,424.3549 227.448,412.2909 " fill="none" id="Admin-to-GestionPedidos" style="stroke:#181818;stroke-width:0.8000000000000002;"/><polygon fill="#181818" points="231.352,411.0669,223.5237,410.1735,227.5361,412.2665,225.4431,416.2789,231.352,411.0669" style="stroke:#181818;stroke-width:0.8000000000000002;"/><text fill="#000000" font-family="sans-serif" font-size="10.4" lengthAdjust="spacing" textLength="34.4" x="142.912" y="424.8336">Realiza</text></g><!--link User to GestionPedidos--><g id="link_User_GestionPedidos"><path d="M104.944,368.0269 C131.592,372.8829 177.488,381.2429 214.392,387.9629 " fill="none" id="User-to-GestionPedidos" style="stroke:#181818;stroke-width:0.8000000000000002;"/><polygon fill="#181818" points="218.392,388.6909,211.8862,384.2463,214.4574,387.9704,210.7333,390.5416,218.392,388.6909" style="stroke:#181818;stroke-width:0.8000000000000002;"/><text fill="#000000" font-family="sans-serif" font-size="10.4" lengthAdjust="spacing" textLength="34.4" x="142.912" y="372.0336">Realiza</text></g><!--link GestionArticulos to AnadirArticulo--><g id="link_GestionArticulos_AnadirArticulo"><path d="M316.992,665.8269 C332.256,669.4349 349.512,673.4189 365.312,676.8109 C407.904,685.9629 456.512,695.3629 491.896,702.0189 " fill="none" id="GestionArticulos-to-AnadirArticulo" style="stroke:#181818;stroke-width:0.8000000000000002;"/><polygon fill="#181818" points="495.928,702.7789,489.4348,698.316,491.9955,702.0473,488.2642,704.608,495.928,702.7789" style="stroke:#181818;stroke-width:0.8000000000000002;"/><text fill="#000000" font-family="sans-serif" font-size="10.4" lengthAdjust="spacing" textLength="44" x="366.112" y="673.6336">&#171;include&#187;</text></g><!--link GestionArticulos to MostrarArticulos--><g id="link_GestionArticulos_MostrarArticulos"><path d="M336.24,655.2109 C377.968,655.2109 432.648,655.2109 475.112,655.2109 " fill="none" id="GestionArticulos-to-MostrarArticulos" style="stroke:#181818;stroke-width:0.8000000000000002;"/><polygon fill="#181818" points="479.184,655.2109,471.984,652.0109,475.184,655.2109,471.984,658.4109,479.184,655.2109" style="stroke:#181818;stroke-width:0.8000000000000002;"/><text fill="#000000" font-family="sans-serif" font-size="10.4" lengthAdjust="spacing" textLength="44" x="366.112" y="652.0336">&#171;include&#187;</text></g><!--link GestionArticulos to ActualizarArticulos--><g id="link_GestionArticulos_ActualizarArticulos"><path d="M317.24,644.6189 C332.448,641.0269 349.608,637.0589 365.312,633.6109 C406.032,624.6749 452.192,615.2829 487.088,608.3309 " fill="none" id="GestionArticulos-to-ActualizarArticulos" style="stroke:#181818;stroke-width:0.8000000000000002;"/><polygon fill="#181818" points="491.064,607.5389,483.3792,605.8002,487.1404,608.3168,484.6237,612.078,491.064,607.5389" style="stroke:#181818;stroke-width:0.8000000000000002;"/><text fill="#000000" font-family="sans-serif" font-size="10.4" lengthAdjust="spacing" textLength="44" x="366.112" y="621.6336">&#171;include&#187;</text></g><!--link GestionArticulos to EliminarArticulos--><g id="link_GestionArticulos_EliminarArticulos"><path d="M296,669.1549 C314.392,680.2349 341.136,695.8349 365.312,708.0109 C395.464,723.1869 403.104,727.1229 434.912,738.4109 C453.96,745.1709 475.352,751.3629 493.96,756.3229 " fill="none" id="GestionArticulos-to-EliminarArticulos" style="stroke:#181818;stroke-width:0.8000000000000002;"/><polygon fill="#181818" points="497.888,757.3629,491.7538,752.4181,494.0227,756.3337,490.107,758.6026,497.888,757.3629" style="stroke:#181818;stroke-width:0.8000000000000002;"/><text fill="#000000" font-family="sans-serif" font-size="10.4" lengthAdjust="spacing" textLength="44" x="366.112" y="704.8336">&#171;include&#187;</text></g><!--link GestionClientes to AnadirClientes--><g id="link_GestionClientes_AnadirClientes"><path d="M307.384,893.7469 C324.632,887.1149 345.968,879.1949 365.312,872.8109 C409.136,858.3469 460.08,844.8269 495.928,835.8509 " fill="none" id="GestionClientes-to-AnadirClientes" style="stroke:#181818;stroke-width:0.8000000000000002;"/><polygon fill="#181818" points="500,834.8269,492.2379,833.4741,496.1201,835.7998,493.7945,839.682,500,834.8269" style="stroke:#181818;stroke-width:0.8000000000000002;"/><text fill="#000000" font-family="sans-serif" font-size="10.4" lengthAdjust="spacing" textLength="44" x="366.112" y="856.8336">&#171;include&#187;</text></g><!--link GestionClientes to MostrarClientes--><g id="link_GestionClientes_MostrarClientes"><path d="M288.504,922.4589 C315.464,948.5789 374.544,1001.6909 434.912,1028.8109 C452.144,1036.5549 471.936,1042.4829 489.76,1046.8509 " fill="none" id="GestionClientes-to-MostrarClientes" style="stroke:#181818;stroke-width:0.8000000000000002;"/><polygon fill="#181818" points="493.776,1047.8109,487.5136,1043.0295,489.8849,1046.8839,486.0304,1049.2552,493.776,1047.8109" style="stroke:#181818;stroke-width:0.8000000000000002;"/><text fill="#000000" font-family="sans-serif" font-size="10.4" lengthAdjust="spacing" textLength="44" x="366.112" y="985.6336">&#171;include&#187;</text></g><!--link GestionClientes to MostrarClientesTipo--><g id="link_GestionClientes_MostrarClientesTipo"><path d="M302.952,921.2829 C320.792,929.4509 344.08,939.6029 365.312,947.2109 C405.728,961.6989 452.496,974.9069 487.72,984.1629 " fill="none" id="GestionClientes-to-MostrarClientesTipo" style="stroke:#181818;stroke-width:0.8000000000000002;"/><polygon fill="#181818" points="491.736,985.2109,485.5846,980.2875,487.8671,984.1952,483.9594,986.4777,491.736,985.2109" style="stroke:#181818;stroke-width:0.8000000000000002;"/><text fill="#000000" font-family="sans-serif" font-size="10.4" lengthAdjust="spacing" textLength="44" x="366.112" y="944.0336">&#171;include&#187;</text></g><!--link GestionClientes to ActualizarCliente--><g id="link_GestionClientes_ActualizarCliente"><path d="M330.688,915.5469 C342.152,917.1069 354.104,918.6749 365.312,920.0109 C402.832,924.4909 444.928,928.7229 478.592,931.9149 " fill="none" id="GestionClientes-to-ActualizarCliente" style="stroke:#181818;stroke-width:0.8000000000000002;"/><polygon fill="#181818" points="482.648,932.2989,475.7812,928.4354,478.6658,931.9224,475.1787,934.8069,482.648,932.2989" style="stroke:#181818;stroke-width:0.8000000000000002;"/><text fill="#000000" font-family="sans-serif" font-size="10.4" lengthAdjust="spacing" textLength="44" x="366.112" y="916.8336">&#171;include&#187;</text></g><!--link GestionClientes to EliminarCliente--><g id="link_GestionClientes_EliminarCliente"><path d="M335.904,901.0509 C380.024,896.7149 438.744,890.9389 482.168,886.6669 " fill="none" id="GestionClientes-to-EliminarCliente" style="stroke:#181818;stroke-width:0.8000000000000002;"/><polygon fill="#181818" points="486.32,886.2589,478.843,883.7742,482.339,886.6479,479.4653,890.1439,486.32,886.2589" style="stroke:#181818;stroke-width:0.8000000000000002;"/><text fill="#000000" font-family="sans-serif" font-size="10.4" lengthAdjust="spacing" textLength="44" x="366.112" y="891.2336">&#171;include&#187;</text></g><!--link GestionPedidos to AnadirPedido--><g id="link_GestionPedidos_AnadirPedido"><path d="M321.256,387.3709 C335.432,384.1629 350.984,380.6909 365.312,377.6109 C408.568,368.3069 457.92,358.2909 493.4,351.1869 " fill="none" id="GestionPedidos-to-AnadirPedido" style="stroke:#181818;stroke-width:0.8000000000000002;"/><polygon fill="#181818" points="497.44,350.3789,489.7513,348.6574,493.5181,351.1656,491.0099,354.9324,497.44,350.3789" style="stroke:#181818;stroke-width:0.8000000000000002;"/><text fill="#000000" font-family="sans-serif" font-size="10.4" lengthAdjust="spacing" textLength="44" x="366.112" y="365.6336">&#171;include&#187;</text></g><!--link GestionPedidos to MostrarPedidosPend--><g id="link_GestionPedidos_MostrarPedidosPend"><path d="M298.28,413.0109 C316.776,423.8109 342.592,438.8669 365.312,452.0109 C396.192,469.8829 402.536,477.0269 434.912,492.0109 C448.48,498.2909 463.384,504.2189 477.648,509.4509 " fill="none" id="GestionPedidos-to-MostrarPedidosPend" style="stroke:#181818;stroke-width:0.8000000000000002;"/><polygon fill="#181818" points="481.648,510.9149,475.9804,505.4415,477.8902,509.5443,473.7874,511.4541,481.648,510.9149" style="stroke:#181818;stroke-width:0.8000000000000002;"/><text fill="#000000" font-family="sans-serif" font-size="10.4" lengthAdjust="spacing" textLength="44" x="366.112" y="448.8336">&#171;include&#187;</text></g><!--link GestionPedidos to MostrarPedidosEnviados--><g id="link_GestionPedidos_MostrarPedidosEnviados"><path d="M320.576,409.5789 C334.936,412.9549 350.768,416.6509 365.312,420.0109 C403.392,428.7949 446.136,438.4909 480.008,446.1389 " fill="none" id="GestionPedidos-to-MostrarPedidosEnviados" style="stroke:#181818;stroke-width:0.8000000000000002;"/><polygon fill="#181818" points="484.088,447.0589,477.7667,442.3556,480.1857,446.1803,476.361,448.5993,484.088,447.0589" style="stroke:#181818;stroke-width:0.8000000000000002;"/><text fill="#000000" font-family="sans-serif" font-size="10.4" lengthAdjust="spacing" textLength="44" x="366.112" y="416.8336">&#171;include&#187;</text></g><!--link GestionPedidos to ActualizarPedido--><g id="link_GestionPedidos_ActualizarPedido"><path d="M341.392,398.4109 C382.08,398.4109 433.584,398.4109 474.176,398.4109 " fill="none" id="GestionPedidos-to-ActualizarPedido" style="stroke:#181818;stroke-width:0.8000000000000002;"/><polygon fill="#181818" points="478.32,398.4109,471.12,395.2109,474.32,398.4109,471.12,401.6109,478.32,398.4109" style="stroke:#181818;stroke-width:0.8000000000000002;"/><text fill="#000000" font-family="sans-serif" font-size="10.4" lengthAdjust="spacing" textLength="44" x="366.112" y="395.2336">&#171;include&#187;</text></g><!--link GestionPedidos to EliminarPedido--><g id="link_GestionPedidos_EliminarPedido"><path d="M296.512,383.7469 C327.12,364.9949 383.184,332.6749 434.912,313.6109 C453.808,306.6509 475.168,300.6909 493.8,296.0749 " fill="none" id="GestionPedidos-to-EliminarPedido" style="stroke:#181818;stroke-width:0.8000000000000002;"/><polygon fill="#181818" points="497.736,295.1149,489.9825,293.7137,493.8501,296.0636,491.5003,299.9312,497.736,295.1149" style="stroke:#181818;stroke-width:0.8000000000000002;"/><text fill="#000000" font-family="sans-serif" font-size="10.4" lengthAdjust="spacing" textLength="44" x="366.112" y="321.6336">&#171;include&#187;</text></g><!--SRC=[dLHBRjim4Dtp5BEhlUW5XC204GH15mM2kZa08KqS8ZGfa7GBjyYHiYXw15yiGucaINqI9HjPVFFUSEPPC_P9g9ORVW1UEsrsxYGH-6-q-e1CueC3fy68_QE3HXYidT2AjRn-udk4RygXUU0rMlZBggrnvvVwA7K5tCAAZiAVrgowmqOq0UxV2RoM0adVeU6TFRFLlKLmZrH3sqfHSt_VkXDIOCqOFGrytS1gvxXnwt3sG1-ljir1g2vfzyQwPwu8m4NZk-9gJttlJjRXWNhv0jVSQWiDmhtLu0q2oU4MhHFd_yhZgLlBgeHVmBxPBg1LjC9IszlpFqvEGiI2MSg3cMNVjNM6cr76W1SPQtVaKloPO5z2kU162h9WWXu36Nc95U7Vout8qCA926P6bBpUY8mMZIXf0Ns31pz5gwVPFbBwbd-BcMa1pYqhc15Dl2LkzGCmC2k0XLS1owpAvwWtAarJAZ3dH32neabjdvf-LHFieY9G_Jg_wCAoKCCTyIRa912y6RWS93SXLXfTT93WMDypymx-GCbhwX_z1SuWq8S8Mx-T23brfznabYPw0yDvWugoTNUCIUb3UOCJUiaeQT_CCcPRA8eUhuOkQxa7AElLbL2rF3QusSnfXYjXcMfYDImJZfR4Z2pDPjPOvldxai7KVaRZ9trPUSEPNwGQpF-C9ivnvaCFBU6Fv_3ZgZYAY-eR3EKIJRbc1Whs2W00]--></g></svg>