<?xml version="1.0" encoding="us-ascii" standalone="no"?><svg xmlns="http://www.w3.org/2000/svg" xmlns:xlink="http://www.w3.org/1999/xlink" contentStyleType="text/css" height="1533.6px" preserveAspectRatio="none" style="width:3584px;height:1533px;background:#FFFFFF;" version="1.1" viewBox="0 0 3584 1533" width="3584.8px" zoomAndPan="magnify"><defs/><g><!--cluster View--><g id="cluster_View"><path d="M3382,810.8109 L3409.2,810.8109 A3,3 0 0 1 3411.2,812.8109 L3416.8,830.5078 L3577.2,830.5078 A2,2 0 0 1 3579.2,832.5078 L3579.2,917.6109 A2,2 0 0 1 3577.2,919.6109 L3382,919.6109 A2,2 0 0 1 3380,917.6109 L3380,812.8109 A2,2 0 0 1 3382,810.8109 " fill="none" style="stroke:#000000;stroke-width:1.2000000000000002;"/><line style="stroke:#000000;stroke-width:1.2000000000000002;" x1="3380" x2="3416.8" y1="830.5078" y2="830.5078"/><text fill="#000000" font-family="sans-serif" font-size="11.2" font-weight="bold" lengthAdjust="spacing" textLength="26.4" x="3383.2" y="824.4969">View</text></g><!--cluster Controller--><g id="cluster_Controller"><path d="M2593.2,435.7229 L2650.8,435.7229 A3,3 0 0 1 2652.8,437.7229 L2658.4,455.4198 L3346,455.4198 A2,2 0 0 1 3348,457.4198 L3348,1310.0109 A2,2 0 0 1 3346,1312.0109 L2593.2,1312.0109 A2,2 0 0 1 2591.2,1310.0109 L2591.2,437.7229 A2,2 0 0 1 2593.2,435.7229 " fill="none" style="stroke:#000000;stroke-width:1.2000000000000002;"/><line style="stroke:#000000;stroke-width:1.2000000000000002;" x1="2591.2" x2="2658.4" y1="455.4198" y2="455.4198"/><text fill="#000000" font-family="sans-serif" font-size="11.2" font-weight="bold" lengthAdjust="spacing" textLength="56.8" x="2594.4" y="449.4089">Controller</text></g><!--cluster Model--><g id="cluster_Model"><path d="M6.8,4.8109 L42.8,4.8109 A3,3 0 0 1 44.8,6.8109 L50.4,24.5078 L2557.2,24.5078 A2,2 0 0 1 2559.2,26.5078 L2559.2,1429.2109 A2,2 0 0 1 2557.2,1431.2109 L6.8,1431.2109 A2,2 0 0 1 4.8,1429.2109 L4.8,6.8109 A2,2 0 0 1 6.8,4.8109 " fill="none" style="stroke:#000000;stroke-width:1.2000000000000002;"/><line style="stroke:#000000;stroke-width:1.2000000000000002;" x1="4.8" x2="50.4" y1="24.5078" y2="24.5078"/><text fill="#000000" font-family="sans-serif" font-size="11.2" font-weight="bold" lengthAdjust="spacing" textLength="35.2" x="8" y="18.4969">Model</text></g><!--cluster Lists--><g id="cluster_Lists"><path d="M1638,48.4109 L1665.2,48.4109 A3,3 0 0 1 1667.2,50.4109 L1672.8,68.1078 L2525.2,68.1078 A2,2 0 0 1 2527.2,70.1078 L2527.2,201.6109 A2,2 0 0 1 2525.2,203.6109 L1638,203.6109 A2,2 0 0 1 1636,201.6109 L1636,50.4109 A2,2 0 0 1 1638,48.4109 " fill="none" style="stroke:#000000;stroke-width:1.2000000000000002;"/><line style="stroke:#000000;stroke-width:1.2000000000000002;" x1="1636" x2="1672.8" y1="68.1078" y2="68.1078"/><text fill="#000000" font-family="sans-serif" font-size="11.2" font-weight="bold" lengthAdjust="spacing" textLength="26.4" x="1639.2" y="62.0969">Lists</text></g><!--class OnlineStore--><g id="elem_OnlineStore"><rect codeLine="4" fill="#F1F1F1" height="53.2969" id="OnlineStore" rx="2" ry="2" style="stroke:#181818;stroke-width:0.4000000000000001;" width="144.8" x="3414.8" y="846.8109"/><ellipse cx="3453.8" cy="859.6109" fill="#ADD1B2" rx="8.8" ry="8.8" style="stroke:#181818;stroke-width:0.8000000000000002;"/><path d="M3456.0125,856.3109 Q3456.1375,856.1359 3456.2875,856.0484 Q3456.4375,855.9609 3456.6125,855.9609 Q3456.9125,855.9609 3457.1,856.1734 Q3457.2875,856.3734 3457.2875,856.8609 L3457.2875,858.0234 Q3457.2875,858.5109 3457.1,858.7234 Q3456.9125,858.9359 3456.6125,858.9359 Q3456.3375,858.9359 3456.175,858.7734 Q3456.0125,858.6234 3455.925,858.2109 Q3455.8875,857.9234 3455.7375,857.7734 Q3455.475,857.4734 3454.9875,857.2984 Q3454.5,857.1234 3454,857.1234 Q3453.3875,857.1234 3452.875,857.3859 Q3452.375,857.6484 3451.975,858.2484 Q3451.5875,858.8484 3451.5875,859.6734 L3451.5875,860.5484 Q3451.5875,861.5359 3452.3,862.1984 Q3453.0125,862.8484 3454.2875,862.8484 Q3455.0375,862.8484 3455.5625,862.6484 Q3455.875,862.5234 3456.2125,862.1734 Q3456.425,861.9609 3456.5375,861.8984 Q3456.6625,861.8359 3456.825,861.8359 Q3457.0875,861.8359 3457.2875,862.0484 Q3457.5,862.2484 3457.5,862.5234 Q3457.5,862.7984 3457.225,863.1234 Q3456.825,863.5859 3456.1875,863.8484 Q3455.325,864.2109 3454.2875,864.2109 Q3453.075,864.2109 3452.1125,863.7109 Q3451.325,863.3109 3450.775,862.4609 Q3450.225,861.5984 3450.225,860.5734 L3450.225,859.6484 Q3450.225,858.5859 3450.7125,857.6734 Q3451.2125,856.7484 3452.0875,856.2609 Q3452.9625,855.7609 3453.95,855.7609 Q3454.5375,855.7609 3455.05,855.8984 Q3455.575,856.0234 3456.0125,856.3109 Z " fill="#000000"/><text fill="#000000" font-family="sans-serif" font-size="11.2" lengthAdjust="spacing" textLength="60" x="3470.2" y="864.2484">OnlineStore</text><line style="stroke:#181818;stroke-width:0.4000000000000001;" x1="3415.6" x2="3558.8" y1="872.4109" y2="872.4109"/><line style="stroke:#181818;stroke-width:0.4000000000000001;" x1="3415.6" x2="3558.8" y1="878.8109" y2="878.8109"/><ellipse cx="3423.6" cy="890.6594" fill="#84BE84" rx="2.4" ry="2.4" style="stroke:#038048;stroke-width:0.8000000000000002;"/><text fill="#000000" font-family="sans-serif" font-size="11.2" lengthAdjust="spacing" text-decoration="underline" textLength="124" x="3430.8" y="894.0969">main(args: String[]): void</text></g><!--class Controller--><g id="elem_Controller"><rect codeLine="10" fill="#F1F1F1" height="97.9875" id="Controller" rx="2" ry="2" style="stroke:#181818;stroke-width:0.4000000000000001;" width="181.6" x="3078" y="824.8109"/><ellipse cx="3140.6" cy="837.6109" fill="#ADD1B2" rx="8.8" ry="8.8" style="stroke:#181818;stroke-width:0.8000000000000002;"/><path d="M3142.8125,834.3109 Q3142.9375,834.1359 3143.0875,834.0484 Q3143.2375,833.9609 3143.4125,833.9609 Q3143.7125,833.9609 3143.9,834.1734 Q3144.0875,834.3734 3144.0875,834.8609 L3144.0875,836.0234 Q3144.0875,836.5109 3143.9,836.7234 Q3143.7125,836.9359 3143.4125,836.9359 Q3143.1375,836.9359 3142.975,836.7734 Q3142.8125,836.6234 3142.725,836.2109 Q3142.6875,835.9234 3142.5375,835.7734 Q3142.275,835.4734 3141.7875,835.2984 Q3141.3,835.1234 3140.8,835.1234 Q3140.1875,835.1234 3139.675,835.3859 Q3139.175,835.6484 3138.775,836.2484 Q3138.3875,836.8484 3138.3875,837.6734 L3138.3875,838.5484 Q3138.3875,839.5359 3139.1,840.1984 Q3139.8125,840.8484 3141.0875,840.8484 Q3141.8375,840.8484 3142.3625,840.6484 Q3142.675,840.5234 3143.0125,840.1734 Q3143.225,839.9609 3143.3375,839.8984 Q3143.4625,839.8359 3143.625,839.8359 Q3143.8875,839.8359 3144.0875,840.0484 Q3144.3,840.2484 3144.3,840.5234 Q3144.3,840.7984 3144.025,841.1234 Q3143.625,841.5859 3142.9875,841.8484 Q3142.125,842.2109 3141.0875,842.2109 Q3139.875,842.2109 3138.9125,841.7109 Q3138.125,841.3109 3137.575,840.4609 Q3137.025,839.5984 3137.025,838.5734 L3137.025,837.6484 Q3137.025,836.5859 3137.5125,835.6734 Q3138.0125,834.7484 3138.8875,834.2609 Q3139.7625,833.7609 3140.75,833.7609 Q3141.3375,833.7609 3141.85,833.8984 Q3142.375,834.0234 3142.8125,834.3109 Z " fill="#000000"/><text fill="#000000" font-family="sans-serif" font-size="11.2" lengthAdjust="spacing" textLength="49.6" x="3157" y="842.2484">Controller</text><line style="stroke:#181818;stroke-width:0.4000000000000001;" x1="3078.8" x2="3258.8" y1="850.4109" y2="850.4109"/><rect fill="none" height="4.8" style="stroke:#C82930;stroke-width:0.8000000000000002;" width="4.8" x="3084.4" y="859.8594"/><text fill="#000000" font-family="sans-serif" font-size="11.2" lengthAdjust="spacing" textLength="52.8" x="3094" y="865.6969">data: Data</text><line style="stroke:#181818;stroke-width:0.4000000000000001;" x1="3078.8" x2="3258.8" y1="871.7078" y2="871.7078"/><ellipse cx="3086.8" cy="883.5563" fill="#84BE84" rx="2.4" ry="2.4" style="stroke:#038048;stroke-width:0.8000000000000002;"/><text fill="#000000" font-family="sans-serif" font-size="11.2" lengthAdjust="spacing" textLength="57.6" x="3094" y="886.9938">Controller()</text><ellipse cx="3086.8" cy="898.4531" fill="#84BE84" rx="2.4" ry="2.4" style="stroke:#038048;stroke-width:0.8000000000000002;"/><text fill="#000000" font-family="sans-serif" font-size="11.2" lengthAdjust="spacing" textLength="110.4" x="3094" y="901.8906">Controller(data: Data)</text><ellipse cx="3086.8" cy="913.35" fill="#84BE84" rx="2.4" ry="2.4" style="stroke:#038048;stroke-width:0.8000000000000002;"/><text fill="#000000" font-family="sans-serif" font-size="11.2" lengthAdjust="spacing" textLength="160.8" x="3094" y="916.7875">Controller(controller: Controller)</text></g><!--class ManageOS--><g id="elem_ManageOS"><rect codeLine="17" fill="#F1F1F1" height="157.575" id="ManageOS" rx="2" ry="2" style="stroke:#181818;stroke-width:0.4000000000000001;" width="205.6" x="2844.4" y="794.8109"/><ellipse cx="2915.4" cy="807.6109" fill="#ADD1B2" rx="8.8" ry="8.8" style="stroke:#181818;stroke-width:0.8000000000000002;"/><path d="M2917.6125,804.3109 Q2917.7375,804.1359 2917.8875,804.0484 Q2918.0375,803.9609 2918.2125,803.9609 Q2918.5125,803.9609 2918.7,804.1734 Q2918.8875,804.3734 2918.8875,804.8609 L2918.8875,806.0234 Q2918.8875,806.5109 2918.7,806.7234 Q2918.5125,806.9359 2918.2125,806.9359 Q2917.9375,806.9359 2917.775,806.7734 Q2917.6125,806.6234 2917.525,806.2109 Q2917.4875,805.9234 2917.3375,805.7734 Q2917.075,805.4734 2916.5875,805.2984 Q2916.1,805.1234 2915.6,805.1234 Q2914.9875,805.1234 2914.475,805.3859 Q2913.975,805.6484 2913.575,806.2484 Q2913.1875,806.8484 2913.1875,807.6734 L2913.1875,808.5484 Q2913.1875,809.5359 2913.9,810.1984 Q2914.6125,810.8484 2915.8875,810.8484 Q2916.6375,810.8484 2917.1625,810.6484 Q2917.475,810.5234 2917.8125,810.1734 Q2918.025,809.9609 2918.1375,809.8984 Q2918.2625,809.8359 2918.425,809.8359 Q2918.6875,809.8359 2918.8875,810.0484 Q2919.1,810.2484 2919.1,810.5234 Q2919.1,810.7984 2918.825,811.1234 Q2918.425,811.5859 2917.7875,811.8484 Q2916.925,812.2109 2915.8875,812.2109 Q2914.675,812.2109 2913.7125,811.7109 Q2912.925,811.3109 2912.375,810.4609 Q2911.825,809.5984 2911.825,808.5734 L2911.825,807.6484 Q2911.825,806.5859 2912.3125,805.6734 Q2912.8125,804.7484 2913.6875,804.2609 Q2914.5625,803.7609 2915.55,803.7609 Q2916.1375,803.7609 2916.65,803.8984 Q2917.175,804.0234 2917.6125,804.3109 Z " fill="#000000"/><text fill="#000000" font-family="sans-serif" font-size="11.2" lengthAdjust="spacing" textLength="56.8" x="2931.8" y="812.2484">ManageOS</text><line style="stroke:#181818;stroke-width:0.4000000000000001;" x1="2845.2" x2="3049.2" y1="820.4109" y2="820.4109"/><rect fill="none" height="4.8" style="stroke:#C82930;stroke-width:0.8000000000000002;" width="4.8" x="2850.8" y="829.8594"/><text fill="#000000" font-family="sans-serif" font-size="11.2" lengthAdjust="spacing" textLength="103.2" x="2860.4" y="835.6969">controller: Controller</text><line style="stroke:#181818;stroke-width:0.4000000000000001;" x1="2845.2" x2="3049.2" y1="841.7078" y2="841.7078"/><ellipse cx="2853.2" cy="853.5563" fill="#84BE84" rx="2.4" ry="2.4" style="stroke:#038048;stroke-width:0.8000000000000002;"/><text fill="#000000" font-family="sans-serif" font-size="11.2" lengthAdjust="spacing" textLength="64.8" x="2860.4" y="856.9938">ManageOS()</text><ellipse cx="2853.2" cy="868.4531" fill="#84BE84" rx="2.4" ry="2.4" style="stroke:#038048;stroke-width:0.8000000000000002;"/><text fill="#000000" font-family="sans-serif" font-size="11.2" lengthAdjust="spacing" textLength="168" x="2860.4" y="871.8906">ManageOS(controller: Controller)</text><ellipse cx="2853.2" cy="883.35" fill="#84BE84" rx="2.4" ry="2.4" style="stroke:#038048;stroke-width:0.8000000000000002;"/><text fill="#000000" font-family="sans-serif" font-size="11.2" lengthAdjust="spacing" textLength="184.8" x="2860.4" y="886.7875">ManageOS(manageOS: ManageOS)</text><ellipse cx="2853.2" cy="898.2469" fill="#84BE84" rx="2.4" ry="2.4" style="stroke:#038048;stroke-width:0.8000000000000002;"/><text fill="#000000" font-family="sans-serif" font-size="11.2" lengthAdjust="spacing" textLength="52" x="2860.4" y="901.6844">run(): void</text><ellipse cx="2853.2" cy="913.1438" fill="#84BE84" rx="2.4" ry="2.4" style="stroke:#038048;stroke-width:0.8000000000000002;"/><text fill="#000000" font-family="sans-serif" font-size="11.2" lengthAdjust="spacing" textLength="130.4" x="2860.4" y="916.5813">manageCustomers(): void</text><ellipse cx="2853.2" cy="928.0406" fill="#84BE84" rx="2.4" ry="2.4" style="stroke:#038048;stroke-width:0.8000000000000002;"/><text fill="#000000" font-family="sans-serif" font-size="11.2" lengthAdjust="spacing" textLength="102.4" x="2860.4" y="931.4781">manageItems(): void</text><ellipse cx="2853.2" cy="942.9375" fill="#84BE84" rx="2.4" ry="2.4" style="stroke:#038048;stroke-width:0.8000000000000002;"/><text fill="#000000" font-family="sans-serif" font-size="11.2" lengthAdjust="spacing" textLength="111.2" x="2860.4" y="946.375">manageOrders(): void</text></g><!--class ExceptionHandler--><g id="elem_ExceptionHandler"><rect codeLine="28" fill="#F1F1F1" height="53.2969" id="ExceptionHandler" rx="2" ry="2" style="stroke:#181818;stroke-width:0.4000000000000001;" width="205.6" x="2610.8" y="846.8109"/><ellipse cx="2666.2" cy="859.6109" fill="#ADD1B2" rx="8.8" ry="8.8" style="stroke:#181818;stroke-width:0.8000000000000002;"/><path d="M2668.4125,856.3109 Q2668.5375,856.1359 2668.6875,856.0484 Q2668.8375,855.9609 2669.0125,855.9609 Q2669.3125,855.9609 2669.5,856.1734 Q2669.6875,856.3734 2669.6875,856.8609 L2669.6875,858.0234 Q2669.6875,858.5109 2669.5,858.7234 Q2669.3125,858.9359 2669.0125,858.9359 Q2668.7375,858.9359 2668.575,858.7734 Q2668.4125,858.6234 2668.325,858.2109 Q2668.2875,857.9234 2668.1375,857.7734 Q2667.875,857.4734 2667.3875,857.2984 Q2666.9,857.1234 2666.4,857.1234 Q2665.7875,857.1234 2665.275,857.3859 Q2664.775,857.6484 2664.375,858.2484 Q2663.9875,858.8484 2663.9875,859.6734 L2663.9875,860.5484 Q2663.9875,861.5359 2664.7,862.1984 Q2665.4125,862.8484 2666.6875,862.8484 Q2667.4375,862.8484 2667.9625,862.6484 Q2668.275,862.5234 2668.6125,862.1734 Q2668.825,861.9609 2668.9375,861.8984 Q2669.0625,861.8359 2669.225,861.8359 Q2669.4875,861.8359 2669.6875,862.0484 Q2669.9,862.2484 2669.9,862.5234 Q2669.9,862.7984 2669.625,863.1234 Q2669.225,863.5859 2668.5875,863.8484 Q2667.725,864.2109 2666.6875,864.2109 Q2665.475,864.2109 2664.5125,863.7109 Q2663.725,863.3109 2663.175,862.4609 Q2662.625,861.5984 2662.625,860.5734 L2662.625,859.6484 Q2662.625,858.5859 2663.1125,857.6734 Q2663.6125,856.7484 2664.4875,856.2609 Q2665.3625,855.7609 2666.35,855.7609 Q2666.9375,855.7609 2667.45,855.8984 Q2667.975,856.0234 2668.4125,856.3109 Z " fill="#000000"/><text fill="#000000" font-family="sans-serif" font-size="11.2" lengthAdjust="spacing" textLength="88" x="2682.6" y="864.2484">ExceptionHandler</text><line style="stroke:#181818;stroke-width:0.4000000000000001;" x1="2611.6" x2="2815.6" y1="872.4109" y2="872.4109"/><line style="stroke:#181818;stroke-width:0.4000000000000001;" x1="2611.6" x2="2815.6" y1="878.8109" y2="878.8109"/><ellipse cx="2619.6" cy="890.6594" fill="#84BE84" rx="2.4" ry="2.4" style="stroke:#038048;stroke-width:0.8000000000000002;"/><text fill="#000000" font-family="sans-serif" font-size="11.2" lengthAdjust="spacing" textLength="184.8" x="2626.8" y="894.0969">handleException(ex: Exception): void</text></g><!--class TestController--><g id="elem_TestController"><rect codeLine="32" fill="#F1F1F1" height="53.2969" id="TestController" rx="2" ry="2" style="stroke:#181818;stroke-width:0.4000000000000001;" width="100.8" x="3035.2" y="1239.2109"/><ellipse cx="3048.64" cy="1252.0109" fill="#ADD1B2" rx="8.8" ry="8.8" style="stroke:#181818;stroke-width:0.8000000000000002;"/><path d="M3050.8525,1248.7109 Q3050.9775,1248.5359 3051.1275,1248.4484 Q3051.2775,1248.3609 3051.4525,1248.3609 Q3051.7525,1248.3609 3051.94,1248.5734 Q3052.1275,1248.7734 3052.1275,1249.2609 L3052.1275,1250.4234 Q3052.1275,1250.9109 3051.94,1251.1234 Q3051.7525,1251.3359 3051.4525,1251.3359 Q3051.1775,1251.3359 3051.015,1251.1734 Q3050.8525,1251.0234 3050.765,1250.6109 Q3050.7275,1250.3234 3050.5775,1250.1734 Q3050.315,1249.8734 3049.8275,1249.6984 Q3049.34,1249.5234 3048.84,1249.5234 Q3048.2275,1249.5234 3047.715,1249.7859 Q3047.215,1250.0484 3046.815,1250.6484 Q3046.4275,1251.2484 3046.4275,1252.0734 L3046.4275,1252.9484 Q3046.4275,1253.9359 3047.14,1254.5984 Q3047.8525,1255.2484 3049.1275,1255.2484 Q3049.8775,1255.2484 3050.4025,1255.0484 Q3050.715,1254.9234 3051.0525,1254.5734 Q3051.265,1254.3609 3051.3775,1254.2984 Q3051.5025,1254.2359 3051.665,1254.2359 Q3051.9275,1254.2359 3052.1275,1254.4484 Q3052.34,1254.6484 3052.34,1254.9234 Q3052.34,1255.1984 3052.065,1255.5234 Q3051.665,1255.9859 3051.0275,1256.2484 Q3050.165,1256.6109 3049.1275,1256.6109 Q3047.915,1256.6109 3046.9525,1256.1109 Q3046.165,1255.7109 3045.615,1254.8609 Q3045.065,1253.9984 3045.065,1252.9734 L3045.065,1252.0484 Q3045.065,1250.9859 3045.5525,1250.0734 Q3046.0525,1249.1484 3046.9275,1248.6609 Q3047.8025,1248.1609 3048.79,1248.1609 Q3049.3775,1248.1609 3049.89,1248.2984 Q3050.415,1248.4234 3050.8525,1248.7109 Z " fill="#000000"/><text fill="#000000" font-family="sans-serif" font-size="11.2" lengthAdjust="spacing" textLength="72" x="3060.16" y="1256.6484">TestController</text><line style="stroke:#181818;stroke-width:0.4000000000000001;" x1="3036" x2="3135.2" y1="1264.8109" y2="1264.8109"/><line style="stroke:#181818;stroke-width:0.4000000000000001;" x1="3036" x2="3135.2" y1="1271.2109" y2="1271.2109"/><ellipse cx="3044" cy="1283.0594" fill="#84BE84" rx="2.4" ry="2.4" style="stroke:#038048;stroke-width:0.8000000000000002;"/><text fill="#000000" font-family="sans-serif" font-size="11.2" lengthAdjust="spacing" textLength="80" x="3051.2" y="1286.4969">runTests(): void</text></g><!--class Data--><g id="elem_Data"><rect codeLine="38" fill="#F1F1F1" height="187.3688" id="Data" rx="2" ry="2" style="stroke:#181818;stroke-width:0.4000000000000001;" width="400.8" x="250" y="40.8109"/><ellipse cx="435" cy="53.6109" fill="#ADD1B2" rx="8.8" ry="8.8" style="stroke:#181818;stroke-width:0.8000000000000002;"/><path d="M437.2125,50.3109 Q437.3375,50.1359 437.4875,50.0484 Q437.6375,49.9609 437.8125,49.9609 Q438.1125,49.9609 438.3,50.1734 Q438.4875,50.3734 438.4875,50.8609 L438.4875,52.0234 Q438.4875,52.5109 438.3,52.7234 Q438.1125,52.9359 437.8125,52.9359 Q437.5375,52.9359 437.375,52.7734 Q437.2125,52.6234 437.125,52.2109 Q437.0875,51.9234 436.9375,51.7734 Q436.675,51.4734 436.1875,51.2984 Q435.7,51.1234 435.2,51.1234 Q434.5875,51.1234 434.075,51.3859 Q433.575,51.6484 433.175,52.2484 Q432.7875,52.8484 432.7875,53.6734 L432.7875,54.5484 Q432.7875,55.5359 433.5,56.1984 Q434.2125,56.8484 435.4875,56.8484 Q436.2375,56.8484 436.7625,56.6484 Q437.075,56.5234 437.4125,56.1734 Q437.625,55.9609 437.7375,55.8984 Q437.8625,55.8359 438.025,55.8359 Q438.2875,55.8359 438.4875,56.0484 Q438.7,56.2484 438.7,56.5234 Q438.7,56.7984 438.425,57.1234 Q438.025,57.5859 437.3875,57.8484 Q436.525,58.2109 435.4875,58.2109 Q434.275,58.2109 433.3125,57.7109 Q432.525,57.3109 431.975,56.4609 Q431.425,55.5984 431.425,54.5734 L431.425,53.6484 Q431.425,52.5859 431.9125,51.6734 Q432.4125,50.7484 433.2875,50.2609 Q434.1625,49.7609 435.15,49.7609 Q435.7375,49.7609 436.25,49.8984 Q436.775,50.0234 437.2125,50.3109 Z " fill="#000000"/><text fill="#000000" font-family="sans-serif" font-size="11.2" lengthAdjust="spacing" textLength="24" x="451.4" y="58.2484">Data</text><line style="stroke:#181818;stroke-width:0.4000000000000001;" x1="250.8" x2="650" y1="66.4109" y2="66.4109"/><rect fill="none" height="4.8" style="stroke:#C82930;stroke-width:0.8000000000000002;" width="4.8" x="256.4" y="75.8594"/><text fill="#000000" font-family="sans-serif" font-size="11.2" lengthAdjust="spacing" textLength="142.4" x="266" y="81.6969">customersList: CustomerList</text><rect fill="none" height="4.8" style="stroke:#C82930;stroke-width:0.8000000000000002;" width="4.8" x="256.4" y="90.7563"/><text fill="#000000" font-family="sans-serif" font-size="11.2" lengthAdjust="spacing" textLength="104" x="266" y="96.5938">ordersList: OrderList</text><rect fill="none" height="4.8" style="stroke:#C82930;stroke-width:0.8000000000000002;" width="4.8" x="256.4" y="105.6531"/><text fill="#000000" font-family="sans-serif" font-size="11.2" lengthAdjust="spacing" textLength="88.8" x="266" y="111.4906">itemsList: ItemList</text><line style="stroke:#181818;stroke-width:0.4000000000000001;" x1="250.8" x2="650" y1="117.5016" y2="117.5016"/><ellipse cx="258.8" cy="129.35" fill="#84BE84" rx="2.4" ry="2.4" style="stroke:#038048;stroke-width:0.8000000000000002;"/><text fill="#000000" font-family="sans-serif" font-size="11.2" lengthAdjust="spacing" textLength="32" x="266" y="132.7875">Data()</text><ellipse cx="258.8" cy="144.2469" fill="#84BE84" rx="2.4" ry="2.4" style="stroke:#038048;stroke-width:0.8000000000000002;"/><text fill="#000000" font-family="sans-serif" font-size="11.2" lengthAdjust="spacing" textLength="380" x="266" y="147.6844">Data(customersList: CustomerList, ordersList: OrderList, itemsList: ItemList)</text><ellipse cx="258.8" cy="159.1438" fill="#84BE84" rx="2.4" ry="2.4" style="stroke:#038048;stroke-width:0.8000000000000002;"/><text fill="#000000" font-family="sans-serif" font-size="11.2" lengthAdjust="spacing" textLength="84.8" x="266" y="162.5813">Data(data: Data)</text><ellipse cx="258.8" cy="174.0406" fill="#84BE84" rx="2.4" ry="2.4" style="stroke:#038048;stroke-width:0.8000000000000002;"/><text fill="#000000" font-family="sans-serif" font-size="11.2" lengthAdjust="spacing" textLength="151.2" x="266" y="177.4781">getCustomers(): CustomerList</text><ellipse cx="258.8" cy="188.9375" fill="#84BE84" rx="2.4" ry="2.4" style="stroke:#038048;stroke-width:0.8000000000000002;"/><text fill="#000000" font-family="sans-serif" font-size="11.2" lengthAdjust="spacing" textLength="112.8" x="266" y="192.375">getOrders(): OrderList</text><ellipse cx="258.8" cy="203.8344" fill="#84BE84" rx="2.4" ry="2.4" style="stroke:#038048;stroke-width:0.8000000000000002;"/><text fill="#000000" font-family="sans-serif" font-size="11.2" lengthAdjust="spacing" textLength="95.2" x="266" y="207.2719">getItems(): ItemList</text><ellipse cx="258.8" cy="218.7313" fill="#84BE84" rx="2.4" ry="2.4" style="stroke:#038048;stroke-width:0.8000000000000002;"/><text fill="#000000" font-family="sans-serif" font-size="11.2" lengthAdjust="spacing" textLength="83.2" x="266" y="222.1688">toString(): String</text></g><!--class Customer--><g id="elem_Customer"><rect codeLine="76" fill="#F1F1F1" height="336.3375" id="Customer" rx="2" ry="2" style="stroke:#181818;stroke-width:0.4000000000000001;" width="632.8" x="1266.8" y="291.2109"/><ellipse cx="1555.4" cy="304.0109" fill="#A9DCDF" rx="8.8" ry="8.8" style="stroke:#181818;stroke-width:0.8000000000000002;"/><path d="M1557.15,305.4234 L1553.8375,305.4234 L1553.5,306.2484 L1553.8375,306.2484 Q1554.325,306.2484 1554.5375,306.4359 Q1554.75,306.6234 1554.75,306.9359 Q1554.75,307.2359 1554.5375,307.4234 Q1554.325,307.6109 1553.8375,307.6109 L1552,307.6109 Q1551.5125,307.6109 1551.3125,307.4234 Q1551.1,307.2359 1551.1,306.9234 Q1551.1,306.6234 1551.325,306.4359 Q1551.5375,306.2359 1552.0375,306.2484 L1554.175,300.9234 L1553.2875,300.9234 Q1552.8,300.9234 1552.5875,300.7359 Q1552.375,300.5484 1552.375,300.2359 Q1552.375,299.9359 1552.5875,299.7484 Q1552.8,299.5609 1553.2875,299.5609 L1556.225,299.5609 L1558.9375,306.2484 Q1559.4125,306.2484 1559.5625,306.3609 Q1559.875,306.5734 1559.875,306.9359 Q1559.875,307.2359 1559.6625,307.4234 Q1559.4625,307.6109 1558.975,307.6109 L1557.1375,307.6109 Q1556.65,307.6109 1556.4375,307.4234 Q1556.225,307.2359 1556.225,306.9234 Q1556.225,306.6234 1556.4375,306.4359 Q1556.65,306.2484 1557.1375,306.2484 L1557.475,306.2484 L1557.15,305.4234 Z M1556.575,304.0609 L1555.4875,301.3609 L1554.3875,304.0609 L1556.575,304.0609 Z " fill="#000000"/><text fill="#000000" font-family="sans-serif" font-size="11.2" font-style="italic" lengthAdjust="spacing" textLength="48.8" x="1571.8" y="308.6484">Customer</text><line style="stroke:#181818;stroke-width:0.4000000000000001;" x1="1267.6" x2="1898.8" y1="316.8109" y2="316.8109"/><rect fill="none" height="4.8" style="stroke:#C82930;stroke-width:0.8000000000000002;" width="4.8" x="1273.2" y="326.2594"/><text fill="#000000" font-family="sans-serif" font-size="11.2" lengthAdjust="spacing" textLength="64" x="1282.8" y="332.0969">name: String</text><rect fill="none" height="4.8" style="stroke:#C82930;stroke-width:0.8000000000000002;" width="4.8" x="1273.2" y="341.1563"/><text fill="#000000" font-family="sans-serif" font-size="11.2" lengthAdjust="spacing" textLength="76.8" x="1282.8" y="346.9938">address: String</text><rect fill="none" height="4.8" style="stroke:#C82930;stroke-width:0.8000000000000002;" width="4.8" x="1273.2" y="356.0531"/><text fill="#000000" font-family="sans-serif" font-size="11.2" lengthAdjust="spacing" textLength="44.8" x="1282.8" y="361.8906">id: String</text><rect fill="none" height="4.8" style="stroke:#C82930;stroke-width:0.8000000000000002;" width="4.8" x="1273.2" y="370.95"/><text fill="#000000" font-family="sans-serif" font-size="11.2" lengthAdjust="spacing" textLength="62.4" x="1282.8" y="376.7875">email: String</text><rect fill="none" height="4.8" style="stroke:#C82930;stroke-width:0.8000000000000002;" width="4.8" x="1273.2" y="385.8469"/><text fill="#000000" font-family="sans-serif" font-size="11.2" lengthAdjust="spacing" textLength="122.4" x="1282.8" y="391.6844">membershipFee: double</text><rect fill="none" height="4.8" style="stroke:#C82930;stroke-width:0.8000000000000002;" width="4.8" x="1273.2" y="400.7438"/><text fill="#000000" font-family="sans-serif" font-size="11.2" lengthAdjust="spacing" textLength="152.8" x="1282.8" y="406.5813">customerType: CustomerType</text><line style="stroke:#181818;stroke-width:0.4000000000000001;" x1="1267.6" x2="1898.8" y1="412.5922" y2="412.5922"/><ellipse cx="1275.6" cy="424.4406" fill="#84BE84" rx="2.4" ry="2.4" style="stroke:#038048;stroke-width:0.8000000000000002;"/><text fill="#000000" font-family="sans-serif" font-size="11.2" lengthAdjust="spacing" textLength="612" x="1282.8" y="427.8781">Customer(name: String, address: String, id: String, email: String, membershipFee: double, customerType: CustomerType)</text><ellipse cx="1275.6" cy="439.3375" fill="#84BE84" rx="2.4" ry="2.4" style="stroke:#038048;stroke-width:0.8000000000000002;"/><text fill="#000000" font-family="sans-serif" font-size="11.2" lengthAdjust="spacing" textLength="88.8" x="1282.8" y="442.775">getName(): String</text><ellipse cx="1275.6" cy="454.2344" fill="#84BE84" rx="2.4" ry="2.4" style="stroke:#038048;stroke-width:0.8000000000000002;"/><text fill="#000000" font-family="sans-serif" font-size="11.2" lengthAdjust="spacing" textLength="143.2" x="1282.8" y="457.6719">setName(name: String): void</text><ellipse cx="1275.6" cy="469.1313" fill="#84BE84" rx="2.4" ry="2.4" style="stroke:#038048;stroke-width:0.8000000000000002;"/><text fill="#000000" font-family="sans-serif" font-size="11.2" lengthAdjust="spacing" textLength="101.6" x="1282.8" y="472.5688">getAddress(): String</text><ellipse cx="1275.6" cy="484.0281" fill="#84BE84" rx="2.4" ry="2.4" style="stroke:#038048;stroke-width:0.8000000000000002;"/><text fill="#000000" font-family="sans-serif" font-size="11.2" lengthAdjust="spacing" textLength="168.8" x="1282.8" y="487.4656">setAddress(address: String): void</text><ellipse cx="1275.6" cy="498.925" fill="#84BE84" rx="2.4" ry="2.4" style="stroke:#038048;stroke-width:0.8000000000000002;"/><text fill="#000000" font-family="sans-serif" font-size="11.2" lengthAdjust="spacing" textLength="68.8" x="1282.8" y="502.3625">getId(): String</text><ellipse cx="1275.6" cy="513.8219" fill="#84BE84" rx="2.4" ry="2.4" style="stroke:#038048;stroke-width:0.8000000000000002;"/><text fill="#000000" font-family="sans-serif" font-size="11.2" lengthAdjust="spacing" textLength="104" x="1282.8" y="517.2594">setId(id: String): void</text><ellipse cx="1275.6" cy="528.7188" fill="#84BE84" rx="2.4" ry="2.4" style="stroke:#038048;stroke-width:0.8000000000000002;"/><text fill="#000000" font-family="sans-serif" font-size="11.2" lengthAdjust="spacing" textLength="87.2" x="1282.8" y="532.1563">getEmail(): String</text><ellipse cx="1275.6" cy="543.6156" fill="#84BE84" rx="2.4" ry="2.4" style="stroke:#038048;stroke-width:0.8000000000000002;"/><text fill="#000000" font-family="sans-serif" font-size="11.2" lengthAdjust="spacing" textLength="140" x="1282.8" y="547.0531">setEmail(email: String): void</text><ellipse cx="1275.6" cy="558.5125" fill="#84BE84" rx="2.4" ry="2.4" style="stroke:#038048;stroke-width:0.8000000000000002;"/><text fill="#000000" font-family="sans-serif" font-size="11.2" lengthAdjust="spacing" textLength="146.4" x="1282.8" y="561.95">getMembershipFee(): double</text><ellipse cx="1275.6" cy="573.4094" fill="#84BE84" rx="2.4" ry="2.4" style="stroke:#038048;stroke-width:0.8000000000000002;"/><text fill="#000000" font-family="sans-serif" font-size="11.2" lengthAdjust="spacing" textLength="254.4" x="1282.8" y="576.8469">setMembershipFee(membershipFee: double): void</text><ellipse cx="1275.6" cy="588.3063" fill="#84BE84" rx="2.4" ry="2.4" style="stroke:#038048;stroke-width:0.8000000000000002;"/><text fill="#000000" font-family="sans-serif" font-size="11.2" lengthAdjust="spacing" textLength="179.2" x="1282.8" y="591.7438">getCustomerType(): CustomerType</text><ellipse cx="1275.6" cy="603.2031" fill="#84BE84" rx="2.4" ry="2.4" style="stroke:#038048;stroke-width:0.8000000000000002;"/><text fill="#000000" font-family="sans-serif" font-size="11.2" lengthAdjust="spacing" textLength="277.6" x="1282.8" y="606.6406">setCustomerType(customerType: CustomerType): void</text><ellipse cx="1275.6" cy="618.1" fill="#84BE84" rx="2.4" ry="2.4" style="stroke:#038048;stroke-width:0.8000000000000002;"/><text fill="#000000" font-family="sans-serif" font-size="11.2" lengthAdjust="spacing" textLength="83.2" x="1282.8" y="621.5375">toString(): String</text></g><!--class StandardCustomer--><g id="elem_StandardCustomer"><rect codeLine="99" fill="#F1F1F1" height="68.1938" id="StandardCustomer" rx="2" ry="2" style="stroke:#181818;stroke-width:0.4000000000000001;" width="391.2" x="1229.2" y="100.4109"/><ellipse cx="1373.8" cy="113.2109" fill="#ADD1B2" rx="8.8" ry="8.8" style="stroke:#181818;stroke-width:0.8000000000000002;"/><path d="M1376.0125,109.9109 Q1376.1375,109.7359 1376.2875,109.6484 Q1376.4375,109.5609 1376.6125,109.5609 Q1376.9125,109.5609 1377.1,109.7734 Q1377.2875,109.9734 1377.2875,110.4609 L1377.2875,111.6234 Q1377.2875,112.1109 1377.1,112.3234 Q1376.9125,112.5359 1376.6125,112.5359 Q1376.3375,112.5359 1376.175,112.3734 Q1376.0125,112.2234 1375.925,111.8109 Q1375.8875,111.5234 1375.7375,111.3734 Q1375.475,111.0734 1374.9875,110.8984 Q1374.5,110.7234 1374,110.7234 Q1373.3875,110.7234 1372.875,110.9859 Q1372.375,111.2484 1371.975,111.8484 Q1371.5875,112.4484 1371.5875,113.2734 L1371.5875,114.1484 Q1371.5875,115.1359 1372.3,115.7984 Q1373.0125,116.4484 1374.2875,116.4484 Q1375.0375,116.4484 1375.5625,116.2484 Q1375.875,116.1234 1376.2125,115.7734 Q1376.425,115.5609 1376.5375,115.4984 Q1376.6625,115.4359 1376.825,115.4359 Q1377.0875,115.4359 1377.2875,115.6484 Q1377.5,115.8484 1377.5,116.1234 Q1377.5,116.3984 1377.225,116.7234 Q1376.825,117.1859 1376.1875,117.4484 Q1375.325,117.8109 1374.2875,117.8109 Q1373.075,117.8109 1372.1125,117.3109 Q1371.325,116.9109 1370.775,116.0609 Q1370.225,115.1984 1370.225,114.1734 L1370.225,113.2484 Q1370.225,112.1859 1370.7125,111.2734 Q1371.2125,110.3484 1372.0875,109.8609 Q1372.9625,109.3609 1373.95,109.3609 Q1374.5375,109.3609 1375.05,109.4984 Q1375.575,109.6234 1376.0125,109.9109 Z " fill="#000000"/><text fill="#000000" font-family="sans-serif" font-size="11.2" lengthAdjust="spacing" textLength="95.2" x="1390.2" y="117.8484">StandardCustomer</text><line style="stroke:#181818;stroke-width:0.4000000000000001;" x1="1230" x2="1619.6" y1="126.0109" y2="126.0109"/><line style="stroke:#181818;stroke-width:0.4000000000000001;" x1="1230" x2="1619.6" y1="132.4109" y2="132.4109"/><ellipse cx="1238" cy="144.2594" fill="#84BE84" rx="2.4" ry="2.4" style="stroke:#038048;stroke-width:0.8000000000000002;"/><text fill="#000000" font-family="sans-serif" font-size="11.2" lengthAdjust="spacing" textLength="370.4" x="1245.2" y="147.6969">StandardCustomer(name: String, address: String, id: String, email: String)</text><ellipse cx="1238" cy="159.1563" fill="#84BE84" rx="2.4" ry="2.4" style="stroke:#038048;stroke-width:0.8000000000000002;"/><text fill="#000000" font-family="sans-serif" font-size="11.2" lengthAdjust="spacing" textLength="83.2" x="1245.2" y="162.5938">toString(): String</text></g><!--class PremiumCustomer--><g id="elem_PremiumCustomer"><rect codeLine="104" fill="#F1F1F1" height="112.8844" id="PremiumCustomer" rx="2" ry="2" style="stroke:#181818;stroke-width:0.4000000000000001;" width="522.4" x="678.8" y="78.0109"/><ellipse cx="890.2" cy="90.8109" fill="#ADD1B2" rx="8.8" ry="8.8" style="stroke:#181818;stroke-width:0.8000000000000002;"/><path d="M892.4125,87.5109 Q892.5375,87.3359 892.6875,87.2484 Q892.8375,87.1609 893.0125,87.1609 Q893.3125,87.1609 893.5,87.3734 Q893.6875,87.5734 893.6875,88.0609 L893.6875,89.2234 Q893.6875,89.7109 893.5,89.9234 Q893.3125,90.1359 893.0125,90.1359 Q892.7375,90.1359 892.575,89.9734 Q892.4125,89.8234 892.325,89.4109 Q892.2875,89.1234 892.1375,88.9734 Q891.875,88.6734 891.3875,88.4984 Q890.9,88.3234 890.4,88.3234 Q889.7875,88.3234 889.275,88.5859 Q888.775,88.8484 888.375,89.4484 Q887.9875,90.0484 887.9875,90.8734 L887.9875,91.7484 Q887.9875,92.7359 888.7,93.3984 Q889.4125,94.0484 890.6875,94.0484 Q891.4375,94.0484 891.9625,93.8484 Q892.275,93.7234 892.6125,93.3734 Q892.825,93.1609 892.9375,93.0984 Q893.0625,93.0359 893.225,93.0359 Q893.4875,93.0359 893.6875,93.2484 Q893.9,93.4484 893.9,93.7234 Q893.9,93.9984 893.625,94.3234 Q893.225,94.7859 892.5875,95.0484 Q891.725,95.4109 890.6875,95.4109 Q889.475,95.4109 888.5125,94.9109 Q887.725,94.5109 887.175,93.6609 Q886.625,92.7984 886.625,91.7734 L886.625,90.8484 Q886.625,89.7859 887.1125,88.8734 Q887.6125,87.9484 888.4875,87.4609 Q889.3625,86.9609 890.35,86.9609 Q890.9375,86.9609 891.45,87.0984 Q891.975,87.2234 892.4125,87.5109 Z " fill="#000000"/><text fill="#000000" font-family="sans-serif" font-size="11.2" lengthAdjust="spacing" textLength="92.8" x="906.6" y="95.4484">PremiumCustomer</text><line style="stroke:#181818;stroke-width:0.4000000000000001;" x1="679.6" x2="1200.4" y1="103.6109" y2="103.6109"/><rect fill="none" height="4.8" style="stroke:#C82930;stroke-width:0.8000000000000002;" width="4.8" x="685.2" y="113.0594"/><text fill="#000000" font-family="sans-serif" font-size="11.2" lengthAdjust="spacing" textLength="127.2" x="694.8" y="118.8969">shippingDiscount: double</text><line style="stroke:#181818;stroke-width:0.4000000000000001;" x1="679.6" x2="1200.4" y1="124.9078" y2="124.9078"/><ellipse cx="687.6" cy="136.7563" fill="#84BE84" rx="2.4" ry="2.4" style="stroke:#038048;stroke-width:0.8000000000000002;"/><text fill="#000000" font-family="sans-serif" font-size="11.2" lengthAdjust="spacing" textLength="501.6" x="694.8" y="140.1938">PremiumCustomer(name: String, address: String, id: String, email: String, shippingDiscount: double)</text><ellipse cx="687.6" cy="151.6531" fill="#84BE84" rx="2.4" ry="2.4" style="stroke:#038048;stroke-width:0.8000000000000002;"/><text fill="#000000" font-family="sans-serif" font-size="11.2" lengthAdjust="spacing" textLength="152.8" x="694.8" y="155.0906">getShippingDiscount(): double</text><ellipse cx="687.6" cy="166.55" fill="#84BE84" rx="2.4" ry="2.4" style="stroke:#038048;stroke-width:0.8000000000000002;"/><text fill="#000000" font-family="sans-serif" font-size="11.2" lengthAdjust="spacing" textLength="265.6" x="694.8" y="169.9875">setShippingDiscount(shippingDiscount: double): void</text><ellipse cx="687.6" cy="181.4469" fill="#84BE84" rx="2.4" ry="2.4" style="stroke:#038048;stroke-width:0.8000000000000002;"/><text fill="#000000" font-family="sans-serif" font-size="11.2" lengthAdjust="spacing" textLength="83.2" x="694.8" y="184.8844">toString(): String</text></g><!--class Item--><g id="elem_Item"><rect codeLine="112" fill="#F1F1F1" height="291.6469" id="Item" rx="2" ry="2" style="stroke:#181818;stroke-width:0.4000000000000001;" width="572.8" x="1869.6" y="1120.0109"/><ellipse cx="2141.8" cy="1132.8109" fill="#A9DCDF" rx="8.8" ry="8.8" style="stroke:#181818;stroke-width:0.8000000000000002;"/><path d="M2143.55,1134.2234 L2140.2375,1134.2234 L2139.9,1135.0484 L2140.2375,1135.0484 Q2140.725,1135.0484 2140.9375,1135.2359 Q2141.15,1135.4234 2141.15,1135.7359 Q2141.15,1136.0359 2140.9375,1136.2234 Q2140.725,1136.4109 2140.2375,1136.4109 L2138.4,1136.4109 Q2137.9125,1136.4109 2137.7125,1136.2234 Q2137.5,1136.0359 2137.5,1135.7234 Q2137.5,1135.4234 2137.725,1135.2359 Q2137.9375,1135.0359 2138.4375,1135.0484 L2140.575,1129.7234 L2139.6875,1129.7234 Q2139.2,1129.7234 2138.9875,1129.5359 Q2138.775,1129.3484 2138.775,1129.0359 Q2138.775,1128.7359 2138.9875,1128.5484 Q2139.2,1128.3609 2139.6875,1128.3609 L2142.625,1128.3609 L2145.3375,1135.0484 Q2145.8125,1135.0484 2145.9625,1135.1609 Q2146.275,1135.3734 2146.275,1135.7359 Q2146.275,1136.0359 2146.0625,1136.2234 Q2145.8625,1136.4109 2145.375,1136.4109 L2143.5375,1136.4109 Q2143.05,1136.4109 2142.8375,1136.2234 Q2142.625,1136.0359 2142.625,1135.7234 Q2142.625,1135.4234 2142.8375,1135.2359 Q2143.05,1135.0484 2143.5375,1135.0484 L2143.875,1135.0484 L2143.55,1134.2234 Z M2142.975,1132.8609 L2141.8875,1130.1609 L2140.7875,1132.8609 L2142.975,1132.8609 Z " fill="#000000"/><text fill="#000000" font-family="sans-serif" font-size="11.2" font-style="italic" lengthAdjust="spacing" textLength="21.6" x="2158.2" y="1137.4484">Item</text><line style="stroke:#181818;stroke-width:0.4000000000000001;" x1="1870.4" x2="2441.6" y1="1145.6109" y2="1145.6109"/><rect fill="none" height="4.8" style="stroke:#C82930;stroke-width:0.8000000000000002;" width="4.8" x="1876" y="1155.0594"/><text fill="#000000" font-family="sans-serif" font-size="11.2" lengthAdjust="spacing" textLength="60.8" x="1885.6" y="1160.8969">code: String</text><rect fill="none" height="4.8" style="stroke:#C82930;stroke-width:0.8000000000000002;" width="4.8" x="1876" y="1169.9563"/><text fill="#000000" font-family="sans-serif" font-size="11.2" lengthAdjust="spacing" textLength="91.2" x="1885.6" y="1175.7938">description: String</text><rect fill="none" height="4.8" style="stroke:#C82930;stroke-width:0.8000000000000002;" width="4.8" x="1876" y="1184.8531"/><text fill="#000000" font-family="sans-serif" font-size="11.2" lengthAdjust="spacing" textLength="98.4" x="1885.6" y="1190.6906">sellingPrice: double</text><rect fill="none" height="4.8" style="stroke:#C82930;stroke-width:0.8000000000000002;" width="4.8" x="1876" y="1199.75"/><text fill="#000000" font-family="sans-serif" font-size="11.2" lengthAdjust="spacing" textLength="106.4" x="1885.6" y="1205.5875">shippingCost: double</text><rect fill="none" height="4.8" style="stroke:#C82930;stroke-width:0.8000000000000002;" width="4.8" x="1876" y="1214.6469"/><text fill="#000000" font-family="sans-serif" font-size="11.2" lengthAdjust="spacing" textLength="140.8" x="1885.6" y="1220.4844">preparationTimeMinutes: int</text><line style="stroke:#181818;stroke-width:0.4000000000000001;" x1="1870.4" x2="2441.6" y1="1226.4953" y2="1226.4953"/><ellipse cx="1878.4" cy="1238.3438" fill="#84BE84" rx="2.4" ry="2.4" style="stroke:#038048;stroke-width:0.8000000000000002;"/><text fill="#000000" font-family="sans-serif" font-size="11.2" lengthAdjust="spacing" textLength="552" x="1885.6" y="1241.7813">Item(code: String, description: String, sellingPrice: double, shippingCost: double, preparationTimeMinutes: int)</text><ellipse cx="1878.4" cy="1253.2406" fill="#84BE84" rx="2.4" ry="2.4" style="stroke:#038048;stroke-width:0.8000000000000002;"/><text fill="#000000" font-family="sans-serif" font-size="11.2" lengthAdjust="spacing" textLength="87.2" x="1885.6" y="1256.6781">getCode(): String</text><ellipse cx="1878.4" cy="1268.1375" fill="#84BE84" rx="2.4" ry="2.4" style="stroke:#038048;stroke-width:0.8000000000000002;"/><text fill="#000000" font-family="sans-serif" font-size="11.2" lengthAdjust="spacing" textLength="138.4" x="1885.6" y="1271.575">setCode(code: String): void</text><ellipse cx="1878.4" cy="1283.0344" fill="#84BE84" rx="2.4" ry="2.4" style="stroke:#038048;stroke-width:0.8000000000000002;"/><text fill="#000000" font-family="sans-serif" font-size="11.2" lengthAdjust="spacing" textLength="116.8" x="1885.6" y="1286.4719">getDescription(): String</text><ellipse cx="1878.4" cy="1297.9313" fill="#84BE84" rx="2.4" ry="2.4" style="stroke:#038048;stroke-width:0.8000000000000002;"/><text fill="#000000" font-family="sans-serif" font-size="11.2" lengthAdjust="spacing" textLength="198.4" x="1885.6" y="1301.3688">setDescription(description: String): void</text><ellipse cx="1878.4" cy="1312.8281" fill="#84BE84" rx="2.4" ry="2.4" style="stroke:#038048;stroke-width:0.8000000000000002;"/><text fill="#000000" font-family="sans-serif" font-size="11.2" lengthAdjust="spacing" textLength="124" x="1885.6" y="1316.2656">getSellingPrice(): double</text><ellipse cx="1878.4" cy="1327.725" fill="#84BE84" rx="2.4" ry="2.4" style="stroke:#038048;stroke-width:0.8000000000000002;"/><text fill="#000000" font-family="sans-serif" font-size="11.2" lengthAdjust="spacing" textLength="208" x="1885.6" y="1331.1625">setSellingPrice(sellingPrice: double): void</text><ellipse cx="1878.4" cy="1342.6219" fill="#84BE84" rx="2.4" ry="2.4" style="stroke:#038048;stroke-width:0.8000000000000002;"/><text fill="#000000" font-family="sans-serif" font-size="11.2" lengthAdjust="spacing" textLength="132" x="1885.6" y="1346.0594">getShippingCost(): double</text><ellipse cx="1878.4" cy="1357.5188" fill="#84BE84" rx="2.4" ry="2.4" style="stroke:#038048;stroke-width:0.8000000000000002;"/><text fill="#000000" font-family="sans-serif" font-size="11.2" lengthAdjust="spacing" textLength="224" x="1885.6" y="1360.9563">setShippingCost(shippingCost: double): void</text><ellipse cx="1878.4" cy="1372.4156" fill="#84BE84" rx="2.4" ry="2.4" style="stroke:#038048;stroke-width:0.8000000000000002;"/><text fill="#000000" font-family="sans-serif" font-size="11.2" lengthAdjust="spacing" textLength="165.6" x="1885.6" y="1375.8531">getPreparationTimeMinutes(): int</text><ellipse cx="1878.4" cy="1387.3125" fill="#84BE84" rx="2.4" ry="2.4" style="stroke:#038048;stroke-width:0.8000000000000002;"/><text fill="#000000" font-family="sans-serif" font-size="11.2" lengthAdjust="spacing" textLength="314.4" x="1885.6" y="1390.75">setPreparationTimeMinutes(preparationTimeMinutes: int): void</text><ellipse cx="1878.4" cy="1402.2094" fill="#84BE84" rx="2.4" ry="2.4" style="stroke:#038048;stroke-width:0.8000000000000002;"/><text fill="#000000" font-family="sans-serif" font-size="11.2" lengthAdjust="spacing" textLength="83.2" x="1885.6" y="1405.6469">toString(): String</text></g><!--class Order--><g id="elem_Order"><rect codeLine="132" fill="#F1F1F1" height="366.1313" id="Order" rx="2" ry="2" style="stroke:#181818;stroke-width:0.4000000000000001;" width="680" x="1724" y="690.4109"/><ellipse cx="2045.8" cy="703.2109" fill="#A9DCDF" rx="8.8" ry="8.8" style="stroke:#181818;stroke-width:0.8000000000000002;"/><path d="M2047.55,704.6234 L2044.2375,704.6234 L2043.9,705.4484 L2044.2375,705.4484 Q2044.725,705.4484 2044.9375,705.6359 Q2045.15,705.8234 2045.15,706.1359 Q2045.15,706.4359 2044.9375,706.6234 Q2044.725,706.8109 2044.2375,706.8109 L2042.4,706.8109 Q2041.9125,706.8109 2041.7125,706.6234 Q2041.5,706.4359 2041.5,706.1234 Q2041.5,705.8234 2041.725,705.6359 Q2041.9375,705.4359 2042.4375,705.4484 L2044.575,700.1234 L2043.6875,700.1234 Q2043.2,700.1234 2042.9875,699.9359 Q2042.775,699.7484 2042.775,699.4359 Q2042.775,699.1359 2042.9875,698.9484 Q2043.2,698.7609 2043.6875,698.7609 L2046.625,698.7609 L2049.3375,705.4484 Q2049.8125,705.4484 2049.9625,705.5609 Q2050.275,705.7734 2050.275,706.1359 Q2050.275,706.4359 2050.0625,706.6234 Q2049.8625,706.8109 2049.375,706.8109 L2047.5375,706.8109 Q2047.05,706.8109 2046.8375,706.6234 Q2046.625,706.4359 2046.625,706.1234 Q2046.625,705.8234 2046.8375,705.6359 Q2047.05,705.4484 2047.5375,705.4484 L2047.875,705.4484 L2047.55,704.6234 Z M2046.975,703.2609 L2045.8875,700.5609 L2044.7875,703.2609 L2046.975,703.2609 Z " fill="#000000"/><text fill="#000000" font-family="sans-serif" font-size="11.2" font-style="italic" lengthAdjust="spacing" textLength="29.6" x="2062.2" y="707.8484">Order</text><line style="stroke:#181818;stroke-width:0.4000000000000001;" x1="1724.8" x2="2403.2" y1="716.0109" y2="716.0109"/><rect fill="none" height="4.8" style="stroke:#C82930;stroke-width:0.8000000000000002;" width="4.8" x="1730.4" y="725.4594"/><text fill="#000000" font-family="sans-serif" font-size="11.2" lengthAdjust="spacing" textLength="84.8" x="1740" y="731.2969">orderNumber: int</text><rect fill="none" height="4.8" style="stroke:#C82930;stroke-width:0.8000000000000002;" width="4.8" x="1730.4" y="740.3563"/><text fill="#000000" font-family="sans-serif" font-size="11.2" lengthAdjust="spacing" textLength="101.6" x="1740" y="746.1938">customer: Customer</text><rect fill="none" height="4.8" style="stroke:#C82930;stroke-width:0.8000000000000002;" width="4.8" x="1730.4" y="755.2531"/><text fill="#000000" font-family="sans-serif" font-size="11.2" lengthAdjust="spacing" textLength="48" x="1740" y="761.0906">item: Item</text><rect fill="none" height="4.8" style="stroke:#C82930;stroke-width:0.8000000000000002;" width="4.8" x="1730.4" y="770.15"/><text fill="#000000" font-family="sans-serif" font-size="11.2" lengthAdjust="spacing" textLength="83.2" x="1740" y="775.9875">quantityUnits: int</text><rect fill="none" height="4.8" style="stroke:#C82930;stroke-width:0.8000000000000002;" width="4.8" x="1730.4" y="785.0469"/><text fill="#000000" font-family="sans-serif" font-size="11.2" lengthAdjust="spacing" textLength="131.2" x="1740" y="790.8844">orderDateTime: DateTime</text><rect fill="none" height="4.8" style="stroke:#C82930;stroke-width:0.8000000000000002;" width="4.8" x="1730.4" y="799.9438"/><text fill="#000000" font-family="sans-serif" font-size="11.2" lengthAdjust="spacing" textLength="140.8" x="1740" y="805.7813">preparationTimeMinutes: int</text><line style="stroke:#181818;stroke-width:0.4000000000000001;" x1="1724.8" x2="2403.2" y1="811.7922" y2="811.7922"/><ellipse cx="1732.8" cy="823.6406" fill="#84BE84" rx="2.4" ry="2.4" style="stroke:#038048;stroke-width:0.8000000000000002;"/><text fill="#000000" font-family="sans-serif" font-size="11.2" lengthAdjust="spacing" textLength="659.2" x="1740" y="827.0781">Order(orderNumber: int, customer: Customer, item: Item, quantityUnits: int, orderDateTime: DateTime, preparationTimeMinutes: int)</text><ellipse cx="1732.8" cy="838.5375" fill="#84BE84" rx="2.4" ry="2.4" style="stroke:#038048;stroke-width:0.8000000000000002;"/><text fill="#000000" font-family="sans-serif" font-size="11.2" lengthAdjust="spacing" textLength="111.2" x="1740" y="841.975">getOrderNumber(): int</text><ellipse cx="1732.8" cy="853.4344" fill="#84BE84" rx="2.4" ry="2.4" style="stroke:#038048;stroke-width:0.8000000000000002;"/><text fill="#000000" font-family="sans-serif" font-size="11.2" lengthAdjust="spacing" textLength="204" x="1740" y="856.8719">setOrderNumber(orderNumber: int): void</text><ellipse cx="1732.8" cy="868.3313" fill="#84BE84" rx="2.4" ry="2.4" style="stroke:#038048;stroke-width:0.8000000000000002;"/><text fill="#000000" font-family="sans-serif" font-size="11.2" lengthAdjust="spacing" textLength="128" x="1740" y="871.7688">getCustomer(): Customer</text><ellipse cx="1732.8" cy="883.2281" fill="#84BE84" rx="2.4" ry="2.4" style="stroke:#038048;stroke-width:0.8000000000000002;"/><text fill="#000000" font-family="sans-serif" font-size="11.2" lengthAdjust="spacing" textLength="200.8" x="1740" y="886.6656">setCustomer(customer: Customer): void</text><ellipse cx="1732.8" cy="898.125" fill="#84BE84" rx="2.4" ry="2.4" style="stroke:#038048;stroke-width:0.8000000000000002;"/><text fill="#000000" font-family="sans-serif" font-size="11.2" lengthAdjust="spacing" textLength="72" x="1740" y="901.5625">getItem(): Item</text><ellipse cx="1732.8" cy="913.0219" fill="#84BE84" rx="2.4" ry="2.4" style="stroke:#038048;stroke-width:0.8000000000000002;"/><text fill="#000000" font-family="sans-serif" font-size="11.2" lengthAdjust="spacing" textLength="119.2" x="1740" y="916.4594">setItem(item: Item): void</text><ellipse cx="1732.8" cy="927.9188" fill="#84BE84" rx="2.4" ry="2.4" style="stroke:#038048;stroke-width:0.8000000000000002;"/><text fill="#000000" font-family="sans-serif" font-size="11.2" lengthAdjust="spacing" textLength="109.6" x="1740" y="931.3563">getQuantityUnits(): int</text><ellipse cx="1732.8" cy="942.8156" fill="#84BE84" rx="2.4" ry="2.4" style="stroke:#038048;stroke-width:0.8000000000000002;"/><text fill="#000000" font-family="sans-serif" font-size="11.2" lengthAdjust="spacing" textLength="200.8" x="1740" y="946.2531">setQuantityUnits(quantityUnits: int): void</text><ellipse cx="1732.8" cy="957.7125" fill="#84BE84" rx="2.4" ry="2.4" style="stroke:#038048;stroke-width:0.8000000000000002;"/><text fill="#000000" font-family="sans-serif" font-size="11.2" lengthAdjust="spacing" textLength="157.6" x="1740" y="961.15">getOrderDateTime(): DateTime</text><ellipse cx="1732.8" cy="972.6094" fill="#84BE84" rx="2.4" ry="2.4" style="stroke:#038048;stroke-width:0.8000000000000002;"/><text fill="#000000" font-family="sans-serif" font-size="11.2" lengthAdjust="spacing" textLength="260" x="1740" y="976.0469">setOrderDateTime(orderDateTime: DateTime): void</text><ellipse cx="1732.8" cy="987.5063" fill="#84BE84" rx="2.4" ry="2.4" style="stroke:#038048;stroke-width:0.8000000000000002;"/><text fill="#000000" font-family="sans-serif" font-size="11.2" lengthAdjust="spacing" textLength="165.6" x="1740" y="990.9438">getPreparationTimeMinutes(): int</text><ellipse cx="1732.8" cy="1002.4031" fill="#84BE84" rx="2.4" ry="2.4" style="stroke:#038048;stroke-width:0.8000000000000002;"/><text fill="#000000" font-family="sans-serif" font-size="11.2" lengthAdjust="spacing" textLength="314.4" x="1740" y="1005.8406">setPreparationTimeMinutes(preparationTimeMinutes: int): void</text><ellipse cx="1732.8" cy="1017.3" fill="#84BE84" rx="2.4" ry="2.4" style="stroke:#038048;stroke-width:0.8000000000000002;"/><text fill="#000000" font-family="sans-serif" font-size="11.2" lengthAdjust="spacing" textLength="148.8" x="1740" y="1020.7375">calculateOrderPrice(): double</text><ellipse cx="1732.8" cy="1032.1969" fill="#84BE84" rx="2.4" ry="2.4" style="stroke:#038048;stroke-width:0.8000000000000002;"/><text fill="#000000" font-family="sans-serif" font-size="11.2" lengthAdjust="spacing" textLength="120" x="1740" y="1035.6344">isCancelable(): boolean</text><ellipse cx="1732.8" cy="1047.0938" fill="#84BE84" rx="2.4" ry="2.4" style="stroke:#038048;stroke-width:0.8000000000000002;"/><text fill="#000000" font-family="sans-serif" font-size="11.2" lengthAdjust="spacing" textLength="83.2" x="1740" y="1050.5313">toString(): String</text></g><!--class CustomerType--><g id="elem_CustomerType"><rect codeLine="157" fill="#F1F1F1" height="68.1938" id="CustomerType" rx="2" ry="2" style="stroke:#181818;stroke-width:0.4000000000000001;" width="100" x="122" y="100.4109"/><ellipse cx="134" cy="113.2109" fill="#EB937F" rx="8.8" ry="8.8" style="stroke:#181818;stroke-width:0.8000000000000002;"/><path d="M133.0875,113.8484 L133.0875,115.8484 L136.55,115.8484 L136.55,115.1109 Q136.55,114.6234 136.7375,114.4109 Q136.9375,114.1984 137.2375,114.1984 Q137.5375,114.1984 137.725,114.4109 Q137.9125,114.6234 137.9125,115.1109 L137.9125,117.2109 L131.5125,117.2109 Q131.0125,117.2109 130.8,117.0234 Q130.6,116.8359 130.6,116.5234 Q130.6,116.2234 130.8125,116.0359 Q131.025,115.8484 131.5125,115.8484 L131.725,115.8484 L131.725,110.5234 L131.5125,110.5234 Q131.0125,110.5234 130.8,110.3359 Q130.6,110.1484 130.6,109.8359 Q130.6,109.5359 130.8,109.3484 Q131.0125,109.1609 131.5125,109.1609 L137.6125,109.1609 L137.6125,111.2359 Q137.6125,111.7234 137.425,111.9359 Q137.25,112.1359 136.9375,112.1359 Q136.6375,112.1359 136.45,111.9359 Q136.2625,111.7234 136.2625,111.2359 L136.2625,110.5234 L133.0875,110.5234 L133.0875,112.4859 L134.275,112.4859 Q134.275,111.9609 134.375,111.8109 Q134.5875,111.4859 134.9625,111.4859 Q135.2625,111.4859 135.45,111.6984 Q135.6375,111.8984 135.6375,112.3859 L135.6375,113.9609 Q135.6375,114.3984 135.5375,114.5484 Q135.325,114.8609 134.9625,114.8609 Q134.5875,114.8609 134.375,114.5359 Q134.275,114.3859 134.275,113.8484 L133.0875,113.8484 Z " fill="#000000"/><text fill="#000000" font-family="sans-serif" font-size="11.2" lengthAdjust="spacing" textLength="74.4" x="145.2" y="117.8484">CustomerType</text><line style="stroke:#181818;stroke-width:0.4000000000000001;" x1="122.8" x2="221.2" y1="126.0109" y2="126.0109"/><text fill="#000000" font-family="sans-serif" font-size="11.2" lengthAdjust="spacing" textLength="60" x="126.8" y="141.2969">STANDARD</text><text fill="#000000" font-family="sans-serif" font-size="11.2" lengthAdjust="spacing" textLength="49.6" x="126.8" y="156.1938">PREMIUM</text><line style="stroke:#181818;stroke-width:0.4000000000000001;" x1="122.8" x2="221.2" y1="162.2047" y2="162.2047"/></g><!--class TimeUnit--><g id="elem_TimeUnit"><rect codeLine="162" fill="#F1F1F1" height="97.9875" id="TimeUnit" rx="2" ry="2" style="stroke:#181818;stroke-width:0.4000000000000001;" width="69.6" x="24.4" y="85.6109"/><ellipse cx="36.4" cy="98.4109" fill="#EB937F" rx="8.8" ry="8.8" style="stroke:#181818;stroke-width:0.8000000000000002;"/><path d="M35.4875,99.0484 L35.4875,101.0484 L38.95,101.0484 L38.95,100.3109 Q38.95,99.8234 39.1375,99.6109 Q39.3375,99.3984 39.6375,99.3984 Q39.9375,99.3984 40.125,99.6109 Q40.3125,99.8234 40.3125,100.3109 L40.3125,102.4109 L33.9125,102.4109 Q33.4125,102.4109 33.2,102.2234 Q33,102.0359 33,101.7234 Q33,101.4234 33.2125,101.2359 Q33.425,101.0484 33.9125,101.0484 L34.125,101.0484 L34.125,95.7234 L33.9125,95.7234 Q33.4125,95.7234 33.2,95.5359 Q33,95.3484 33,95.0359 Q33,94.7359 33.2,94.5484 Q33.4125,94.3609 33.9125,94.3609 L40.0125,94.3609 L40.0125,96.4359 Q40.0125,96.9234 39.825,97.1359 Q39.65,97.3359 39.3375,97.3359 Q39.0375,97.3359 38.85,97.1359 Q38.6625,96.9234 38.6625,96.4359 L38.6625,95.7234 L35.4875,95.7234 L35.4875,97.6859 L36.675,97.6859 Q36.675,97.1609 36.775,97.0109 Q36.9875,96.6859 37.3625,96.6859 Q37.6625,96.6859 37.85,96.8984 Q38.0375,97.0984 38.0375,97.5859 L38.0375,99.1609 Q38.0375,99.5984 37.9375,99.7484 Q37.725,100.0609 37.3625,100.0609 Q36.9875,100.0609 36.775,99.7359 Q36.675,99.5859 36.675,99.0484 L35.4875,99.0484 Z " fill="#000000"/><text fill="#000000" font-family="sans-serif" font-size="11.2" lengthAdjust="spacing" textLength="44" x="47.6" y="103.0484">TimeUnit</text><line style="stroke:#181818;stroke-width:0.4000000000000001;" x1="25.2" x2="93.2" y1="111.2109" y2="111.2109"/><text fill="#000000" font-family="sans-serif" font-size="11.2" lengthAdjust="spacing" textLength="29.6" x="29.2" y="126.4969">DAYS</text><text fill="#000000" font-family="sans-serif" font-size="11.2" lengthAdjust="spacing" textLength="38.4" x="29.2" y="141.3938">HOURS</text><text fill="#000000" font-family="sans-serif" font-size="11.2" lengthAdjust="spacing" textLength="47.2" x="29.2" y="156.2906">MINUTES</text><text fill="#000000" font-family="sans-serif" font-size="11.2" lengthAdjust="spacing" textLength="53.6" x="29.2" y="171.1875">SECONDS</text><line style="stroke:#181818;stroke-width:0.4000000000000001;" x1="25.2" x2="93.2" y1="177.1984" y2="177.1984"/></g><!--class List--><g id="elem_List"><rect codeLine="169" fill="#F1F1F1" height="187.3688" id="List" rx="2" ry="2" style="stroke:#181818;stroke-width:0.4000000000000001;" width="160.8" x="370" y="365.6109"/><ellipse cx="433.8" cy="378.4109" fill="#ADD1B2" rx="8.8" ry="8.8" style="stroke:#181818;stroke-width:0.8000000000000002;"/><path d="M436.0125,375.1109 Q436.1375,374.9359 436.2875,374.8484 Q436.4375,374.7609 436.6125,374.7609 Q436.9125,374.7609 437.1,374.9734 Q437.2875,375.1734 437.2875,375.6609 L437.2875,376.8234 Q437.2875,377.3109 437.1,377.5234 Q436.9125,377.7359 436.6125,377.7359 Q436.3375,377.7359 436.175,377.5734 Q436.0125,377.4234 435.925,377.0109 Q435.8875,376.7234 435.7375,376.5734 Q435.475,376.2734 434.9875,376.0984 Q434.5,375.9234 434,375.9234 Q433.3875,375.9234 432.875,376.1859 Q432.375,376.4484 431.975,377.0484 Q431.5875,377.6484 431.5875,378.4734 L431.5875,379.3484 Q431.5875,380.3359 432.3,380.9984 Q433.0125,381.6484 434.2875,381.6484 Q435.0375,381.6484 435.5625,381.4484 Q435.875,381.3234 436.2125,380.9734 Q436.425,380.7609 436.5375,380.6984 Q436.6625,380.6359 436.825,380.6359 Q437.0875,380.6359 437.2875,380.8484 Q437.5,381.0484 437.5,381.3234 Q437.5,381.5984 437.225,381.9234 Q436.825,382.3859 436.1875,382.6484 Q435.325,383.0109 434.2875,383.0109 Q433.075,383.0109 432.1125,382.5109 Q431.325,382.1109 430.775,381.2609 Q430.225,380.3984 430.225,379.3734 L430.225,378.4484 Q430.225,377.3859 430.7125,376.4734 Q431.2125,375.5484 432.0875,375.0609 Q432.9625,374.5609 433.95,374.5609 Q434.5375,374.5609 435.05,374.6984 Q435.575,374.8234 436.0125,375.1109 Z " fill="#000000"/><text fill="#000000" font-family="sans-serif" font-size="11.2" lengthAdjust="spacing" textLength="17.6" x="450.2" y="383.0484">List</text><rect fill="#FFFFFF" height="14.3688" style="stroke:#181818;stroke-width:0.8000000000000002;stroke-dasharray:2.0,2.0;" width="7.2" x="526" y="363.2109"/><text fill="#000000" font-family="sans-serif" font-size="9.6" font-style="italic" lengthAdjust="spacing" textLength="5.6" x="526.8" y="374.3703">T</text><line style="stroke:#181818;stroke-width:0.4000000000000001;" x1="370.8" x2="530" y1="391.2109" y2="391.2109"/><rect fill="none" height="4.8" style="stroke:#C82930;stroke-width:0.8000000000000002;" width="4.8" x="376.4" y="400.6594"/><text fill="#000000" font-family="sans-serif" font-size="11.2" lengthAdjust="spacing" textLength="84.8" x="386" y="406.4969">list: ArrayList&lt;T&gt;</text><line style="stroke:#181818;stroke-width:0.4000000000000001;" x1="370.8" x2="530" y1="412.5078" y2="412.5078"/><ellipse cx="378.8" cy="424.3563" fill="#84BE84" rx="2.4" ry="2.4" style="stroke:#038048;stroke-width:0.8000000000000002;"/><text fill="#000000" font-family="sans-serif" font-size="11.2" lengthAdjust="spacing" textLength="25.6" x="386" y="427.7938">List()</text><ellipse cx="378.8" cy="439.2531" fill="#84BE84" rx="2.4" ry="2.4" style="stroke:#038048;stroke-width:0.8000000000000002;"/><text fill="#000000" font-family="sans-serif" font-size="11.2" lengthAdjust="spacing" textLength="63.2" x="386" y="442.6906">getSize(): int</text><ellipse cx="378.8" cy="454.15" fill="#84BE84" rx="2.4" ry="2.4" style="stroke:#038048;stroke-width:0.8000000000000002;"/><text fill="#000000" font-family="sans-serif" font-size="11.2" lengthAdjust="spacing" textLength="71.2" x="386" y="457.5875">add(t: T): void</text><ellipse cx="378.8" cy="469.0469" fill="#84BE84" rx="2.4" ry="2.4" style="stroke:#038048;stroke-width:0.8000000000000002;"/><text fill="#000000" font-family="sans-serif" font-size="11.2" lengthAdjust="spacing" textLength="83.2" x="386" y="472.4844">delete(t: T): void</text><ellipse cx="378.8" cy="483.9438" fill="#84BE84" rx="2.4" ry="2.4" style="stroke:#038048;stroke-width:0.8000000000000002;"/><text fill="#000000" font-family="sans-serif" font-size="11.2" lengthAdjust="spacing" textLength="105.6" x="386" y="487.3813">getAt(position: int): T</text><ellipse cx="378.8" cy="498.8406" fill="#84BE84" rx="2.4" ry="2.4" style="stroke:#038048;stroke-width:0.8000000000000002;"/><text fill="#000000" font-family="sans-serif" font-size="11.2" lengthAdjust="spacing" textLength="60" x="386" y="502.2781">clear(): void</text><ellipse cx="378.8" cy="513.7375" fill="#84BE84" rx="2.4" ry="2.4" style="stroke:#038048;stroke-width:0.8000000000000002;"/><text fill="#000000" font-family="sans-serif" font-size="11.2" lengthAdjust="spacing" textLength="94.4" x="386" y="517.175">isEmpty(): boolean</text><ellipse cx="378.8" cy="528.6344" fill="#84BE84" rx="2.4" ry="2.4" style="stroke:#038048;stroke-width:0.8000000000000002;"/><text fill="#000000" font-family="sans-serif" font-size="11.2" lengthAdjust="spacing" textLength="140" x="386" y="532.0719">getArrayList(): ArrayList&lt;T&gt;</text><ellipse cx="378.8" cy="543.5313" fill="#84BE84" rx="2.4" ry="2.4" style="stroke:#038048;stroke-width:0.8000000000000002;"/><text fill="#000000" font-family="sans-serif" font-size="11.2" lengthAdjust="spacing" textLength="83.2" x="386" y="546.9688">toString(): String</text></g><!--class CustomerList--><g id="elem_CustomerList"><rect codeLine="52" fill="#F1F1F1" height="112.8844" id="CustomerList" rx="2" ry="2" style="stroke:#181818;stroke-width:0.4000000000000001;" width="331.2" x="1648.8" y="78.0109"/><ellipse cx="1777.8" cy="90.8109" fill="#ADD1B2" rx="8.8" ry="8.8" style="stroke:#181818;stroke-width:0.8000000000000002;"/><path d="M1780.0125,87.5109 Q1780.1375,87.3359 1780.2875,87.2484 Q1780.4375,87.1609 1780.6125,87.1609 Q1780.9125,87.1609 1781.1,87.3734 Q1781.2875,87.5734 1781.2875,88.0609 L1781.2875,89.2234 Q1781.2875,89.7109 1781.1,89.9234 Q1780.9125,90.1359 1780.6125,90.1359 Q1780.3375,90.1359 1780.175,89.9734 Q1780.0125,89.8234 1779.925,89.4109 Q1779.8875,89.1234 1779.7375,88.9734 Q1779.475,88.6734 1778.9875,88.4984 Q1778.5,88.3234 1778,88.3234 Q1777.3875,88.3234 1776.875,88.5859 Q1776.375,88.8484 1775.975,89.4484 Q1775.5875,90.0484 1775.5875,90.8734 L1775.5875,91.7484 Q1775.5875,92.7359 1776.3,93.3984 Q1777.0125,94.0484 1778.2875,94.0484 Q1779.0375,94.0484 1779.5625,93.8484 Q1779.875,93.7234 1780.2125,93.3734 Q1780.425,93.1609 1780.5375,93.0984 Q1780.6625,93.0359 1780.825,93.0359 Q1781.0875,93.0359 1781.2875,93.2484 Q1781.5,93.4484 1781.5,93.7234 Q1781.5,93.9984 1781.225,94.3234 Q1780.825,94.7859 1780.1875,95.0484 Q1779.325,95.4109 1778.2875,95.4109 Q1777.075,95.4109 1776.1125,94.9109 Q1775.325,94.5109 1774.775,93.6609 Q1774.225,92.7984 1774.225,91.7734 L1774.225,90.8484 Q1774.225,89.7859 1774.7125,88.8734 Q1775.2125,87.9484 1776.0875,87.4609 Q1776.9625,86.9609 1777.95,86.9609 Q1778.5375,86.9609 1779.05,87.0984 Q1779.575,87.2234 1780.0125,87.5109 Z " fill="#000000"/><text fill="#000000" font-family="sans-serif" font-size="11.2" lengthAdjust="spacing" textLength="66.4" x="1794.2" y="95.4484">CustomerList</text><line style="stroke:#181818;stroke-width:0.4000000000000001;" x1="1649.6" x2="1979.2" y1="103.6109" y2="103.6109"/><rect fill="none" height="4.8" style="stroke:#C82930;stroke-width:0.8000000000000002;" width="4.8" x="1655.2" y="113.0594"/><text fill="#000000" font-family="sans-serif" font-size="11.2" lengthAdjust="spacing" textLength="137.6" x="1664.8" y="118.8969">customers: List&lt;Customer&gt;</text><line style="stroke:#181818;stroke-width:0.4000000000000001;" x1="1649.6" x2="1979.2" y1="124.9078" y2="124.9078"/><ellipse cx="1657.6" cy="136.7563" fill="#84BE84" rx="2.4" ry="2.4" style="stroke:#038048;stroke-width:0.8000000000000002;"/><text fill="#000000" font-family="sans-serif" font-size="11.2" lengthAdjust="spacing" textLength="204.8" x="1664.8" y="140.1938">addCustomer(customer: Customer): void</text><ellipse cx="1657.6" cy="151.6531" fill="#84BE84" rx="2.4" ry="2.4" style="stroke:#038048;stroke-width:0.8000000000000002;"/><text fill="#000000" font-family="sans-serif" font-size="11.2" lengthAdjust="spacing" textLength="223.2" x="1664.8" y="155.0906">removeCustomer(customer: Customer): void</text><ellipse cx="1657.6" cy="166.55" fill="#84BE84" rx="2.4" ry="2.4" style="stroke:#038048;stroke-width:0.8000000000000002;"/><text fill="#000000" font-family="sans-serif" font-size="11.2" lengthAdjust="spacing" textLength="164" x="1664.8" y="169.9875">getCustomers(): List&lt;Customer&gt;</text><ellipse cx="1657.6" cy="181.4469" fill="#84BE84" rx="2.4" ry="2.4" style="stroke:#038048;stroke-width:0.8000000000000002;"/><text fill="#000000" font-family="sans-serif" font-size="11.2" lengthAdjust="spacing" textLength="310.4" x="1664.8" y="184.8844">filterCustomersByType(type: CustomerType): List&lt;Customer&gt;</text></g><!--class OrderList--><g id="elem_OrderList"><rect codeLine="60" fill="#F1F1F1" height="112.8844" id="OrderList" rx="2" ry="2" style="stroke:#181818;stroke-width:0.4000000000000001;" width="315.2" x="2008" y="78.0109"/><ellipse cx="2138.6" cy="90.8109" fill="#ADD1B2" rx="8.8" ry="8.8" style="stroke:#181818;stroke-width:0.8000000000000002;"/><path d="M2140.8125,87.5109 Q2140.9375,87.3359 2141.0875,87.2484 Q2141.2375,87.1609 2141.4125,87.1609 Q2141.7125,87.1609 2141.9,87.3734 Q2142.0875,87.5734 2142.0875,88.0609 L2142.0875,89.2234 Q2142.0875,89.7109 2141.9,89.9234 Q2141.7125,90.1359 2141.4125,90.1359 Q2141.1375,90.1359 2140.975,89.9734 Q2140.8125,89.8234 2140.725,89.4109 Q2140.6875,89.1234 2140.5375,88.9734 Q2140.275,88.6734 2139.7875,88.4984 Q2139.3,88.3234 2138.8,88.3234 Q2138.1875,88.3234 2137.675,88.5859 Q2137.175,88.8484 2136.775,89.4484 Q2136.3875,90.0484 2136.3875,90.8734 L2136.3875,91.7484 Q2136.3875,92.7359 2137.1,93.3984 Q2137.8125,94.0484 2139.0875,94.0484 Q2139.8375,94.0484 2140.3625,93.8484 Q2140.675,93.7234 2141.0125,93.3734 Q2141.225,93.1609 2141.3375,93.0984 Q2141.4625,93.0359 2141.625,93.0359 Q2141.8875,93.0359 2142.0875,93.2484 Q2142.3,93.4484 2142.3,93.7234 Q2142.3,93.9984 2142.025,94.3234 Q2141.625,94.7859 2140.9875,95.0484 Q2140.125,95.4109 2139.0875,95.4109 Q2137.875,95.4109 2136.9125,94.9109 Q2136.125,94.5109 2135.575,93.6609 Q2135.025,92.7984 2135.025,91.7734 L2135.025,90.8484 Q2135.025,89.7859 2135.5125,88.8734 Q2136.0125,87.9484 2136.8875,87.4609 Q2137.7625,86.9609 2138.75,86.9609 Q2139.3375,86.9609 2139.85,87.0984 Q2140.375,87.2234 2140.8125,87.5109 Z " fill="#000000"/><text fill="#000000" font-family="sans-serif" font-size="11.2" lengthAdjust="spacing" textLength="47.2" x="2155" y="95.4484">OrderList</text><line style="stroke:#181818;stroke-width:0.4000000000000001;" x1="2008.8" x2="2322.4" y1="103.6109" y2="103.6109"/><rect fill="none" height="4.8" style="stroke:#C82930;stroke-width:0.8000000000000002;" width="4.8" x="2014.4" y="113.0594"/><text fill="#000000" font-family="sans-serif" font-size="11.2" lengthAdjust="spacing" textLength="99.2" x="2024" y="118.8969">orders: List&lt;Order&gt;</text><line style="stroke:#181818;stroke-width:0.4000000000000001;" x1="2008.8" x2="2322.4" y1="124.9078" y2="124.9078"/><ellipse cx="2016.8" cy="136.7563" fill="#84BE84" rx="2.4" ry="2.4" style="stroke:#038048;stroke-width:0.8000000000000002;"/><text fill="#000000" font-family="sans-serif" font-size="11.2" lengthAdjust="spacing" textLength="147.2" x="2024" y="140.1938">addOrder(order: Order): void</text><ellipse cx="2016.8" cy="151.6531" fill="#84BE84" rx="2.4" ry="2.4" style="stroke:#038048;stroke-width:0.8000000000000002;"/><text fill="#000000" font-family="sans-serif" font-size="11.2" lengthAdjust="spacing" textLength="165.6" x="2024" y="155.0906">removeOrder(order: Order): void</text><ellipse cx="2016.8" cy="166.55" fill="#84BE84" rx="2.4" ry="2.4" style="stroke:#038048;stroke-width:0.8000000000000002;"/><text fill="#000000" font-family="sans-serif" font-size="11.2" lengthAdjust="spacing" textLength="125.6" x="2024" y="169.9875">getOrders(): List&lt;Order&gt;</text><ellipse cx="2016.8" cy="181.4469" fill="#84BE84" rx="2.4" ry="2.4" style="stroke:#038048;stroke-width:0.8000000000000002;"/><text fill="#000000" font-family="sans-serif" font-size="11.2" lengthAdjust="spacing" textLength="294.4" x="2024" y="184.8844">filterOrdersByCustomer(customer: Customer): List&lt;Order&gt;</text></g><!--class ItemList--><g id="elem_ItemList"><rect codeLine="68" fill="#F1F1F1" height="97.9875" id="ItemList" rx="2" ry="2" style="stroke:#181818;stroke-width:0.4000000000000001;" width="162.4" x="2351.6" y="85.6109"/><ellipse cx="2410.2" cy="98.4109" fill="#ADD1B2" rx="8.8" ry="8.8" style="stroke:#181818;stroke-width:0.8000000000000002;"/><path d="M2412.4125,95.1109 Q2412.5375,94.9359 2412.6875,94.8484 Q2412.8375,94.7609 2413.0125,94.7609 Q2413.3125,94.7609 2413.5,94.9734 Q2413.6875,95.1734 2413.6875,95.6609 L2413.6875,96.8234 Q2413.6875,97.3109 2413.5,97.5234 Q2413.3125,97.7359 2413.0125,97.7359 Q2412.7375,97.7359 2412.575,97.5734 Q2412.4125,97.4234 2412.325,97.0109 Q2412.2875,96.7234 2412.1375,96.5734 Q2411.875,96.2734 2411.3875,96.0984 Q2410.9,95.9234 2410.4,95.9234 Q2409.7875,95.9234 2409.275,96.1859 Q2408.775,96.4484 2408.375,97.0484 Q2407.9875,97.6484 2407.9875,98.4734 L2407.9875,99.3484 Q2407.9875,100.3359 2408.7,100.9984 Q2409.4125,101.6484 2410.6875,101.6484 Q2411.4375,101.6484 2411.9625,101.4484 Q2412.275,101.3234 2412.6125,100.9734 Q2412.825,100.7609 2412.9375,100.6984 Q2413.0625,100.6359 2413.225,100.6359 Q2413.4875,100.6359 2413.6875,100.8484 Q2413.9,101.0484 2413.9,101.3234 Q2413.9,101.5984 2413.625,101.9234 Q2413.225,102.3859 2412.5875,102.6484 Q2411.725,103.0109 2410.6875,103.0109 Q2409.475,103.0109 2408.5125,102.5109 Q2407.725,102.1109 2407.175,101.2609 Q2406.625,100.3984 2406.625,99.3734 L2406.625,98.4484 Q2406.625,97.3859 2407.1125,96.4734 Q2407.6125,95.5484 2408.4875,95.0609 Q2409.3625,94.5609 2410.35,94.5609 Q2410.9375,94.5609 2411.45,94.6984 Q2411.975,94.8234 2412.4125,95.1109 Z " fill="#000000"/><text fill="#000000" font-family="sans-serif" font-size="11.2" lengthAdjust="spacing" textLength="38.4" x="2426.6" y="103.0484">ItemList</text><line style="stroke:#181818;stroke-width:0.4000000000000001;" x1="2352.4" x2="2513.2" y1="111.2109" y2="111.2109"/><rect fill="none" height="4.8" style="stroke:#C82930;stroke-width:0.8000000000000002;" width="4.8" x="2358" y="120.6594"/><text fill="#000000" font-family="sans-serif" font-size="11.2" lengthAdjust="spacing" textLength="84" x="2367.6" y="126.4969">items: List&lt;Item&gt;</text><line style="stroke:#181818;stroke-width:0.4000000000000001;" x1="2352.4" x2="2513.2" y1="132.5078" y2="132.5078"/><ellipse cx="2360.4" cy="144.3563" fill="#84BE84" rx="2.4" ry="2.4" style="stroke:#038048;stroke-width:0.8000000000000002;"/><text fill="#000000" font-family="sans-serif" font-size="11.2" lengthAdjust="spacing" textLength="123.2" x="2367.6" y="147.7938">addItem(item: Item): void</text><ellipse cx="2360.4" cy="159.2531" fill="#84BE84" rx="2.4" ry="2.4" style="stroke:#038048;stroke-width:0.8000000000000002;"/><text fill="#000000" font-family="sans-serif" font-size="11.2" lengthAdjust="spacing" textLength="141.6" x="2367.6" y="162.6906">removeItem(item: Item): void</text><ellipse cx="2360.4" cy="174.15" fill="#84BE84" rx="2.4" ry="2.4" style="stroke:#038048;stroke-width:0.8000000000000002;"/><text fill="#000000" font-family="sans-serif" font-size="11.2" lengthAdjust="spacing" textLength="108" x="2367.6" y="177.5875">getItems(): List&lt;Item&gt;</text></g><!--class Exception--><g id="elem_Exception"><rect fill="#F1F1F1" height="38.4" id="Exception" rx="2" ry="2" style="stroke:#181818;stroke-width:0.4000000000000001;" width="74.4" x="3367.6" y="1246.8109"/><ellipse cx="3379.6" cy="1259.6109" fill="#ADD1B2" rx="8.8" ry="8.8" style="stroke:#181818;stroke-width:0.8000000000000002;"/><path d="M3381.8125,1256.3109 Q3381.9375,1256.1359 3382.0875,1256.0484 Q3382.2375,1255.9609 3382.4125,1255.9609 Q3382.7125,1255.9609 3382.9,1256.1734 Q3383.0875,1256.3734 3383.0875,1256.8609 L3383.0875,1258.0234 Q3383.0875,1258.5109 3382.9,1258.7234 Q3382.7125,1258.9359 3382.4125,1258.9359 Q3382.1375,1258.9359 3381.975,1258.7734 Q3381.8125,1258.6234 3381.725,1258.2109 Q3381.6875,1257.9234 3381.5375,1257.7734 Q3381.275,1257.4734 3380.7875,1257.2984 Q3380.3,1257.1234 3379.8,1257.1234 Q3379.1875,1257.1234 3378.675,1257.3859 Q3378.175,1257.6484 3377.775,1258.2484 Q3377.3875,1258.8484 3377.3875,1259.6734 L3377.3875,1260.5484 Q3377.3875,1261.5359 3378.1,1262.1984 Q3378.8125,1262.8484 3380.0875,1262.8484 Q3380.8375,1262.8484 3381.3625,1262.6484 Q3381.675,1262.5234 3382.0125,1262.1734 Q3382.225,1261.9609 3382.3375,1261.8984 Q3382.4625,1261.8359 3382.625,1261.8359 Q3382.8875,1261.8359 3383.0875,1262.0484 Q3383.3,1262.2484 3383.3,1262.5234 Q3383.3,1262.7984 3383.025,1263.1234 Q3382.625,1263.5859 3381.9875,1263.8484 Q3381.125,1264.2109 3380.0875,1264.2109 Q3378.875,1264.2109 3377.9125,1263.7109 Q3377.125,1263.3109 3376.575,1262.4609 Q3376.025,1261.5984 3376.025,1260.5734 L3376.025,1259.6484 Q3376.025,1258.5859 3376.5125,1257.6734 Q3377.0125,1256.7484 3377.8875,1256.2609 Q3378.7625,1255.7609 3379.75,1255.7609 Q3380.3375,1255.7609 3380.85,1255.8984 Q3381.375,1256.0234 3381.8125,1256.3109 Z " fill="#000000"/><text fill="#000000" font-family="sans-serif" font-size="11.2" lengthAdjust="spacing" textLength="48.8" x="3390.8" y="1264.2484">Exception</text><line style="stroke:#181818;stroke-width:0.4000000000000001;" x1="3368.4" x2="3441.2" y1="1272.4109" y2="1272.4109"/><line style="stroke:#181818;stroke-width:0.4000000000000001;" x1="3368.4" x2="3441.2" y1="1278.8109" y2="1278.8109"/></g><!--class JUnit--><g id="elem_JUnit"><rect fill="#F1F1F1" height="38.4" id="JUnit" rx="2" ry="2" style="stroke:#181818;stroke-width:0.4000000000000001;" width="49.6" x="3060.8" y="1489.6109"/><ellipse cx="3072.8" cy="1502.4109" fill="#ADD1B2" rx="8.8" ry="8.8" style="stroke:#181818;stroke-width:0.8000000000000002;"/><path d="M3075.0125,1499.1109 Q3075.1375,1498.9359 3075.2875,1498.8484 Q3075.4375,1498.7609 3075.6125,1498.7609 Q3075.9125,1498.7609 3076.1,1498.9734 Q3076.2875,1499.1734 3076.2875,1499.6609 L3076.2875,1500.8234 Q3076.2875,1501.3109 3076.1,1501.5234 Q3075.9125,1501.7359 3075.6125,1501.7359 Q3075.3375,1501.7359 3075.175,1501.5734 Q3075.0125,1501.4234 3074.925,1501.0109 Q3074.8875,1500.7234 3074.7375,1500.5734 Q3074.475,1500.2734 3073.9875,1500.0984 Q3073.5,1499.9234 3073,1499.9234 Q3072.3875,1499.9234 3071.875,1500.1859 Q3071.375,1500.4484 3070.975,1501.0484 Q3070.5875,1501.6484 3070.5875,1502.4734 L3070.5875,1503.3484 Q3070.5875,1504.3359 3071.3,1504.9984 Q3072.0125,1505.6484 3073.2875,1505.6484 Q3074.0375,1505.6484 3074.5625,1505.4484 Q3074.875,1505.3234 3075.2125,1504.9734 Q3075.425,1504.7609 3075.5375,1504.6984 Q3075.6625,1504.6359 3075.825,1504.6359 Q3076.0875,1504.6359 3076.2875,1504.8484 Q3076.5,1505.0484 3076.5,1505.3234 Q3076.5,1505.5984 3076.225,1505.9234 Q3075.825,1506.3859 3075.1875,1506.6484 Q3074.325,1507.0109 3073.2875,1507.0109 Q3072.075,1507.0109 3071.1125,1506.5109 Q3070.325,1506.1109 3069.775,1505.2609 Q3069.225,1504.3984 3069.225,1503.3734 L3069.225,1502.4484 Q3069.225,1501.3859 3069.7125,1500.4734 Q3070.2125,1499.5484 3071.0875,1499.0609 Q3071.9625,1498.5609 3072.95,1498.5609 Q3073.5375,1498.5609 3074.05,1498.6984 Q3074.575,1498.8234 3075.0125,1499.1109 Z " fill="#000000"/><text fill="#000000" font-family="sans-serif" font-size="11.2" lengthAdjust="spacing" textLength="24" x="3084" y="1507.0484">JUnit</text><line style="stroke:#181818;stroke-width:0.4000000000000001;" x1="3061.6" x2="3109.6" y1="1515.2109" y2="1515.2109"/><line style="stroke:#181818;stroke-width:0.4000000000000001;" x1="3061.6" x2="3109.6" y1="1521.6109" y2="1521.6109"/></g><!--reverse link Customer to Order--><g id="link_Customer_Order"><path codeLine="182" d="M1785.3481,633.5681 C1809.4281,654.2401 1826.856,669.2029 1851.184,690.0909 " fill="none" id="Customer-backto-Order" style="stroke:#181818;stroke-width:0.8000000000000002;"/><polygon fill="none" points="1778.064,627.3149,1779.6216,632.8696,1785.3481,633.5681,1783.7904,628.0135,1778.064,627.3149" style="stroke:#181818;stroke-width:0.8000000000000002;"/><text fill="#000000" font-family="sans-serif" font-size="10.4" lengthAdjust="spacing" textLength="32" x="1824.8" y="663.2336">Places</text></g><!--link StandardCustomer to Customer--><g id="link_StandardCustomer_Customer"><path codeLine="183" d="M1441.152,168.5789 C1455.736,198.3389 1471.9193,231.3521 1494.7593,277.9601 " fill="none" id="StandardCustomer-to-Customer" style="stroke:#181818;stroke-width:0.8000000000000002;"/><polygon fill="none" points="1501.096,290.8909,1499.0696,275.8479,1490.449,280.0723,1501.096,290.8909" style="stroke:#181818;stroke-width:0.8000000000000002;"/></g><!--link PremiumCustomer to Customer--><g id="link_PremiumCustomer_Customer"><path codeLine="184" d="M1050.936,190.9549 C1111.224,221.2429 1176.2688,253.9381 1253.7968,292.8901 " fill="none" id="PremiumCustomer-to-Customer" style="stroke:#181818;stroke-width:0.8000000000000002;"/><polygon fill="none" points="1266.664,299.3549,1255.9517,288.601,1251.6418,297.1792,1266.664,299.3549" style="stroke:#181818;stroke-width:0.8000000000000002;"/></g><!--link Order to Item--><g id="link_Order_Item"><path codeLine="185" d="M2106.968,1056.9389 C2111.928,1078.0109 2114.7358,1089.9465 2119.5598,1110.4345 " fill="none" id="Order-to-Item" style="stroke:#181818;stroke-width:0.8000000000000002;"/><polygon fill="none" points="2121.76,1119.7789,2123.7747,1114.3733,2119.5598,1110.4345,2117.5451,1115.8401,2121.76,1119.7789" style="stroke:#181818;stroke-width:0.8000000000000002;"/><text fill="#000000" font-family="sans-serif" font-size="10.4" lengthAdjust="spacing" textLength="40.8" x="2116.8" y="1092.8336">Contains</text></g><!--link Data to List--><g id="link_Data_List"><path codeLine="186" d="M450.4,228.0429 C450.4,271.1309 450.4,312.6269 450.4,355.7389 " fill="none" id="Data-to-List" style="stroke:#181818;stroke-width:0.8000000000000002;"/><polygon fill="#181818" points="450.4,365.3389,453.6,360.5389,450.4,355.7389,447.2,360.5389,450.4,365.3389" style="stroke:#181818;stroke-width:0.8000000000000002;"/><text fill="#000000" font-family="sans-serif" font-size="10.4" lengthAdjust="spacing" textLength="40.8" x="451.2" y="264.0336">Contains</text></g><!--link CustomerList to Customer--><g id="link_CustomerList_Customer"><path codeLine="187" d="M1774.392,191.1389 C1754.296,219.2349 1734.3528,247.1066 1708.5528,283.1786 " fill="none" id="CustomerList-to-Customer" style="stroke:#181818;stroke-width:0.8000000000000002;"/><polygon fill="#181818" points="1702.968,290.9869,1708.3632,288.9444,1708.5528,283.1786,1703.1576,285.2212,1702.968,290.9869" style="stroke:#181818;stroke-width:0.8000000000000002;"/><text fill="#000000" font-family="sans-serif" font-size="10.4" lengthAdjust="spacing" textLength="40.8" x="1727.2" y="264.0336">Contains</text></g><!--link OrderList to Order--><g id="link_OrderList_Order"><path codeLine="188" d="M2157.92,190.9549 C2143.488,295.7469 2113.0379,516.8207 2090.4539,680.7807 " fill="none" id="OrderList-to-Order" style="stroke:#181818;stroke-width:0.8000000000000002;"/><polygon fill="#181818" points="2089.144,690.2909,2092.969,685.9725,2090.4539,680.7807,2086.6289,685.0992,2089.144,690.2909" style="stroke:#181818;stroke-width:0.8000000000000002;"/><text fill="#000000" font-family="sans-serif" font-size="10.4" lengthAdjust="spacing" textLength="40.8" x="2144.8" y="463.6336">Contains</text></g><!--link ItemList to Item--><g id="link_ItemList_Item"><path codeLine="189" d="M2445.56,183.3069 C2480.64,325.7549 2566.416,754.3949 2417.6,1056.8109 C2406.384,1079.6029 2397.7464,1093.5234 2380.5464,1112.8274 " fill="none" id="ItemList-to-Item" style="stroke:#181818;stroke-width:0.8000000000000002;"/><polygon fill="#181818" points="2374.16,1119.9949,2379.7424,1118.5399,2380.5464,1112.8274,2374.964,1114.2824,2374.16,1119.9949" style="stroke:#181818;stroke-width:0.8000000000000002;"/><text fill="#000000" font-family="sans-serif" font-size="10.4" lengthAdjust="spacing" textLength="40.8" x="2503.2" y="663.2336">Contains</text></g><!--reverse link Model to Controller--><g id="link_Model_Controller"><path codeLine="192" d="M2567.8812,143.267 C2572.684,145.8337 2572.7,145.8422 2581.1651,150.366 C2598.0952,159.4135 2621.7864,172.0741 2649.9848,187.1433 C2706.3815,217.2817 2780.807,257.0544 2855.23,296.8259 C2929.653,336.5974 3004.0735,376.3677 3060.4603,406.5011 C3074.5569,414.0344 3087.5265,420.9654 3099.0872,427.1436 C3101.9774,428.6882 3104.7796,430.1857 3107.4892,431.6337 C3108.8441,432.3578 3110.1758,433.0695 3111.4839,433.7685 C3112.1379,434.118 3112.786,434.4644 3113.4281,434.8076 C3113.7492,434.9791 3114.0688,435.1499 3114.3868,435.3199 " fill="none" id="Model-backto-Controller" style="stroke:#181818;stroke-width:0.8000000000000002;"/><polygon fill="none" points="2559.4145,138.7422,2562.1396,143.8269,2567.8812,143.267,2565.1561,138.1824,2559.4145,138.7422" style="stroke:#181818;stroke-width:0.8000000000000002;"/><text fill="#000000" font-family="sans-serif" font-size="10.4" lengthAdjust="spacing" textLength="52.8" x="2784" y="264.0336">Aggregates</text></g><!--reverse link Controller to View--><g id="link_Controller_View"><path codeLine="193" d="M3352.6624,686.3017 C3354.5195,690.0479 3352.6995,686.6332 3354.4,690.4109 C3371.028,727.3509 3379.04,772.1149 3382.889,808.0519 C3382.9491,808.6135 3383.0083,809.1728 3383.0664,809.73 C3383.0955,810.0085 3383.1243,810.2865 3383.1528,810.564 " fill="none" id="Controller-backto-View" style="stroke:#181818;stroke-width:0.8000000000000002;"/><polygon fill="none" points="3348.3604,677.7195,3347.6507,683.4446,3352.6624,686.3017,3353.3721,680.5766,3348.3604,677.7195" style="stroke:#181818;stroke-width:0.8000000000000002;"/><text fill="#000000" font-family="sans-serif" font-size="10.4" lengthAdjust="spacing" textLength="52.8" x="3340" y="663.2336">Aggregates</text></g><!--link Controller to ExceptionHandler--><g id="link_Controller_ExceptionHandler"><path codeLine="194" d="M3157.56,460.0269 C3154.416,461.6029 2952.408,562.9149 2830.4,690.4109 C2783.736,739.1789 2747.2511,804.9499 2728.3151,842.4619 " fill="none" id="Controller-to-ExceptionHandler" style="stroke:#181818;stroke-width:0.8000000000000002;"/><polygon fill="#181818" points="2726.152,846.7469,2732.2533,841.7615,2727.9545,843.1761,2726.5399,838.8774,2726.152,846.7469" style="stroke:#181818;stroke-width:0.8000000000000002;"/><text fill="#000000" font-family="sans-serif" font-size="10.4" lengthAdjust="spacing" textLength="24" x="2869.6" y="663.2336">Uses</text></g><!--link Controller to TestController--><g id="link_Controller_TestController"><path codeLine="195" d="M3157.664,460.0989 C3160.384,463.7229 3247.52,580.6109 3273.6,690.4109 C3311.232,848.8509 3332.032,904.8109 3273.6,1056.8109 C3243.176,1135.9469 3171.0474,1200.8433 3125.5354,1236.1793 " fill="none" id="Controller-to-TestController" style="stroke:#181818;stroke-width:0.8000000000000002;"/><polygon fill="#181818" points="3121.744,1239.1229,3129.3936,1237.235,3124.9035,1236.6699,3125.4686,1232.1798,3121.744,1239.1229" style="stroke:#181818;stroke-width:0.8000000000000002;"/><text fill="#000000" font-family="sans-serif" font-size="10.4" lengthAdjust="spacing" textLength="24" x="3310.4" y="878.0336">Uses</text></g><!--reverse link ExceptionHandler to TestController--><g id="link_ExceptionHandler_TestController"><path codeLine="196" d="M2718.6804,914.7856 C2725.0724,959.4416 2741.56,1037.0669 2790.4,1096.0109 C2856.264,1175.4909 2969.76,1225.3069 3035.168,1248.9149 " fill="none" id="ExceptionHandler-backto-TestController" style="stroke:#181818;stroke-width:0.8000000000000002;"/><polygon fill="none" points="2716.64,900.5309,2713.9288,915.4658,2723.432,914.1055,2716.64,900.5309" style="stroke:#181818;stroke-width:0.8000000000000002;"/><text fill="#000000" font-family="sans-serif" font-size="10.4" lengthAdjust="spacing" textLength="53.6" x="2791.2" y="1092.8336">Implements</text></g><!--link ExceptionHandler to Exception--><g id="link_ExceptionHandler_Exception"><path codeLine="197" d="M2722.312,900.6989 C2737.328,941.5309 2772.208,1019.3869 2830.4,1056.8109 C2997.448,1164.2509 3097.312,1026.9869 3272.8,1120.0109 C3329.688,1150.1709 3372.0147,1210.8495 3391.5827,1242.6895 " fill="none" id="ExceptionHandler-to-Exception" style="stroke:#181818;stroke-width:0.8000000000000002;"/><polygon fill="#181818" points="3394.096,1246.7789,3393.0524,1238.9693,3392.0016,1243.3711,3387.5998,1242.3203,3394.096,1246.7789" style="stroke:#181818;stroke-width:0.8000000000000002;"/><text fill="#000000" font-family="sans-serif" font-size="10.4" lengthAdjust="spacing" textLength="32.8" x="3212.8" y="1092.8336">Throws</text></g><!--link TestController to JUnit--><g id="link_TestController_JUnit"><path codeLine="198" d="M3085.6,1292.8509 C3085.6,1341.9469 3085.6,1442.2509 3085.6,1484.7869 " fill="none" id="TestController-to-JUnit" style="stroke:#181818;stroke-width:0.8000000000000002;"/><polygon fill="#181818" points="3085.6,1489.5869,3088.8,1482.3869,3085.6,1485.5869,3082.4,1482.3869,3085.6,1489.5869" style="stroke:#181818;stroke-width:0.8000000000000002;"/><text fill="#000000" font-family="sans-serif" font-size="10.4" lengthAdjust="spacing" textLength="24" x="3086.4" y="1462.4336">Uses</text></g><!--SRC=[nLXBR-Cs4BxxLmYvrAcjvYui0cHZ5-kYZjFOAL0KFJ0Iwn2LA9MaDklkvh-N3qaSFgHrkeVc45YSRnxyXaCE-Tsp40tFhgwQ4b7HLkKFULrTvINYF2q8EZ9KpMODolz2HvnS_4hmoqNoUPR8Fur9ThGa5Ez5pN0tBly-Su44oL-JHOK8dIDsv5co5upGu-z_N6R9nveK6liwUmNMRsigM5sMcBa-xBXraQG54YXBLlB_CBQmoFbbTDGgnUNvy3C3RY-xO45CMqHbpBizZ2Y9Qrj7WnQCpWvEEVUWLVSZ6uOWZBLq3cdMeqRbjkMYhZ3ZOu2DmDMeSCSANzLXPVqfnuqWDVs0QE7cQ_6iXmR477_AB7xKuW5p4St_GavI2Vreu8BQrWKktRMaKWzpblTy_4ouaBHtd-hBWcezROFG5BXYeYWpKiMU8rmeXp3T-dl2wpA9Ubic4I- -sUZgFcBX93qwHOMooGtdgEJ3oWWdAMfJtKfgVi5C3lbGIlm2qD_LDuW82DtyP8aIl-knrmviWOgYbmpasgdwgzci7rpL7_5RjNmsfuBwavG2im7-_dGuDNWkv3_hH0sDc-a81DjjdncV9xDeEaCQ5JAaX-SQsULuWfWpmSww6NLkc330zwTfpcD60Xxw9UZJe8kaiw4m8GbgTAvWPXrFC70E4fP5nEahB0Fqn0L3kV1MFToDAAgmKq5wL4RDCEUXW1JX69P7RXaELxXwakG_a-P7B5qKTVjKud0RF0IB4noJVTfWbCl4YqvkL8NzxKIpJA9HB9Dnx-u-TYSTUrkC5l5E10CBJZ2fVsD27J7HIxq9nGnjYX4RKc2d7zDSAq96b8tCeIncOWj9LAQyP2fJBYPAUymqf1wU5Uv2u1vm8ds-Z-c3mXJ6NiXE0R4YKY0BN_QVr-BbssAwbri2QQjOpIfQ6wcq8ZolMoh2V7ZAtr0_OxxSCjbxg94r4i16hRyjYzu-ftP4f-EIJLcuFnMOvupeNZ0KSbpAMyRndf4yidVrOT_MF2G_RHXk44FAy85KU4jeAx1acr3Gl-Yj7WQsJ281IVuZWTYim02MoOHZhpkJVaTs12s2SSMATcKZ7J434P5vnOpkmKp7rW-4n9Y9sWLSVMLTQaYCsvZT-oZRoeEJQ3wAd4hNDwr_tSh00j0zrLshjcGtkZJiXznBXcb4xDZVhRop4t5wf4HuIzfuaLS1h6QZBmNwrniB0tI1869xOjj8pGN5HBXCmiYwUqqOqHigPMVZY6KMYlsGfquxUD95JxapBWTz9zZVZzokOBgJLBg_GC9YatC18Rynepl8k38Qh8A1jW4ragN_lUPoLEPjAQFHuOxkIuJV8fhZ4ibH9N-gwn8ZUcxjOjfMJWS32dT_kBbRtJoiXe7xX_LsyxWDzDLSL6A0xkhcj_tmyM7t-62_jfkxnyFQVk_NjxkxrJxiGVJzud0Djv9IFmVSC8PEdTHEL0tClSQ0_8E3zCZ-OowD70B62rnYWUCorKoBULDpOWuIax43I9TadONFI8IlgqQSefbHDlkPA41yMjFv6ngqEasxdJTBxakKOwxbGM-Pfb-ktUBtMxqGOUocQMrw6_DOXmWrBlGBKvf-h_Fb2vsd3WKQt7X0Uz5Ng7uc3cIu0ok47udaGxz-PPcEHz5Xdz6o33ofIQAFHuQFihJuR0IZrDNRRvR1zzvpDDEYVg7fTVWoc2MF_EjgtlDVfnGOU_T51XXWDrLJuWfJ4T48ufBumpEhN_ZCizCZVz8bRIBu5m00]--></g></svg>